<?xml version="1.0" encoding="UTF-8" standalone="no"?>
<!-- Created with Inkscape (http://www.inkscape.org/) -->

<svg
   version="1.1"
   id="svg1"
   width="361.82932"
   height="273.72"
   viewBox="0 0 361.82932 273.72"
   xmlns="http://www.w3.org/2000/svg"
   xmlns:svg="http://www.w3.org/2000/svg">
  <defs
     id="defs1" />
  <g
     id="g1">
    <path
       id="path1"
       d="M 22.67754,0 C 22.67754,12.5246 12.5246,22.67754 0,22.67754 -12.5246,22.67754 -22.67754,12.5246 -22.67754,0 c 0,-12.5246 10.15294,-22.67754 22.67754,-22.67754 12.5246,0 22.67754,10.15294 22.67754,22.67754 z"
       style="fill:#ffc266;fill-opacity:1;fill-rule:nonzero;stroke:#000000;stroke-width:0.3985;stroke-linecap:butt;stroke-linejoin:miter;stroke-miterlimit:10;stroke-dasharray:none;stroke-opacity:1"
       transform="matrix(1.3333333,0,0,-1.3333333,34.929333,30.501333)" />
    <g
       id="g2"
       aria-label="x&#10;1"
       transform="matrix(1.3333333,0,0,1.3333333,25.954667,33.185333)">
      <path
         id="path2"
         d="m 6.7957188,-5.8489609 c -0.4570313,0.082031 -0.6328125,0.421875 -0.6328125,0.703125 0,0.3398437 0.28125,0.4570312 0.4804687,0.4570312 0.421875,0 0.7265625,-0.375 0.7265625,-0.7617187 0,-0.609375 -0.6914062,-0.8789063 -1.2890625,-0.8789063 -0.8789062,0 -1.359375,0.8671875 -1.4882812,1.1367188 -0.328125,-1.078125 -1.21875,-1.1367188 -1.4765625,-1.1367188 -1.4648438,0 -2.2382813,1.8867188 -2.2382813,2.1914063 0,0.058594 0.0585938,0.140625 0.1523438,0.140625 0.1171875,0 0.140625,-0.09375 0.1757812,-0.1523438 0.4804688,-1.59375 1.4414063,-1.8867187 1.8632813,-1.8867187 0.6445312,0 0.7734375,0.5976562 0.7734375,0.9375 0,0.3164062 -0.082031,0.65625 -0.2578125,1.3359375 l -0.4921875,1.96875 C 2.8816563,-0.93880469 2.4715,-0.14192969 1.7097813,-0.14192969 c -0.070312,0 -0.4335938,0 -0.7382813,-0.1875 0.515625,-0.10546875 0.6328125,-0.52734375 0.6328125,-0.70312501 0,-0.2929687 -0.2109375,-0.4570312 -0.4921875,-0.4570312 -0.33984375,0 -0.71484375,0.2929687 -0.71484375,0.76171871 0,0.59765625 0.67968755,0.8671875 1.28906255,0.8671875 0.6914062,0 1.1835937,-0.5390625 1.4882812,-1.125 0.2226563,0.84375 0.9375,1.125 1.4765625,1.125 1.453125,0 2.2382813,-1.87500001 2.2382813,-2.19140621 0,-0.070312 -0.058594,-0.1289063 -0.1523438,-0.1289063 -0.1289062,0 -0.140625,0.070312 -0.1875,0.1875 -0.3867187,1.26562501 -1.21875,1.85156251 -1.8632812,1.85156251 -0.5039063,0 -0.7734375,-0.375 -0.7734375,-0.96093751 0,-0.3164062 0.058594,-0.5507812 0.2929687,-1.5 l 0.4921875,-1.9453125 c 0.2226563,-0.8554687 0.703125,-1.4882812 1.3710938,-1.4882812 0.023437,0 0.421875,0 0.7265625,0.1875 z m 0,0"
         style="fill:#000000;fill-opacity:1;fill-rule:nonzero;stroke:none" />
      <path
         id="path3"
         d="m 10.91193,-4.2229844 c 0,-0.234375 0,-0.2578125 -0.234375,-0.2578125 -0.609375,0.6328125 -1.4882816,0.6328125 -1.8046878,0.6328125 v 0.3164063 c 0.1992187,0 0.7851562,0 1.3007808,-0.2578125 v 5.15625 c 0,0.3515625 -0.03516,0.4804687 -0.9257808,0.4804687 H 8.9314609 v 0.3046875 c 0.3515625,-0.035156 1.2070311,-0.035156 1.6054691,-0.035156 0.398437,0 1.265625,0 1.617187,0.035156 V 1.8473281 h -0.316406 c -0.902344,0 -0.925781,-0.1171875 -0.925781,-0.4804687 z m 0,0"
         style="fill:#000000;fill-opacity:1;fill-rule:nonzero;stroke:none" />
    </g>
    <path
       id="path4"
       d="m 96.77791,0 c 0,12.5246 -10.15293,22.67754 -22.67754,22.67754 C 61.57578,22.67754 51.42284,12.5246 51.42284,0 c 0,-12.5246 10.15294,-22.67754 22.67753,-22.67754 12.52461,0 22.67754,10.15294 22.67754,22.67754 z"
       style="fill:#ffc266;fill-opacity:1;fill-rule:nonzero;stroke:#000000;stroke-width:0.3985;stroke-linecap:butt;stroke-linejoin:miter;stroke-miterlimit:10;stroke-dasharray:none;stroke-opacity:1"
       transform="matrix(1.3333333,0,0,-1.3333333,34.929333,30.501333)" />
    <g
       id="g4"
       aria-label="x&#10;2"
       transform="matrix(1.3333333,0,0,1.3333333,124.75467,33.185333)">
      <path
         id="path5"
         d="m 6.7963047,-5.8489609 c -0.4570313,0.082031 -0.6328125,0.421875 -0.6328125,0.703125 0,0.3398437 0.28125,0.4570312 0.4804687,0.4570312 0.421875,0 0.7265625,-0.375 0.7265625,-0.7617187 0,-0.609375 -0.6914062,-0.8789063 -1.2890625,-0.8789063 -0.8789062,0 -1.359375,0.8671875 -1.4882812,1.1367188 -0.328125,-1.078125 -1.21875,-1.1367188 -1.4765625,-1.1367188 -1.4648438,0 -2.23828126,1.8867188 -2.23828126,2.1914063 0,0.058594 0.0585938,0.140625 0.15234376,0.140625 0.1171875,0 0.140625,-0.09375 0.1757812,-0.1523438 0.4804688,-1.59375 1.4414063,-1.8867187 1.8632813,-1.8867187 0.6445312,0 0.7734375,0.5976562 0.7734375,0.9375 0,0.3164062 -0.082031,0.65625 -0.2578125,1.3359375 l -0.4921875,1.96875 c -0.2109375,0.85546871 -0.6210938,1.65234371 -1.3828125,1.65234371 -0.070312,0 -0.4335938,0 -0.73828126,-0.1875 0.51562496,-0.10546875 0.63281246,-0.52734375 0.63281246,-0.70312501 0,-0.2929687 -0.2109375,-0.4570312 -0.4921875,-0.4570312 -0.33984371,0 -0.71484371,0.2929687 -0.71484371,0.76171871 0,0.59765625 0.67968751,0.8671875 1.28906251,0.8671875 0.6914062,0 1.1835937,-0.5390625 1.4882812,-1.125 0.2226563,0.84375 0.9375,1.125 1.4765625,1.125 1.453125,0 2.2382813,-1.87500001 2.2382813,-2.19140621 0,-0.070312 -0.058594,-0.1289063 -0.1523438,-0.1289063 -0.1289062,0 -0.140625,0.070312 -0.1875,0.1875 -0.3867187,1.26562501 -1.21875,1.85156251 -1.8632812,1.85156251 -0.5039063,0 -0.7734375,-0.375 -0.7734375,-0.96093751 0,-0.3164062 0.058594,-0.5507812 0.2929687,-1.5 l 0.4921875,-1.9453125 c 0.2226563,-0.8554687 0.703125,-1.4882812 1.3710938,-1.4882812 0.023437,0 0.421875,0 0.7265625,0.1875 z m 0,0"
         style="fill:#000000;fill-opacity:1;fill-rule:nonzero;stroke:none" />
      <path
         id="path6"
         d="M 9.2484531,1.3902969 10.303141,0.35904687 c 1.558593,-1.37109377 2.15625,-1.91015627 2.15625,-2.90624997 0,-1.1367188 -0.902344,-1.9335938 -2.121094,-1.9335938 -1.1250001,0 -1.8515626,0.9140625 -1.8515626,1.8046875 0,0.5507813 0.4921875,0.5507813 0.5273437,0.5507813 0.1640625,0 0.515625,-0.1171875 0.515625,-0.5273438 0,-0.2578125 -0.1875,-0.515625 -0.5273437,-0.515625 -0.082031,0 -0.1054688,0 -0.1289063,0.011719 0.2226563,-0.6445313 0.7617188,-1.0195313 1.3359379,-1.0195313 0.914062,0 1.335937,0.8085938 1.335937,1.6289063 0,0.796875 -0.492187,1.58203122 -1.042969,2.20312497 L 8.5922031,1.7887344 C 8.4867344,1.8942031 8.4867344,1.9176406 8.4867344,2.1520156 h 3.6914066 l 0.28125,-1.73437498 h -0.257813 c -0.04687,0.3046875 -0.117187,0.73828128 -0.210937,0.89062498 -0.07031,0.082031 -0.726563,0.082031 -0.949219,0.082031 z m 0,0"
         style="fill:#000000;fill-opacity:1;fill-rule:nonzero;stroke:none" />
    </g>
    <path
       id="path7"
       d="m 170.8783,0 c 0,12.5246 -10.15293,22.67754 -22.67754,22.67754 -12.5246,0 -22.67754,-10.15294 -22.67754,-22.67754 0,-12.5246 10.15294,-22.67754 22.67754,-22.67754 12.52461,0 22.67754,10.15294 22.67754,22.67754 z"
       style="fill:#ffc266;fill-opacity:1;fill-rule:nonzero;stroke:#000000;stroke-width:0.3985;stroke-linecap:butt;stroke-linejoin:miter;stroke-miterlimit:10;stroke-dasharray:none;stroke-opacity:1"
       transform="matrix(1.3333333,0,0,-1.3333333,34.929333,30.501333)" />
    <path
       id="path8"
       d="m 2.6357109,-0.70192969 c 0,-0.38671871 -0.328125,-0.69140621 -0.6914062,-0.69140621 -0.4101563,0 -0.703125,0.328125 -0.703125,0.69140621 0,0.43359375 0.3632812,0.703125 0.6914062,0.703125 0.3867188,0 0.703125,-0.3046875 0.703125,-0.703125 z m 3.9023438,0 c 0,-0.38671871 -0.328125,-0.69140621 -0.6914063,-0.69140621 -0.4101562,0 -0.703125,0.328125 -0.703125,0.69140621 0,0.43359375 0.3632813,0.703125 0.6914063,0.703125 0.3867187,0 0.703125,-0.3046875 0.703125,-0.703125 z m 3.9023433,0 c 0,-0.38671871 -0.328125,-0.69140621 -0.6914058,-0.69140621 -0.4101563,0 -0.703125,0.328125 -0.703125,0.69140621 0,0.43359375 0.3632812,0.703125 0.6914062,0.703125 0.3867186,0 0.7031246,-0.3046875 0.7031246,-0.703125 z m 0,0"
       style="fill:#000000;fill-opacity:1;fill-rule:nonzero;stroke:none"
       aria-label="..."
       transform="matrix(1.3333333,0,0,1.3333333,224.724,31.432)" />
    <path
       id="path9"
       d="m 244.97868,0 c 0,12.5246 -10.15292,22.67754 -22.67753,22.67754 -12.5246,0 -22.67754,-10.15294 -22.67754,-22.67754 0,-12.5246 10.15294,-22.67754 22.67754,-22.67754 12.52461,0 22.67753,10.15294 22.67753,22.67754 z"
       style="fill:#ffc266;fill-opacity:1;fill-rule:nonzero;stroke:#000000;stroke-width:0.3985;stroke-linecap:butt;stroke-linejoin:miter;stroke-miterlimit:10;stroke-dasharray:none;stroke-opacity:1"
       transform="matrix(1.3333333,0,0,-1.3333333,34.929333,30.501333)" />
    <g
       id="g9"
       aria-label="x&#10;p"
       transform="matrix(1.3333333,0,0,1.3333333,322.332,31.893333)">
      <path
         id="path10"
         d="m 6.7968984,-5.8467578 c -0.4570312,0.082031 -0.6328125,0.421875 -0.6328125,0.703125 0,0.3398437 0.28125,0.4570312 0.4804688,0.4570312 0.421875,0 0.7265625,-0.375 0.7265625,-0.7617187 0,-0.609375 -0.6914063,-0.8789063 -1.2890625,-0.8789063 -0.8789063,0 -1.359375,0.8671875 -1.4882813,1.1367188 -0.328125,-1.078125 -1.21875,-1.1367188 -1.4765625,-1.1367188 -1.4648437,0 -2.23828121,1.8867188 -2.23828121,2.1914063 0,0.058594 0.0585938,0.140625 0.15234371,0.140625 0.1171875,0 0.140625,-0.09375 0.1757813,-0.1523438 0.4804687,-1.59375 1.4414062,-1.8867187 1.8632812,-1.8867187 0.6445313,0 0.7734375,0.5976562 0.7734375,0.9375 0,0.3164062 -0.082031,0.65625 -0.2578125,1.3359375 l -0.4921875,1.96875 c -0.2109375,0.85546874 -0.6210937,1.65234374 -1.3828125,1.65234374 -0.070312,0 -0.4335937,0 -0.73828121,-0.1875 0.51562501,-0.10546875 0.63281251,-0.52734375 0.63281251,-0.70312504 0,-0.2929687 -0.2109375,-0.4570312 -0.4921875,-0.4570312 -0.33984376,0 -0.71484376,0.2929687 -0.71484376,0.76171874 0,0.59765625 0.67968746,0.8671875 1.28906246,0.8671875 0.6914063,0 1.1835938,-0.5390625 1.4882813,-1.125 0.2226562,0.84375 0.9375,1.125 1.4765625,1.125 1.453125,0 2.2382812,-1.87500004 2.2382812,-2.19140624 0,-0.070312 -0.058594,-0.1289063 -0.1523437,-0.1289063 -0.1289063,0 -0.140625,0.070312 -0.1875,0.1875 -0.3867188,1.26562504 -1.21875,1.85156254 -1.8632813,1.85156254 -0.5039062,0 -0.7734375,-0.375 -0.7734375,-0.96093754 0,-0.3164062 0.058594,-0.5507812 0.2929688,-1.5 l 0.4921875,-1.9453125 c 0.2226562,-0.8554687 0.703125,-1.4882812 1.3710937,-1.4882812 0.023437,0 0.421875,0 0.7265625,0.1875 z m 0,0"
         style="fill:#000000;fill-opacity:1;fill-rule:nonzero;stroke:none" />
      <path
         id="path11"
         d="m 8.4287344,3.3700391 c -0.082031,0.3398437 -0.09375,0.4101562 -0.5390625,0.4101562 -0.1171875,0 -0.2226563,0 -0.2226563,0.1875 0,0.082031 0.046875,0.1171875 0.1289063,0.1171875 0.2695312,0 0.5507812,-0.035156 0.8320312,-0.035156 0.328125,0 0.6679688,0.035156 0.984375,0.035156 0.058594,0 0.1875,0 0.1875,-0.1992187 0,-0.1054688 -0.1054687,-0.1054688 -0.2460937,-0.1054688 -0.4921875,0 -0.4921875,-0.070312 -0.4921875,-0.1640625 0,-0.1171875 0.421875,-1.7460937 0.4804687,-1.9921875 0.140625,0.2929688 0.4101563,0.6328125 0.9257814,0.6328125 1.148437,0 2.402344,-1.45312499 2.402344,-2.91796874 0,-0.93749996 -0.574219,-1.59374996 -1.335938,-1.59374996 -0.492187,0 -0.972656,0.3632812 -1.300781,0.75 -0.09375,-0.5390625 -0.5273439,-0.75 -0.8906251,-0.75 -0.4570313,0 -0.65625,0.3867187 -0.7382813,0.5742187 -0.1875,0.3398438 -0.3164062,0.93750001 -0.3164062,0.96093751 0,0.10546875 0.1054687,0.10546875 0.1289062,0.10546875 0.09375,0 0.1054688,-0.0117188 0.1640625,-0.234375 0.1640625,-0.70312496 0.3632813,-1.18359376 0.7265625,-1.18359376 0.1757813,0 0.3046875,0.082031 0.3046875,0.4570313 0,0.234375 -0.023437,0.3398437 -0.070312,0.5039062 z m 1.7578126,-4.32421879 c 0.07031,-0.26953121 0.339844,-0.55078121 0.515625,-0.70312501 0.351562,-0.3046875 0.632812,-0.375 0.808594,-0.375 0.398437,0 0.632812,0.3515625 0.632812,0.9375 0,0.58593751 -0.328125,1.73437501 -0.503906,2.109375 -0.339844,0.703125 -0.820313,1.03125 -1.183594,1.03125 -0.6562499,0 -0.7851561,-0.8320312 -0.7851561,-0.890625 0,-0.023437 0,-0.035156 0.023437,-0.16406249 z m 0,0"
         style="fill:#000000;fill-opacity:1;fill-rule:nonzero;stroke:none" />
    </g>
    <path
       id="path12"
       d="m -22.67754,-93.94305 h 45.35507 v 28.34679 h -45.35507 z"
       style="fill:#70c1fa;fill-opacity:1;fill-rule:nonzero;stroke:#000000;stroke-width:0.3985;stroke-linecap:butt;stroke-linejoin:miter;stroke-miterlimit:10;stroke-dasharray:none;stroke-opacity:1"
       transform="matrix(1.3333333,0,0,-1.3333333,34.929333,30.501333)" />
    <g
       id="g12"
       aria-label="z&#10;1"
       transform="matrix(1.3333333,0,0,1.3333333,26.926667,139.54267)">
      <path
         id="path13"
         d="m 1.8157422,-1.1599297 c 0.6210937,-0.703125 1.125,-1.1484375 1.8398437,-1.7929687 0.8671875,-0.75 1.2304688,-1.1015625 1.4414063,-1.3242188 0.9960937,-0.984375 1.5,-1.8164062 1.5,-1.9335937 0,-0.1171875 -0.1171875,-0.1171875 -0.140625,-0.1171875 -0.1054688,0 -0.1289063,0.058594 -0.1992188,0.1640625 -0.3632812,0.609375 -0.703125,0.9140625 -1.078125,0.9140625 -0.3046875,0 -0.4570312,-0.1289063 -0.7382812,-0.46875 -0.2929688,-0.3632813 -0.5390625,-0.609375 -0.9609375,-0.609375 -1.0429688,0 -1.6757813,1.3125 -1.6757813,1.6054687 0,0.046875 0.011719,0.1289063 0.140625,0.1289063 0.1171875,0 0.1289063,-0.058594 0.1757813,-0.1523438 0.2460937,-0.5742187 0.9375,-0.6796875 1.2070312,-0.6796875 0.3046875,0 0.5859375,0.1054688 0.890625,0.234375 0.5390625,0.2226563 0.7734375,0.2226563 0.9140625,0.2226563 0.1054688,0 0.1640625,0 0.234375,-0.011719 -0.4804687,0.5625 -1.2539062,1.2539063 -1.8984375,1.8398438 l -1.4414062,1.3359375 c -0.8789063,0.89062496 -1.40625001,1.73437496 -1.40625001,1.82812496 0,0.09375 0.0703125,0.1171875 0.15234375,0.1171875 0.0820313,0 0.10546875,-0.0117188 0.19921875,-0.1875 0.23437501,-0.3515625 0.69140621,-0.890625 1.21875001,-0.890625 0.3046875,0 0.4453125,0.10546875 0.7382812,0.46875 0.2695313,0.31640625 0.515625,0.609375 0.9726563,0.609375 1.40625,0 2.203125,-1.81640626 2.203125,-2.14453126 0,-0.058594 -0.011719,-0.1523437 -0.1523438,-0.1523437 -0.1171875,0 -0.1289062,0.058594 -0.1757812,0.2109375 -0.3164063,0.84375 -1.1601563,1.18359371 -1.7226563,1.18359371 -0.2929687,0 -0.5859375,-0.09375 -0.8789062,-0.22265625 C 2.6008984,-1.2185234 2.4368359,-1.2185234 2.2493359,-1.2185234 c -0.140625,0 -0.3046875,0 -0.4335937,0.058594 z m 0,0"
         style="fill:#000000;fill-opacity:1;fill-rule:nonzero;stroke:none" />
      <path
         id="path14"
         d="m 9.4534375,-4.2243828 c 0,-0.234375 0,-0.2578125 -0.234375,-0.2578125 -0.609375,0.6328125 -1.4882813,0.6328125 -1.8046875,0.6328125 v 0.3164062 c 0.1992187,0 0.7851563,0 1.3007813,-0.2578125 v 5.15625 c 0,0.3515625 -0.035156,0.4804688 -0.9257813,0.4804688 H 7.4729687 V 2.1506172 C 7.8245312,2.1154609 8.68,2.1154609 9.0784375,2.1154609 c 0.3984375,0 1.2656255,0 1.6171875,0.035156 V 1.8459297 h -0.316406 c -0.902344,0 -0.9257815,-0.1171875 -0.9257815,-0.4804688 z m 0,0"
         style="fill:#000000;fill-opacity:1;fill-rule:nonzero;stroke:none" />
    </g>
    <path
       id="path15"
       d="m 51.42284,-93.94305 h 45.35507 v 28.34679 H 51.42284 Z"
       style="fill:#70c1fa;fill-opacity:1;fill-rule:nonzero;stroke:#000000;stroke-width:0.3985;stroke-linecap:butt;stroke-linejoin:miter;stroke-miterlimit:10;stroke-dasharray:none;stroke-opacity:1"
       transform="matrix(1.3333333,0,0,-1.3333333,34.929333,30.501333)" />
    <g
       id="g15"
       aria-label="z&#10;2"
       transform="matrix(1.3333333,0,0,1.3333333,125.72533,139.54267)">
      <path
         id="path16"
         d="m 1.8173281,-1.1599297 c 0.6210938,-0.703125 1.125,-1.1484375 1.8398438,-1.7929687 0.8671875,-0.75 1.2304687,-1.1015625 1.4414062,-1.3242188 0.9960938,-0.984375 1.5,-1.8164062 1.5,-1.9335937 0,-0.1171875 -0.1171875,-0.1171875 -0.140625,-0.1171875 -0.1054687,0 -0.1289062,0.058594 -0.1992187,0.1640625 -0.3632813,0.609375 -0.703125,0.9140625 -1.078125,0.9140625 -0.3046875,0 -0.4570313,-0.1289063 -0.7382813,-0.46875 -0.2929687,-0.3632813 -0.5390625,-0.609375 -0.9609375,-0.609375 -1.0429687,0 -1.6757812,1.3125 -1.6757812,1.6054687 0,0.046875 0.011719,0.1289063 0.140625,0.1289063 0.1171875,0 0.1289062,-0.058594 0.1757812,-0.1523438 0.2460938,-0.5742187 0.9375,-0.6796875 1.2070313,-0.6796875 0.3046875,0 0.5859375,0.1054688 0.890625,0.234375 0.5390625,0.2226563 0.7734375,0.2226563 0.9140625,0.2226563 0.1054687,0 0.1640625,0 0.234375,-0.011719 -0.4804688,0.5625 -1.2539063,1.2539063 -1.8984375,1.8398438 l -1.4414063,1.3359375 c -0.8789062,0.89062496 -1.40624998,1.73437496 -1.40624998,1.82812496 0,0.09375 0.0703125,0.1171875 0.15234375,0.1171875 0.0820313,0 0.10546875,-0.0117188 0.19921875,-0.1875 0.23437498,-0.3515625 0.69140628,-0.890625 1.21874998,-0.890625 0.3046875,0 0.4453125,0.10546875 0.7382813,0.46875 0.2695312,0.31640625 0.515625,0.609375 0.9726562,0.609375 1.40625,0 2.203125,-1.81640626 2.203125,-2.14453126 0,-0.058594 -0.011719,-0.1523437 -0.1523437,-0.1523437 -0.1171875,0 -0.1289063,0.058594 -0.1757813,0.2109375 -0.3164062,0.84375 -1.1601562,1.18359371 -1.7226562,1.18359371 -0.2929688,0 -0.5859375,-0.09375 -0.8789063,-0.22265625 C 2.6024844,-1.2185234 2.4384219,-1.2185234 2.2509219,-1.2185234 c -0.140625,0 -0.3046875,0 -0.4335938,0.058594 z m 0,0"
         style="fill:#000000;fill-opacity:1;fill-rule:nonzero;stroke:none" />
      <path
         id="path17"
         d="M 7.7909609,1.3888984 8.8456484,0.35764844 C 10.404242,-1.0134453 11.001898,-1.5525078 11.001898,-2.5486016 c 0,-1.1367187 -0.902343,-1.9335937 -2.1210933,-1.9335937 -1.125,0 -1.8515625,0.9140625 -1.8515625,1.8046875 0,0.5507812 0.4921875,0.5507812 0.5273437,0.5507812 0.1640625,0 0.515625,-0.1171875 0.515625,-0.5273437 0,-0.2578125 -0.1875,-0.515625 -0.5273437,-0.515625 -0.082031,0 -0.1054688,0 -0.1289063,0.011719 0.2226563,-0.6445312 0.7617188,-1.0195312 1.3359375,-1.0195312 0.9140625,0 1.3359376,0.8085937 1.3359376,1.6289062 0,0.796875 -0.4921876,1.58203129 -1.0429688,2.20312504 L 7.1347109,1.7873359 C 7.0292422,1.8928047 7.0292422,1.9162422 7.0292422,2.1506172 h 3.6914058 l 0.28125,-1.73437501 h -0.257812 c -0.04687,0.3046875 -0.117188,0.73828121 -0.210938,0.89062501 -0.07031,0.082031 -0.7265621,0.082031 -0.9492183,0.082031 z m 0,0"
         style="fill:#000000;fill-opacity:1;fill-rule:nonzero;stroke:none" />
    </g>
    <path
       id="path18"
       d="m 125.52322,-93.94305 h 45.35507 v 28.34679 h -45.35507 z"
       style="fill:#70c1fa;fill-opacity:1;fill-rule:nonzero;stroke:#000000;stroke-width:0.3985;stroke-linecap:butt;stroke-linejoin:miter;stroke-miterlimit:10;stroke-dasharray:none;stroke-opacity:1"
       transform="matrix(1.3333333,0,0,-1.3333333,34.929333,30.501333)" />
    <path
       id="path19"
       d="m 2.6357109,-0.70332813 c 0,-0.38671877 -0.328125,-0.69140627 -0.6914062,-0.69140627 -0.4101563,0 -0.703125,0.328125 -0.703125,0.69140627 0,0.43359375 0.3632812,0.703125005 0.6914062,0.703125005 0.3867188,0 0.703125,-0.304687505 0.703125,-0.703125005 z m 3.9023438,0 c 0,-0.38671877 -0.328125,-0.69140627 -0.6914063,-0.69140627 -0.4101562,0 -0.703125,0.328125 -0.703125,0.69140627 0,0.43359375 0.3632813,0.703125005 0.6914063,0.703125005 0.3867187,0 0.703125,-0.304687505 0.703125,-0.703125005 z m 3.9023433,0 c 0,-0.38671877 -0.328125,-0.69140627 -0.6914058,-0.69140627 -0.4101563,0 -0.703125,0.328125 -0.703125,0.69140627 0,0.43359375 0.3632812,0.703125005 0.6914062,0.703125005 0.3867186,0 0.7031246,-0.304687505 0.7031246,-0.703125005 z m 0,0"
       style="fill:#000000;fill-opacity:1;fill-rule:nonzero;stroke:none"
       aria-label="..."
       transform="matrix(1.3333333,0,0,1.3333333,224.724,137.78933)" />
    <path
       id="path20"
       d="m 199.62361,-93.94305 h 45.35507 v 28.34679 h -45.35507 z"
       style="fill:#70c1fa;fill-opacity:1;fill-rule:nonzero;stroke:#000000;stroke-width:0.3985;stroke-linecap:butt;stroke-linejoin:miter;stroke-miterlimit:10;stroke-dasharray:none;stroke-opacity:1"
       transform="matrix(1.3333333,0,0,-1.3333333,34.929333,30.501333)" />
    <g
       id="g20"
       aria-label="z&#10;M"
       transform="matrix(1.3333333,0,0,1.3333333,319.47733,139.54267)">
      <path
         id="path21"
         d="m 1.8158281,-1.1599297 c 0.6210938,-0.703125 1.125,-1.1484375 1.8398438,-1.7929687 0.8671875,-0.75 1.2304687,-1.1015625 1.4414062,-1.3242188 0.9960938,-0.984375 1.5,-1.8164062 1.5,-1.9335937 0,-0.1171875 -0.1171875,-0.1171875 -0.140625,-0.1171875 -0.1054687,0 -0.1289062,0.058594 -0.1992187,0.1640625 -0.3632813,0.609375 -0.703125,0.9140625 -1.078125,0.9140625 -0.3046875,0 -0.4570313,-0.1289063 -0.7382813,-0.46875 -0.2929687,-0.3632813 -0.5390625,-0.609375 -0.9609375,-0.609375 -1.0429687,0 -1.6757812,1.3125 -1.6757812,1.6054687 0,0.046875 0.011719,0.1289063 0.140625,0.1289063 0.1171875,0 0.1289062,-0.058594 0.1757812,-0.1523438 0.2460938,-0.5742187 0.9375,-0.6796875 1.2070313,-0.6796875 0.3046875,0 0.5859375,0.1054688 0.890625,0.234375 0.5390625,0.2226563 0.7734375,0.2226563 0.9140625,0.2226563 0.1054687,0 0.1640625,0 0.234375,-0.011719 -0.4804688,0.5625 -1.2539063,1.2539063 -1.8984375,1.8398438 l -1.4414063,1.3359375 c -0.8789062,0.89062496 -1.40624998,1.73437496 -1.40624998,1.82812496 0,0.09375 0.0703125,0.1171875 0.15234375,0.1171875 0.0820313,0 0.10546875,-0.0117188 0.19921875,-0.1875 0.23437498,-0.3515625 0.69140628,-0.890625 1.21874998,-0.890625 0.3046875,0 0.4453125,0.10546875 0.7382813,0.46875 0.2695312,0.31640625 0.515625,0.609375 0.9726562,0.609375 1.40625,0 2.203125,-1.81640626 2.203125,-2.14453126 0,-0.058594 -0.011719,-0.1523437 -0.1523437,-0.1523437 -0.1171875,0 -0.1289063,0.058594 -0.1757813,0.2109375 -0.3164062,0.84375 -1.1601562,1.18359371 -1.7226562,1.18359371 -0.2929688,0 -0.5859375,-0.09375 -0.8789063,-0.22265625 C 2.6009844,-1.2185234 2.4369219,-1.2185234 2.2494219,-1.2185234 c -0.140625,0 -0.3046875,0 -0.4335938,0.058594 z m 0,0"
         style="fill:#000000;fill-opacity:1;fill-rule:nonzero;stroke:none" />
      <path
         id="path22"
         d="m 15.749422,-3.8845391 c 0.09375,-0.3632812 0.105469,-0.4570312 0.855469,-0.4570312 0.234375,0 0.316406,0 0.316406,-0.1992188 0,-0.1171875 -0.09375,-0.1171875 -0.269531,-0.1171875 h -1.3125 c -0.257813,0 -0.269532,0 -0.386719,0.1992188 l -3.632813,5.671875 -0.773437,-5.6367188 c -0.03516,-0.234375 -0.05859,-0.234375 -0.316406,-0.234375 H 8.8705156 c -0.1875,0 -0.3046875,0 -0.3046875,0.1992188 0,0.1171875 0.09375,0.1171875 0.2929688,0.1171875 0.1289062,0 0.3046875,0.011719 0.421875,0.011719 0.1640625,0.023437 0.2226562,0.058594 0.2226562,0.1640625 0,0.035156 -0.011719,0.070312 -0.035156,0.1875 L 8.2025471,1.09593 c -0.1054688,0.3984375 -0.2695313,0.7148437 -1.078125,0.75 -0.046875,0 -0.1757813,0 -0.1757813,0.1875 0,0.082031 0.058594,0.1171875 0.140625,0.1171875 0.3164063,0 0.6679688,-0.035156 0.9960938,-0.035156 0.3398437,0 0.6914062,0.035156 1.0195312,0.035156 0.046875,0 0.1757813,0 0.1757813,-0.1992188 C 9.2806721,1.84593 9.1752033,1.84593 9.1048908,1.84593 8.5423908,1.834211 8.4252033,1.6349925 8.4252033,1.4006175 c 0,-0.070312 0.011719,-0.1171875 0.046875,-0.2226563 l 1.3476563,-5.4375 h 0.011719 l 0.8554684,6.1757813 c 0.02344,0.1289062 0.03516,0.234375 0.152344,0.234375 0.105468,0 0.175781,-0.1054688 0.222656,-0.1757813 l 4.019531,-6.3046875 h 0.01172 L 13.663485,1.37718 c -0.09375,0.3867187 -0.117187,0.46875 -0.902343,0.46875 -0.164063,0 -0.28125,0 -0.28125,0.1875 0,0.1171875 0.128906,0.1171875 0.152343,0.1171875 0.28125,0 0.960938,-0.035156 1.230469,-0.035156 0.410156,0 0.84375,0.035156 1.253906,0.035156 0.05859,0 0.1875,0 0.1875,-0.1992188 0,-0.1054687 -0.09375,-0.1054687 -0.28125,-0.1054687 -0.363281,0 -0.644531,0 -0.644531,-0.1875 0,-0.035156 0,-0.058594 0.04687,-0.234375 z m 0,0"
         style="fill:#000000;fill-opacity:1;fill-rule:nonzero;stroke:none" />
    </g>
    <path
       id="path23"
       d="m 22.67754,-159.5393 c 0,12.52459 -10.15294,22.67753 -22.67754,22.67753 -12.5246,0 -22.67754,-10.15294 -22.67754,-22.67753 0,-12.52462 10.15294,-22.67754 22.67754,-22.67754 12.5246,0 22.67754,10.15292 22.67754,22.67754 z"
       style="fill:#ffe0b3;fill-opacity:1;fill-rule:nonzero;stroke:#000000;stroke-width:0.3985;stroke-linecap:butt;stroke-linejoin:miter;stroke-miterlimit:10;stroke-dasharray:none;stroke-opacity:1"
       transform="matrix(1.3333333,0,0,-1.3333333,34.929333,30.501333)" />
    <g
       id="g23"
       aria-label="f&#10;1"
       transform="matrix(1.3333333,0,0,1.3333333,26.661333,248)">
      <path
         id="path24"
         d="m 6.3975547,-5.765625 c 0.28125,0 0.3984375,0 0.3984375,-0.2695312 0,-0.1523438 -0.1171875,-0.1523438 -0.375,-0.1523438 H 5.2608359 c 0.2695313,-1.4765625 0.4804688,-2.4960937 0.5859375,-2.953125 0.09375,-0.3398437 0.3867188,-0.6679687 0.7617188,-0.6679687 0.3046875,0 0.609375,0.1289062 0.75,0.2578125 -0.5625,0.058594 -0.7382813,0.46875 -0.7382813,0.7148437 0,0.28125 0.2226563,0.4570313 0.4921875,0.4570313 0.2929688,0 0.7148438,-0.2460938 0.7148438,-0.7851563 0,-0.609375 -0.5976563,-0.9374995 -1.2304688,-0.9374995 -0.6210937,0 -1.21875,0.4570308 -1.5,1.0195308 C 4.8272422,-8.578125 4.6866172,-8.0625 4.3584922,-6.1875 H 3.3975547 c -0.2695313,0 -0.4101563,0 -0.4101563,0.2578125 0,0.1640625 0.082031,0.1640625 0.3632813,0.1640625 H 4.2764609 C 4.0186484,-4.4296875 3.4327109,-1.1953125 3.0928672,0.33984375 2.8584922,1.59375 2.6358359,2.6367188 1.9209922,2.6367188 c -0.046875,0 -0.4570313,0 -0.7148438,-0.2695313 0.7265625,-0.058594 0.7265625,-0.6914062 0.7265625,-0.703125 0,-0.28125 -0.2109375,-0.4570312 -0.4804687,-0.4570312 -0.2929688,0 -0.72656251,0.2460937 -0.72656251,0.7851562 0,0.6210938 0.63281251,0.9375 1.19531251,0.9375 1.4648437,0 2.0625,-2.625 2.2265625,-3.33984375 0.2578125,-1.11328125 0.9609375,-4.92187495 1.03125,-5.35546875 z m 0,0"
         style="fill:#000000;fill-opacity:1;fill-rule:nonzero;stroke:none" />
      <path
         id="path25"
         d="m 9.8545859,-4.2216797 c 0,-0.234375 0,-0.2578125 -0.234375,-0.2578125 -0.609375,0.6328125 -1.4882812,0.6328125 -1.8046875,0.6328125 v 0.3164063 c 0.1992188,0 0.7851563,0 1.3007813,-0.2578125 v 5.15625 c 0,0.3515625 -0.035156,0.4804687 -0.9257813,0.4804687 H 7.8741172 v 0.3046875 c 0.3515625,-0.035156 1.2070312,-0.035156 1.6054687,-0.035156 0.3984375,0 1.2656251,0 1.6171871,0.035156 V 1.8486328 h -0.316406 c -0.9023436,0 -0.9257811,-0.1171875 -0.9257811,-0.4804687 z m 0,0"
         style="fill:#000000;fill-opacity:1;fill-rule:nonzero;stroke:none" />
    </g>
    <path
       id="path26"
       d="m 96.77791,-159.5393 c 0,12.52459 -10.15293,22.67753 -22.67754,22.67753 -12.52459,0 -22.67753,-10.15294 -22.67753,-22.67753 0,-12.52462 10.15294,-22.67754 22.67753,-22.67754 12.52461,0 22.67754,10.15292 22.67754,22.67754 z"
       style="fill:#ffe0b3;fill-opacity:1;fill-rule:nonzero;stroke:#000000;stroke-width:0.3985;stroke-linecap:butt;stroke-linejoin:miter;stroke-miterlimit:10;stroke-dasharray:none;stroke-opacity:1"
       transform="matrix(1.3333333,0,0,-1.3333333,34.929333,30.501333)" />
    <g
       id="g26"
       aria-label="f&#10;2"
       transform="matrix(1.3333333,0,0,1.3333333,125.46,248)">
      <path
         id="path27"
         d="m 6.3991406,-5.765625 c 0.28125,0 0.3984375,0 0.3984375,-0.2695312 0,-0.1523438 -0.1171875,-0.1523438 -0.375,-0.1523438 H 5.2624219 c 0.2695312,-1.4765625 0.4804687,-2.4960937 0.5859375,-2.953125 0.09375,-0.3398437 0.3867187,-0.6679687 0.7617187,-0.6679687 0.3046875,0 0.609375,0.1289062 0.75,0.2578125 -0.5625,0.058594 -0.7382812,0.46875 -0.7382812,0.7148437 0,0.28125 0.2226562,0.4570313 0.4921875,0.4570313 0.2929687,0 0.7148437,-0.2460938 0.7148437,-0.7851563 0,-0.609375 -0.5976562,-0.9374995 -1.2304687,-0.9374995 -0.6210938,0 -1.21875,0.4570308 -1.5,1.0195308 C 4.8288281,-8.578125 4.6882031,-8.0625 4.3600781,-6.1875 H 3.3991406 c -0.2695312,0 -0.4101562,0 -0.4101562,0.2578125 0,0.1640625 0.082031,0.1640625 0.3632812,0.1640625 H 4.2780469 C 4.0202344,-4.4296875 3.4342969,-1.1953125 3.0944531,0.33984375 2.8600781,1.59375 2.6374219,2.6367188 1.9225781,2.6367188 c -0.046875,0 -0.4570312,0 -0.7148437,-0.2695313 0.7265625,-0.058594 0.7265625,-0.6914062 0.7265625,-0.703125 0,-0.28125 -0.2109375,-0.4570312 -0.4804688,-0.4570312 -0.2929687,0 -0.72656247,0.2460937 -0.72656247,0.7851562 0,0.6210938 0.63281247,0.9375 1.19531247,0.9375 1.4648438,0 2.0625,-2.625 2.2265625,-3.33984375 0.2578125,-1.11328125 0.9609375,-4.92187495 1.03125,-5.35546875 z m 0,0"
         style="fill:#000000;fill-opacity:1;fill-rule:nonzero;stroke:none" />
      <path
         id="path28"
         d="M 8.1891797,1.3916016 9.2438672,0.36035156 C 10.802461,-1.0107422 11.400117,-1.5498047 11.400117,-2.5458984 c 0,-1.1367188 -0.902344,-1.9335938 -2.1210936,-1.9335938 -1.125,0 -1.8515625,0.9140625 -1.8515625,1.8046875 0,0.5507813 0.4921875,0.5507813 0.5273438,0.5507813 0.1640625,0 0.515625,-0.1171875 0.515625,-0.5273438 0,-0.2578125 -0.1875,-0.515625 -0.5273438,-0.515625 -0.082031,0 -0.1054687,0 -0.1289062,0.011719 0.2226562,-0.6445313 0.7617187,-1.0195313 1.3359375,-1.0195313 0.9140628,0 1.3359378,0.8085938 1.3359378,1.6289063 0,0.796875 -0.4921878,1.58203121 -1.0429691,2.20312496 L 7.5329297,1.7900391 C 7.4274609,1.8955078 7.4274609,1.9189453 7.4274609,2.1533203 h 3.6914061 l 0.28125,-1.73437499 h -0.257812 c -0.04687,0.3046875 -0.117188,0.73828129 -0.210938,0.89062499 -0.07031,0.082031 -0.726562,0.082031 -0.9492186,0.082031 z m 0,0"
         style="fill:#000000;fill-opacity:1;fill-rule:nonzero;stroke:none" />
    </g>
    <path
       id="path29"
       d="m 170.8783,-159.5393 c 0,12.52459 -10.15293,22.67753 -22.67754,22.67753 -12.5246,0 -22.67754,-10.15294 -22.67754,-22.67753 0,-12.52462 10.15294,-22.67754 22.67754,-22.67754 12.52461,0 22.67754,10.15292 22.67754,22.67754 z"
       style="fill:#ffe0b3;fill-opacity:1;fill-rule:nonzero;stroke:#000000;stroke-width:0.3985;stroke-linecap:butt;stroke-linejoin:miter;stroke-miterlimit:10;stroke-dasharray:none;stroke-opacity:1"
       transform="matrix(1.3333333,0,0,-1.3333333,34.929333,30.501333)" />
    <path
       id="path30"
       d="m 2.6357109,-0.70279687 c 0,-0.38671873 -0.328125,-0.69140623 -0.6914062,-0.69140623 -0.4101563,0 -0.703125,0.328125 -0.703125,0.69140623 0,0.43359375 0.3632812,0.703124995 0.6914062,0.703124995 0.3867188,0 0.703125,-0.304687495 0.703125,-0.703124995 z m 3.9023438,0 c 0,-0.38671873 -0.328125,-0.69140623 -0.6914063,-0.69140623 -0.4101562,0 -0.703125,0.328125 -0.703125,0.69140623 0,0.43359375 0.3632813,0.703124995 0.6914063,0.703124995 0.3867187,0 0.703125,-0.304687495 0.703125,-0.703124995 z m 3.9023433,0 c 0,-0.38671873 -0.328125,-0.69140623 -0.6914058,-0.69140623 -0.4101563,0 -0.703125,0.328125 -0.703125,0.69140623 0,0.43359375 0.3632812,0.703124995 0.6914062,0.703124995 0.3867186,0 0.7031246,-0.304687495 0.7031246,-0.703124995 z m 0,0"
       style="fill:#000000;fill-opacity:1;fill-rule:nonzero;stroke:none"
       aria-label="..."
       transform="matrix(1.3333333,0,0,1.3333333,224.724,244.148)" />
    <path
       id="path31"
       d="m 244.97868,-159.5393 c 0,12.52459 -10.15292,22.67753 -22.67753,22.67753 -12.5246,0 -22.67754,-10.15294 -22.67754,-22.67753 0,-12.52462 10.15294,-22.67754 22.67754,-22.67754 12.52461,0 22.67753,10.15292 22.67753,22.67754 z"
       style="fill:#ffe0b3;fill-opacity:1;fill-rule:nonzero;stroke:#000000;stroke-width:0.3985;stroke-linecap:butt;stroke-linejoin:miter;stroke-miterlimit:10;stroke-dasharray:none;stroke-opacity:1"
       transform="matrix(1.3333333,0,0,-1.3333333,34.929333,30.501333)" />
    <g
       id="g31"
       aria-label="f&#10;K"
       transform="matrix(1.3333333,0,0,1.3333333,320.264,248)">
      <path
         id="path32"
         d="m 6.3996563,-5.765625 c 0.28125,0 0.3984375,0 0.3984375,-0.2695312 0,-0.1523438 -0.1171875,-0.1523438 -0.375,-0.1523438 H 5.2629375 c 0.2695313,-1.4765625 0.4804688,-2.4960937 0.5859375,-2.953125 0.09375,-0.3398437 0.3867188,-0.6679687 0.7617188,-0.6679687 0.3046875,0 0.609375,0.1289062 0.75,0.2578125 -0.5625,0.058594 -0.7382813,0.46875 -0.7382813,0.7148437 0,0.28125 0.2226563,0.4570313 0.4921875,0.4570313 0.2929688,0 0.7148438,-0.2460938 0.7148438,-0.7851563 0,-0.609375 -0.5976563,-0.9374995 -1.2304688,-0.9374995 -0.6210937,0 -1.21875,0.4570308 -1.5,1.0195308 C 4.8293438,-8.578125 4.6887188,-8.0625 4.3605938,-6.1875 H 3.3996563 c -0.2695313,0 -0.4101563,0 -0.4101563,0.2578125 0,0.1640625 0.082031,0.1640625 0.3632813,0.1640625 H 4.2785625 C 4.02075,-4.4296875 3.4348125,-1.1953125 3.0949688,0.33984375 2.8605938,1.59375 2.6379375,2.6367188 1.9230938,2.6367188 c -0.046875,0 -0.4570313,0 -0.7148438,-0.2695313 0.7265625,-0.058594 0.7265625,-0.6914062 0.7265625,-0.703125 0,-0.28125 -0.2109375,-0.4570312 -0.4804687,-0.4570312 -0.2929688,0 -0.72656255,0.2460937 -0.72656255,0.7851562 0,0.6210938 0.63281255,0.9375 1.19531255,0.9375 1.4648437,0 2.0625,-2.625 2.2265625,-3.33984375 0.2578125,-1.11328125 0.9609375,-4.92187495 1.03125,-5.35546875 z m 0,0"
         style="fill:#000000;fill-opacity:1;fill-rule:nonzero;stroke:none" />
      <path
         id="path33"
         d="m 11.998289,-1.8662109 c -0.01172,-0.035156 -0.05859,-0.1171875 -0.05859,-0.140625 0,-0.011719 0.1875,-0.1523438 0.292969,-0.234375 l 1.746094,-1.3476563 c 0.9375,-0.6796875 1.324219,-0.7265625 1.617187,-0.75 0.08203,-0.011719 0.1875,-0.023437 0.1875,-0.1992187 0,-0.046875 -0.03516,-0.1171875 -0.117187,-0.1171875 -0.210938,0 -0.46875,0.035156 -0.703125,0.035156 -0.363281,0 -0.75,-0.035156 -1.101563,-0.035156 -0.07031,0 -0.199218,0 -0.199218,0.1992187 0,0.070312 0.05859,0.1054688 0.128906,0.1171875 0.210937,0.011719 0.304687,0.070312 0.304687,0.2109375 0,0.1757813 -0.292968,0.3984375 -0.363281,0.4570313 L 9.8537578,-0.68261719 10.650633,-3.8818359 c 0.09375,-0.3632813 0.105469,-0.4570313 0.832031,-0.4570313 0.257813,0 0.339844,0 0.339844,-0.1992187 0,-0.09375 -0.08203,-0.1171875 -0.140625,-0.1171875 -0.269531,0 -0.996094,0.035156 -1.265625,0.035156 -0.292969,0 -0.9960939,-0.035156 -1.2890627,-0.035156 -0.070312,0 -0.1992187,0 -0.1992187,0.1992187 0,0.1171875 0.09375,0.1171875 0.2929687,0.1171875 0.1289063,0 0.3046875,0.011719 0.421875,0.011719 0.1640625,0.023437 0.2226563,0.058594 0.2226563,0.1640625 0,0.035156 -0.011719,0.070312 -0.046875,0.1875 L 8.4826641,1.3798828 c -0.09375,0.3867188 -0.1171875,0.46875 -0.9023438,0.46875 -0.1640625,0 -0.28125,0 -0.28125,0.1875 0,0.1171875 0.1289063,0.1171875 0.1523438,0.1171875 0.28125,0 0.984375,-0.035156 1.265625,-0.035156 0.2109375,0 0.4335937,0.011719 0.6328125,0.011719 0.2226562,0 0.4453125,0.023437 0.6562504,0.023437 0.07031,0 0.199218,0 0.199218,-0.1992187 0,-0.1054688 -0.09375,-0.1054688 -0.2812497,-0.1054688 -0.375,0 -0.6445312,0 -0.6445312,-0.1875 0,-0.070312 0.058594,-0.28125 0.082031,-0.4335937 0.140625,-0.51562504 0.2695313,-1.04296879 0.3984375,-1.57031254 l 1.4882814,-1.14843746 1.160156,2.6835937 c 0.117188,0.2578125 0.117188,0.28125 0.117188,0.3398438 0,0.3046875 -0.433594,0.3164062 -0.515625,0.3164062 -0.117188,0 -0.222656,0 -0.222656,0.1992188 0,0.1054687 0.117187,0.1054687 0.140625,0.1054687 0.398437,0 0.808593,-0.035156 1.207031,-0.035156 0.222656,0 0.761719,0.035156 0.984375,0.035156 0.04687,0 0.175781,0 0.175781,-0.1992187 0,-0.1054688 -0.105469,-0.1054688 -0.199219,-0.1054688 -0.410156,-0.011719 -0.539062,-0.1054687 -0.691406,-0.4570312 z m 0,0"
         style="fill:#000000;fill-opacity:1;fill-rule:nonzero;stroke:none" />
    </g>
    <path
       id="path34"
       d="M 0,-22.87679 V -61.28665"
       style="fill:none;stroke:#000000;stroke-width:0.79701;stroke-linecap:butt;stroke-linejoin:miter;stroke-miterlimit:10;stroke-dasharray:none;stroke-opacity:1"
       transform="matrix(1.3333333,0,0,-1.3333333,34.929333,30.501333)" />
    <path
       id="path35"
       d="M 5.44046,0 1.28699,1.5706 2.66432,0 1.28699,-1.5706 Z"
       style="fill:#000000;fill-opacity:1;fill-rule:nonzero;stroke:#000000;stroke-width:0.79701;stroke-linecap:butt;stroke-linejoin:miter;stroke-miterlimit:10;stroke-dasharray:none;stroke-opacity:1"
       transform="matrix(0,1.3333333,1.3333333,0,34.929333,108.93008)" />
    <path
       id="path36"
       d="M 15.5707,-16.7593 57.96004,-62.3858"
       style="fill:none;stroke:#000000;stroke-width:0.79701;stroke-linecap:butt;stroke-linejoin:miter;stroke-miterlimit:10;stroke-dasharray:none;stroke-opacity:1"
       transform="matrix(1.3333333,0,0,-1.3333333,34.929333,30.501333)" />
    <path
       id="path37"
       d="M 5.44046,0 1.28699,1.5706 2.66432,0 1.28699,-1.5706 Z"
       style="fill:#000000;fill-opacity:1;fill-rule:nonzero;stroke:#000000;stroke-width:0.79701;stroke-linecap:butt;stroke-linejoin:miter;stroke-miterlimit:10;stroke-dasharray:none;stroke-opacity:1"
       transform="matrix(0.90749333,0.97678667,0.97678667,-0.90749333,109.97235,111.27457)" />
    <path
       id="path38"
       d="M 20.14214,-10.84392 121.70502,-65.52383"
       style="fill:none;stroke:#000000;stroke-width:0.79701;stroke-linecap:butt;stroke-linejoin:miter;stroke-miterlimit:10;stroke-dasharray:none;stroke-opacity:1"
       transform="matrix(1.3333333,0,0,-1.3333333,34.929333,30.501333)" />
    <path
       id="path39"
       d="M 5.44046,0 1.28699,1.5706 2.66432,0 1.28699,-1.5706 Z"
       style="fill:#000000;fill-opacity:1;fill-rule:nonzero;stroke:#000000;stroke-width:0.79701;stroke-linecap:butt;stroke-linejoin:miter;stroke-miterlimit:10;stroke-dasharray:none;stroke-opacity:1"
       transform="matrix(1.1739333,0.63201333,0.63201333,-1.1739333,194.30889,116.30847)" />
    <path
       id="path40"
       d="M 21.5311,-7.72809 195.5558,-70.19225"
       style="fill:none;stroke:#000000;stroke-width:0.79701;stroke-linecap:butt;stroke-linejoin:miter;stroke-miterlimit:10;stroke-dasharray:none;stroke-opacity:1"
       transform="matrix(1.3333333,0,0,-1.3333333,34.929333,30.501333)" />
    <path
       id="path41"
       d="M 5.44046,0 1.28699,1.5706 2.66432,0 1.28699,-1.5706 Z"
       style="fill:#000000;fill-opacity:1;fill-rule:nonzero;stroke:#000000;stroke-width:0.79701;stroke-linecap:butt;stroke-linejoin:miter;stroke-miterlimit:10;stroke-dasharray:none;stroke-opacity:1"
       transform="matrix(1.2549067,0.45041333,0.45041333,-1.2549067,292.57697,122.98068)" />
    <path
       id="path42"
       d="M 58.52968,-16.7593 16.14034,-62.3858"
       style="fill:none;stroke:#000000;stroke-width:0.79701;stroke-linecap:butt;stroke-linejoin:miter;stroke-miterlimit:10;stroke-dasharray:none;stroke-opacity:1"
       transform="matrix(1.3333333,0,0,-1.3333333,34.929333,30.501333)" />
    <path
       id="path43"
       d="M 5.44046,0 1.28699,1.5706 2.66432,0 1.28699,-1.5706 Z"
       style="fill:#000000;fill-opacity:1;fill-rule:nonzero;stroke:#000000;stroke-width:0.79701;stroke-linecap:butt;stroke-linejoin:miter;stroke-miterlimit:10;stroke-dasharray:none;stroke-opacity:1"
       transform="matrix(-0.90749333,0.97678667,0.97678667,0.90749333,58.686827,111.27457)" />
    <path
       id="path44"
       d="M 74.10037,-22.87679 V -61.28665"
       style="fill:none;stroke:#000000;stroke-width:0.79701;stroke-linecap:butt;stroke-linejoin:miter;stroke-miterlimit:10;stroke-dasharray:none;stroke-opacity:1"
       transform="matrix(1.3333333,0,0,-1.3333333,34.929333,30.501333)" />
    <path
       id="path45"
       d="M 5.44046,0 1.28699,1.5706 2.66432,0 1.28699,-1.5706 Z"
       style="fill:#000000;fill-opacity:1;fill-rule:nonzero;stroke:#000000;stroke-width:0.79701;stroke-linecap:butt;stroke-linejoin:miter;stroke-miterlimit:10;stroke-dasharray:none;stroke-opacity:1"
       transform="matrix(0,1.3333333,1.3333333,0,133.72983,108.93008)" />
    <path
       id="path46"
       d="m 89.67108,-16.7593 42.38934,-45.6265"
       style="fill:none;stroke:#000000;stroke-width:0.79701;stroke-linecap:butt;stroke-linejoin:miter;stroke-miterlimit:10;stroke-dasharray:none;stroke-opacity:1"
       transform="matrix(1.3333333,0,0,-1.3333333,34.929333,30.501333)" />
    <path
       id="path47"
       d="M 5.44046,0 1.28699,1.5706 2.66432,0 1.28699,-1.5706 Z"
       style="fill:#000000;fill-opacity:1;fill-rule:nonzero;stroke:#000000;stroke-width:0.79701;stroke-linecap:butt;stroke-linejoin:miter;stroke-miterlimit:10;stroke-dasharray:none;stroke-opacity:1"
       transform="matrix(0.90749333,0.97678667,0.97678667,-0.90749333,208.77285,111.27457)" />
    <path
       id="path48"
       d="M 94.24252,-10.84392 195.8054,-65.52383"
       style="fill:none;stroke:#000000;stroke-width:0.79701;stroke-linecap:butt;stroke-linejoin:miter;stroke-miterlimit:10;stroke-dasharray:none;stroke-opacity:1"
       transform="matrix(1.3333333,0,0,-1.3333333,34.929333,30.501333)" />
    <path
       id="path49"
       d="M 5.44046,0 1.28699,1.5706 2.66432,0 1.28699,-1.5706 Z"
       style="fill:#000000;fill-opacity:1;fill-rule:nonzero;stroke:#000000;stroke-width:0.79701;stroke-linecap:butt;stroke-linejoin:miter;stroke-miterlimit:10;stroke-dasharray:none;stroke-opacity:1"
       transform="matrix(1.1739333,0.63201333,0.63201333,-1.1739333,293.10941,116.30847)" />
    <path
       id="path50"
       d="M 128.05861,-10.84392 26.49573,-65.52383"
       style="fill:none;stroke:#000000;stroke-width:0.79701;stroke-linecap:butt;stroke-linejoin:miter;stroke-miterlimit:10;stroke-dasharray:none;stroke-opacity:1"
       transform="matrix(1.3333333,0,0,-1.3333333,34.929333,30.501333)" />
    <path
       id="path51"
       d="M 5.44046,0 1.28699,1.5706 2.66432,0 1.28699,-1.5706 Z"
       style="fill:#000000;fill-opacity:1;fill-rule:nonzero;stroke:#000000;stroke-width:0.79701;stroke-linecap:butt;stroke-linejoin:miter;stroke-miterlimit:10;stroke-dasharray:none;stroke-opacity:1"
       transform="matrix(-1.1739333,0.63201333,0.63201333,1.1739333,73.150787,116.30847)" />
    <path
       id="path52"
       d="M 132.63007,-16.7593 90.2407,-62.3858"
       style="fill:none;stroke:#000000;stroke-width:0.79701;stroke-linecap:butt;stroke-linejoin:miter;stroke-miterlimit:10;stroke-dasharray:none;stroke-opacity:1"
       transform="matrix(1.3333333,0,0,-1.3333333,34.929333,30.501333)" />
    <path
       id="path53"
       d="M 5.44046,0 1.28699,1.5706 2.66432,0 1.28699,-1.5706 Z"
       style="fill:#000000;fill-opacity:1;fill-rule:nonzero;stroke:#000000;stroke-width:0.79701;stroke-linecap:butt;stroke-linejoin:miter;stroke-miterlimit:10;stroke-dasharray:none;stroke-opacity:1"
       transform="matrix(-0.90749333,0.97678667,0.97678667,0.90749333,157.48733,111.27457)" />
    <path
       id="path54"
       d="M 148.20076,-22.87679 V -61.28665"
       style="fill:none;stroke:#000000;stroke-width:0.79701;stroke-linecap:butt;stroke-linejoin:miter;stroke-miterlimit:10;stroke-dasharray:none;stroke-opacity:1"
       transform="matrix(1.3333333,0,0,-1.3333333,34.929333,30.501333)" />
    <path
       id="path55"
       d="M 5.44046,0 1.28699,1.5706 2.66432,0 1.28699,-1.5706 Z"
       style="fill:#000000;fill-opacity:1;fill-rule:nonzero;stroke:#000000;stroke-width:0.79701;stroke-linecap:butt;stroke-linejoin:miter;stroke-miterlimit:10;stroke-dasharray:none;stroke-opacity:1"
       transform="matrix(0,1.3333333,1.3333333,0,232.53035,108.93008)" />
    <path
       id="path56"
       d="m 163.77147,-16.7593 42.38934,-45.6265"
       style="fill:none;stroke:#000000;stroke-width:0.79701;stroke-linecap:butt;stroke-linejoin:miter;stroke-miterlimit:10;stroke-dasharray:none;stroke-opacity:1"
       transform="matrix(1.3333333,0,0,-1.3333333,34.929333,30.501333)" />
    <path
       id="path57"
       d="M 5.44046,0 1.28699,1.5706 2.66432,0 1.28699,-1.5706 Z"
       style="fill:#000000;fill-opacity:1;fill-rule:nonzero;stroke:#000000;stroke-width:0.79701;stroke-linecap:butt;stroke-linejoin:miter;stroke-miterlimit:10;stroke-dasharray:none;stroke-opacity:1"
       transform="matrix(0.90749333,0.97678667,0.97678667,-0.90749333,307.57337,111.27457)" />
    <path
       id="path58"
       d="M 200.77005,-7.72809 26.74535,-70.19225"
       style="fill:none;stroke:#000000;stroke-width:0.79701;stroke-linecap:butt;stroke-linejoin:miter;stroke-miterlimit:10;stroke-dasharray:none;stroke-opacity:1"
       transform="matrix(1.3333333,0,0,-1.3333333,34.929333,30.501333)" />
    <path
       id="path59"
       d="M 5.44046,0 1.28699,1.5706 2.66432,0 1.28699,-1.5706 Z"
       style="fill:#000000;fill-opacity:1;fill-rule:nonzero;stroke:#000000;stroke-width:0.79701;stroke-linecap:butt;stroke-linejoin:miter;stroke-miterlimit:10;stroke-dasharray:none;stroke-opacity:1"
       transform="matrix(-1.2549067,0.45041333,0.45041333,1.2549067,73.683213,122.98068)" />
    <path
       id="path60"
       d="M 202.159,-10.84392 100.59612,-65.52383"
       style="fill:none;stroke:#000000;stroke-width:0.79701;stroke-linecap:butt;stroke-linejoin:miter;stroke-miterlimit:10;stroke-dasharray:none;stroke-opacity:1"
       transform="matrix(1.3333333,0,0,-1.3333333,34.929333,30.501333)" />
    <path
       id="path61"
       d="M 5.44046,0 1.28699,1.5706 2.66432,0 1.28699,-1.5706 Z"
       style="fill:#000000;fill-opacity:1;fill-rule:nonzero;stroke:#000000;stroke-width:0.79701;stroke-linecap:butt;stroke-linejoin:miter;stroke-miterlimit:10;stroke-dasharray:none;stroke-opacity:1"
       transform="matrix(-1.1739333,0.63201333,0.63201333,1.1739333,171.95131,116.30847)" />
    <path
       id="path62"
       d="M 206.73045,-16.7593 164.3411,-62.3858"
       style="fill:none;stroke:#000000;stroke-width:0.79701;stroke-linecap:butt;stroke-linejoin:miter;stroke-miterlimit:10;stroke-dasharray:none;stroke-opacity:1"
       transform="matrix(1.3333333,0,0,-1.3333333,34.929333,30.501333)" />
    <path
       id="path63"
       d="M 5.44046,0 1.28699,1.5706 2.66432,0 1.28699,-1.5706 Z"
       style="fill:#000000;fill-opacity:1;fill-rule:nonzero;stroke:#000000;stroke-width:0.79701;stroke-linecap:butt;stroke-linejoin:miter;stroke-miterlimit:10;stroke-dasharray:none;stroke-opacity:1"
       transform="matrix(-0.90749333,0.97678667,0.97678667,0.90749333,256.28785,111.27457)" />
    <path
       id="path64"
       d="M 222.30115,-22.87679 V -61.28665"
       style="fill:none;stroke:#000000;stroke-width:0.79701;stroke-linecap:butt;stroke-linejoin:miter;stroke-miterlimit:10;stroke-dasharray:none;stroke-opacity:1"
       transform="matrix(1.3333333,0,0,-1.3333333,34.929333,30.501333)" />
    <path
       id="path65"
       d="M 5.44046,0 1.28699,1.5706 2.66432,0 1.28699,-1.5706 Z"
       style="fill:#000000;fill-opacity:1;fill-rule:nonzero;stroke:#000000;stroke-width:0.79701;stroke-linecap:butt;stroke-linejoin:miter;stroke-miterlimit:10;stroke-dasharray:none;stroke-opacity:1"
       transform="matrix(0,1.3333333,1.3333333,0,331.33087,108.93008)" />
    <path
       id="path66"
       d="m 0,-94.1423 v -38.40987"
       style="fill:none;stroke:#000000;stroke-width:0.79701;stroke-linecap:butt;stroke-linejoin:miter;stroke-miterlimit:10;stroke-dasharray:none;stroke-opacity:1"
       transform="matrix(1.3333333,0,0,-1.3333333,34.929333,30.501333)" />
    <path
       id="path67"
       d="M 5.44046,0 1.28699,1.5706 2.66432,0 1.28699,-1.5706 Z"
       style="fill:#000000;fill-opacity:1;fill-rule:nonzero;stroke:#000000;stroke-width:0.79701;stroke-linecap:butt;stroke-linejoin:miter;stroke-miterlimit:10;stroke-dasharray:none;stroke-opacity:1"
       transform="matrix(0,1.3333333,1.3333333,0,34.929333,203.9508)" />
    <path
       id="path68"
       d="m 13.34802,-94.1423 42.38561,-45.62543"
       style="fill:none;stroke:#000000;stroke-width:0.79701;stroke-linecap:butt;stroke-linejoin:miter;stroke-miterlimit:10;stroke-dasharray:none;stroke-opacity:1"
       transform="matrix(1.3333333,0,0,-1.3333333,34.929333,30.501333)" />
    <path
       id="path69"
       d="M 5.44046,0 1.28699,1.5706 2.66432,0 1.28699,-1.5706 Z"
       style="fill:#000000;fill-opacity:1;fill-rule:nonzero;stroke:#000000;stroke-width:0.79701;stroke-linecap:butt;stroke-linejoin:miter;stroke-miterlimit:10;stroke-dasharray:none;stroke-opacity:1"
       transform="matrix(0.90745333,0.9768,0.9768,-0.90745333,107.00389,214.45039)" />
    <path
       id="path70"
       d="m 22.87679,-92.06221 101.5619,-54.68674"
       style="fill:none;stroke:#000000;stroke-width:0.79701;stroke-linecap:butt;stroke-linejoin:miter;stroke-miterlimit:10;stroke-dasharray:none;stroke-opacity:1"
       transform="matrix(1.3333333,0,0,-1.3333333,34.929333,30.501333)" />
    <path
       id="path71"
       d="M 5.44046,0 1.28699,1.5706 2.66432,0 1.28699,-1.5706 Z"
       style="fill:#000000;fill-opacity:1;fill-rule:nonzero;stroke:#000000;stroke-width:0.79701;stroke-linecap:butt;stroke-linejoin:miter;stroke-miterlimit:10;stroke-dasharray:none;stroke-opacity:1"
       transform="matrix(1.1739067,0.63208,0.63208,-1.1739067,197.95381,224.60847)" />
    <path
       id="path72"
       d="m 22.87679,-87.97319 174.02427,-62.45178"
       style="fill:none;stroke:#000000;stroke-width:0.79701;stroke-linecap:butt;stroke-linejoin:miter;stroke-miterlimit:10;stroke-dasharray:none;stroke-opacity:1"
       transform="matrix(1.3333333,0,0,-1.3333333,34.929333,30.501333)" />
    <path
       id="path73"
       d="M 5.44046,0 1.28699,1.5706 2.66432,0 1.28699,-1.5706 Z"
       style="fill:#000000;fill-opacity:1;fill-rule:nonzero;stroke:#000000;stroke-width:0.79701;stroke-linecap:butt;stroke-linejoin:miter;stroke-miterlimit:10;stroke-dasharray:none;stroke-opacity:1"
       transform="matrix(1.2549333,0.45036,0.45036,-1.2549333,294.3706,229.9578)" />
    <path
       id="path74"
       d="M 60.75235,-94.1423 18.36674,-139.76773"
       style="fill:none;stroke:#000000;stroke-width:0.79701;stroke-linecap:butt;stroke-linejoin:miter;stroke-miterlimit:10;stroke-dasharray:none;stroke-opacity:1"
       transform="matrix(1.3333333,0,0,-1.3333333,34.929333,30.501333)" />
    <path
       id="path75"
       d="M 5.44046,0 1.28699,1.5706 2.66432,0 1.28699,-1.5706 Z"
       style="fill:#000000;fill-opacity:1;fill-rule:nonzero;stroke:#000000;stroke-width:0.79701;stroke-linecap:butt;stroke-linejoin:miter;stroke-miterlimit:10;stroke-dasharray:none;stroke-opacity:1"
       transform="matrix(-0.90745333,0.9768,0.9768,0.90745333,61.655267,214.45039)" />
    <path
       id="path76"
       d="m 74.10037,-94.1423 v -38.40987"
       style="fill:none;stroke:#000000;stroke-width:0.79701;stroke-linecap:butt;stroke-linejoin:miter;stroke-miterlimit:10;stroke-dasharray:none;stroke-opacity:1"
       transform="matrix(1.3333333,0,0,-1.3333333,34.929333,30.501333)" />
    <path
       id="path77"
       d="M 5.44046,0 1.28699,1.5706 2.66432,0 1.28699,-1.5706 Z"
       style="fill:#000000;fill-opacity:1;fill-rule:nonzero;stroke:#000000;stroke-width:0.79701;stroke-linecap:butt;stroke-linejoin:miter;stroke-miterlimit:10;stroke-dasharray:none;stroke-opacity:1"
       transform="matrix(0,1.3333333,1.3333333,0,133.72983,203.9508)" />
    <path
       id="path78"
       d="m 87.44841,-94.1423 42.3856,-45.62543"
       style="fill:none;stroke:#000000;stroke-width:0.79701;stroke-linecap:butt;stroke-linejoin:miter;stroke-miterlimit:10;stroke-dasharray:none;stroke-opacity:1"
       transform="matrix(1.3333333,0,0,-1.3333333,34.929333,30.501333)" />
    <path
       id="path79"
       d="M 5.44046,0 1.28699,1.5706 2.66432,0 1.28699,-1.5706 Z"
       style="fill:#000000;fill-opacity:1;fill-rule:nonzero;stroke:#000000;stroke-width:0.79701;stroke-linecap:butt;stroke-linejoin:miter;stroke-miterlimit:10;stroke-dasharray:none;stroke-opacity:1"
       transform="matrix(0.90745333,0.9768,0.9768,-0.90745333,205.80441,214.45039)" />
    <path
       id="path80"
       d="m 96.97717,-92.06221 101.56191,-54.68674"
       style="fill:none;stroke:#000000;stroke-width:0.79701;stroke-linecap:butt;stroke-linejoin:miter;stroke-miterlimit:10;stroke-dasharray:none;stroke-opacity:1"
       transform="matrix(1.3333333,0,0,-1.3333333,34.929333,30.501333)" />
    <path
       id="path81"
       d="M 5.44046,0 1.28699,1.5706 2.66432,0 1.28699,-1.5706 Z"
       style="fill:#000000;fill-opacity:1;fill-rule:nonzero;stroke:#000000;stroke-width:0.79701;stroke-linecap:butt;stroke-linejoin:miter;stroke-miterlimit:10;stroke-dasharray:none;stroke-opacity:1"
       transform="matrix(1.1739067,0.63208,0.63208,-1.1739067,296.75431,224.60847)" />
    <path
       id="path82"
       d="M 125.32397,-92.06221 23.76207,-146.74895"
       style="fill:none;stroke:#000000;stroke-width:0.79701;stroke-linecap:butt;stroke-linejoin:miter;stroke-miterlimit:10;stroke-dasharray:none;stroke-opacity:1"
       transform="matrix(1.3333333,0,0,-1.3333333,34.929333,30.501333)" />
    <path
       id="path83"
       d="M 5.44046,0 1.28699,1.5706 2.66432,0 1.28699,-1.5706 Z"
       style="fill:#000000;fill-opacity:1;fill-rule:nonzero;stroke:#000000;stroke-width:0.79701;stroke-linecap:butt;stroke-linejoin:miter;stroke-miterlimit:10;stroke-dasharray:none;stroke-opacity:1"
       transform="matrix(-1.1739067,0.63208,0.63208,1.1739067,69.505867,224.60847)" />
    <path
       id="path84"
       d="M 134.85272,-94.1423 92.46713,-139.76773"
       style="fill:none;stroke:#000000;stroke-width:0.79701;stroke-linecap:butt;stroke-linejoin:miter;stroke-miterlimit:10;stroke-dasharray:none;stroke-opacity:1"
       transform="matrix(1.3333333,0,0,-1.3333333,34.929333,30.501333)" />
    <path
       id="path85"
       d="M 5.44046,0 1.28699,1.5706 2.66432,0 1.28699,-1.5706 Z"
       style="fill:#000000;fill-opacity:1;fill-rule:nonzero;stroke:#000000;stroke-width:0.79701;stroke-linecap:butt;stroke-linejoin:miter;stroke-miterlimit:10;stroke-dasharray:none;stroke-opacity:1"
       transform="matrix(-0.90745333,0.9768,0.9768,0.90745333,160.45579,214.45039)" />
    <path
       id="path86"
       d="m 148.20076,-94.1423 v -38.40987"
       style="fill:none;stroke:#000000;stroke-width:0.79701;stroke-linecap:butt;stroke-linejoin:miter;stroke-miterlimit:10;stroke-dasharray:none;stroke-opacity:1"
       transform="matrix(1.3333333,0,0,-1.3333333,34.929333,30.501333)" />
    <path
       id="path87"
       d="M 5.44046,0 1.28699,1.5706 2.66432,0 1.28699,-1.5706 Z"
       style="fill:#000000;fill-opacity:1;fill-rule:nonzero;stroke:#000000;stroke-width:0.79701;stroke-linecap:butt;stroke-linejoin:miter;stroke-miterlimit:10;stroke-dasharray:none;stroke-opacity:1"
       transform="matrix(0,1.3333333,1.3333333,0,232.53035,203.9508)" />
    <path
       id="path88"
       d="m 161.5488,-94.1423 42.3856,-45.62543"
       style="fill:none;stroke:#000000;stroke-width:0.79701;stroke-linecap:butt;stroke-linejoin:miter;stroke-miterlimit:10;stroke-dasharray:none;stroke-opacity:1"
       transform="matrix(1.3333333,0,0,-1.3333333,34.929333,30.501333)" />
    <path
       id="path89"
       d="M 5.44046,0 1.28699,1.5706 2.66432,0 1.28699,-1.5706 Z"
       style="fill:#000000;fill-opacity:1;fill-rule:nonzero;stroke:#000000;stroke-width:0.79701;stroke-linecap:butt;stroke-linejoin:miter;stroke-miterlimit:10;stroke-dasharray:none;stroke-opacity:1"
       transform="matrix(0.90745333,0.9768,0.9768,-0.90745333,304.60491,214.45039)" />
    <path
       id="path90"
       d="M 199.42436,-87.97319 25.40009,-150.42497"
       style="fill:none;stroke:#000000;stroke-width:0.79701;stroke-linecap:butt;stroke-linejoin:miter;stroke-miterlimit:10;stroke-dasharray:none;stroke-opacity:1"
       transform="matrix(1.3333333,0,0,-1.3333333,34.929333,30.501333)" />
    <path
       id="path91"
       d="M 5.44046,0 1.28699,1.5706 2.66432,0 1.28699,-1.5706 Z"
       style="fill:#000000;fill-opacity:1;fill-rule:nonzero;stroke:#000000;stroke-width:0.79701;stroke-linecap:butt;stroke-linejoin:miter;stroke-miterlimit:10;stroke-dasharray:none;stroke-opacity:1"
       transform="matrix(-1.2549333,0.45036,0.45036,1.2549333,71.889573,229.9578)" />
    <path
       id="path92"
       d="M 199.42436,-92.06221 97.86246,-146.74895"
       style="fill:none;stroke:#000000;stroke-width:0.79701;stroke-linecap:butt;stroke-linejoin:miter;stroke-miterlimit:10;stroke-dasharray:none;stroke-opacity:1"
       transform="matrix(1.3333333,0,0,-1.3333333,34.929333,30.501333)" />
    <path
       id="path93"
       d="M 5.44046,0 1.28699,1.5706 2.66432,0 1.28699,-1.5706 Z"
       style="fill:#000000;fill-opacity:1;fill-rule:nonzero;stroke:#000000;stroke-width:0.79701;stroke-linecap:butt;stroke-linejoin:miter;stroke-miterlimit:10;stroke-dasharray:none;stroke-opacity:1"
       transform="matrix(-1.1739067,0.63208,0.63208,1.1739067,168.30639,224.60847)" />
    <path
       id="path94"
       d="m 208.95311,-94.1423 -42.38559,-45.62543"
       style="fill:none;stroke:#000000;stroke-width:0.79701;stroke-linecap:butt;stroke-linejoin:miter;stroke-miterlimit:10;stroke-dasharray:none;stroke-opacity:1"
       transform="matrix(1.3333333,0,0,-1.3333333,34.929333,30.501333)" />
    <path
       id="path95"
       d="M 5.44046,0 1.28699,1.5706 2.66432,0 1.28699,-1.5706 Z"
       style="fill:#000000;fill-opacity:1;fill-rule:nonzero;stroke:#000000;stroke-width:0.79701;stroke-linecap:butt;stroke-linejoin:miter;stroke-miterlimit:10;stroke-dasharray:none;stroke-opacity:1"
       transform="matrix(-0.90745333,0.9768,0.9768,0.90745333,259.25629,214.45039)" />
    <path
       id="path96"
       d="m 222.30115,-94.1423 v -38.40987"
       style="fill:none;stroke:#000000;stroke-width:0.79701;stroke-linecap:butt;stroke-linejoin:miter;stroke-miterlimit:10;stroke-dasharray:none;stroke-opacity:1"
       transform="matrix(1.3333333,0,0,-1.3333333,34.929333,30.501333)" />
    <path
       id="path97"
       d="M 5.44046,0 1.28699,1.5706 2.66432,0 1.28699,-1.5706 Z"
       style="fill:#000000;fill-opacity:1;fill-rule:nonzero;stroke:#000000;stroke-width:0.79701;stroke-linecap:butt;stroke-linejoin:miter;stroke-miterlimit:10;stroke-dasharray:none;stroke-opacity:1"
       transform="matrix(0,1.3333333,1.3333333,0,331.33087,203.9508)" />
  </g>
</svg>
