<?xml version="1.0" encoding="UTF-8" standalone="no"?>
<!-- Created with Inkscape (http://www.inkscape.org/) -->

<svg
   version="1.1"
   id="svg1"
   width="771.37732"
   height="168.09467"
   viewBox="0 0 771.37732 168.09467"
   xmlns="http://www.w3.org/2000/svg"
   xmlns:svg="http://www.w3.org/2000/svg">
  <defs
     id="defs1" />
  <g
     id="g1">
    <path
       id="path1"
       d="m -32.0051,-13.05359 c 0,-4.41902 14.32897,-8.00127 32.0051,-8.00127 17.67613,0 32.0051,3.58225 32.0051,8.00127 V 24.80264 C 32.0051,20.3836 17.67613,16.80138 0,16.80138 c -17.67613,0 -32.0051,3.58222 -32.0051,8.00126 z"
       style="fill:#ffc266;fill-opacity:1;fill-rule:nonzero;stroke:none"
       transform="matrix(1.3333333,0,0,-1.3333333,100.5,84.216)" />
    <path
       id="path2"
       d="m -32.0051,24.80264 c 0,4.41904 14.32897,8.00127 32.0051,8.00127 17.67613,0 32.0051,-3.58223 32.0051,-8.00127 0,-4.41904 -14.32897,-8.00126 -32.0051,-8.00126 -17.67613,0 -32.0051,3.58222 -32.0051,8.00126 z"
       style="fill:#ffad33;fill-opacity:1;fill-rule:nonzero;stroke:none"
       transform="matrix(1.3333333,0,0,-1.3333333,100.5,84.216)" />
    <path
       id="path3"
       d="m -32.0051,-13.05359 c 0,-4.41902 14.32897,-8.00127 32.0051,-8.00127 17.67613,0 32.0051,3.58225 32.0051,8.00127 v 37.85623 c 0,4.41904 -14.32897,8.00127 -32.0051,8.00127 -17.67613,0 -32.0051,-3.58223 -32.0051,-8.00127 z m 0,37.85623 c 0,-4.41904 14.32897,-8.00126 32.0051,-8.00126 17.67613,0 32.0051,3.58222 32.0051,8.00126"
       style="fill:none;stroke:#000000;stroke-width:0.3985;stroke-linecap:butt;stroke-linejoin:miter;stroke-miterlimit:10;stroke-dasharray:none;stroke-opacity:1"
       transform="matrix(1.3333333,0,0,-1.3333333,100.5,84.216)" />
    <path
       id="path4"
       d="M 6.6322422,-6.7389141 H 0.55021094 l -0.1875,2.2382813 h 0.24609375 c 0.140625,-1.6054688 0.29296875,-1.9335938 1.79296871,-1.9335938 0.1757813,0 0.4335938,0 0.5390625,0.023437 0.2109375,0.035156 0.2109375,0.140625 0.2109375,0.375 v 5.25000004 c 0,0.33984375 0,0.48046875 -1.0546875,0.48046875 H 1.6986484 V -6.328125e-4 C 2.1088047,-0.03578906 3.1283359,-0.03578906 3.5853672,-0.03578906 c 0.4570312,0 1.4882812,0 1.8984375,0.0351562475 V -0.30532031 H 5.0853672 c -1.0546875,0 -1.0546875,-0.140625 -1.0546875,-0.48046875 V -6.0357891 c 0,-0.1992187 0,-0.3398437 0.1875,-0.375 0.1054687,-0.023437 0.375,-0.023437 0.5625,-0.023437 1.5,0 1.6523437,0.328125 1.7929687,1.9335938 h 0.2460938 z m 1.4003906,3.4335938 v -1.1015625 l -1.3828125,0.1171875 v 0.3046875 c 0.6914063,0 0.7734375,0.070312 0.7734375,0.5625 v 2.66015624 c 0,0.45703125 -0.1054687,0.45703125 -0.7734375,0.45703125 V -6.328125e-4 C 7.0365391,-0.01235156 7.5052891,-0.03578906 7.7865391,-0.03578906 c 0.3984375,0 0.8671875,0 1.265625,0.0351562475 V -0.30532031 H 8.8412266 c -0.7382813,0 -0.7617188,-0.1171875 -0.7617188,-0.46875 V -2.3092266 c 0,-0.984375 0.421875,-1.875 1.1835938,-1.875 0.058594,0 0.082031,0 0.1054687,0.011719 -0.035156,0.011719 -0.234375,0.1289062 -0.234375,0.3867187 0,0.28125 0.2109375,0.4335938 0.4335938,0.4335938 0.1757812,0 0.421875,-0.1289063 0.421875,-0.4453125 0,-0.3164063 -0.3046875,-0.609375 -0.7265625,-0.609375 -0.7382813,0 -1.0898438,0.6679687 -1.2304688,1.1015623 z m 4.2656252,-2.859375 c 0,-0.2460938 -0.199219,-0.5039063 -0.503906,-0.5039063 -0.28125,0 -0.492188,0.2226563 -0.492188,0.5039063 0,0.28125 0.210938,0.4921875 0.492188,0.4921875 0.304687,0 0.503906,-0.2578125 0.503906,-0.4921875 z m 1.921875,0 c 0,-0.28125 -0.222656,-0.5039063 -0.503906,-0.5039063 -0.292969,0 -0.492188,0.2578125 -0.492188,0.5039063 0,0.234375 0.199219,0.4921875 0.492188,0.4921875 0.28125,0 0.503906,-0.2109375 0.503906,-0.4921875 z m -0.632813,5.40234374 c 0.03516,0.3984375 0.304688,0.8203125 0.773438,0.8203125 0.210937,0 0.820312,-0.140625 0.820312,-0.94921875 V -1.4420391 h -0.246093 v 0.55078129 c 0,0.5859375 -0.246094,0.64453125 -0.363282,0.64453125 -0.328125,0 -0.363281,-0.45703125 -0.363281,-0.50390625 V -2.7428203 c 0,-0.4101563 0,-0.8085938 -0.363281,-1.171875 -0.386719,-0.3867188 -0.878906,-0.5507813 -1.359375,-0.5507813 -0.820313,0 -1.511719,0.46875 -1.511719,1.125 0,0.3046875 0.199219,0.46875 0.457031,0.46875 0.28125,0 0.46875,-0.1992187 0.46875,-0.4570312 0,-0.1171875 -0.05859,-0.4453125 -0.515625,-0.4570313 0.269532,-0.3515625 0.761719,-0.4570312 1.078125,-0.4570312 0.492188,0 1.054688,0.3867187 1.054688,1.2773437 v 0.3632813 c -0.503906,0.035156 -1.207031,0.058594 -1.828125,0.3632812 -0.75,0.3398438 -0.996094,0.8554688 -0.996094,1.28906254 0,0.80859375 0.960938,1.0546875 1.59375,1.0546875 0.65625,0 1.113281,-0.3984375 1.300781,-0.8671875 z M 13.51701,-2.3912578 v 0.9960937 c 0,0.94921879 -0.714844,1.28906254 -1.160156,1.28906254 -0.492188,0 -0.902344,-0.3515625 -0.902344,-0.85546875 0,-0.53906249 0.421875,-1.37109379 2.0625,-1.42968749 z m 2.835937,-1.03125 v 2.66015624 c 0,0.45703125 -0.117187,0.45703125 -0.785156,0.45703125 v 0.3046874975 c 0.351563,-0.0117187475 0.855469,-0.0351562475 1.125,-0.0351562475 0.257813,0 0.785156,0.0234375 1.113281,0.0351562475 V -0.30532031 c -0.65625,0 -0.773437,0 -0.773437,-0.45703125 V -2.5904766 c 0,-1.03125 0.714844,-1.59375 1.347656,-1.59375 0.621094,0 0.738281,0.5390625 0.738281,1.1015625 v 2.32031254 c 0,0.45703125 -0.117187,0.45703125 -0.773437,0.45703125 v 0.3046874975 c 0.339844,-0.0117187475 0.855469,-0.0351562475 1.125,-0.0351562475 0.257812,0 0.773437,0.0234375 1.113281,0.0351562475 V -0.30532031 c -0.515625,0 -0.773437,0 -0.785156,-0.3046875 V -2.5084453 c 0,-0.8554688 0,-1.171875 -0.304688,-1.5234375 -0.140625,-0.1757813 -0.46875,-0.375 -1.042968,-0.375 -0.726563,0 -1.195313,0.4335937 -1.476563,1.0546875 v -1.0546875 l -1.40625,0.1171875 v 0.3046875 c 0.703125,0 0.785156,0.070312 0.785156,0.5625 z m 6.19043,-0.984375 -1.394531,0.1171875 v 0.3046875 c 0.65625,0 0.738281,0.058594 0.738281,0.5507812 v 2.67187504 c 0,0.45703125 -0.105469,0.45703125 -0.773437,0.45703125 V -6.328125e-4 C 21.430094,-0.01235156 21.969156,-0.03578906 22.21525,-0.03578906 c 0.339844,0 0.691406,0.0234375 1.03125,0.0351562475 V -0.30532031 c -0.65625,0 -0.703125,-0.0585938 -0.703125,-0.4453125 z m 0.04687,-1.734375 c 0,-0.3164063 -0.246094,-0.5273438 -0.527344,-0.5273438 -0.316406,0 -0.527343,0.2695313 -0.527343,0.5273438 0,0.2695312 0.210937,0.5273437 0.527343,0.5273437 0.28125,0 0.527344,-0.1992187 0.527344,-0.5273437 z m 2.06543,2.71875 v 2.66015624 c 0,0.45703125 -0.117188,0.45703125 -0.785157,0.45703125 v 0.3046874975 c 0.351563,-0.0117187475 0.855469,-0.0351562475 1.125,-0.0351562475 0.257813,0 0.785157,0.0234375 1.113282,0.0351562475 V -0.30532031 c -0.65625,0 -0.773438,0 -0.773438,-0.45703125 V -2.5904766 c 0,-1.03125 0.714844,-1.59375 1.347656,-1.59375 0.621094,0 0.738282,0.5390625 0.738282,1.1015625 v 2.32031254 c 0,0.45703125 -0.117188,0.45703125 -0.773438,0.45703125 v 0.3046874975 c 0.339844,-0.0117187475 0.855469,-0.0351562475 1.125,-0.0351562475 0.257813,0 0.773438,0.0234375 1.113281,0.0351562475 V -0.30532031 c -0.515625,0 -0.773437,0 -0.785156,-0.3046875 V -2.5084453 c 0,-0.8554688 0,-1.171875 -0.304687,-1.5234375 -0.140625,-0.1757813 -0.46875,-0.375 -1.042969,-0.375 -0.726563,0 -1.195313,0.4335937 -1.476563,1.0546875 v -1.0546875 l -1.40625,0.1171875 v 0.3046875 c 0.703125,0 0.785157,0.070312 0.785157,0.5625 z m 6.65039,1.7109375 c -0.867187,0 -0.867187,-0.9960938 -0.867187,-1.2304688 0,-0.2695312 0.01172,-0.5859375 0.152344,-0.8320312 0.08203,-0.1171875 0.316406,-0.3984375 0.714843,-0.3984375 0.867188,0 0.867188,0.9960937 0.867188,1.21875 0,0.2695312 -0.01172,0.5976562 -0.164063,0.84375 -0.08203,0.1171875 -0.304687,0.3984375 -0.703125,0.3984375 z m -1.160156,0.3867187 c 0,-0.035156 0,-0.2695312 0.175781,-0.46875 0.386719,0.28125 0.796875,0.3046875 0.984375,0.3046875 0.925782,0 1.605469,-0.6796875 1.605469,-1.453125 0,-0.3632812 -0.152344,-0.7382812 -0.398437,-0.9609375 0.351562,-0.3398437 0.714843,-0.3867187 0.890625,-0.3867187 0.02344,0 0.07031,0 0.105468,0 -0.117187,0.046875 -0.164062,0.1523437 -0.164062,0.2695312 0,0.1757813 0.128906,0.2929688 0.292969,0.2929688 0.09375,0 0.28125,-0.070312 0.28125,-0.2929688 0,-0.1757812 -0.117188,-0.4921875 -0.503907,-0.4921875 -0.199218,0 -0.632812,0.058594 -1.054687,0.46875 -0.421875,-0.328125 -0.84375,-0.3632812 -1.054688,-0.3632812 -0.925781,0 -1.617187,0.6914062 -1.617187,1.453125 0,0.4453125 0.222656,0.8203125 0.46875,1.03125 -0.128906,0.1523437 -0.304688,0.4804687 -0.304688,0.8203125 0,0.31640624 0.128907,0.69140624 0.433594,0.89062499 -0.597656,0.17578125 -0.914062,0.59765625 -0.914062,0.99609375 0,0.71484376 0.984375,1.26562496 2.203125,1.26562496 1.171875,0 2.203125,-0.5039062 2.203125,-1.28906246 0,-0.33984375 -0.140625,-0.85546875 -0.644532,-1.125 -0.527343,-0.28125 -1.101562,-0.28125 -1.710937,-0.28125 -0.246094,0 -0.679688,0 -0.75,-0.0117188 -0.316406,-0.046875 -0.527344,-0.35156254 -0.527344,-0.66796874 z m 1.441406,3.1523438 c -1.007812,0 -1.699218,-0.515625 -1.699218,-1.04296876 0,-0.45703125 0.375,-0.8203125 0.820312,-0.85546875 h 0.585938 c 0.855468,0 1.96875,0 1.96875,0.85546875 0,0.53906246 -0.703125,1.04296876 -1.675782,1.04296876 z m 4.558594,-3.7617188 c 0.222656,0.035156 1.03125,0.1992188 1.03125,0.9140625 0,0.51562504 -0.351562,0.91406254 -1.125,0.91406254 -0.832031,0 -1.195312,-0.57421875 -1.382812,-1.41796874 -0.03516,-0.1289063 -0.03516,-0.1757813 -0.140625,-0.1757813 -0.128907,0 -0.128907,0.070312 -0.128907,0.2578125 v 1.31250004 c 0,0.1640625 0,0.234375 0.105469,0.234375 0.05859,0 0.07031,0 0.257813,-0.19921875 0.01172,-0.01171875 0.01172,-0.03515625 0.199218,-0.22265625 0.433594,0.421875 0.878907,0.421875 1.089844,0.421875 1.148438,0 1.605469,-0.66796875 1.605469,-1.38281254 0,-0.5273437 -0.292969,-0.8203125 -0.421875,-0.9492187 -0.328125,-0.3164063 -0.714844,-0.3984375 -1.136719,-0.46875 -0.550781,-0.1171875 -1.21875,-0.2460938 -1.21875,-0.8203125 0,-0.3515625 0.257813,-0.7617188 1.113281,-0.7617188 1.101563,0 1.148438,0.9023438 1.171875,1.2070313 0,0.09375 0.09375,0.09375 0.117188,0.09375 0.128906,0 0.128906,-0.046875 0.128906,-0.2460938 v -0.9960937 c 0,-0.1757813 0,-0.2460938 -0.117187,-0.2460938 -0.04687,0 -0.07031,0 -0.199219,0.1171875 -0.02344,0.046875 -0.128906,0.1289063 -0.164063,0.1640625 -0.375,-0.28125 -0.785156,-0.28125 -0.9375,-0.28125 -1.21875,0 -1.59375,0.6679688 -1.59375,1.2304688 0,0.3398437 0.164063,0.6210937 0.433594,0.84375 0.316406,0.2578125 0.597656,0.3164062 1.3125,0.4570312 z m 5.639649,1.38281254 v 0.65625 L 43.250406,-6.328125e-4 V -0.30532031 c -0.703125,0 -0.773437,-0.0703125 -0.773437,-0.5625 V -6.9146953 l -1.441406,0.1054687 v 0.3164063 c 0.703125,0 0.785156,0.070312 0.785156,0.5507812 v 2.15625 c -0.292969,-0.3632812 -0.726563,-0.6210937 -1.265625,-0.6210937 -1.171875,0 -2.214844,0.984375 -2.214844,2.2617187 0,1.26562504 0.972656,2.25000004 2.109375,2.25000004 0.644531,0 1.089844,-0.33984375 1.335938,-0.65625 z m 0,-2.67187504 v 2.0507813 c 0,0.17578124 0,0.19921874 -0.105469,0.36328124 -0.304688,0.48046875 -0.75,0.703125 -1.183594,0.703125 -0.445312,0 -0.796875,-0.2578125 -1.042969,-0.64453125 C 39.195716,-1.1607891 39.16056,-1.7232891 39.16056,-2.1334453 c 0,-0.3632813 0.02344,-0.9609375 0.316406,-1.4179688 0.210937,-0.3046875 0.585937,-0.6328125 1.125,-0.6328125 0.351562,0 0.761719,0.1523438 1.078125,0.5976563 0.105469,0.1640625 0.105469,0.1875 0.105469,0.3632812 z m 5.065429,2.46093754 c 0.03516,0.3984375 0.304688,0.8203125 0.773438,0.8203125 0.210937,0 0.820312,-0.140625 0.820312,-0.94921875 V -1.4420391 h -0.246094 v 0.55078129 c 0,0.5859375 -0.246093,0.64453125 -0.363281,0.64453125 -0.328125,0 -0.363281,-0.45703125 -0.363281,-0.50390625 V -2.7428203 c 0,-0.4101563 0,-0.8085938 -0.363281,-1.171875 -0.386719,-0.3867188 -0.878907,-0.5507813 -1.359375,-0.5507813 -0.820313,0 -1.511719,0.46875 -1.511719,1.125 0,0.3046875 0.199219,0.46875 0.457031,0.46875 0.28125,0 0.46875,-0.1992187 0.46875,-0.4570312 0,-0.1171875 -0.05859,-0.4453125 -0.515625,-0.4570313 0.269531,-0.3515625 0.761719,-0.4570312 1.078125,-0.4570312 0.492188,0 1.054688,0.3867187 1.054688,1.2773437 v 0.3632813 c -0.503907,0.035156 -1.207032,0.058594 -1.828125,0.3632812 -0.75,0.3398438 -0.996094,0.8554688 -0.996094,1.28906254 0,0.80859375 0.960937,1.0546875 1.59375,1.0546875 0.65625,0 1.113281,-0.3984375 1.300781,-0.8671875 z M 46.78068,-2.3912578 v 0.9960937 c 0,0.94921879 -0.714844,1.28906254 -1.160157,1.28906254 -0.492187,0 -0.902343,-0.3515625 -0.902343,-0.85546875 0,-0.53906249 0.421875,-1.37109379 2.0625,-1.42968749 z m 3.459961,-1.59375 h 1.429687 v -0.3046875 h -1.429687 v -1.8398438 h -0.246094 c -0.01172,0.8203125 -0.316406,1.8867188 -1.289063,1.921875 v 0.2226563 h 0.84375 v 2.7539062 c 0,1.21875004 0.925782,1.33593754 1.289063,1.33593754 0.703125,0 0.984375,-0.703125 0.984375,-1.33593754 v -0.5742187 h -0.246094 v 0.5507812 c 0,0.73828129 -0.304687,1.11328129 -0.667969,1.11328129 -0.667968,0 -0.667968,-0.90234379 -0.667968,-1.07812499 z m 5.466797,3.22265624 c 0.03516,0.3984375 0.304687,0.8203125 0.773437,0.8203125 0.210938,0 0.820313,-0.140625 0.820313,-0.94921875 V -1.4420391 h -0.246094 v 0.55078129 c 0,0.5859375 -0.246094,0.64453125 -0.363281,0.64453125 -0.328125,0 -0.363282,-0.45703125 -0.363282,-0.50390625 V -2.7428203 c 0,-0.4101563 0,-0.8085938 -0.363281,-1.171875 -0.386719,-0.3867188 -0.878906,-0.5507813 -1.359375,-0.5507813 -0.820312,0 -1.511719,0.46875 -1.511719,1.125 0,0.3046875 0.199219,0.46875 0.457032,0.46875 0.28125,0 0.46875,-0.1992187 0.46875,-0.4570312 0,-0.1171875 -0.05859,-0.4453125 -0.515625,-0.4570313 0.269531,-0.3515625 0.761718,-0.4570312 1.078125,-0.4570312 0.492187,0 1.054687,0.3867187 1.054687,1.2773437 v 0.3632813 c -0.503906,0.035156 -1.207031,0.058594 -1.828125,0.3632812 -0.75,0.3398438 -0.996094,0.8554688 -0.996094,1.28906254 0,0.80859375 0.960938,1.0546875 1.59375,1.0546875 0.65625,0 1.113282,-0.3984375 1.300782,-0.8671875 z m -0.07031,-1.62890624 v 0.9960937 c 0,0.94921879 -0.714844,1.28906254 -1.160156,1.28906254 -0.492188,0 -0.902344,-0.3515625 -0.902344,-0.85546875 0,-0.53906249 0.421875,-1.37109379 2.0625,-1.42968749 z m 0,0"
       style="fill:#000000;fill-opacity:1;fill-rule:nonzero;stroke:none"
       aria-label="Tr¨aningsdata"
       transform="matrix(1.3333333,0,0,1.3333333,62.254667,87.536)" />
    <path
       id="path5"
       d="m 89.10829,25.51233 h 68.0322 v 28.34679 h -68.0322 z"
       style="fill:#70c1fa;fill-opacity:1;fill-rule:nonzero;stroke:#000000;stroke-width:0.3985;stroke-linecap:butt;stroke-linejoin:miter;stroke-miterlimit:10;stroke-dasharray:none;stroke-opacity:1"
       transform="matrix(1.3333333,0,0,-1.3333333,100.5,84.216)" />
    <path
       id="path6"
       d="m 2.2136875,-3.6449844 v -2.4492187 c 0,-0.328125 0.011719,-0.3984375 0.4804688,-0.3984375 h 1.2421875 c 0.9609375,0 1.3125,0.84375 1.3125,1.3710937 0,0.6328125 -0.4921875,1.4765625 -1.59375,1.4765625 z m 2.34375,0.09375 c 0.9726563,-0.1992187 1.6523438,-0.8320312 1.6523438,-1.5703125 0,-0.8671875 -0.9140625,-1.6875 -2.203125,-1.6875 H 0.362125 v 0.3164063 H 0.5965 c 0.7617188,0 0.7851563,0.1054687 0.7851563,0.46875 v 5.24999998 c 0,0.3515625 -0.023437,0.46875 -0.7851563,0.46875 H 0.362125 v 0.304687495 h 3.9023438 c 1.3242187,0 2.2148437,-0.890624995 2.2148437,-1.828124975 0,-0.8671875 -0.8085937,-1.6054688 -1.921875,-1.7226563 z m -0.609375,3.24609378 H 2.6941563 c -0.46875,0 -0.4804688,-0.0703125 -0.4804688,-0.3984375 V -3.4223281 h 1.875 c 0.984375,0 1.3945313,0.9257812 1.3945313,1.59375 0,0.703125 -0.515625,1.52343748 -1.5351563,1.52343748 z M 8.1697422,-2.5082656 c 0.058594,-1.4882813 0.9023437,-1.734375 1.2421875,-1.734375 1.0195313,0 1.1250003,1.3476562 1.1250003,1.734375 z m -0.011719,0.2109375 h 2.7890628 c 0.210937,0 0.246094,0 0.246094,-0.2109375 0,-0.984375 -0.539063,-1.9570313 -1.7812505,-1.9570313 -1.1601563,0 -2.0742188,1.03125 -2.0742188,2.2734375 0,1.33593753 1.0429688,2.29687503 2.1914063,2.29687503 1.21875,0 1.664063,-1.1015625 1.664063,-1.28906253 0,-0.1054687 -0.08203,-0.1171875 -0.128907,-0.1171875 -0.09375,0 -0.117187,0.058594 -0.128906,0.140625 -0.351562,1.01953128 -1.2539063,1.01953128 -1.3476563,1.01953128 -0.5039062,0 -0.9023437,-0.29296875 -1.125,-0.66796875 C 8.1580234,-1.2895156 8.1580234,-1.9457656 8.1580232,-2.2973281 Z m 5.3994148,0.3632812 c 0.222656,0.035156 1.03125,0.1992188 1.03125,0.9140625 0,0.51562503 -0.351563,0.91406253 -1.125,0.91406253 -0.832032,0 -1.195313,-0.57421875 -1.382813,-1.41796873 -0.03516,-0.1289063 -0.03516,-0.1757813 -0.140625,-0.1757813 -0.128906,0 -0.128906,0.070312 -0.128906,0.2578125 v 1.31250003 c 0,0.1640625 0,0.234375 0.105469,0.234375 0.05859,0 0.07031,0 0.257812,-0.19921875 0.01172,-0.01171875 0.01172,-0.03515625 0.199219,-0.22265625 0.433594,0.421875 0.878906,0.421875 1.089844,0.421875 1.148437,0 1.605468,-0.66796875 1.605468,-1.38281253 0,-0.5273437 -0.292968,-0.8203125 -0.421875,-0.9492187 -0.328125,-0.3164063 -0.714843,-0.3984375 -1.136718,-0.46875 -0.550782,-0.1171875 -1.21875,-0.2460938 -1.21875,-0.8203125 0,-0.3515625 0.257812,-0.7617188 1.113281,-0.7617188 1.101562,0 1.148437,0.9023438 1.171875,1.2070313 0,0.09375 0.09375,0.09375 0.117187,0.09375 0.128907,0 0.128907,-0.046875 0.128907,-0.2460938 v -0.9960937 c 0,-0.1757813 0,-0.2460938 -0.117188,-0.2460938 -0.04687,0 -0.07031,0 -0.199219,0.1171875 -0.02344,0.046875 -0.128906,0.1289063 -0.164062,0.1640625 -0.375,-0.28125 -0.785156,-0.28125 -0.9375,-0.28125 -1.21875,0 -1.59375,0.6679688 -1.59375,1.2304688 0,0.3398437 0.164062,0.6210937 0.433594,0.84375 0.316406,0.2578125 0.597656,0.3164062 1.3125,0.4570312 z m 3.612304,-4.9804687 -1.429687,0.1054687 v 0.3164063 c 0.703125,0 0.773437,0.070312 0.773437,0.5507812 v 5.17968753 c 0,0.45703125 -0.105469,0.45703125 -0.773437,0.45703125 v 0.304687495 c 0.328125,-0.011718745 0.855468,-0.035156245 1.101562,-0.035156245 0.257813,0 0.738281,0.0234375 1.113281,0.035156245 V -0.30514062 c -0.667968,0 -0.785156,0 -0.785156,-0.45703125 z m 4.901367,6.12890623 v 0.890625 L 23.512516,-4.53125e-4 V -0.30514062 c -0.703125,0 -0.785157,-0.0703125 -0.785157,-0.5625 V -4.4067031 l -1.453125,0.1171875 v 0.3046875 c 0.691407,0 0.773438,0.070312 0.773438,0.5625 v 1.7695312 c 0,0.86718753 -0.480469,1.54687503 -1.207031,1.54687503 -0.832032,0 -0.878907,-0.46875 -0.878907,-0.99609373 v -3.3046875 l -1.464843,0.1171875 v 0.3046875 c 0.785156,0 0.785156,0.035156 0.785156,0.9140625 v 1.5 c 0,0.77343748 0,1.67578123 1.511719,1.67578123 0.550781,0 0.996093,-0.26953125 1.277343,-0.890625 z M 25.43732,-3.9848281 h 1.429688 V -4.2895156 H 25.43732 v -1.8398438 h -0.246093 c -0.01172,0.8203125 -0.316407,1.8867188 -1.289063,1.921875 v 0.2226563 h 0.84375 v 2.7539062 c 0,1.21875003 0.925781,1.33593753 1.289063,1.33593753 0.703125,0 0.984375,-0.703125 0.984375,-1.33593753 v -0.5742187 h -0.246094 v 0.5507812 c 0,0.73828128 -0.304688,1.11328128 -0.667969,1.11328128 -0.667969,0 -0.667969,-0.90234378 -0.667969,-1.07812498 z m 4.227539,2.0507812 c 0.222657,0.035156 1.03125,0.1992188 1.03125,0.9140625 0,0.51562503 -0.351562,0.91406253 -1.125,0.91406253 -0.832031,0 -1.195312,-0.57421875 -1.382812,-1.41796873 -0.03516,-0.1289063 -0.03516,-0.1757813 -0.140625,-0.1757813 -0.128906,0 -0.128906,0.070312 -0.128906,0.2578125 v 1.31250003 c 0,0.1640625 0,0.234375 0.105468,0.234375 0.05859,0 0.07031,0 0.257813,-0.19921875 0.01172,-0.01171875 0.01172,-0.03515625 0.199219,-0.22265625 0.433593,0.421875 0.878906,0.421875 1.089843,0.421875 1.148438,0 1.605469,-0.66796875 1.605469,-1.38281253 0,-0.5273437 -0.292969,-0.8203125 -0.421875,-0.9492187 -0.328125,-0.3164063 -0.714844,-0.3984375 -1.136719,-0.46875 -0.550781,-0.1171875 -1.21875,-0.2460938 -1.21875,-0.8203125 0,-0.3515625 0.257813,-0.7617188 1.113282,-0.7617188 1.101562,0 1.148437,0.9023438 1.171875,1.2070313 0,0.09375 0.09375,0.09375 0.117187,0.09375 0.128906,0 0.128906,-0.046875 0.128906,-0.2460938 v -0.9960937 c 0,-0.1757813 0,-0.2460938 -0.117187,-0.2460938 -0.04687,0 -0.07031,0 -0.199219,0.1171875 -0.02344,0.046875 -0.128906,0.1289063 -0.164062,0.1640625 -0.375,-0.28125 -0.785157,-0.28125 -0.9375,-0.28125 -1.21875,0 -1.59375,0.6679688 -1.59375,1.2304688 0,0.3398437 0.164062,0.6210937 0.433593,0.84375 0.316407,0.2578125 0.597657,0.3164062 1.3125,0.4570312 z m 3.577149,-2.0507812 h 1.429687 v -0.3046875 h -1.429687 v -1.8398438 h -0.246094 c -0.01172,0.8203125 -0.316406,1.8867188 -1.289062,1.921875 v 0.2226563 h 0.84375 v 2.7539062 c 0,1.21875003 0.925781,1.33593753 1.289062,1.33593753 0.703125,0 0.984375,-0.703125 0.984375,-1.33593753 v -0.5742187 h -0.246094 v 0.5507812 c 0,0.73828128 -0.304687,1.11328128 -0.667968,1.11328128 -0.667969,0 -0.667969,-0.90234378 -0.667969,-1.07812498 z m 3.817383,0.6796875 v -1.1015625 l -1.382813,0.1171875 v 0.3046875 c 0.691406,0 0.773438,0.070312 0.773438,0.5625 v 2.66015623 c 0,0.45703125 -0.105469,0.45703125 -0.773438,0.45703125 v 0.304687495 c 0.386719,-0.011718745 0.855469,-0.035156245 1.136719,-0.035156245 0.398437,0 0.867187,0 1.265625,0.035156245 V -0.30514062 h -0.210938 c -0.738281,0 -0.761718,-0.1171875 -0.761718,-0.46875 V -2.3090469 c 0,-0.984375 0.421875,-1.875 1.183593,-1.875 0.05859,0 0.08203,0 0.105469,0.011719 -0.03516,0.011719 -0.234375,0.1289062 -0.234375,0.3867187 0,0.28125 0.210938,0.4335938 0.433594,0.4335938 0.175781,0 0.421875,-0.1289063 0.421875,-0.4453125 0,-0.3164063 -0.304688,-0.609375 -0.726563,-0.609375 -0.738281,0 -1.089843,0.6679687 -1.230468,1.1015623 z m 4.265625,-2.859375 c 0,-0.2460938 -0.199219,-0.5039063 -0.503907,-0.5039063 -0.28125,0 -0.492187,0.2226563 -0.492187,0.5039063 0,0.28125 0.210937,0.4921875 0.492187,0.4921875 0.304688,0 0.503907,-0.2578125 0.503907,-0.4921875 z m 1.921875,0 c 0,-0.28125 -0.222657,-0.5039063 -0.503907,-0.5039063 -0.292968,0 -0.492187,0.2578125 -0.492187,0.5039063 0,0.234375 0.199219,0.4921875 0.492187,0.4921875 0.28125,0 0.503907,-0.2109375 0.503907,-0.4921875 z m -0.632813,5.40234373 c 0.03516,0.3984375 0.304688,0.8203125 0.773438,0.8203125 0.210937,0 0.820312,-0.140625 0.820312,-0.94921875 V -1.4418594 h -0.246094 v 0.55078128 c 0,0.5859375 -0.246093,0.64453125 -0.363281,0.64453125 -0.328125,0 -0.363281,-0.45703125 -0.363281,-0.50390625 V -2.7426406 c 0,-0.4101563 0,-0.8085938 -0.363281,-1.171875 -0.386719,-0.3867188 -0.878907,-0.5507813 -1.359375,-0.5507813 -0.820313,0 -1.511719,0.46875 -1.511719,1.125 0,0.3046875 0.199219,0.46875 0.457031,0.46875 0.28125,0 0.46875,-0.1992187 0.46875,-0.4570312 0,-0.1171875 -0.05859,-0.4453125 -0.515625,-0.4570313 0.269531,-0.3515625 0.761719,-0.4570312 1.078125,-0.4570312 0.492188,0 1.054688,0.3867187 1.054688,1.2773437 v 0.3632813 c -0.503907,0.035156 -1.207032,0.058594 -1.828125,0.3632812 -0.75,0.3398438 -0.996094,0.8554688 -0.996094,1.28906253 0,0.80859375 0.960937,1.0546875 1.59375,1.0546875 0.65625,0 1.113281,-0.3984375 1.300781,-0.8671875 z m -0.07031,-1.62890623 v 0.9960937 c 0,0.94921878 -0.714844,1.28906253 -1.160157,1.28906253 -0.492187,0 -0.902343,-0.3515625 -0.902343,-0.85546875 0,-0.53906248 0.421875,-1.37109378 2.0625,-1.42968748 z m 5.519531,1.83984373 v 0.65625 L 49.528141,-4.53125e-4 V -0.30514062 c -0.703125,0 -0.773438,-0.0703125 -0.773438,-0.5625 V -6.9145156 l -1.441406,0.1054687 v 0.3164063 c 0.703125,0 0.785156,0.070312 0.785156,0.5507812 v 2.15625 c -0.292969,-0.3632812 -0.726562,-0.6210937 -1.265625,-0.6210937 -1.171875,0 -2.214844,0.984375 -2.214844,2.2617187 0,1.26562503 0.972657,2.25000003 2.109375,2.25000003 0.644532,0 1.089844,-0.33984375 1.335938,-0.65625 z m 0,-2.67187503 v 2.0507813 c 0,0.17578123 0,0.19921873 -0.105469,0.36328123 -0.304687,0.48046875 -0.75,0.703125 -1.183594,0.703125 -0.445312,0 -0.796875,-0.2578125 -1.042968,-0.64453125 -0.257813,-0.41015628 -0.292969,-0.97265628 -0.292969,-1.38281248 0,-0.3632813 0.02344,-0.9609375 0.316406,-1.4179688 0.210938,-0.3046875 0.585938,-0.6328125 1.125,-0.6328125 0.351563,0 0.761719,0.1523438 1.078125,0.5976563 0.105469,0.1640625 0.105469,0.1875 0.105469,0.3632812 z m 0,0"
       style="fill:#000000;fill-opacity:1;fill-rule:nonzero;stroke:none"
       aria-label="Beslutstr¨ad"
       transform="matrix(1.3333333,0,0,1.3333333,231.45467,35.914667)" />
    <path
       id="path7"
       d="m 89.10829,-53.8584 h 75.88252 v 28.34679 H 89.10829 Z"
       style="fill:#70c1fa;fill-opacity:1;fill-rule:nonzero;stroke:#000000;stroke-width:0.3985;stroke-linecap:butt;stroke-linejoin:miter;stroke-miterlimit:10;stroke-dasharray:none;stroke-opacity:1"
       transform="matrix(1.3333333,0,0,-1.3333333,100.5,84.216)" />
    <path
       id="path8"
       d="m 2.3093047,-6.6790469 c -0.082031,-0.1171875 -0.09375,-0.1289062 -0.28125,-0.1289062 H 0.32883594 v 0.3164062 h 0.29296875 c 0.140625,0 0.33984375,0.011719 0.49218751,0.011719 0.234375,0.035156 0.2460937,0.046875 0.2460937,0.234375 v 5.203125 c 0,0.26953123 0,0.73828123 -1.03124996,0.73828123 V 6.40625e-4 C 0.68039844,-0.01107812 1.1608672,-0.03451562 1.5007109,-0.03451562 c 0.328125,0 0.8085938,0.0234375 1.1601563,0.035156245 V -0.30404687 c -1.03125,0 -1.03125,-0.46875 -1.03125,-0.73828123 v -5.1796875 c 0.058594,0.046875 0.070312,0.058594 0.1054687,0.1171875 l 4.0664063,5.97656248 c 0.082031,0.1171875 0.09375,0.128906245 0.1640625,0.128906245 0.140625,0 0.140625,-0.070312495 0.140625,-0.257812495 V -5.7532656 c 0,-0.2695313 0,-0.7382813 1.03125,-0.7382813 v -0.3164062 c -0.3515625,0.011719 -0.84375,0.035156 -1.171875,0.035156 -0.328125,0 -0.8203125,-0.023437 -1.1601563,-0.035156 v 0.3164062 c 1.0195313,0 1.0195313,0.46875 1.0195313,0.7382813 v 4.2539062 z m 6.2753906,4.171875 c 0.058594,-1.4882812 0.9023438,-1.734375 1.2421875,-1.734375 1.0195312,0 1.1250002,1.3476563 1.1250002,1.734375 z m -0.011719,0.2109375 h 2.7890627 c 0.210938,0 0.246094,0 0.246094,-0.2109375 0,-0.984375 -0.539063,-1.9570312 -1.7812505,-1.9570312 -1.1601562,0 -2.0742187,1.03125 -2.0742187,2.2734375 0,1.33593748 1.0429687,2.29687498 2.1914062,2.29687498 1.21875,0 1.664063,-1.1015625 1.664063,-1.28906248 0,-0.1054688 -0.08203,-0.1171875 -0.128906,-0.1171875 -0.09375,0 -0.117188,0.058594 -0.128907,0.140625 -0.351562,1.01953123 -1.253906,1.01953123 -1.347656,1.01953123 -0.5039065,0 -0.902344,-0.29296875 -1.1250002,-0.66796875 C 8.5729766,-1.2884219 8.5729766,-1.9446719 8.5729763,-2.2962344 Z m 7.2158207,1.51171878 v 0.890625 L 17.230203,6.40625e-4 V -0.30404687 c -0.703125,0 -0.785156,-0.0703125 -0.785156,-0.5625 V -4.4056094 l -1.453125,0.1171875 v 0.3046875 c 0.691406,0 0.773437,0.070312 0.773437,0.5625 v 1.7695313 c 0,0.86718748 -0.480468,1.54687498 -1.207031,1.54687498 -0.832031,0 -0.878906,-0.46875 -0.878906,-0.99609378 v -3.3046875 l -1.464844,0.1171875 v 0.3046875 c 0.785156,0 0.785156,0.035156 0.785156,0.9140625 v 1.5 c 0,0.77343753 0,1.67578128 1.511719,1.67578128 0.550781,0 0.996094,-0.26953125 1.277344,-0.890625 z m 3.310547,-2.51953128 v -1.1015625 l -1.382813,0.1171875 v 0.3046875 c 0.691407,0 0.773438,0.070312 0.773438,0.5625 v 2.66015628 c 0,0.45703125 -0.105469,0.45703125 -0.773438,0.45703125 V 6.40625e-4 C 18.10325,-0.01107812 18.572,-0.03451562 18.85325,-0.03451562 c 0.398438,0 0.867188,0 1.265625,0.035156245 V -0.30404687 h -0.210937 c -0.738282,0 -0.761719,-0.1171875 -0.761719,-0.46875 V -2.3079531 c 0,-0.984375 0.421875,-1.875 1.183594,-1.875 0.05859,0 0.08203,0 0.105468,0.011719 -0.03516,0.011719 -0.234375,0.1289063 -0.234375,0.3867188 0,0.28125 0.210938,0.4335937 0.433594,0.4335937 0.175781,0 0.421875,-0.1289062 0.421875,-0.4453125 0,-0.3164062 -0.304687,-0.609375 -0.726562,-0.609375 -0.738282,0 -1.089844,0.6679688 -1.230469,1.1015622 z m 5.554687,2.54296878 c 0.03516,0.3984375 0.304688,0.8203125 0.773438,0.8203125 0.210937,0 0.820312,-0.140625 0.820312,-0.94921875 V -1.4407656 h -0.246093 v 0.55078123 c 0,0.5859375 -0.246094,0.64453125 -0.363282,0.64453125 -0.328125,0 -0.363281,-0.45703125 -0.363281,-0.50390625 V -2.7415469 c 0,-0.4101562 0,-0.8085937 -0.363281,-1.171875 -0.386719,-0.3867187 -0.878906,-0.5507812 -1.359375,-0.5507812 -0.820313,0 -1.511719,0.46875 -1.511719,1.125 0,0.3046875 0.199219,0.46875 0.457031,0.46875 0.28125,0 0.46875,-0.1992188 0.46875,-0.4570313 0,-0.1171875 -0.05859,-0.4453125 -0.515625,-0.4570312 0.269532,-0.3515625 0.761719,-0.4570313 1.078125,-0.4570313 0.492188,0 1.054688,0.3867188 1.054688,1.2773438 v 0.3632812 c -0.503906,0.035156 -1.207031,0.058594 -1.828125,0.3632813 -0.75,0.3398437 -0.996094,0.8554687 -0.996094,1.28906248 0,0.80859375 0.960938,1.0546875 1.59375,1.0546875 0.65625,0 1.113281,-0.3984375 1.300781,-0.8671875 z m -0.07031,-1.62890628 v 0.9960938 c 0,0.94921873 -0.714844,1.28906248 -1.160156,1.28906248 -0.492188,0 -0.902344,-0.3515625 -0.902344,-0.85546875 0,-0.53906253 0.421875,-1.37109373 2.0625,-1.42968753 z m 3.492187,-4.5234375 -1.429687,0.1054688 v 0.3164062 c 0.703125,0 0.773437,0.070312 0.773437,0.5507813 v 5.17968748 c 0,0.45703125 -0.105468,0.45703125 -0.773437,0.45703125 V 6.40625e-4 c 0.328125,-0.011718745 0.855469,-0.035156245 1.101562,-0.035156245 0.257813,0 0.738282,0.0234375 1.113282,0.035156245 V -0.30404687 c -0.667969,0 -0.785157,0 -0.785157,-0.45703125 z m 2.733399,2.9296875 h 1.429687 v -0.3046875 h -1.429687 v -1.8398437 h -0.246094 c -0.01172,0.8203125 -0.316406,1.8867187 -1.289063,1.921875 v 0.2226562 h 0.84375 v 2.7539063 c 0,1.21874998 0.925782,1.33593748 1.289063,1.33593748 0.703125,0 0.984375,-0.703125 0.984375,-1.33593748 v -0.5742188 h -0.246094 v 0.5507813 c 0,0.73828123 -0.304687,1.11328123 -0.667969,1.11328123 -0.667968,0 -0.667968,-0.90234373 -0.667968,-1.07812503 z m 6.571289,0.5625 v 2.66015628 c 0,0.45703125 -0.117188,0.45703125 -0.785156,0.45703125 V 6.40625e-4 c 0.351562,-0.011718745 0.855468,-0.035156245 1.125,-0.035156245 0.257812,0 0.785156,0.0234375 1.113281,0.035156245 V -0.30404687 c -0.65625,0 -0.773438,0 -0.773438,-0.45703125 V -2.5892031 c 0,-1.03125 0.714844,-1.59375 1.347657,-1.59375 0.621093,0 0.738281,0.5390625 0.738281,1.1015625 v 2.32031248 c 0,0.45703125 -0.117188,0.45703125 -0.773438,0.45703125 V 6.40625e-4 c 0.339844,-0.011718745 0.855469,-0.035156245 1.125,-0.035156245 0.257813,0 0.773438,0.0234375 1.113282,0.035156245 V -0.30404687 c -0.515625,0 -0.773438,0 -0.785157,-0.3046875 V -2.5071719 c 0,-0.8554687 0,-1.171875 -0.304687,-1.5234375 -0.140625,-0.1757812 -0.46875,-0.375 -1.042969,-0.375 -0.726562,0 -1.195312,0.4335938 -1.476562,1.0546875 v -1.0546875 l -1.40625,0.1171875 v 0.3046875 c 0.703125,0 0.785156,0.070312 0.785156,0.5625 z m 6.459961,-2.7421875 c 0,-0.2460937 -0.199219,-0.5039062 -0.503907,-0.5039062 -0.28125,0 -0.492187,0.2226562 -0.492187,0.5039062 0,0.28125 0.210937,0.4921875 0.492187,0.4921875 0.304688,0 0.503907,-0.2578125 0.503907,-0.4921875 z m 1.921875,0 c 0,-0.28125 -0.222657,-0.5039062 -0.503907,-0.5039062 -0.292968,0 -0.492187,0.2578125 -0.492187,0.5039062 0,0.234375 0.199219,0.4921875 0.492187,0.4921875 0.28125,0 0.503907,-0.2109375 0.503907,-0.4921875 z m -0.632813,5.40234378 c 0.03516,0.3984375 0.304688,0.8203125 0.773438,0.8203125 0.210937,0 0.820312,-0.140625 0.820312,-0.94921875 V -1.4407656 h -0.246094 v 0.55078123 c 0,0.5859375 -0.246093,0.64453125 -0.363281,0.64453125 -0.328125,0 -0.363281,-0.45703125 -0.363281,-0.50390625 V -2.7415469 c 0,-0.4101562 0,-0.8085937 -0.363281,-1.171875 -0.386719,-0.3867187 -0.878907,-0.5507812 -1.359375,-0.5507812 -0.820313,0 -1.511719,0.46875 -1.511719,1.125 0,0.3046875 0.199219,0.46875 0.457031,0.46875 0.28125,0 0.46875,-0.1992188 0.46875,-0.4570313 0,-0.1171875 -0.05859,-0.4453125 -0.515625,-0.4570312 0.269531,-0.3515625 0.761719,-0.4570313 1.078125,-0.4570313 0.492188,0 1.054688,0.3867188 1.054688,1.2773438 v 0.3632812 c -0.503907,0.035156 -1.207032,0.058594 -1.828125,0.3632813 -0.75,0.3398437 -0.996094,0.8554687 -0.996094,1.28906248 0,0.80859375 0.960937,1.0546875 1.59375,1.0546875 0.65625,0 1.113281,-0.3984375 1.300781,-0.8671875 z m -0.07031,-1.62890628 v 0.9960938 c 0,0.94921873 -0.714844,1.28906248 -1.160157,1.28906248 -0.492187,0 -0.902343,-0.3515625 -0.902343,-0.85546875 0,-0.53906253 0.421875,-1.37109373 2.0625,-1.42968753 z m 3.457031,-1.59375 h 1.429687 V -4.2884219 H 48.51634 v -1.8398437 h -0.246094 c -0.01172,0.8203125 -0.316406,1.8867187 -1.289062,1.921875 v 0.2226562 h 0.84375 v 2.7539063 c 0,1.21874998 0.925781,1.33593748 1.289062,1.33593748 0.703125,0 0.984375,-0.703125 0.984375,-1.33593748 v -0.5742188 h -0.246094 v 0.5507813 c 0,0.73828123 -0.304687,1.11328123 -0.667968,1.11328123 -0.667969,0 -0.667969,-0.90234373 -0.667969,-1.07812503 z m 6.301758,0.6679688 c 0.08203,-0.234375 0.257812,-0.65625 0.914062,-0.6679688 v -0.3046875 c -0.234375,0.011719 -0.515625,0.023437 -0.75,0.023437 -0.234375,0 -0.691406,-0.023437 -0.867187,-0.023437 v 0.3046875 c 0.375,0.011719 0.480469,0.234375 0.480469,0.4335938 0,0.082031 -0.02344,0.1289062 -0.05859,0.234375 l -1.019531,2.54296873 -1.113282,-2.77734373 c -0.05859,-0.140625 -0.05859,-0.1523438 -0.05859,-0.1757813 0,-0.2578125 0.386718,-0.2578125 0.5625,-0.2578125 v -0.3046875 c -0.292969,0 -0.855469,0.023437 -1.078125,0.023437 -0.269532,0 -0.667969,-0.011719 -0.972657,-0.023437 v 0.3046875 c 0.632813,0 0.667969,0.058594 0.796875,0.3632813 l 1.441407,3.53906248 c 0.05859,0.140625 0.07031,0.1875 0.199218,0.1875 0.128907,0 0.175782,-0.08203125 0.210938,-0.1875 z m 1.942383,0.8085937 c 0.05859,-1.4882812 0.902343,-1.734375 1.242187,-1.734375 1.019531,0 1.125,1.3476563 1.125,1.734375 z m -0.01172,0.2109375 h 2.789062 c 0.210938,0 0.246094,0 0.246094,-0.2109375 0,-0.984375 -0.539062,-1.9570312 -1.78125,-1.9570312 -1.160156,0 -2.074219,1.03125 -2.074219,2.2734375 0,1.33593748 1.042969,2.29687498 2.191407,2.29687498 1.21875,0 1.664062,-1.1015625 1.664062,-1.28906248 0,-0.1054688 -0.08203,-0.1171875 -0.128906,-0.1171875 -0.09375,0 -0.117188,0.058594 -0.128906,0.140625 -0.351563,1.01953123 -1.253907,1.01953123 -1.347657,1.01953123 -0.503906,0 -0.902343,-0.29296875 -1.125,-0.66796875 -0.30469,-0.48046878 -0.30469,-1.13671878 -0.30469,-1.48828128 z m 4.992187,-1.0078125 v -1.1015625 l -1.382812,0.1171875 v 0.3046875 c 0.691406,0 0.773437,0.070312 0.773437,0.5625 v 2.66015628 c 0,0.45703125 -0.105468,0.45703125 -0.773437,0.45703125 V 6.40625e-4 c 0.386719,-0.011718745 0.855469,-0.035156245 1.136719,-0.035156245 0.398437,0 0.867187,0 1.265625,0.035156245 V -0.30404687 h -0.210938 c -0.738281,0 -0.761719,-0.1171875 -0.761719,-0.46875 V -2.3079531 c 0,-0.984375 0.421875,-1.875 1.183594,-1.875 0.05859,0 0.08203,0 0.105469,0.011719 -0.03516,0.011719 -0.234375,0.1289063 -0.234375,0.3867188 0,0.28125 0.210937,0.4335937 0.433594,0.4335937 0.175781,0 0.421875,-0.1289062 0.421875,-0.4453125 0,-0.3164062 -0.304688,-0.609375 -0.726563,-0.609375 -0.738281,0 -1.089844,0.6679688 -1.230469,1.1015622 z m 3.292969,2.54296878 c 0,0.45703125 -0.105469,0.45703125 -0.773437,0.45703125 V 6.40625e-4 c 0.328125,-0.011718745 0.796875,-0.035156245 1.078125,-0.035156245 0.304687,0 0.703125,0.01171875 1.101562,0.035156245 V -0.30404687 c -0.667969,0 -0.773437,0 -0.773437,-0.45703125 V -1.7806094 l 0.632812,-0.5507812 c 0.773438,1.0546875 1.183594,1.61718748 1.183594,1.79296873 0,0.1875 -0.164063,0.234375 -0.351563,0.234375 V 6.40625e-4 c 0.269532,-0.011718745 0.867188,-0.035156245 1.066407,-0.035156245 0.292968,0 0.585937,0.01171875 0.867187,0.035156245 V -0.30404687 c -0.363281,0 -0.585937,0 -0.960937,-0.52734375 L 66.838602,-2.6243594 c -0.01172,-0.011719 -0.05859,-0.070312 -0.05859,-0.1054687 0,-0.035156 0.703125,-0.6328125 0.808594,-0.7148438 0.621093,-0.5039062 1.042968,-0.5273437 1.253906,-0.5390625 v -0.3046875 c -0.292969,0.023437 -0.421875,0.023437 -0.703125,0.023437 -0.351563,0 -0.972656,-0.023437 -1.113281,-0.023437 v 0.3046875 c 0.1875,0.011719 0.292968,0.1171875 0.292968,0.2460938 0,0.1992187 -0.140625,0.3164062 -0.222656,0.3867187 l -1.40625,1.21875 v -4.78125 l -1.429687,0.1054688 v 0.3164062 c 0.691406,0 0.773437,0.070312 0.773437,0.5507813 z m 0,0"
       style="fill:#000000;fill-opacity:1;fill-rule:nonzero;stroke:none"
       aria-label="Neuraltn¨atverk"
       transform="matrix(1.3333333,0,0,1.3333333,223.73733,141.74133)" />
    <path
       id="path9"
       d="m 260.78813,39.68573 c 0,12.85609 -10.42164,23.27776 -23.27775,23.27776 -12.8561,0 -23.27776,-10.42167 -23.27776,-23.27776 0,-12.85609 10.42166,-23.27776 23.27776,-23.27776 12.85611,0 23.27775,10.42167 23.27775,23.27776 z"
       style="fill:#40adf9;fill-opacity:1;fill-rule:nonzero;stroke:#000000;stroke-width:0.3985;stroke-linecap:butt;stroke-linejoin:miter;stroke-miterlimit:10;stroke-dasharray:none;stroke-opacity:1"
       transform="matrix(1.3333333,0,0,-1.3333333,100.5,84.216)" />
    <path
       id="path10"
       d="M 2.4031016,-6.5863906 C 2.3093516,-6.8090469 2.2859141,-6.8090469 2.0515391,-6.8090469 H 0.36403906 v 0.3164063 h 0.24609375 c 0.76171879,0 0.78515629,0.1054687 0.78515629,0.46875 v 4.9804687 c 0,0.26953128 0,0.73828128 -1.03125004,0.73828128 V -4.53125e-4 C 0.71560156,-0.01217187 1.2077891,-0.03560937 1.5359141,-0.03560937 c 0.328125,0 0.8203125,0.0234375 1.1601562,0.035156245 V -0.30514062 c -1.0195312,0 -1.0195312,-0.46875 -1.0195312,-0.73828128 v -5.3671875 h 0.011719 l 2.4023438,6.18750003 c 0.046875,0.12890625 0.09375,0.222656245 0.1992187,0.222656245 0.1054688,0 0.1289063,-0.082031245 0.1757813,-0.187499995 L 6.9148203,-6.4926406 h 0.011719 v 5.71874998 c 0,0.3515625 -0.023437,0.46875 -0.7851563,0.46875 H 5.8952891 v 0.304687495 c 0.375,-0.035156245 1.0429687,-0.035156245 1.4414062,-0.035156245 0.3867188,0 1.0546875,0 1.4179688,0.035156245 V -0.30514062 h -0.234375 c -0.7734375,0 -0.7851563,-0.1171875 -0.7851563,-0.46875 V -6.0238906 c 0,-0.3632813 0.011719,-0.46875 0.7851563,-0.46875 h 0.234375 V -6.8090469 H 7.0788828 c -0.2695312,0 -0.2695312,0.011719 -0.3398437,0.1992188 l -2.1796875,5.6015625 z m 11.4169924,4.453125 c 0,-1.2773438 -0.996094,-2.3320313 -2.191407,-2.3320313 -1.253906,0 -2.2148433,1.0898438 -2.2148433,2.3320313 0,1.28906248 1.0312503,2.23828123 2.2031253,2.23828123 1.207031,0 2.203125,-0.97265625 2.203125,-2.23828123 z m -2.191407,1.99218748 c -0.433593,0 -0.867187,-0.2109375 -1.136718,-0.66796875 -0.257813,-0.43359373 -0.257813,-1.04296873 -0.257813,-1.40625003 0,-0.3867187 0,-0.9257812 0.246094,-1.359375 0.269531,-0.4570312 0.738281,-0.6679687 1.136719,-0.6679687 0.433593,0 0.867187,0.2226562 1.125,0.6445312 0.257812,0.4335938 0.257812,1.0078125 0.257812,1.3828125 0,0.3632813 0,0.9023438 -0.222656,1.33593753 -0.222656,0.4453125 -0.65625,0.73828125 -1.148438,0.73828125 z m 6.550782,-0.41015625 v 0.65625 L 19.644312,-4.53125e-4 V -0.30514062 c -0.703125,0 -0.773437,-0.0703125 -0.773437,-0.5625 V -6.9145156 l -1.441406,0.1054687 v 0.3164063 c 0.703125,0 0.785156,0.070312 0.785156,0.5507812 v 2.15625 C 17.921656,-4.1488906 17.488062,-4.4067031 16.949,-4.4067031 c -1.171875,0 -2.214844,0.984375 -2.214844,2.2617187 0,1.26562503 0.972656,2.25000003 2.109375,2.25000003 0.644531,0 1.089844,-0.33984375 1.335938,-0.65625 z m 0,-2.67187503 v 2.0507813 c 0,0.17578123 0,0.19921873 -0.105469,0.36328123 -0.304688,0.48046875 -0.75,0.703125 -1.183594,0.703125 -0.445312,0 -0.796875,-0.2578125 -1.042969,-0.64453125 -0.257812,-0.41015628 -0.292968,-0.97265628 -0.292968,-1.38281248 0,-0.3632813 0.02344,-0.9609375 0.316406,-1.4179688 0.210937,-0.3046875 0.585937,-0.6328125 1.125,-0.6328125 0.351562,0 0.761719,0.1523438 1.078125,0.5976563 0.105469,0.1640625 0.105469,0.1875 0.105469,0.3632812 z m 2.862304,0.7148438 c 0.05859,-1.4882813 0.902344,-1.734375 1.242188,-1.734375 1.019531,0 1.125,1.3476562 1.125,1.734375 z m -0.01172,0.2109375 h 2.789062 c 0.210938,0 0.246094,0 0.246094,-0.2109375 0,-0.984375 -0.539063,-1.9570313 -1.78125,-1.9570313 -1.160156,0 -2.074219,1.03125 -2.074219,2.2734375 0,1.33593753 1.042969,2.29687503 2.191406,2.29687503 1.21875,0 1.664063,-1.1015625 1.664063,-1.28906253 0,-0.1054687 -0.08203,-0.1171875 -0.128906,-0.1171875 -0.09375,0 -0.117188,0.058594 -0.128907,0.140625 -0.351562,1.01953128 -1.253906,1.01953128 -1.347656,1.01953128 -0.503906,0 -0.902344,-0.29296875 -1.125,-0.66796875 C 21.030055,-1.2895156 21.030055,-1.9457656 21.030055,-2.2973281 Z m 5.083007,-4.6171875 -1.429687,0.1054687 v 0.3164063 c 0.703125,0 0.773437,0.070312 0.773437,0.5507812 v 5.17968753 c 0,0.45703125 -0.105468,0.45703125 -0.773437,0.45703125 v 0.304687495 c 0.328125,-0.011718745 0.855469,-0.035156245 1.101562,-0.035156245 0.257813,0 0.738282,0.0234375 1.113282,0.035156245 V -0.30514062 c -0.667969,0 -0.785157,0 -0.785157,-0.45703125 z m 8.288086,-0.023437 c -0.04687,-0.1289063 -0.07031,-0.1992188 -0.222656,-0.1992188 -0.164062,0 -0.1875,0.058594 -0.246094,0.1992188 l -2.0625,5.96484373 c -0.175781,0.50390625 -0.574218,0.65625 -1.113281,0.66796875 v 0.304687495 c 0.234375,-0.011718745 0.65625,-0.035156245 1.019531,-0.035156245 0.304688,0 0.820313,0.0234375 1.148438,0.035156245 V -0.30514062 c -0.503906,0 -0.75,-0.2578125 -0.75,-0.515625 0,-0.0234375 0.01172,-0.12890625 0.02344,-0.140625 l 0.457032,-1.31249998 h 2.460937 l 0.527344,1.52343748 c 0.01172,0.046875 0.02344,0.10546875 0.02344,0.140625 0,0.3046875 -0.550781,0.3046875 -0.820312,0.3046875 v 0.304687495 c 0.351562,-0.035156245 1.054687,-0.035156245 1.429687,-0.035156245 0.433594,0 0.890625,0.01171875 1.300782,0.035156245 V -0.30514062 h -0.175782 c -0.597656,0 -0.738281,-0.0703125 -0.84375,-0.3984375 z m -0.527343,1.125 1.125,3.234375 h -2.238282 z m 0,0"
       style="fill:#000000;fill-opacity:1;fill-rule:nonzero;stroke:none"
       aria-label="ModelA"
       transform="matrix(1.3333333,0,0,1.3333333,391.90133,35.914667)" />
    <path
       id="path11"
       d="m 260.57118,-39.64998 c 0,12.73628 -10.32452,23.06079 -23.0608,23.06079 -12.73627,0 -23.0608,-10.32451 -23.0608,-23.06079 0,-12.73627 10.32453,-23.06079 23.0608,-23.06079 12.73628,0 23.0608,10.32452 23.0608,23.06079 z"
       style="fill:#40adf9;fill-opacity:1;fill-rule:nonzero;stroke:#000000;stroke-width:0.3985;stroke-linecap:butt;stroke-linejoin:miter;stroke-miterlimit:10;stroke-dasharray:none;stroke-opacity:1"
       transform="matrix(1.3333333,0,0,-1.3333333,100.5,84.216)" />
    <path
       id="path12"
       d="M 2.4011797,-6.5854531 C 2.3074297,-6.8081094 2.2839922,-6.8081094 2.0496172,-6.8081094 H 0.36211719 v 0.3164063 h 0.24609375 c 0.76171876,0 0.78515626,0.1054687 0.78515626,0.46875 v 4.9804687 c 0,0.26953128 0,0.73828128 -1.03125001,0.73828128 V 4.84375e-4 C 0.71367969,-0.01123437 1.2058672,-0.03467187 1.5339922,-0.03467187 c 0.328125,0 0.8203125,0.0234375 1.1601562,0.035156245 V -0.30420312 c -1.0195312,0 -1.0195312,-0.46875 -1.0195312,-0.73828128 v -5.3671875 h 0.011719 L 4.08868,-0.22217187 c 0.046875,0.12890625 0.09375,0.222656245 0.1992187,0.222656245 0.1054688,0 0.1289063,-0.082031245 0.1757813,-0.187499995 L 6.9128984,-6.4917031 h 0.011719 v 5.71874998 c 0,0.3515625 -0.023437,0.46875 -0.7851563,0.46875 H 5.8933672 V 4.84375e-4 c 0.375,-0.035156245 1.0429687,-0.035156245 1.4414062,-0.035156245 0.3867188,0 1.0546875,0 1.4179688,0.035156245 V -0.30420312 h -0.234375 c -0.7734375,0 -0.7851563,-0.1171875 -0.7851563,-0.46875 V -6.0229531 c 0,-0.3632813 0.011719,-0.46875 0.7851563,-0.46875 h 0.234375 V -6.8081094 H 7.0769609 c -0.2695312,0 -0.2695312,0.011719 -0.3398437,0.1992188 l -2.1796875,5.6015625 z m 11.4199223,4.453125 c 0,-1.2773438 -0.996094,-2.3320313 -2.191407,-2.3320313 -1.253906,0 -2.2148434,1.0898438 -2.2148434,2.3320313 0,1.28906248 1.0312504,2.23828123 2.2031254,2.23828123 1.207031,0 2.203125,-0.97265625 2.203125,-2.23828123 z m -2.191407,1.99218748 c -0.433593,0 -0.867187,-0.2109375 -1.136718,-0.66796875 -0.257813,-0.43359373 -0.257813,-1.04296873 -0.257813,-1.40625003 0,-0.3867187 0,-0.9257812 0.246094,-1.359375 0.269531,-0.4570312 0.738281,-0.6679687 1.136719,-0.6679687 0.433593,0 0.867187,0.2226562 1.125,0.6445312 0.257812,0.4335938 0.257812,1.0078125 0.257812,1.3828125 0,0.3632813 0,0.9023438 -0.222656,1.33593753 -0.222656,0.4453125 -0.65625,0.73828125 -1.148438,0.73828125 z m 6.547852,-0.41015625 v 0.65625 L 19.642391,4.84375e-4 V -0.30420312 c -0.703125,0 -0.773438,-0.0703125 -0.773438,-0.5625 V -6.9135781 l -1.441406,0.1054687 v 0.3164063 c 0.703125,0 0.785156,0.070312 0.785156,0.5507812 v 2.15625 c -0.292969,-0.3632812 -0.726562,-0.6210937 -1.265625,-0.6210937 -1.171875,0 -2.214844,0.984375 -2.214844,2.2617187 0,1.26562503 0.972657,2.25000003 2.109375,2.25000003 0.644532,0 1.089844,-0.33984375 1.335938,-0.65625 z m 0,-2.67187503 v 2.0507813 c 0,0.17578123 0,0.19921873 -0.105469,0.36328123 -0.304687,0.48046875 -0.75,0.703125 -1.183594,0.703125 -0.445312,0 -0.796875,-0.2578125 -1.042968,-0.64453125 -0.257813,-0.41015628 -0.292969,-0.97265628 -0.292969,-1.38281248 0,-0.3632813 0.02344,-0.9609375 0.316406,-1.4179688 0.210938,-0.3046875 0.585938,-0.6328125 1.125,-0.6328125 0.351563,0 0.761719,0.1523438 1.078125,0.5976563 0.105469,0.1640625 0.105469,0.1875 0.105469,0.3632812 z m 2.865234,0.7148438 c 0.05859,-1.4882813 0.902344,-1.734375 1.242188,-1.734375 1.019531,0 1.125,1.3476562 1.125,1.734375 z m -0.01172,0.2109375 h 2.789062 c 0.210938,0 0.246094,0 0.246094,-0.2109375 0,-0.984375 -0.539063,-1.9570313 -1.78125,-1.9570313 -1.160156,0 -2.074219,1.03125 -2.074219,2.2734375 0,1.33593753 1.042969,2.29687503 2.191406,2.29687503 1.21875,0 1.664063,-1.1015625 1.664063,-1.28906253 0,-0.1054687 -0.08203,-0.1171875 -0.128906,-0.1171875 -0.09375,0 -0.117188,0.058594 -0.128907,0.140625 -0.351562,1.01953128 -1.253906,1.01953128 -1.347656,1.01953128 -0.503906,0 -0.902344,-0.29296875 -1.125,-0.66796875 C 21.031063,-1.2885781 21.031063,-1.9448281 21.031063,-2.2963906 Z m 5.083007,-4.6171875 -1.429687,0.1054687 v 0.3164063 c 0.703125,0 0.773437,0.070312 0.773437,0.5507812 v 5.17968753 c 0,0.45703125 -0.105468,0.45703125 -0.773437,0.45703125 V 4.84375e-4 c 0.328125,-0.011718745 0.855469,-0.035156245 1.101562,-0.035156245 0.257813,0 0.738282,0.0234375 1.113282,0.035156245 V -0.30420312 c -0.667969,0 -0.785157,0 -0.785157,-0.45703125 z m 6.541993,3.2695312 v -2.4492187 c 0,-0.328125 0.01172,-0.3984375 0.480468,-0.3984375 h 1.242188 c 0.960937,0 1.3125,0.84375 1.3125,1.3710937 0,0.6328125 -0.492188,1.4765625 -1.59375,1.4765625 z m 2.34375,0.09375 c 0.972656,-0.1992187 1.652343,-0.8320312 1.652343,-1.5703125 0,-0.8671875 -0.914062,-1.6875 -2.203125,-1.6875 H 30.8045 v 0.3164063 h 0.234375 c 0.761719,0 0.785156,0.1054687 0.785156,0.46875 v 5.24999998 c 0,0.3515625 -0.02344,0.46875 -0.785156,0.46875 H 30.8045 V 4.84375e-4 h 3.902344 c 1.324219,0 2.214844,-0.890624995 2.214844,-1.828124975 0,-0.8671875 -0.808594,-1.6054688 -1.921875,-1.7226563 z m -0.609375,3.24609378 h -1.253907 c -0.46875,0 -0.480468,-0.0703125 -0.480468,-0.3984375 V -3.4213906 h 1.875 c 0.984375,0 1.394531,0.9257812 1.394531,1.59375 0,0.703125 -0.515625,1.52343748 -1.535156,1.52343748 z m 0,0"
       style="fill:#000000;fill-opacity:1;fill-rule:nonzero;stroke:none"
       aria-label="ModelB"
       transform="matrix(1.3333333,0,0,1.3333333,392.17733,141.69467)" />
    <path
       id="path13"
       d="m 322.75009,-14.15552 h 78.51155 v 28.34679 h -78.51155 z"
       style="fill:#70c1fa;fill-opacity:1;fill-rule:nonzero;stroke:#000000;stroke-width:0.3985;stroke-linecap:butt;stroke-linejoin:miter;stroke-miterlimit:10;stroke-dasharray:none;stroke-opacity:1"
       transform="matrix(1.3333333,0,0,-1.3333333,100.5,84.216)" />
    <path
       id="path14"
       d="m 1.3607344,-0.77453125 c 0,0.3515625 -0.023437,0.46875 -0.79687503,0.46875 h -0.234375 v 0.3046875 H 6.0833906 L 6.4935469,-2.5675 H 6.2474531 C 6.0013594,-1.0323438 5.7669844,-0.30578125 4.0560469,-0.30578125 H 2.7318281 c -0.46875,0 -0.4921875,-0.0703125 -0.4921875,-0.3984375 V -3.364375 h 0.9023438 c 0.9609375,0 1.078125,0.3164062 1.078125,1.1601562 H 4.4662031 V -4.8409375 H 4.2201094 c 0,0.8554687 -0.1171875,1.1601562 -1.078125,1.1601562 H 2.2396406 v -2.390625 c 0,-0.328125 0.023437,-0.3984375 0.4921875,-0.3984375 h 1.2890625 c 1.5234375,0 1.7929688,0.5507813 1.9453125,1.9335938 H 6.2122969 L 5.9427656,-6.7745313 H 0.32948437 v 0.3046875 h 0.234375 c 0.77343753,0 0.79687503,0.1171875 0.79687503,0.46875 z M 7.8822187,-3.4229688 v 2.6601563 c 0,0.45703125 -0.1171875,0.45703125 -0.7851562,0.45703125 v 0.3046875 C 7.448625,-0.0128125 7.9525312,-0.03625 8.2220625,-0.03625 c 0.2578125,0 0.7851562,0.0234375 1.1132812,0.03515625 v -0.3046875 c -0.65625,0 -0.7734375,0 -0.7734375,-0.45703125 v -1.828125 c 0,-1.03125 0.7148438,-1.59375 1.3476563,-1.59375 0.6210935,0 0.7382815,0.5390625 0.7382815,1.1015625 v 2.3203125 c 0,0.45703125 -0.117188,0.45703125 -0.7734378,0.45703125 v 0.3046875 C 10.21425,-0.0128125 10.729875,-0.03625 10.999406,-0.03625 c 0.257813,0 0.773438,0.0234375 1.113281,0.03515625 v -0.3046875 c -0.515625,0 -0.773437,0 -0.785156,-0.3046875 V -2.5089063 c 0,-0.8554687 0,-1.171875 -0.304687,-1.5234375 -0.140625,-0.1757812 -0.46875,-0.375 -1.042969,-0.375 -0.7265625,0 -1.1953125,0.4335938 -1.4765625,1.0546875 v -1.0546875 l -1.40625,0.1171875 v 0.3046875 c 0.703125,0 0.7851562,0.070312 0.7851562,0.5625 z m 6.5068363,1.4882813 c 0.222656,0.035156 1.03125,0.1992187 1.03125,0.9140625 0,0.515625 -0.351563,0.9140625 -1.125,0.9140625 -0.832032,0 -1.195313,-0.57421875 -1.382813,-1.4179688 -0.03516,-0.1289062 -0.03516,-0.1757812 -0.140625,-0.1757812 -0.128906,0 -0.128906,0.070312 -0.128906,0.2578125 V -0.13 c 0,0.1640625 0,0.234375 0.105469,0.234375 0.05859,0 0.07031,0 0.257812,-0.19921875 C 13.017961,-0.1065625 13.017961,-0.13 13.205461,-0.3175 c 0.433594,0.421875 0.878906,0.421875 1.089844,0.421875 1.148437,0 1.605468,-0.66796875 1.605468,-1.3828125 0,-0.5273438 -0.292968,-0.8203125 -0.421875,-0.9492188 -0.328125,-0.3164062 -0.714843,-0.3984375 -1.136718,-0.46875 -0.550782,-0.1171875 -1.21875,-0.2460937 -1.21875,-0.8203125 0,-0.3515625 0.257812,-0.7617187 1.113281,-0.7617187 1.101562,0 1.148437,0.9023437 1.171875,1.2070312 0,0.09375 0.09375,0.09375 0.117187,0.09375 0.128907,0 0.128907,-0.046875 0.128907,-0.2460937 v -0.9960938 c 0,-0.1757812 0,-0.2460937 -0.117188,-0.2460937 -0.04687,0 -0.07031,0 -0.199219,0.1171875 -0.02344,0.046875 -0.128906,0.1289062 -0.164062,0.1640625 -0.375,-0.28125 -0.785156,-0.28125 -0.9375,-0.28125 -1.21875,0 -1.59375,0.6679687 -1.59375,1.2304687 0,0.3398438 0.164062,0.6210938 0.433594,0.84375 0.316406,0.2578125 0.597656,0.3164063 1.3125,0.4570313 z m 2.970703,-0.5742188 c 0.05859,-1.4882812 0.902344,-1.734375 1.242187,-1.734375 1.019532,0 1.125,1.3476563 1.125,1.734375 z m -0.01172,0.2109375 h 2.789063 c 0.210937,0 0.246093,0 0.246093,-0.2109375 0,-0.984375 -0.539062,-1.9570312 -1.78125,-1.9570312 -1.160156,0 -2.074218,1.03125 -2.074218,2.2734375 0,1.3359375 1.042968,2.296875 2.191406,2.296875 1.21875,0 1.664062,-1.1015625 1.664062,-1.2890625 0,-0.1054688 -0.08203,-0.1171875 -0.128906,-0.1171875 -0.09375,0 -0.117187,0.058594 -0.128906,0.140625 -0.351563,1.01953125 -1.253906,1.01953125 -1.347656,1.01953125 -0.503907,0 -0.902344,-0.29296875 -1.125,-0.66796875 -0.304688,-0.4804688 -0.304688,-1.1367188 -0.304688,-1.4882813 z m 4.426758,-1.125 v 2.6601563 c 0,0.45703125 -0.117188,0.45703125 -0.785156,0.45703125 v 0.3046875 c 0.351562,-0.01171875 0.855468,-0.03515625 1.125,-0.03515625 0.257812,0 0.785156,0.0234375 1.113281,0.03515625 v -0.3046875 c -0.65625,0 -0.773438,0 -0.773438,-0.45703125 v -1.828125 c 0,-1.03125 0.714844,-1.59375 1.347657,-1.59375 0.621093,0 0.738281,0.5390625 0.738281,1.1015625 v 2.3203125 c 0,0.45703125 -0.117188,0.45703125 -0.773438,0.45703125 v 0.3046875 c 0.339844,-0.01171875 0.855469,-0.03515625 1.125,-0.03515625 0.257813,0 0.773438,0.0234375 1.113282,0.03515625 v -0.3046875 c -0.667969,0 -0.785157,0 -0.785157,-0.45703125 v -1.828125 c 0,-1.03125 0.714844,-1.59375 1.347657,-1.59375 0.632812,0 0.738281,0.5390625 0.738281,1.1015625 v 2.3203125 c 0,0.45703125 -0.105469,0.45703125 -0.773438,0.45703125 v 0.3046875 c 0.351563,-0.01171875 0.855469,-0.03515625 1.125,-0.03515625 0.257813,0 0.773438,0.0234375 1.113282,0.03515625 v -0.3046875 c -0.515625,0 -0.761719,0 -0.773438,-0.3046875 V -2.5089063 c 0,-0.8554687 0,-1.171875 -0.316406,-1.5234375 -0.128906,-0.1757812 -0.46875,-0.375 -1.042969,-0.375 -0.832031,0 -1.277344,0.5976563 -1.441406,0.984375 -0.140625,-0.8671875 -0.878906,-0.984375 -1.324219,-0.984375 -0.726562,0 -1.195312,0.4335938 -1.476562,1.0546875 v -1.0546875 l -1.40625,0.1171875 v 0.3046875 c 0.703125,0 0.785156,0.070312 0.785156,0.5625 z m 8.630859,-0.328125 v -3.1640625 l -1.429687,0.1054688 v 0.3164062 c 0.691406,0 0.773437,0.070312 0.773437,0.5507813 v 5.94140625 H 29.9955 c 0.01172,-0.01171875 0.09375,-0.15234375 0.363281,-0.62109375 0.152344,0.234375 0.5625,0.7265625 1.300781,0.7265625 1.183594,0 2.226563,-0.97265625 2.226563,-2.2617188 0,-1.265625 -0.972656,-2.25 -2.109375,-2.25 -0.785156,0 -1.207031,0.46875 -1.371094,0.65625 z m 0.03516,2.6132813 v -2.0507813 c 0,-0.1875 0,-0.1992187 0.105469,-0.3632812 0.386719,-0.5507813 0.9375,-0.6328125 1.171875,-0.6328125 0.457031,0 0.808594,0.2578125 1.054688,0.6328125 0.257812,0.4101562 0.28125,0.984375 0.28125,1.3945312 0,0.3632813 -0.01172,0.9609375 -0.304688,1.40625005 -0.210937,0.31640625 -0.585937,0.64453125 -1.125,0.64453125 -0.445312,0 -0.808594,-0.24609375 -1.042969,-0.609375 -0.140625,-0.2109375 -0.140625,-0.24609375 -0.140625,-0.421875 z m 5.548829,-5.7773438 -1.429688,0.1054688 v 0.3164062 c 0.703125,0 0.773438,0.070312 0.773438,0.5507813 v 5.1796875 c 0,0.45703125 -0.105469,0.45703125 -0.773438,0.45703125 v 0.3046875 C 34.888078,-0.0128125 35.415422,-0.03625 35.661516,-0.03625 c 0.257812,0 0.738281,0.0234375 1.113281,0.03515625 v -0.3046875 c -0.667969,0 -0.785156,0 -0.785156,-0.45703125 z m 2.121093,4.40625 c 0.05859,-1.4882812 0.902344,-1.734375 1.242188,-1.734375 1.019531,0 1.125,1.3476563 1.125,1.734375 z m -0.01172,0.2109375 h 2.789062 c 0.210938,0 0.246094,0 0.246094,-0.2109375 0,-0.984375 -0.539063,-1.9570312 -1.78125,-1.9570312 -1.160156,0 -2.074219,1.03125 -2.074219,2.2734375 0,1.3359375 1.042969,2.296875 2.191406,2.296875 1.21875,0 1.664063,-1.1015625 1.664063,-1.2890625 0,-0.1054688 -0.08203,-0.1171875 -0.128906,-0.1171875 -0.09375,0 -0.117188,0.058594 -0.128907,0.140625 -0.351562,1.01953125 -1.253906,1.01953125 -1.347656,1.01953125 -0.503906,0 -0.902344,-0.29296875 -1.125,-0.66796875 -0.304687,-0.4804688 -0.304687,-1.1367188 -0.304687,-1.4882813 z m 9.055664,-4.2890625 c -0.09375,-0.2226562 -0.117188,-0.2226562 -0.351563,-0.2226562 h -1.6875 v 0.3164062 h 0.246094 c 0.761719,0 0.785156,0.1054688 0.785156,0.46875 v 4.9804688 c 0,0.26953125 0,0.73828125 -1.03125,0.73828125 v 0.3046875 C 45.46718,-0.0128125 45.959367,-0.03625 46.287492,-0.03625 c 0.328125,0 0.820313,0.0234375 1.160156,0.03515625 v -0.3046875 c -1.019531,0 -1.019531,-0.46875 -1.019531,-0.73828125 V -6.41125 h 0.01172 l 2.402344,6.1875 c 0.04687,0.12890625 0.09375,0.22265625 0.199218,0.22265625 0.105469,0 0.128907,-0.08203125 0.175782,-0.1875 l 2.449218,-6.30468755 h 0.01172 v 5.71875005 c 0,0.3515625 -0.02344,0.46875 -0.785156,0.46875 h -0.246094 v 0.3046875 C 51.021867,-0.03625 51.689836,-0.03625 52.088273,-0.03625 c 0.386719,0 1.054688,0 1.417969,0.03515625 v -0.3046875 h -0.234375 c -0.773437,0 -0.785156,-0.1171875 -0.785156,-0.46875 V -6.0245313 c 0,-0.3632812 0.01172,-0.46875 0.785156,-0.46875 h 0.234375 v -0.3164062 h -1.675781 c -0.269531,0 -0.269531,0.011719 -0.339844,0.1992187 l -2.179687,5.6015625 z m 11.419922,4.453125 c 0,-1.2773437 -0.996094,-2.3320312 -2.191407,-2.3320312 -1.253906,0 -2.214843,1.0898437 -2.214843,2.3320312 0,1.28906255 1.03125,2.2382813 2.203125,2.2382813 1.207031,0 2.203125,-0.97265625 2.203125,-2.2382813 z m -2.191407,1.99218755 c -0.433593,0 -0.867187,-0.2109375 -1.136718,-0.66796875 -0.257813,-0.4335938 -0.257813,-1.0429688 -0.257813,-1.40625 0,-0.3867188 0,-0.9257813 0.246094,-1.359375 0.269531,-0.4570313 0.738281,-0.6679688 1.136719,-0.6679688 0.433593,0 0.867187,0.2226563 1.125,0.6445313 0.257812,0.4335937 0.257812,1.0078125 0.257812,1.3828125 0,0.3632812 0,0.9023437 -0.222656,1.3359375 -0.222656,0.4453125 -0.65625,0.73828125 -1.148438,0.73828125 z M 62.922258,-0.551875 v 0.65625 l 1.464844,-0.10546875 v -0.3046875 c -0.703125,0 -0.773438,-0.0703125 -0.773438,-0.5625 V -6.9151563 l -1.441406,0.1054688 v 0.3164062 c 0.703125,0 0.785156,0.070312 0.785156,0.5507813 v 2.15625 c -0.292969,-0.3632813 -0.726562,-0.6210938 -1.265625,-0.6210938 -1.171875,0 -2.214844,0.984375 -2.214844,2.2617188 0,1.265625 0.972657,2.25 2.109375,2.25 0.644532,0 1.089844,-0.33984375 1.335938,-0.65625 z m 0,-2.671875 v 2.0507812 c 0,0.1757813 0,0.1992188 -0.105469,0.3632813 -0.304687,0.48046875 -0.75,0.703125 -1.183594,0.703125 -0.445312,0 -0.796875,-0.2578125 -1.042968,-0.64453125 C 60.332414,-1.16125 60.297258,-1.72375 60.297258,-2.1339063 c 0,-0.3632812 0.02344,-0.9609375 0.316406,-1.4179687 0.210938,-0.3046875 0.585938,-0.6328125 1.125,-0.6328125 0.351563,0 0.761719,0.1523437 1.078125,0.5976562 0.105469,0.1640625 0.105469,0.1875 0.105469,0.3632813 z m 2.862304,0.7148437 c 0.05859,-1.4882812 0.902344,-1.734375 1.242188,-1.734375 1.019531,0 1.125,1.3476563 1.125,1.734375 z m -0.01172,0.2109375 h 2.789062 c 0.210938,0 0.246094,0 0.246094,-0.2109375 0,-0.984375 -0.539063,-1.9570312 -1.78125,-1.9570312 -1.160156,0 -2.074219,1.03125 -2.074219,2.2734375 0,1.3359375 1.042969,2.296875 2.191406,2.296875 1.21875,0 1.664063,-1.1015625 1.664063,-1.2890625 0,-0.1054688 -0.08203,-0.1171875 -0.128906,-0.1171875 -0.09375,0 -0.117188,0.058594 -0.128907,0.140625 -0.351562,1.01953125 -1.253906,1.01953125 -1.347656,1.01953125 -0.503906,0 -0.902344,-0.29296875 -1.125,-0.66796875 -0.304687,-0.4804688 -0.304687,-1.1367188 -0.304687,-1.4882813 z m 5.083008,-4.6171875 -1.429688,0.1054688 v 0.3164062 c 0.703125,0 0.773438,0.070312 0.773438,0.5507813 v 5.1796875 c 0,0.45703125 -0.105469,0.45703125 -0.773438,0.45703125 v 0.3046875 C 69.754289,-0.0128125 70.281633,-0.03625 70.527727,-0.03625 c 0.257812,0 0.738281,0.0234375 1.113281,0.03515625 v -0.3046875 c -0.667969,0 -0.785156,0 -0.785156,-0.45703125 z M 17.766984,14.345586 c 0,-0.03516 0,-0.04687 -0.164062,-0.222656 -1.242188,-1.253907 -1.570313,-3.128907 -1.570313,-4.6640628 0,-1.7226563 0.386719,-3.4570313 1.605469,-4.7109375 0.128906,-0.1171875 0.128906,-0.1289063 0.128906,-0.1640625 0,-0.070312 -0.03516,-0.1054688 -0.09375,-0.1054688 -0.105468,0 -0.996093,0.6796875 -1.582031,1.9453125 -0.515625,1.1015625 -0.632812,2.203125 -0.632812,3.0351563 0,0.7851558 0.117187,1.9921878 0.65625,3.1171878 0.597656,1.21875 1.453125,1.875 1.558593,1.875 0.05859,0 0.09375,-0.03516 0.09375,-0.105469 z M 22.308,5.0174609 C 22.26113,4.8885547 22.23769,4.8182422 22.085344,4.8182422 c -0.164063,0 -0.1875,0.058594 -0.246094,0.1992187 l -2.0625,5.9648441 c -0.175781,0.503906 -0.574219,0.65625 -1.113281,0.667968 v 0.304688 c 0.234375,-0.01172 0.65625,-0.03516 1.019531,-0.03516 0.304687,0 0.820312,0.02344 1.148437,0.03516 v -0.304688 c -0.503906,0 -0.75,-0.257812 -0.75,-0.515625 0,-0.02344 0.01172,-0.128906 0.02344,-0.140625 l 0.457031,-1.3124996 h 2.460938 l 0.527343,1.5234376 c 0.01172,0.04687 0.02344,0.105469 0.02344,0.140625 0,0.304687 -0.550781,0.304687 -0.820313,0.304687 v 0.304688 c 0.351563,-0.03516 1.054688,-0.03516 1.429688,-0.03516 0.433594,0 0.890625,0.01172 1.300781,0.03516 V 11.650273 H 25.308 c -0.597656,0 -0.738281,-0.07031 -0.84375,-0.398437 z m -0.527344,1.125 1.125,3.234375 h -2.238281 z m 8.188477,2.4960938 c 0.08203,-0.234375 0.257812,-0.65625 0.914062,-0.6679688 V 7.6658984 c -0.234375,0.011719 -0.515625,0.023437 -0.75,0.023437 -0.234375,0 -0.691406,-0.023437 -0.867187,-0.023437 v 0.3046875 c 0.375,0.011719 0.480469,0.234375 0.480469,0.4335938 0,0.082031 -0.02344,0.1289062 -0.05859,0.234375 L 28.668352,11.181523 27.55507,8.4041797 c -0.05859,-0.140625 -0.05859,-0.1523438 -0.05859,-0.1757813 0,-0.2578125 0.386718,-0.2578125 0.5625,-0.2578125 V 7.6658984 c -0.292969,0 -0.855469,0.023437 -1.078125,0.023437 -0.269532,0 -0.667969,-0.011719 -0.972657,-0.023437 v 0.3046875 c 0.632813,0 0.667969,0.058594 0.796875,0.3632813 L 28.24648,11.87293 c 0.05859,0.140625 0.07031,0.1875 0.199218,0.1875 0.128907,0 0.175782,-0.08203 0.210938,-0.1875 z m 1.942383,0.8085937 c 0.05859,-1.4882812 0.902343,-1.734375 1.242187,-1.734375 1.019531,0 1.125,1.3476563 1.125,1.734375 z m -0.01172,0.2109375 h 2.789062 c 0.210938,0 0.246094,0 0.246094,-0.2109375 0,-0.984375 -0.539062,-1.9570312 -1.78125,-1.9570312 -1.160156,0 -2.074219,1.03125 -2.074219,2.2734375 0,1.3359373 1.042969,2.2968753 2.191407,2.2968753 1.21875,0 1.664062,-1.101563 1.664062,-1.289063 0,-0.105469 -0.08203,-0.117187 -0.128906,-0.117187 -0.09375,0 -0.117188,0.05859 -0.128906,0.140625 -0.351563,1.019531 -1.253907,1.019531 -1.347657,1.019531 -0.503906,0 -0.902343,-0.292969 -1.125,-0.667969 -0.304687,-0.480469 -0.304687,-1.136719 -0.304687,-1.4882811 z M 36.889055,8.6502734 V 7.5487109 l -1.382813,0.1171875 v 0.3046875 c 0.691406,0 0.773438,0.070312 0.773438,0.5625 v 2.6601561 c 0,0.457031 -0.105469,0.457031 -0.773438,0.457031 v 0.304688 c 0.386719,-0.01172 0.855469,-0.03516 1.136719,-0.03516 0.398437,0 0.867187,0 1.265625,0.03516 v -0.304688 h -0.210938 c -0.738281,0 -0.761718,-0.117187 -0.761718,-0.46875 V 9.6463672 c 0,-0.984375 0.421875,-1.875 1.183593,-1.875 0.05859,0 0.08203,0 0.105469,0.011719 -0.03516,0.011719 -0.234375,0.1289063 -0.234375,0.3867188 0,0.28125 0.210938,0.4335937 0.433594,0.4335937 0.175781,0 0.421875,-0.1289062 0.421875,-0.4453125 0,-0.3164062 -0.304688,-0.609375 -0.726563,-0.609375 -0.738281,0 -1.089843,0.6679688 -1.230468,1.1015622 z m 5.554687,2.5429686 c 0.03516,0.398438 0.304688,0.820313 0.773438,0.820313 0.210937,0 0.820312,-0.140625 0.820312,-0.949219 v -0.550781 h -0.246094 v 0.550781 c 0,0.585937 -0.246093,0.644531 -0.363281,0.644531 -0.328125,0 -0.363281,-0.457031 -0.363281,-0.503906 V 9.2127734 c 0,-0.4101562 0,-0.8085937 -0.363281,-1.171875 -0.386719,-0.3867187 -0.878907,-0.5507812 -1.359375,-0.5507812 -0.820313,0 -1.511719,0.46875 -1.511719,1.125 0,0.3046875 0.199219,0.46875 0.457031,0.46875 0.28125,0 0.46875,-0.1992188 0.46875,-0.4570313 0,-0.1171875 -0.05859,-0.4453125 -0.515625,-0.4570312 0.269531,-0.3515625 0.761719,-0.4570313 1.078125,-0.4570313 0.492188,0 1.054688,0.3867188 1.054688,1.2773438 v 0.3632812 c -0.503907,0.035156 -1.207032,0.058594 -1.828125,0.3632813 -0.75,0.3398433 -0.996094,0.8554683 -0.996094,1.2890623 0,0.808594 0.960937,1.054688 1.59375,1.054688 0.65625,0 1.113281,-0.398438 1.300781,-0.867188 z M 42.37343,9.5643359 V 10.56043 c 0,0.949218 -0.714844,1.289062 -1.160157,1.289062 -0.492187,0 -0.902343,-0.351562 -0.902343,-0.855469 0,-0.539062 0.421875,-1.3710933 2.0625,-1.4296871 z m 3.952148,0.6796871 c -0.867187,0 -0.867187,-0.9960933 -0.867187,-1.2304683 0,-0.2695313 0.01172,-0.5859375 0.152343,-0.8320313 0.08203,-0.1171875 0.316407,-0.3984375 0.714844,-0.3984375 0.867188,0 0.867188,0.9960938 0.867188,1.21875 0,0.2695313 -0.01172,0.5976563 -0.164063,0.84375 -0.08203,0.1171875 -0.304687,0.3984371 -0.703125,0.3984371 z m -1.160156,0.386719 c 0,-0.03516 0,-0.269531 0.175781,-0.46875 0.386719,0.28125 0.796875,0.304688 0.984375,0.304688 0.925781,0 1.605469,-0.6796878 1.605469,-1.4531253 0,-0.3632813 -0.152344,-0.7382813 -0.398438,-0.9609375 0.351563,-0.3398438 0.714844,-0.3867188 0.890625,-0.3867188 0.02344,0 0.07031,0 0.105469,0 -0.117187,0.046875 -0.164062,0.1523438 -0.164062,0.2695313 0,0.1757812 0.128906,0.2929687 0.292968,0.2929687 0.09375,0 0.28125,-0.070312 0.28125,-0.2929687 0,-0.1757813 -0.117187,-0.4921875 -0.503906,-0.4921875 -0.199219,0 -0.632812,0.058594 -1.054687,0.46875 -0.421875,-0.328125 -0.84375,-0.3632813 -1.054688,-0.3632813 -0.925781,0 -1.617187,0.6914063 -1.617187,1.453125 0,0.4453125 0.222656,0.8203125 0.46875,1.0312501 -0.128907,0.152344 -0.304688,0.480469 -0.304688,0.820312 0,0.316407 0.128906,0.691407 0.433594,0.890625 -0.597656,0.175782 -0.914063,0.597657 -0.914063,0.996094 0,0.714844 0.984375,1.265625 2.203125,1.265625 1.171875,0 2.203125,-0.503906 2.203125,-1.289062 0,-0.339844 -0.140625,-0.855469 -0.644531,-1.125 -0.527344,-0.28125 -1.101562,-0.28125 -1.710937,-0.28125 -0.246094,0 -0.679688,0 -0.75,-0.01172 -0.316407,-0.04687 -0.527344,-0.351563 -0.527344,-0.667969 z m 1.441406,3.152344 c -1.007812,0 -1.699219,-0.515625 -1.699219,-1.042969 0,-0.457031 0.375,-0.820312 0.820313,-0.855469 h 0.585937 c 0.855469,0 1.96875,0 1.96875,0.855469 0,0.539063 -0.703125,1.042969 -1.675781,1.042969 z m 3.597656,-4.3359376 c 0.05859,-1.4882812 0.902344,-1.734375 1.242188,-1.734375 1.019531,0 1.125,1.3476563 1.125,1.734375 z m -0.01172,0.2109375 h 2.789062 c 0.210938,0 0.246094,0 0.246094,-0.2109375 0,-0.984375 -0.539063,-1.9570312 -1.78125,-1.9570312 -1.160156,0 -2.074219,1.03125 -2.074219,2.2734375 0,1.3359373 1.042969,2.2968753 2.191406,2.2968753 1.21875,0 1.664063,-1.101563 1.664063,-1.289063 0,-0.105469 -0.08203,-0.117187 -0.128906,-0.117187 -0.09375,0 -0.117188,0.05859 -0.128907,0.140625 -0.351562,1.019531 -1.253906,1.019531 -1.347656,1.019531 -0.503906,0 -0.902344,-0.292969 -1.125,-0.667969 -0.304687,-0.480469 -0.304687,-1.136719 -0.304687,-1.4882811 z m 6.208007,-0.1992187 c 0,-0.7734375 -0.117187,-1.9804688 -0.65625,-3.1054688 -0.597656,-1.21875 -1.464843,-1.875 -1.558593,-1.875 -0.05859,0 -0.105469,0.046875 -0.105469,0.1054688 0,0.035156 0,0.046875 0.199219,0.234375 0.972656,0.984375 1.535156,2.5664062 1.535156,4.640625 0,1.7109378 -0.363281,3.4570308 -1.59375,4.7226558 -0.140625,0.117188 -0.140625,0.128907 -0.140625,0.164063 0,0.05859 0.04687,0.105469 0.105469,0.105469 0.09375,0 0.996093,-0.679688 1.582031,-1.945313 0.503906,-1.101562 0.632812,-2.203125 0.632812,-3.0468748 z m 0,0"
       style="fill:#000000;fill-opacity:1;fill-rule:nonzero;stroke:none"
       aria-label="EnsembleModel&#10;(Average)"
       transform="matrix(1.3333333,0,0,1.3333333,535.256,79.173333)" />
    <path
       id="path15"
       d="m 458.35454,-16.98427 c 0,-3.07974 9.98622,-5.57629 22.3052,-5.57629 12.31899,0 22.30521,2.49655 22.30521,5.57629 V 25.7219 c 0,-3.07975 -9.98622,-5.5763 -22.30521,-5.5763 -12.31898,0 -22.3052,2.49655 -22.3052,5.5763 z"
       style="fill:#ffc266;fill-opacity:1;fill-rule:nonzero;stroke:none"
       transform="matrix(1.3333333,0,0,-1.3333333,100.5,84.216)" />
    <path
       id="path16"
       d="m 458.35454,25.7219 c 0,3.07974 9.98622,5.57629 22.3052,5.57629 12.31899,0 22.30521,-2.49655 22.30521,-5.57629 0,-3.07975 -9.98622,-5.5763 -22.30521,-5.5763 -12.31898,0 -22.3052,2.49655 -22.3052,5.5763 z"
       style="fill:#ffad33;fill-opacity:1;fill-rule:nonzero;stroke:none"
       transform="matrix(1.3333333,0,0,-1.3333333,100.5,84.216)" />
    <path
       id="path17"
       d="m 458.35454,-16.98427 c 0,-3.07974 9.98622,-5.57629 22.3052,-5.57629 12.31899,0 22.30521,2.49655 22.30521,5.57629 V 25.7219 c 0,3.07974 -9.98622,5.57629 -22.30521,5.57629 -12.31898,0 -22.3052,-2.49655 -22.3052,-5.57629 z m 0,42.70617 c 0,-3.07975 9.98622,-5.5763 22.3052,-5.5763 12.31899,0 22.30521,2.49655 22.30521,5.5763"
       style="fill:none;stroke:#000000;stroke-width:0.3985;stroke-linecap:butt;stroke-linejoin:miter;stroke-miterlimit:10;stroke-dasharray:none;stroke-opacity:1"
       transform="matrix(1.3333333,0,0,-1.3333333,100.5,84.216)" />
    <path
       id="path18"
       d="M 6.6327578,-6.7387656 H 0.55072656 l -0.1875,2.2382812 h 0.24609375 c 0.140625,-1.6054687 0.29296875,-1.9335937 1.79296879,-1.9335937 0.1757812,0 0.4335937,0 0.5390625,0.023437 0.2109375,0.035156 0.2109375,0.140625 0.2109375,0.375 v 5.24999998 c 0,0.33984375 0,0.48046875 -1.0546875,0.48046875 H 1.6991641 V -4.84375e-4 C 2.1093203,-0.03564062 3.1288516,-0.03564062 3.5858828,-0.03564062 c 0.4570313,0 1.4882813,0 1.8984375,0.035156245 V -0.30517187 H 5.0858828 c -1.0546875,0 -1.0546875,-0.140625 -1.0546875,-0.48046875 V -6.0356406 c 0,-0.1992188 0,-0.3398438 0.1875,-0.375 0.1054688,-0.023437 0.375,-0.023437 0.5625,-0.023437 1.5,0 1.6523438,0.328125 1.7929688,1.9335937 h 0.2460937 z m 0.8496094,4.2304687 c 0.058594,-1.4882812 0.9023437,-1.734375 1.2421875,-1.734375 1.0195312,0 1.125,1.3476563 1.125,1.734375 z m -0.011719,0.2109375 h 2.7890628 c 0.210937,0 0.246094,0 0.246094,-0.2109375 0,-0.984375 -0.539063,-1.9570312 -1.7812505,-1.9570312 -1.1601563,0 -2.0742188,1.03125 -2.0742188,2.2734375 0,1.33593748 1.0429688,2.29687498 2.1914063,2.29687498 1.21875,0 1.664063,-1.1015625 1.664063,-1.28906248 0,-0.1054688 -0.08203,-0.1171875 -0.128907,-0.1171875 -0.09375,0 -0.117187,0.058594 -0.128906,0.140625 -0.3515625,1.01953123 -1.2539063,1.01953123 -1.3476563,1.01953123 -0.5039062,0 -0.9023437,-0.29296875 -1.125,-0.66796875 C 7.4706484,-1.2895469 7.4706484,-1.9457969 7.4706482,-2.2973594 Z m 5.3994148,0.3632813 c 0.222656,0.035156 1.03125,0.1992187 1.03125,0.9140625 0,0.51562498 -0.351563,0.91406248 -1.125,0.91406248 -0.832032,0 -1.195313,-0.57421875 -1.382813,-1.41796878 -0.03516,-0.1289062 -0.03516,-0.1757812 -0.140625,-0.1757812 -0.128906,0 -0.128906,0.070312 -0.128906,0.2578125 v 1.31249998 c 0,0.1640625 0,0.234375 0.105469,0.234375 0.05859,0 0.07031,0 0.257812,-0.19921875 0.01172,-0.01171875 0.01172,-0.03515625 0.199219,-0.22265625 0.433594,0.421875 0.878906,0.421875 1.089844,0.421875 1.148437,0 1.605468,-0.66796875 1.605468,-1.38281248 0,-0.5273438 -0.292968,-0.8203125 -0.421875,-0.9492188 -0.328125,-0.3164062 -0.714843,-0.3984375 -1.136718,-0.46875 -0.550782,-0.1171875 -1.21875,-0.2460937 -1.21875,-0.8203125 0,-0.3515625 0.257812,-0.7617187 1.113281,-0.7617187 1.101562,0 1.148437,0.9023437 1.171875,1.2070312 0,0.09375 0.09375,0.09375 0.117187,0.09375 0.128907,0 0.128907,-0.046875 0.128907,-0.2460937 v -0.9960938 c 0,-0.1757812 0,-0.2460937 -0.117188,-0.2460937 -0.04687,0 -0.07031,0 -0.199219,0.1171875 -0.02344,0.046875 -0.128906,0.1289062 -0.164062,0.1640625 -0.375,-0.28125 -0.785156,-0.28125 -0.9375,-0.28125 -1.21875,0 -1.59375,0.6679687 -1.59375,1.2304687 0,0.3398438 0.164062,0.6210938 0.433594,0.84375 0.316406,0.2578125 0.597656,0.3164063 1.3125,0.4570313 z m 3.577148,-2.0507813 h 1.429687 v -0.3046875 h -1.429687 v -1.8398437 h -0.246094 c -0.01172,0.8203125 -0.316406,1.8867187 -1.289062,1.921875 v 0.2226562 h 0.84375 v 2.7539063 c 0,1.21874998 0.925781,1.33593748 1.289062,1.33593748 0.703125,0 0.984375,-0.703125 0.984375,-1.33593748 v -0.5742188 h -0.246094 v 0.5507813 c 0,0.73828123 -0.304687,1.11328123 -0.667968,1.11328123 -0.667969,0 -0.667969,-0.90234373 -0.667969,-1.07812503 z m 5.938477,3.43359378 v 0.65625 L 23.850531,-4.84375e-4 V -0.30517187 c -0.703125,0 -0.773437,-0.0703125 -0.773437,-0.5625 V -6.9145469 l -1.441406,0.1054688 v 0.3164062 c 0.703125,0 0.785156,0.070312 0.785156,0.5507813 v 2.15625 c -0.292969,-0.3632813 -0.726563,-0.6210938 -1.265625,-0.6210938 -1.171875,0 -2.214844,0.984375 -2.214844,2.2617188 0,1.26562498 0.972656,2.24999998 2.109375,2.24999998 0.644531,0 1.089844,-0.33984375 1.335938,-0.65625 z m 0,-2.67187498 v 2.0507812 c 0,0.17578128 0,0.19921878 -0.105469,0.36328128 -0.304688,0.48046875 -0.75,0.703125 -1.183594,0.703125 -0.445312,0 -0.796875,-0.2578125 -1.042969,-0.64453125 -0.257812,-0.41015623 -0.292968,-0.97265623 -0.292968,-1.38281253 0,-0.3632812 0.02344,-0.9609375 0.316406,-1.4179687 0.210937,-0.3046875 0.585937,-0.6328125 1.125,-0.6328125 0.351562,0 0.761719,0.1523437 1.078125,0.5976562 0.105469,0.1640625 0.105469,0.1875 0.105469,0.3632813 z m 5.065429,2.46093748 c 0.03516,0.3984375 0.304688,0.8203125 0.773438,0.8203125 0.210937,0 0.820312,-0.140625 0.820312,-0.94921875 V -1.4418906 h -0.246094 v 0.55078123 c 0,0.5859375 -0.246093,0.64453125 -0.363281,0.64453125 -0.328125,0 -0.363281,-0.45703125 -0.363281,-0.50390625 V -2.7426719 c 0,-0.4101562 0,-0.8085937 -0.363281,-1.171875 -0.386719,-0.3867187 -0.878907,-0.5507812 -1.359375,-0.5507812 -0.820313,0 -1.511719,0.46875 -1.511719,1.125 0,0.3046875 0.199219,0.46875 0.457031,0.46875 0.28125,0 0.46875,-0.1992188 0.46875,-0.4570313 0,-0.1171875 -0.05859,-0.4453125 -0.515625,-0.4570312 0.269531,-0.3515625 0.761719,-0.4570313 1.078125,-0.4570313 0.492188,0 1.054688,0.3867188 1.054688,1.2773438 v 0.3632812 c -0.503907,0.035156 -1.207032,0.058594 -1.828125,0.3632813 -0.75,0.3398437 -0.996094,0.8554687 -0.996094,1.28906248 0,0.80859375 0.960937,1.0546875 1.59375,1.0546875 0.65625,0 1.113281,-0.3984375 1.300781,-0.8671875 z m -0.07031,-1.62890628 v 0.9960938 c 0,0.94921873 -0.714844,1.28906248 -1.160157,1.28906248 -0.492187,0 -0.902343,-0.3515625 -0.902343,-0.85546875 0,-0.53906253 0.421875,-1.37109373 2.0625,-1.42968753 z m 3.457031,-1.59375 h 1.429687 v -0.3046875 h -1.429687 v -1.8398437 h -0.246094 c -0.01172,0.8203125 -0.316406,1.8867187 -1.289062,1.921875 v 0.2226562 h 0.84375 v 2.7539063 c 0,1.21874998 0.925781,1.33593748 1.289062,1.33593748 0.703125,0 0.984375,-0.703125 0.984375,-1.33593748 v -0.5742188 h -0.246094 v 0.5507813 c 0,0.73828123 -0.304687,1.11328123 -0.667968,1.11328123 -0.667969,0 -0.667969,-0.90234373 -0.667969,-1.07812503 z m 5.469727,3.22265628 c 0.03516,0.3984375 0.304687,0.8203125 0.773437,0.8203125 0.210938,0 0.820313,-0.140625 0.820313,-0.94921875 V -1.4418906 h -0.246094 v 0.55078123 c 0,0.5859375 -0.246094,0.64453125 -0.363281,0.64453125 -0.328125,0 -0.363282,-0.45703125 -0.363282,-0.50390625 V -2.7426719 c 0,-0.4101562 0,-0.8085937 -0.363281,-1.171875 -0.386719,-0.3867187 -0.878906,-0.5507812 -1.359375,-0.5507812 -0.820312,0 -1.511719,0.46875 -1.511719,1.125 0,0.3046875 0.199219,0.46875 0.457032,0.46875 0.28125,0 0.46875,-0.1992188 0.46875,-0.4570313 0,-0.1171875 -0.05859,-0.4453125 -0.515625,-0.4570312 0.269531,-0.3515625 0.761718,-0.4570313 1.078125,-0.4570313 0.492187,0 1.054687,0.3867188 1.054687,1.2773438 v 0.3632812 c -0.503906,0.035156 -1.207031,0.058594 -1.828125,0.3632813 -0.75,0.3398437 -0.996094,0.8554687 -0.996094,1.28906248 0,0.80859375 0.960938,1.0546875 1.59375,1.0546875 0.65625,0 1.113282,-0.3984375 1.300782,-0.8671875 z M 36.23725,-2.3911094 v 0.9960938 c 0,0.94921873 -0.714844,1.28906248 -1.160156,1.28906248 -0.492188,0 -0.902344,-0.3515625 -0.902344,-0.85546875 0,-0.53906253 0.421875,-1.37109373 2.0625,-1.42968753 z m 0,0"
       style="fill:#000000;fill-opacity:1;fill-rule:nonzero;stroke:none"
       aria-label="Testdata"
       transform="matrix(1.3333333,0,0,1.3333333,716.05867,88.805333)" />
    <path
       id="path19"
       d="M 32.20395,10.3813 84.99707,27.40227"
       style="fill:none;stroke:#000000;stroke-width:0.79701;stroke-linecap:butt;stroke-linejoin:miter;stroke-miterlimit:10;stroke-dasharray:none;stroke-opacity:1"
       transform="matrix(1.3333333,0,0,-1.3333333,100.5,84.216)" />
    <path
       id="path20"
       d="M 5.44046,0 1.28699,1.5706 2.66432,0 1.28699,-1.5706 Z"
       style="fill:#000000;fill-opacity:1;fill-rule:nonzero;stroke:#000000;stroke-width:0.79701;stroke-linecap:butt;stroke-linejoin:miter;stroke-miterlimit:10;stroke-dasharray:none;stroke-opacity:1"
       transform="matrix(1.2689867,-0.40912,-0.40912,-1.2689867,210.70128,48.688133)" />
    <path
       id="path21"
       d="M 32.20491,-10.06596 84.98615,-26.56653"
       style="fill:none;stroke:#000000;stroke-width:0.79701;stroke-linecap:butt;stroke-linejoin:miter;stroke-miterlimit:10;stroke-dasharray:none;stroke-opacity:1"
       transform="matrix(1.3333333,0,0,-1.3333333,100.5,84.216)" />
    <path
       id="path22"
       d="M 5.44046,0 1.28699,1.5706 2.66432,0 1.28699,-1.5706 Z"
       style="fill:#000000;fill-opacity:1;fill-rule:nonzero;stroke:#000000;stroke-width:0.79701;stroke-linecap:butt;stroke-linejoin:miter;stroke-miterlimit:10;stroke-dasharray:none;stroke-opacity:1"
       transform="matrix(1.27252,0.39781333,0.39781333,-1.27252,210.67801,118.65743)" />
    <path
       id="path23"
       d="m 157.33974,39.68573 h 52.58328"
       style="fill:none;stroke:#000000;stroke-width:0.79701;stroke-linecap:butt;stroke-linejoin:miter;stroke-miterlimit:10;stroke-dasharray:none;stroke-opacity:1"
       transform="matrix(1.3333333,0,0,-1.3333333,100.5,84.216)" />
    <path
       id="path24"
       d="M 5.44046,0 1.28699,1.5706 2.66432,0 1.28699,-1.5706 Z"
       style="fill:#000000;fill-opacity:1;fill-rule:nonzero;stroke:#000000;stroke-width:0.79701;stroke-linecap:butt;stroke-linejoin:miter;stroke-miterlimit:10;stroke-dasharray:none;stroke-opacity:1"
       transform="matrix(1.3333333,0,0,-1.3333333,377.1106,31.301693)" />
    <path
       id="path25"
       d="m 165.19006,-39.67337 44.95037,0.01494"
       style="fill:none;stroke:#000000;stroke-width:0.79701;stroke-linecap:butt;stroke-linejoin:miter;stroke-miterlimit:10;stroke-dasharray:none;stroke-opacity:1"
       transform="matrix(1.3333333,0,0,-1.3333333,100.5,84.216)" />
    <path
       id="path26"
       d="M 5.44046,0 1.28699,1.5706 2.66432,0 1.28699,-1.5706 Z"
       style="fill:#000000;fill-opacity:1;fill-rule:nonzero;stroke:#000000;stroke-width:0.79701;stroke-linecap:butt;stroke-linejoin:miter;stroke-miterlimit:10;stroke-dasharray:none;stroke-opacity:1"
       transform="matrix(1.3333067,-4.5333333e-4,-4.5333333e-4,-1.3333067,377.40049,137.09501)" />
    <path
       id="path27"
       d="M 258.18817,28.57019 318.93059,-4.08287"
       style="fill:none;stroke:#000000;stroke-width:0.79701;stroke-linecap:butt;stroke-linejoin:miter;stroke-miterlimit:10;stroke-dasharray:none;stroke-opacity:1"
       transform="matrix(1.3333333,0,0,-1.3333333,100.5,84.216)" />
    <path
       id="path28"
       d="M 5.44046,0 1.28699,1.5706 2.66432,0 1.28699,-1.5706 Z"
       style="fill:#000000;fill-opacity:1;fill-rule:nonzero;stroke:#000000;stroke-width:0.79701;stroke-linecap:butt;stroke-linejoin:miter;stroke-miterlimit:10;stroke-dasharray:none;stroke-opacity:1"
       transform="matrix(1.17436,0.63128,0.63128,-1.17436,522.84588,88.10364)" />
    <path
       id="path29"
       d="M 258.58943,-29.81763 318.8259,-1.7196"
       style="fill:none;stroke:#000000;stroke-width:0.79701;stroke-linecap:butt;stroke-linejoin:miter;stroke-miterlimit:10;stroke-dasharray:none;stroke-opacity:1"
       transform="matrix(1.3333333,0,0,-1.3333333,100.5,84.216)" />
    <path
       id="path30"
       d="M 5.44046,0 1.28699,1.5706 2.66432,0 1.28699,-1.5706 Z"
       style="fill:#000000;fill-opacity:1;fill-rule:nonzero;stroke:#000000;stroke-width:0.79701;stroke-linecap:butt;stroke-linejoin:miter;stroke-miterlimit:10;stroke-dasharray:none;stroke-opacity:1"
       transform="matrix(1.2083067,-0.56361333,-0.56361333,-1.2083067,522.62261,87.898173)" />
    <path
       id="path31"
       d="m 458.15454,0.01788 -52.58328,-10e-6"
       style="fill:none;stroke:#000000;stroke-width:0.79701;stroke-linecap:butt;stroke-linejoin:miter;stroke-miterlimit:10;stroke-dasharray:none;stroke-opacity:1"
       transform="matrix(1.3333333,0,0,-1.3333333,100.5,84.216)" />
    <path
       id="path32"
       d="M 5.44046,0 1.28699,1.5706 2.66432,0 1.28699,-1.5706 Z"
       style="fill:#000000;fill-opacity:1;fill-rule:nonzero;stroke:#000000;stroke-width:0.79701;stroke-linecap:butt;stroke-linejoin:miter;stroke-miterlimit:10;stroke-dasharray:none;stroke-opacity:1"
       transform="matrix(-1.3333333,0,0,1.3333333,644.54847,84.192173)" />
  </g>
</svg>
