<?xml version="1.0" encoding="UTF-8" standalone="no"?>
<!-- Created with Inkscape (http://www.inkscape.org/) -->

<svg
   version="1.1"
   id="svg1"
   width="849.47601"
   height="223.52267"
   viewBox="0 0 849.47601 223.52267"
   xmlns="http://www.w3.org/2000/svg"
   xmlns:svg="http://www.w3.org/2000/svg">
  <defs
     id="defs1" />
  <g
     id="g1">
    <path
       id="path1"
       d="m -32.0051,-13.05359 c 0,-4.41902 14.32897,-8.00127 32.0051,-8.00127 17.67613,0 32.0051,3.58225 32.0051,8.00127 V 24.80264 C 32.0051,20.3836 17.67613,16.80138 0,16.80138 c -17.67613,0 -32.0051,3.58222 -32.0051,8.00126 z"
       style="fill:#ffc266;fill-opacity:1;fill-rule:nonzero;stroke:none"
       transform="matrix(1.3333333,0,0,-1.3333333,100.5,116.85867)" />
    <path
       id="path2"
       d="m -32.0051,24.80264 c 0,4.41904 14.32897,8.00127 32.0051,8.00127 17.67613,0 32.0051,-3.58223 32.0051,-8.00127 0,-4.41904 -14.32897,-8.00126 -32.0051,-8.00126 -17.67613,0 -32.0051,3.58222 -32.0051,8.00126 z"
       style="fill:#ffad33;fill-opacity:1;fill-rule:nonzero;stroke:none"
       transform="matrix(1.3333333,0,0,-1.3333333,100.5,116.85867)" />
    <path
       id="path3"
       d="m -32.0051,-13.05359 c 0,-4.41902 14.32897,-8.00127 32.0051,-8.00127 17.67613,0 32.0051,3.58225 32.0051,8.00127 v 37.85623 c 0,4.41904 -14.32897,8.00127 -32.0051,8.00127 -17.67613,0 -32.0051,-3.58223 -32.0051,-8.00127 z m 0,37.85623 c 0,-4.41904 14.32897,-8.00126 32.0051,-8.00126 17.67613,0 32.0051,3.58222 32.0051,8.00126"
       style="fill:none;stroke:#000000;stroke-width:0.3985;stroke-linecap:butt;stroke-linejoin:miter;stroke-miterlimit:10;stroke-dasharray:none;stroke-opacity:1"
       transform="matrix(1.3333333,0,0,-1.3333333,100.5,116.85867)" />
    <path
       id="path4"
       d="M 6.6322422,-6.7375156 H 0.55021094 l -0.1875,2.2382812 h 0.24609375 c 0.140625,-1.6054687 0.29296875,-1.9335937 1.79296871,-1.9335937 0.1757813,0 0.4335938,0 0.5390625,0.023437 0.2109375,0.035156 0.2109375,0.140625 0.2109375,0.375 v 5.24999998 c 0,0.33984375 0,0.48046875 -1.0546875,0.48046875 H 1.6986484 V 7.65625e-4 C 2.1088047,-0.03439062 3.1283359,-0.03439062 3.5853672,-0.03439062 c 0.4570312,0 1.4882812,0 1.8984375,0.035156245 V -0.30392187 H 5.0853672 c -1.0546875,0 -1.0546875,-0.140625 -1.0546875,-0.48046875 V -6.0343906 c 0,-0.1992188 0,-0.3398438 0.1875,-0.375 0.1054687,-0.023437 0.375,-0.023437 0.5625,-0.023437 1.5,0 1.6523437,0.328125 1.7929687,1.9335937 h 0.2460938 z m 1.4003906,3.4335937 v -1.1015625 l -1.3828125,0.1171875 v 0.3046875 c 0.6914063,0 0.7734375,0.070312 0.7734375,0.5625 v 2.66015628 c 0,0.45703125 -0.1054687,0.45703125 -0.7734375,0.45703125 V 7.65625e-4 C 7.0365391,-0.01095312 7.5052891,-0.03439062 7.7865391,-0.03439062 c 0.3984375,0 0.8671875,0 1.265625,0.035156245 V -0.30392187 H 8.8412266 c -0.7382813,0 -0.7617188,-0.1171875 -0.7617188,-0.46875 V -2.3078281 c 0,-0.984375 0.421875,-1.875 1.1835938,-1.875 0.058594,0 0.082031,0 0.1054687,0.011719 -0.035156,0.011719 -0.234375,0.1289063 -0.234375,0.3867188 0,0.28125 0.2109375,0.4335937 0.4335938,0.4335937 0.1757812,0 0.421875,-0.1289062 0.421875,-0.4453125 0,-0.3164062 -0.3046875,-0.609375 -0.7265625,-0.609375 -0.7382813,0 -1.0898438,0.6679688 -1.2304688,1.1015622 z m 4.2656252,-2.859375 c 0,-0.2460937 -0.199219,-0.5039062 -0.503906,-0.5039062 -0.28125,0 -0.492188,0.2226562 -0.492188,0.5039062 0,0.28125 0.210938,0.4921875 0.492188,0.4921875 0.304687,0 0.503906,-0.2578125 0.503906,-0.4921875 z m 1.921875,0 c 0,-0.28125 -0.222656,-0.5039062 -0.503906,-0.5039062 -0.292969,0 -0.492188,0.2578125 -0.492188,0.5039062 0,0.234375 0.199219,0.4921875 0.492188,0.4921875 0.28125,0 0.503906,-0.2109375 0.503906,-0.4921875 z m -0.632813,5.40234378 c 0.03516,0.3984375 0.304688,0.8203125 0.773438,0.8203125 0.210937,0 0.820312,-0.140625 0.820312,-0.94921875 V -1.4406406 h -0.246093 v 0.55078123 c 0,0.5859375 -0.246094,0.64453125 -0.363282,0.64453125 -0.328125,0 -0.363281,-0.45703125 -0.363281,-0.50390625 V -2.7414219 c 0,-0.4101562 0,-0.8085937 -0.363281,-1.171875 -0.386719,-0.3867187 -0.878906,-0.5507812 -1.359375,-0.5507812 -0.820313,0 -1.511719,0.46875 -1.511719,1.125 0,0.3046875 0.199219,0.46875 0.457031,0.46875 0.28125,0 0.46875,-0.1992188 0.46875,-0.4570313 0,-0.1171875 -0.05859,-0.4453125 -0.515625,-0.4570312 0.269532,-0.3515625 0.761719,-0.4570313 1.078125,-0.4570313 0.492188,0 1.054688,0.3867188 1.054688,1.2773438 v 0.3632812 c -0.503906,0.035156 -1.207031,0.058594 -1.828125,0.3632813 -0.75,0.3398437 -0.996094,0.8554687 -0.996094,1.28906248 0,0.80859375 0.960938,1.0546875 1.59375,1.0546875 0.65625,0 1.113281,-0.3984375 1.300781,-0.8671875 z M 13.51701,-2.3898594 v 0.9960938 c 0,0.94921873 -0.714844,1.28906248 -1.160156,1.28906248 -0.492188,0 -0.902344,-0.3515625 -0.902344,-0.85546875 0,-0.53906253 0.421875,-1.37109373 2.0625,-1.42968753 z m 2.835937,-1.03125 v 2.66015628 c 0,0.45703125 -0.117187,0.45703125 -0.785156,0.45703125 V 7.65625e-4 c 0.351563,-0.011718745 0.855469,-0.035156245 1.125,-0.035156245 0.257813,0 0.785156,0.0234375 1.113281,0.035156245 V -0.30392187 c -0.65625,0 -0.773437,0 -0.773437,-0.45703125 V -2.5890781 c 0,-1.03125 0.714844,-1.59375 1.347656,-1.59375 0.621094,0 0.738281,0.5390625 0.738281,1.1015625 v 2.32031248 c 0,0.45703125 -0.117187,0.45703125 -0.773437,0.45703125 V 7.65625e-4 c 0.339844,-0.011718745 0.855469,-0.035156245 1.125,-0.035156245 0.257812,0 0.773437,0.0234375 1.113281,0.035156245 V -0.30392187 c -0.515625,0 -0.773437,0 -0.785156,-0.3046875 V -2.5070469 c 0,-0.8554687 0,-1.171875 -0.304688,-1.5234375 -0.140625,-0.1757812 -0.46875,-0.375 -1.042968,-0.375 -0.726563,0 -1.195313,0.4335938 -1.476563,1.0546875 v -1.0546875 l -1.40625,0.1171875 v 0.3046875 c 0.703125,0 0.785156,0.070312 0.785156,0.5625 z m 6.19043,-0.984375 -1.394531,0.1171875 v 0.3046875 c 0.65625,0 0.738281,0.058594 0.738281,0.5507813 v 2.67187498 c 0,0.45703125 -0.105469,0.45703125 -0.773437,0.45703125 V 7.65625e-4 c 0.316406,-0.011718745 0.855468,-0.035156245 1.101562,-0.035156245 0.339844,0 0.691406,0.0234375 1.03125,0.035156245 V -0.30392187 c -0.65625,0 -0.703125,-0.0585938 -0.703125,-0.4453125 z m 0.04687,-1.734375 c 0,-0.3164062 -0.246094,-0.5273437 -0.527344,-0.5273437 -0.316406,0 -0.527343,0.2695312 -0.527343,0.5273437 0,0.2695313 0.210937,0.5273438 0.527343,0.5273438 0.28125,0 0.527344,-0.1992188 0.527344,-0.5273438 z m 2.06543,2.71875 v 2.66015628 c 0,0.45703125 -0.117188,0.45703125 -0.785157,0.45703125 V 7.65625e-4 c 0.351563,-0.011718745 0.855469,-0.035156245 1.125,-0.035156245 0.257813,0 0.785157,0.0234375 1.113282,0.035156245 V -0.30392187 c -0.65625,0 -0.773438,0 -0.773438,-0.45703125 V -2.5890781 c 0,-1.03125 0.714844,-1.59375 1.347656,-1.59375 0.621094,0 0.738282,0.5390625 0.738282,1.1015625 v 2.32031248 c 0,0.45703125 -0.117188,0.45703125 -0.773438,0.45703125 V 7.65625e-4 c 0.339844,-0.011718745 0.855469,-0.035156245 1.125,-0.035156245 0.257813,0 0.773438,0.0234375 1.113281,0.035156245 V -0.30392187 c -0.515625,0 -0.773437,0 -0.785156,-0.3046875 V -2.5070469 c 0,-0.8554687 0,-1.171875 -0.304687,-1.5234375 -0.140625,-0.1757812 -0.46875,-0.375 -1.042969,-0.375 -0.726563,0 -1.195313,0.4335938 -1.476563,1.0546875 v -1.0546875 l -1.40625,0.1171875 v 0.3046875 c 0.703125,0 0.785157,0.070312 0.785157,0.5625 z m 6.65039,1.7109375 c -0.867187,0 -0.867187,-0.9960937 -0.867187,-1.2304687 0,-0.2695313 0.01172,-0.5859375 0.152344,-0.8320313 0.08203,-0.1171875 0.316406,-0.3984375 0.714843,-0.3984375 0.867188,0 0.867188,0.9960938 0.867188,1.21875 0,0.2695313 -0.01172,0.5976563 -0.164063,0.84375 -0.08203,0.1171875 -0.304687,0.3984375 -0.703125,0.3984375 z m -1.160156,0.3867188 c 0,-0.035156 0,-0.2695313 0.175781,-0.46875 0.386719,0.28125 0.796875,0.3046875 0.984375,0.3046875 0.925782,0 1.605469,-0.6796875 1.605469,-1.453125 0,-0.3632813 -0.152344,-0.7382813 -0.398437,-0.9609375 0.351562,-0.3398438 0.714843,-0.3867188 0.890625,-0.3867188 0.02344,0 0.07031,0 0.105468,0 -0.117187,0.046875 -0.164062,0.1523438 -0.164062,0.2695313 0,0.1757812 0.128906,0.2929687 0.292969,0.2929687 0.09375,0 0.28125,-0.070312 0.28125,-0.2929687 0,-0.1757813 -0.117188,-0.4921875 -0.503907,-0.4921875 -0.199218,0 -0.632812,0.058594 -1.054687,0.46875 -0.421875,-0.328125 -0.84375,-0.3632813 -1.054688,-0.3632813 -0.925781,0 -1.617187,0.6914063 -1.617187,1.453125 0,0.4453125 0.222656,0.8203125 0.46875,1.03125 -0.128906,0.1523438 -0.304688,0.4804688 -0.304688,0.8203125 0,0.31640628 0.128907,0.69140628 0.433594,0.89062503 -0.597656,0.17578125 -0.914062,0.59765625 -0.914062,0.99609375 0,0.71484372 0.984375,1.26562502 2.203125,1.26562502 1.171875,0 2.203125,-0.5039063 2.203125,-1.28906252 0,-0.33984375 -0.140625,-0.85546875 -0.644532,-1.125 -0.527343,-0.28125 -1.101562,-0.28125 -1.710937,-0.28125 -0.246094,0 -0.679688,0 -0.75,-0.0117188 -0.316406,-0.046875 -0.527344,-0.35156258 -0.527344,-0.66796868 z m 1.441406,3.1523437 c -1.007812,0 -1.699218,-0.515625 -1.699218,-1.04296872 0,-0.45703125 0.375,-0.8203125 0.820312,-0.85546875 h 0.585938 c 0.855468,0 1.96875,0 1.96875,0.85546875 0,0.53906252 -0.703125,1.04296872 -1.675782,1.04296872 z m 4.558594,-3.7617187 c 0.222656,0.035156 1.03125,0.1992187 1.03125,0.9140625 0,0.51562498 -0.351562,0.91406248 -1.125,0.91406248 -0.832031,0 -1.195312,-0.57421875 -1.382812,-1.41796878 -0.03516,-0.1289062 -0.03516,-0.1757812 -0.140625,-0.1757812 -0.128907,0 -0.128907,0.070312 -0.128907,0.2578125 v 1.31249998 c 0,0.1640625 0,0.234375 0.105469,0.234375 0.05859,0 0.07031,0 0.257813,-0.19921875 0.01172,-0.01171875 0.01172,-0.03515625 0.199218,-0.22265625 0.433594,0.421875 0.878907,0.421875 1.089844,0.421875 1.148438,0 1.605469,-0.66796875 1.605469,-1.38281248 0,-0.5273438 -0.292969,-0.8203125 -0.421875,-0.9492188 -0.328125,-0.3164062 -0.714844,-0.3984375 -1.136719,-0.46875 -0.550781,-0.1171875 -1.21875,-0.2460937 -1.21875,-0.8203125 0,-0.3515625 0.257813,-0.7617187 1.113281,-0.7617187 1.101563,0 1.148438,0.9023437 1.171875,1.2070312 0,0.09375 0.09375,0.09375 0.117188,0.09375 0.128906,0 0.128906,-0.046875 0.128906,-0.2460937 v -0.9960938 c 0,-0.1757812 0,-0.2460937 -0.117187,-0.2460937 -0.04687,0 -0.07031,0 -0.199219,0.1171875 -0.02344,0.046875 -0.128906,0.1289062 -0.164063,0.1640625 -0.375,-0.28125 -0.785156,-0.28125 -0.9375,-0.28125 -1.21875,0 -1.59375,0.6679687 -1.59375,1.2304687 0,0.3398438 0.164063,0.6210938 0.433594,0.84375 0.316406,0.2578125 0.597656,0.3164063 1.3125,0.4570313 z m 5.639649,1.38281248 v 0.65625 L 43.250406,7.65625e-4 V -0.30392187 c -0.703125,0 -0.773437,-0.0703125 -0.773437,-0.5625 V -6.9132969 l -1.441406,0.1054688 v 0.3164062 c 0.703125,0 0.785156,0.070312 0.785156,0.5507813 v 2.15625 c -0.292969,-0.3632813 -0.726563,-0.6210938 -1.265625,-0.6210938 -1.171875,0 -2.214844,0.984375 -2.214844,2.2617188 0,1.26562498 0.972656,2.24999998 2.109375,2.24999998 0.644531,0 1.089844,-0.33984375 1.335938,-0.65625 z m 0,-2.67187498 v 2.0507812 c 0,0.17578128 0,0.19921878 -0.105469,0.36328128 -0.304688,0.48046875 -0.75,0.703125 -1.183594,0.703125 -0.445312,0 -0.796875,-0.2578125 -1.042969,-0.64453125 C 39.195716,-1.1593906 39.16056,-1.7218906 39.16056,-2.1320469 c 0,-0.3632812 0.02344,-0.9609375 0.316406,-1.4179687 0.210937,-0.3046875 0.585937,-0.6328125 1.125,-0.6328125 0.351562,0 0.761719,0.1523437 1.078125,0.5976562 0.105469,0.1640625 0.105469,0.1875 0.105469,0.3632813 z m 5.065429,2.46093748 c 0.03516,0.3984375 0.304688,0.8203125 0.773438,0.8203125 0.210937,0 0.820312,-0.140625 0.820312,-0.94921875 V -1.4406406 h -0.246094 v 0.55078123 c 0,0.5859375 -0.246093,0.64453125 -0.363281,0.64453125 -0.328125,0 -0.363281,-0.45703125 -0.363281,-0.50390625 V -2.7414219 c 0,-0.4101562 0,-0.8085937 -0.363281,-1.171875 -0.386719,-0.3867187 -0.878907,-0.5507812 -1.359375,-0.5507812 -0.820313,0 -1.511719,0.46875 -1.511719,1.125 0,0.3046875 0.199219,0.46875 0.457031,0.46875 0.28125,0 0.46875,-0.1992188 0.46875,-0.4570313 0,-0.1171875 -0.05859,-0.4453125 -0.515625,-0.4570312 0.269531,-0.3515625 0.761719,-0.4570313 1.078125,-0.4570313 0.492188,0 1.054688,0.3867188 1.054688,1.2773438 v 0.3632812 c -0.503907,0.035156 -1.207032,0.058594 -1.828125,0.3632813 -0.75,0.3398437 -0.996094,0.8554687 -0.996094,1.28906248 0,0.80859375 0.960937,1.0546875 1.59375,1.0546875 0.65625,0 1.113281,-0.3984375 1.300781,-0.8671875 z M 46.78068,-2.3898594 v 0.9960938 c 0,0.94921873 -0.714844,1.28906248 -1.160157,1.28906248 -0.492187,0 -0.902343,-0.3515625 -0.902343,-0.85546875 0,-0.53906253 0.421875,-1.37109373 2.0625,-1.42968753 z m 3.459961,-1.59375 h 1.429687 v -0.3046875 h -1.429687 v -1.8398437 h -0.246094 c -0.01172,0.8203125 -0.316406,1.8867187 -1.289063,1.921875 v 0.2226562 h 0.84375 v 2.7539063 c 0,1.21874998 0.925782,1.33593748 1.289063,1.33593748 0.703125,0 0.984375,-0.703125 0.984375,-1.33593748 v -0.5742188 h -0.246094 v 0.5507813 c 0,0.73828123 -0.304687,1.11328123 -0.667969,1.11328123 -0.667968,0 -0.667968,-0.90234373 -0.667968,-1.07812503 z m 5.466797,3.22265628 c 0.03516,0.3984375 0.304687,0.8203125 0.773437,0.8203125 0.210938,0 0.820313,-0.140625 0.820313,-0.94921875 V -1.4406406 h -0.246094 v 0.55078123 c 0,0.5859375 -0.246094,0.64453125 -0.363281,0.64453125 -0.328125,0 -0.363282,-0.45703125 -0.363282,-0.50390625 V -2.7414219 c 0,-0.4101562 0,-0.8085937 -0.363281,-1.171875 -0.386719,-0.3867187 -0.878906,-0.5507812 -1.359375,-0.5507812 -0.820312,0 -1.511719,0.46875 -1.511719,1.125 0,0.3046875 0.199219,0.46875 0.457032,0.46875 0.28125,0 0.46875,-0.1992188 0.46875,-0.4570313 0,-0.1171875 -0.05859,-0.4453125 -0.515625,-0.4570312 0.269531,-0.3515625 0.761718,-0.4570313 1.078125,-0.4570313 0.492187,0 1.054687,0.3867188 1.054687,1.2773438 v 0.3632812 c -0.503906,0.035156 -1.207031,0.058594 -1.828125,0.3632813 -0.75,0.3398437 -0.996094,0.8554687 -0.996094,1.28906248 0,0.80859375 0.960938,1.0546875 1.59375,1.0546875 0.65625,0 1.113282,-0.3984375 1.300782,-0.8671875 z m -0.07031,-1.62890628 v 0.9960938 c 0,0.94921873 -0.714844,1.28906248 -1.160156,1.28906248 -0.492188,0 -0.902344,-0.3515625 -0.902344,-0.85546875 0,-0.53906253 0.421875,-1.37109373 2.0625,-1.42968753 z m 0,0"
       style="fill:#000000;fill-opacity:1;fill-rule:nonzero;stroke:none"
       aria-label="Tr¨aningsdata"
       transform="matrix(1.3333333,0,0,1.3333333,62.254667,120.17867)" />
    <path
       id="path5"
       d="m 89.10939,38.43349 c 0,-2.67662 9.51831,-4.84639 21.2601,-4.84639 11.74178,0 21.26011,2.16977 21.26011,4.84639 v 44.16598 c 0,-2.67662 -9.51833,-4.84639 -21.26011,-4.84639 -11.74179,0 -21.2601,2.16977 -21.2601,4.84639 z"
       style="fill:#ffc266;fill-opacity:1;fill-rule:nonzero;stroke:none"
       transform="matrix(1.3333333,0,0,-1.3333333,100.5,116.85867)" />
    <path
       id="path6"
       d="m 89.10939,82.59947 c 0,2.67661 9.51831,4.84639 21.2601,4.84639 11.74178,0 21.26011,-2.16978 21.26011,-4.84639 0,-2.67662 -9.51833,-4.84639 -21.26011,-4.84639 -11.74179,0 -21.2601,2.16977 -21.2601,4.84639 z"
       style="fill:#ffad33;fill-opacity:1;fill-rule:nonzero;stroke:none"
       transform="matrix(1.3333333,0,0,-1.3333333,100.5,116.85867)" />
    <path
       id="path7"
       d="m 89.10939,38.43349 c 0,-2.67662 9.51831,-4.84639 21.2601,-4.84639 11.74178,0 21.26011,2.16977 21.26011,4.84639 v 44.16598 c 0,2.67661 -9.51833,4.84639 -21.26011,4.84639 -11.74179,0 -21.2601,-2.16978 -21.2601,-4.84639 z m 0,44.16598 c 0,-2.67662 9.51831,-4.84639 21.2601,-4.84639 11.74178,0 21.26011,2.16977 21.26011,4.84639"
       style="fill:#70c1fa;fill-opacity:1;fill-rule:nonzero;stroke:#000000;stroke-width:0.3985;stroke-linecap:butt;stroke-linejoin:miter;stroke-miterlimit:10;stroke-dasharray:none;stroke-opacity:1"
       transform="matrix(1.3333333,0,0,-1.3333333,100.5,116.85867)" />
    <path
       id="path8"
       d="m 5.8004922,-2.2976953 c 0,1.40624999 -0.9726563,2.20312499 -1.9101563,2.20312499 -0.46875,0 -1.6523437,-0.24609375 -1.6523437,-2.13281249 v -3.796875 c 0,-0.3632813 0.023437,-0.46875 0.7851562,-0.46875 h 0.2460938 v -0.3164063 c -0.3515625,0.035156 -1.0898438,0.035156 -1.4648438,0.035156 -0.375,0 -1.12499996,0 -1.47656246,-0.035156 v 0.3164063 h 0.234375 c 0.77343746,0 0.79687496,0.1054687 0.79687496,0.46875 v 3.75 c 0,1.40624999 1.1484375,2.49609374 2.5078125,2.49609374 1.1484375,0 2.0390625,-0.92578125 2.2148438,-2.06250004 0.023437,-0.1992187 0.023437,-0.2929687 0.023437,-0.6914062 v -3.1875 c 0,-0.328125 0,-0.7734375 1.03125,-0.7734375 v -0.3164063 c -0.3632813,0.011719 -0.84375,0.035156 -1.1835938,0.035156 -0.3398437,0 -0.8203125,-0.023437 -1.1835937,-0.035156 v 0.3164063 c 1.03125,0 1.03125,0.46875 1.03125,0.7382812 z m 3.3369141,-1.0078125 v -1.1015625 l -1.3828125,0.1171875 v 0.3046875 c 0.6914062,0 0.7734375,0.070312 0.7734375,0.5625 v 2.66015624 c 0,0.45703125 -0.1054688,0.45703125 -0.7734375,0.45703125 V -8.203125e-4 C 8.1413125,-0.01253906 8.6100625,-0.03597656 8.8913125,-0.03597656 c 0.3984375,0 0.8671875,0 1.2656255,0.0351562475 V -0.30550781 H 9.946 c -0.7382812,0 -0.7617187,-0.1171875 -0.7617187,-0.46875 V -2.3094141 c 0,-0.984375 0.421875,-1.875 1.1835937,-1.875 0.05859,0 0.08203,0 0.105469,0.011719 -0.03516,0.011719 -0.234375,0.1289062 -0.234375,0.3867187 0,0.28125 0.210937,0.4335938 0.433594,0.4335938 0.175781,0 0.421875,-0.1289063 0.421875,-0.4453125 0,-0.3164063 -0.304688,-0.609375 -0.726563,-0.609375 -0.7382812,0 -1.0898437,0.6679687 -1.2304687,1.1015623 z m 6.3867187,-0.011719 c 0.08203,-0.234375 0.257813,-0.65625 0.914063,-0.6679687 V -4.289883 c -0.234375,0.011719 -0.515625,0.023437 -0.75,0.023437 -0.234375,0 -0.691407,-0.023437 -0.867188,-0.023437 v 0.3046875 c 0.375,0.011719 0.480469,0.234375 0.480469,0.4335937 0,0.082031 -0.02344,0.1289063 -0.05859,0.234375 l -1.019531,2.54296879 -1.113281,-2.77734379 c -0.05859,-0.140625 -0.05859,-0.1523437 -0.05859,-0.1757812 0,-0.2578125 0.386719,-0.2578125 0.5625,-0.2578125 V -4.289883 c -0.292969,0 -0.855469,0.023437 -1.078125,0.023437 -0.269531,0 -0.667969,-0.011719 -0.972656,-0.023437 v 0.3046875 c 0.632812,0 0.667968,0.058594 0.796875,0.3632812 l 1.441406,3.53906254 c 0.05859,0.140625 0.07031,0.1875 0.199219,0.1875 0.128906,0 0.175781,-0.08203125 0.210937,-0.1875 z m 3.867188,2.55468754 c 0.03516,0.3984375 0.304687,0.8203125 0.773437,0.8203125 0.210938,0 0.820313,-0.140625 0.820313,-0.94921875 V -1.4422266 h -0.246094 v 0.55078129 c 0,0.5859375 -0.246094,0.64453125 -0.363281,0.64453125 -0.328125,0 -0.363282,-0.45703125 -0.363282,-0.50390625 V -2.7430078 c 0,-0.4101563 0,-0.8085938 -0.363281,-1.171875 -0.386719,-0.3867188 -0.878906,-0.5507813 -1.359375,-0.5507813 -0.820312,0 -1.511719,0.46875 -1.511719,1.125 0,0.3046875 0.199219,0.46875 0.457032,0.46875 0.28125,0 0.46875,-0.1992187 0.46875,-0.4570312 0,-0.1171875 -0.05859,-0.4453125 -0.515625,-0.4570313 0.269531,-0.3515625 0.761718,-0.4570312 1.078125,-0.4570312 0.492187,0 1.054687,0.3867187 1.054687,1.2773437 v 0.3632813 c -0.503906,0.035156 -1.207031,0.058594 -1.828125,0.3632812 -0.75,0.3398438 -0.996094,0.8554688 -0.996094,1.28906254 0,0.80859375 0.960938,1.0546875 1.59375,1.0546875 0.65625,0 1.113282,-0.3984375 1.300782,-0.8671877 z M 19.321,-2.3914453 v 0.9960937 c 0,0.94921879 -0.714844,1.28906254 -1.160156,1.28906254 -0.492188,0 -0.902344,-0.3515625 -0.902344,-0.85546875 0,-0.53906249 0.421875,-1.37109379 2.0625,-1.42968749 z m 3.492188,-4.5234375 -1.429688,0.1054687 v 0.3164063 c 0.703125,0 0.773438,0.070312 0.773438,0.5507812 v 5.17968754 c 0,0.45703125 -0.105469,0.45703125 -0.773438,0.45703125 V -8.203125e-4 C 21.711625,-0.01253906 22.238969,-0.03597656 22.485063,-0.03597656 c 0.257812,0 0.738281,0.0234375 1.113281,0.0351562475 V -0.30550781 c -0.667969,0 -0.785156,0 -0.785156,-0.45703125 z m 7.268554,0.5390625 c 0,-0.234375 0,-0.2578125 -0.234375,-0.2578125 -0.609375,0.6328125 -1.488281,0.6328125 -1.804687,0.6328125 v 0.3164062 c 0.199218,0 0.785156,0 1.300781,-0.2578125 v 5.15625004 c 0,0.3515625 -0.03516,0.48046875 -0.925781,0.48046875 H 28.101273 V -8.203125e-4 C 28.452836,-0.03597656 29.308305,-0.03597656 29.706742,-0.03597656 c 0.398438,0 1.265625,0 1.617188,0.0351562475 V -0.30550781 h -0.316407 c -0.902343,0 -0.925781,-0.1171875 -0.925781,-0.48046875 z m 0,0"
       style="fill:#000000;fill-opacity:1;fill-rule:nonzero;stroke:none"
       aria-label="Urval1"
       transform="matrix(1.3333333,0,0,1.3333333,226.23867,45.88)" />
    <path
       id="path9"
       d="m 89.10939,-18.26013 c 0,-2.67662 9.51831,-4.84639 21.2601,-4.84639 11.74178,0 21.26011,2.16977 21.26011,4.84639 v 44.16597 c 0,-2.67662 -9.51833,-4.84639 -21.26011,-4.84639 -11.74179,0 -21.2601,2.16977 -21.2601,4.84639 z"
       style="fill:#ffc266;fill-opacity:1;fill-rule:nonzero;stroke:none"
       transform="matrix(1.3333333,0,0,-1.3333333,100.5,116.85867)" />
    <path
       id="path10"
       d="m 89.10939,25.90584 c 0,2.6766 9.51831,4.84639 21.2601,4.84639 11.74178,0 21.26011,-2.16979 21.26011,-4.84639 0,-2.67662 -9.51833,-4.84639 -21.26011,-4.84639 -11.74179,0 -21.2601,2.16977 -21.2601,4.84639 z"
       style="fill:#ffad33;fill-opacity:1;fill-rule:nonzero;stroke:none"
       transform="matrix(1.3333333,0,0,-1.3333333,100.5,116.85867)" />
    <path
       id="path11"
       d="m 89.10939,-18.26013 c 0,-2.67662 9.51831,-4.84639 21.2601,-4.84639 11.74178,0 21.26011,2.16977 21.26011,4.84639 v 44.16597 c 0,2.6766 -9.51833,4.84639 -21.26011,4.84639 -11.74179,0 -21.2601,-2.16979 -21.2601,-4.84639 z m 0,44.16597 c 0,-2.67662 9.51831,-4.84639 21.2601,-4.84639 11.74178,0 21.26011,2.16977 21.26011,4.84639"
       style="fill:#70c1fa;fill-opacity:1;fill-rule:nonzero;stroke:#000000;stroke-width:0.3985;stroke-linecap:butt;stroke-linejoin:miter;stroke-miterlimit:10;stroke-dasharray:none;stroke-opacity:1"
       transform="matrix(1.3333333,0,0,-1.3333333,100.5,116.85867)" />
    <path
       id="path12"
       d="m 5.8004922,-2.2983125 c 0,1.40625 -0.9726563,2.203125 -1.9101563,2.203125 -0.46875,0 -1.6523437,-0.24609375 -1.6523437,-2.1328125 v -3.796875 c 0,-0.3632812 0.023437,-0.46875 0.7851562,-0.46875 h 0.2460938 v -0.3164062 c -0.3515625,0.035156 -1.0898438,0.035156 -1.4648438,0.035156 -0.375,0 -1.12499996,0 -1.47656246,-0.035156 v 0.3164062 h 0.234375 c 0.77343746,0 0.79687496,0.1054688 0.79687496,0.46875 v 3.75 c 0,1.40625 1.1484375,2.49609375 2.5078125,2.49609375 1.1484375,0 2.0390625,-0.92578125 2.2148438,-2.06249995 0.023437,-0.1992188 0.023437,-0.2929688 0.023437,-0.6914063 v -3.1875 c 0,-0.328125 0,-0.7734375 1.03125,-0.7734375 v -0.3164062 c -0.3632813,0.011719 -0.84375,0.035156 -1.1835938,0.035156 -0.3398437,0 -0.8203125,-0.023437 -1.1835937,-0.035156 v 0.3164062 c 1.03125,0 1.03125,0.46875 1.03125,0.7382813 z M 9.1374063,-3.306125 V -4.4076875 L 7.7545938,-4.2905 v 0.3046875 c 0.6914062,0 0.7734375,0.070312 0.7734375,0.5625 v 2.66015625 c 0,0.45703125 -0.1054688,0.45703125 -0.7734375,0.45703125 v 0.3046875 c 0.3867187,-0.01171875 0.8554687,-0.03515625 1.1367187,-0.03515625 0.3984375,0 0.8671875,0 1.2656255,0.03515625 V -0.306125 H 9.946 c -0.7382812,0 -0.7617187,-0.1171875 -0.7617187,-0.46875 v -1.5351562 c 0,-0.984375 0.421875,-1.875 1.1835937,-1.875 0.05859,0 0.08203,0 0.105469,0.011719 -0.03516,0.011719 -0.234375,0.1289063 -0.234375,0.3867188 0,0.28125 0.210937,0.4335937 0.433594,0.4335937 0.175781,0 0.421875,-0.1289062 0.421875,-0.4453125 0,-0.3164062 -0.304688,-0.609375 -0.726563,-0.609375 -0.7382812,0 -1.0898437,0.6679688 -1.2304687,1.1015622 z m 6.3867187,-0.011719 c 0.08203,-0.234375 0.257813,-0.65625 0.914063,-0.6679688 V -4.2905 c -0.234375,0.011719 -0.515625,0.023437 -0.75,0.023437 -0.234375,0 -0.691407,-0.023437 -0.867188,-0.023437 v 0.3046875 c 0.375,0.011719 0.480469,0.234375 0.480469,0.4335938 0,0.082031 -0.02344,0.1289062 -0.05859,0.234375 l -1.019531,2.5429687 -1.113281,-2.7773437 c -0.05859,-0.140625 -0.05859,-0.1523438 -0.05859,-0.1757813 0,-0.2578125 0.386719,-0.2578125 0.5625,-0.2578125 V -4.2905 c -0.292969,0 -0.855469,0.023437 -1.078125,0.023437 -0.269531,0 -0.667969,-0.011719 -0.972656,-0.023437 v 0.3046875 c 0.632812,0 0.667968,0.058594 0.796875,0.3632813 l 1.441406,3.53906245 c 0.05859,0.140625 0.07031,0.1875 0.199219,0.1875 0.128906,0 0.175781,-0.08203125 0.210937,-0.1875 z m 3.867188,2.55468745 c 0.03516,0.3984375 0.304687,0.8203125 0.773437,0.8203125 0.210938,0 0.820313,-0.140625 0.820313,-0.94921875 V -1.442844 h -0.246094 v 0.5507812 c 0,0.5859375 -0.246094,0.64453125 -0.363281,0.64453125 -0.328125,0 -0.363282,-0.45703125 -0.363282,-0.50390625 V -2.743625 c 0,-0.4101562 0,-0.8085937 -0.363281,-1.171875 -0.386719,-0.3867187 -0.878906,-0.5507812 -1.359375,-0.5507812 -0.820312,0 -1.511719,0.46875 -1.511719,1.125 0,0.3046875 0.199219,0.46875 0.457032,0.46875 0.28125,0 0.46875,-0.1992188 0.46875,-0.4570313 0,-0.1171875 -0.05859,-0.4453125 -0.515625,-0.4570312 0.269531,-0.3515625 0.761718,-0.4570313 1.078125,-0.4570313 0.492187,0 1.054687,0.3867188 1.054687,1.2773438 V -2.603 c -0.503906,0.035156 -1.207031,0.058594 -1.828125,0.3632813 -0.75,0.3398437 -0.996094,0.8554687 -0.996094,1.28906245 0,0.80859375 0.960938,1.0546875 1.59375,1.0546875 0.65625,0 1.113282,-0.3984375 1.300782,-0.8671878 z M 19.321,-2.3920625 v 0.9960938 c 0,0.9492187 -0.714844,1.28906245 -1.160156,1.28906245 -0.492188,0 -0.902344,-0.3515625 -0.902344,-0.85546875 0,-0.5390625 0.421875,-1.3710937 2.0625,-1.4296875 z M 22.813188,-6.9155 21.3835,-6.8100312 v 0.3164062 c 0.703125,0 0.773438,0.070312 0.773438,0.5507813 v 5.17968745 c 0,0.45703125 -0.105469,0.45703125 -0.773438,0.45703125 v 0.3046875 c 0.328125,-0.01171875 0.855469,-0.03515625 1.101563,-0.03515625 0.257812,0 0.738281,0.0234375 1.113281,0.03515625 V -0.306125 c -0.667969,0 -0.785156,0 -0.785156,-0.45703125 z m 5.604492,6.15234375 1.054687,-1.03124995 c 1.558594,-1.3710938 2.15625,-1.9101563 2.15625,-2.90625 0,-1.1367188 -0.902344,-1.9335938 -2.121094,-1.9335938 -1.125,0 -1.851562,0.9140625 -1.851562,1.8046875 0,0.5507813 0.492187,0.5507813 0.527344,0.5507813 0.164062,0 0.515625,-0.1171875 0.515625,-0.5273438 0,-0.2578125 -0.1875,-0.515625 -0.527344,-0.515625 -0.08203,0 -0.105469,0 -0.128906,0.011719 0.222656,-0.6445313 0.761718,-1.0195313 1.335937,-1.0195313 0.914063,0 1.335938,0.8085938 1.335938,1.6289063 0,0.796875 -0.492188,1.5820312 -1.042969,2.203125 L 27.76143,-0.36471875 C 27.655961,-0.25925 27.655961,-0.2358125 27.655961,-0.0014375 h 3.691406 l 0.28125,-1.734375 h -0.257812 c -0.04687,0.3046875 -0.117188,0.73828125 -0.210938,0.890625 -0.07031,0.0820313 -0.726562,0.0820313 -0.949219,0.0820313 z m 0,0"
       style="fill:#000000;fill-opacity:1;fill-rule:nonzero;stroke:none"
       aria-label="Urval2"
       transform="matrix(1.3333333,0,0,1.3333333,226.23867,121.47067)" />
    <path
       id="path13"
       d="m 89.10939,-74.95377 c 0,-2.67662 9.51831,-4.84639 21.2601,-4.84639 11.74178,0 21.26011,2.16977 21.26011,4.84639 v 44.16599 c 0,-2.67662 -9.51833,-4.84639 -21.26011,-4.84639 -11.74179,0 -21.2601,2.16977 -21.2601,4.84639 z"
       style="fill:#ffc266;fill-opacity:1;fill-rule:nonzero;stroke:none"
       transform="matrix(1.3333333,0,0,-1.3333333,100.5,116.85867)" />
    <path
       id="path14"
       d="m 89.10939,-30.78778 c 0,2.6766 9.51831,4.84639 21.2601,4.84639 11.74178,0 21.26011,-2.16979 21.26011,-4.84639 0,-2.67662 -9.51833,-4.84639 -21.26011,-4.84639 -11.74179,0 -21.2601,2.16977 -21.2601,4.84639 z"
       style="fill:#ffad33;fill-opacity:1;fill-rule:nonzero;stroke:none"
       transform="matrix(1.3333333,0,0,-1.3333333,100.5,116.85867)" />
    <path
       id="path15"
       d="m 89.10939,-74.95377 c 0,-2.67662 9.51831,-4.84639 21.2601,-4.84639 11.74178,0 21.26011,2.16977 21.26011,4.84639 v 44.16599 c 0,2.6766 -9.51833,4.84639 -21.26011,4.84639 -11.74179,0 -21.2601,-2.16979 -21.2601,-4.84639 z m 0,44.16599 c 0,-2.67662 9.51831,-4.84639 21.2601,-4.84639 11.74178,0 21.26011,2.16977 21.26011,4.84639"
       style="fill:#70c1fa;fill-opacity:1;fill-rule:nonzero;stroke:#000000;stroke-width:0.3985;stroke-linecap:butt;stroke-linejoin:miter;stroke-miterlimit:10;stroke-dasharray:none;stroke-opacity:1"
       transform="matrix(1.3333333,0,0,-1.3333333,100.5,116.85867)" />
    <path
       id="path16"
       d="m 5.8004922,-2.296 c 0,1.40625 -0.9726563,2.203125 -1.9101563,2.203125 -0.46875,0 -1.6523437,-0.24609375 -1.6523437,-2.1328125 v -3.796875 c 0,-0.3632812 0.023437,-0.46875 0.7851562,-0.46875 h 0.2460938 v -0.3164062 c -0.3515625,0.035156 -1.0898438,0.035156 -1.4648438,0.035156 -0.375,0 -1.12499996,0 -1.47656246,-0.035156 v 0.3164062 h 0.234375 c 0.77343746,0 0.79687496,0.1054688 0.79687496,0.46875 v 3.75 c 0,1.40625 1.1484375,2.49609375 2.5078125,2.49609375 1.1484375,0 2.0390625,-0.92578125 2.2148438,-2.06249995 0.023437,-0.1992188 0.023437,-0.2929688 0.023437,-0.6914063 v -3.1875 c 0,-0.328125 0,-0.7734375 1.03125,-0.7734375 v -0.3164062 c -0.3632813,0.011719 -0.84375,0.035156 -1.1835938,0.035156 -0.3398437,0 -0.8203125,-0.023437 -1.1835937,-0.035156 v 0.3164062 c 1.03125,0 1.03125,0.46875 1.03125,0.7382813 z M 9.1374063,-3.3038125 V -4.405375 L 7.7545938,-4.2881875 V -3.9835 c 0.6914062,0 0.7734375,0.070312 0.7734375,0.5625 v 2.66015625 c 0,0.45703125 -0.1054688,0.45703125 -0.7734375,0.45703125 V 8.75e-4 c 0.3867187,-0.01171875 0.8554687,-0.03515625 1.1367187,-0.03515625 0.3984375,0 0.8671875,0 1.2656255,0.03515625 V -0.3038125 H 9.946 c -0.7382812,0 -0.7617187,-0.1171875 -0.7617187,-0.46875 v -1.5351562 c 0,-0.984375 0.421875,-1.875 1.1835937,-1.875 0.05859,0 0.08203,0 0.105469,0.011719 -0.03516,0.011719 -0.234375,0.1289063 -0.234375,0.3867188 0,0.28125 0.210937,0.4335937 0.433594,0.4335937 0.175781,0 0.421875,-0.1289062 0.421875,-0.4453125 0,-0.3164062 -0.304688,-0.609375 -0.726563,-0.609375 -0.7382812,0 -1.0898437,0.6679688 -1.2304687,1.1015622 z m 6.3867187,-0.011719 c 0.08203,-0.234375 0.257813,-0.65625 0.914063,-0.6679688 v -0.3046875 c -0.234375,0.011719 -0.515625,0.023437 -0.75,0.023437 -0.234375,0 -0.691407,-0.023437 -0.867188,-0.023437 V -3.9835 c 0.375,0.011719 0.480469,0.234375 0.480469,0.4335938 0,0.082031 -0.02344,0.1289062 -0.05859,0.234375 l -1.019531,2.5429687 -1.113281,-2.7773437 c -0.05859,-0.140625 -0.05859,-0.1523438 -0.05859,-0.1757813 0,-0.2578125 0.386719,-0.2578125 0.5625,-0.2578125 v -0.3046875 c -0.292969,0 -0.855469,0.023437 -1.078125,0.023437 -0.269531,0 -0.667969,-0.011719 -0.972656,-0.023437 V -3.9835 c 0.632812,0 0.667968,0.058594 0.796875,0.3632813 l 1.441406,3.53906245 c 0.05859,0.140625 0.07031,0.1875 0.199219,0.1875 0.128906,0 0.175781,-0.08203125 0.210937,-0.1875 z m 3.867188,2.55468745 c 0.03516,0.3984375 0.304687,0.8203125 0.773437,0.8203125 0.210938,0 0.820313,-0.140625 0.820313,-0.94921875 V -1.4405312 H 20.738969 V -0.88975 c 0,0.5859375 -0.246094,0.64453125 -0.363281,0.64453125 -0.328125,0 -0.363282,-0.45703125 -0.363282,-0.50390625 v -1.9921875 c 0,-0.4101562 0,-0.8085937 -0.363281,-1.171875 -0.386719,-0.3867187 -0.878906,-0.5507812 -1.359375,-0.5507812 -0.820312,0 -1.511719,0.46875 -1.511719,1.125 0,0.3046875 0.199219,0.46875 0.457032,0.46875 0.28125,0 0.46875,-0.1992188 0.46875,-0.4570313 0,-0.1171875 -0.05859,-0.4453125 -0.515625,-0.4570312 0.269531,-0.3515625 0.761718,-0.4570313 1.078125,-0.4570313 0.492187,0 1.054687,0.3867188 1.054687,1.2773438 v 0.3632812 c -0.503906,0.035156 -1.207031,0.058594 -1.828125,0.3632813 -0.75,0.3398437 -0.996094,0.8554687 -0.996094,1.28906245 0,0.80859375 0.960938,1.0546875 1.59375,1.0546875 0.65625,0 1.113282,-0.3984375 1.300782,-0.8671878 z M 19.321,-2.38975 v 0.9960938 c 0,0.9492187 -0.714844,1.28906245 -1.160156,1.28906245 -0.492188,0 -0.902344,-0.3515625 -0.902344,-0.85546875 0,-0.5390625 0.421875,-1.3710937 2.0625,-1.4296875 z m 3.492188,-4.5234375 -1.429688,0.1054688 v 0.3164062 c 0.703125,0 0.773438,0.070312 0.773438,0.5507813 v 5.17968745 c 0,0.45703125 -0.105469,0.45703125 -0.773438,0.45703125 V 8.75e-4 c 0.328125,-0.01171875 0.855469,-0.03515625 1.101563,-0.03515625 0.257812,0 0.738281,0.0234375 1.113281,0.03515625 v -0.3046875 c -0.667969,0 -0.785156,0 -0.785156,-0.45703125 z m 7.233398,3.4101563 c 0.808594,-0.2695313 1.394531,-0.9726563 1.394531,-1.7578125 0,-0.8203125 -0.878906,-1.3710938 -1.839844,-1.3710938 -1.007812,0 -1.757812,0.5976563 -1.757812,1.3476563 0,0.3398437 0.210937,0.5273437 0.503906,0.5273437 0.304688,0 0.503906,-0.2226562 0.503906,-0.515625 0,-0.4921875 -0.46875,-0.4921875 -0.609375,-0.4921875 0.304688,-0.4921875 0.960938,-0.6210937 1.324219,-0.6210937 0.410156,0 0.949219,0.2226562 0.949219,1.1132812 0,0.1289063 -0.01172,0.703125 -0.269531,1.1367188 -0.304688,0.4804687 -0.644532,0.515625 -0.890625,0.515625 -0.08203,0.011719 -0.316407,0.035156 -0.386719,0.035156 -0.08203,0.011719 -0.152344,0.023437 -0.152344,0.1171875 0,0.1171875 0.07031,0.1171875 0.234375,0.1171875 h 0.445313 c 0.808593,0 1.183593,0.6679688 1.183593,1.6523438 0,1.3476562 -0.691406,1.64062495 -1.125,1.64062495 -0.433593,0 -1.171875,-0.17578125 -1.523437,-0.76171875 0.351562,0.0585938 0.65625,-0.1640625 0.65625,-0.5390625 0,-0.3632812 -0.269531,-0.5625 -0.5625,-0.5625 -0.234375,0 -0.550781,0.140625 -0.550781,0.5742188 0,0.91406245 0.925781,1.57031245 2.003906,1.57031245 1.21875,0 2.121094,-0.9140625 2.121094,-1.92187495 0,-0.8203125 -0.621094,-1.59375 -1.652344,-1.8046873 z m 0,0"
       style="fill:#000000;fill-opacity:1;fill-rule:nonzero;stroke:none"
       aria-label="Urval3"
       transform="matrix(1.3333333,0,0,1.3333333,226.23867,197.06133)" />
    <path
       id="path17"
       d="m 188.72939,-14.17302 h 68.0322 v 28.34679 h -68.0322 z"
       style="fill:#70c1fa;fill-opacity:1;fill-rule:nonzero;stroke:#000000;stroke-width:0.3985;stroke-linecap:butt;stroke-linejoin:miter;stroke-miterlimit:10;stroke-dasharray:none;stroke-opacity:1"
       transform="matrix(1.3333333,0,0,-1.3333333,100.5,116.85867)" />
    <path
       id="path18"
       d="M 2.4031484,-6.586375 C 2.3093984,-6.8090312 2.2859609,-6.8090312 2.0515859,-6.8090312 H 0.36408594 v 0.3164062 h 0.24609375 c 0.76171871,0 0.78515621,0.1054688 0.78515621,0.46875 v 4.9804688 c 0,0.2695312 0,0.7382812 -1.03124996,0.7382812 v 0.3046875 c 0.3515625,-0.01171875 0.84374996,-0.03515625 1.17187496,-0.03515625 0.328125,0 0.8203125,0.0234375 1.1601563,0.03515625 V -0.305125 c -1.0195313,0 -1.0195313,-0.46875 -1.0195313,-0.7382812 v -5.3671875 h 0.011719 l 2.4023437,6.18749995 c 0.046875,0.12890625 0.09375,0.22265625 0.1992188,0.22265625 0.1054687,0 0.1289062,-0.08203125 0.1757812,-0.1875 L 6.9148672,-6.492625 h 0.011719 v 5.71875 c 0,0.3515625 -0.023437,0.46875 -0.7851562,0.46875 H 5.8953359 v 0.3046875 c 0.375,-0.03515625 1.0429688,-0.03515625 1.4414063,-0.03515625 0.3867187,0 1.0546875,0 1.4179687,0.03515625 V -0.305125 h -0.234375 c -0.7734375,0 -0.7851562,-0.1171875 -0.7851562,-0.46875 v -5.25 c 0,-0.3632812 0.011719,-0.46875 0.7851562,-0.46875 h 0.234375 V -6.8090312 H 7.0789297 c -0.2695313,0 -0.2695313,0.011719 -0.3398438,0.1992187 L 4.5593984,-1.00825 Z M 13.820141,-2.13325 c 0,-1.2773437 -0.996094,-2.3320312 -2.191407,-2.3320312 -1.253906,0 -2.2148434,1.0898437 -2.2148434,2.3320312 0,1.2890625 1.0312504,2.23828125 2.2031254,2.23828125 1.207031,0 2.203125,-0.97265625 2.203125,-2.23828125 z m -2.191407,1.9921875 c -0.433593,0 -0.867187,-0.2109375 -1.136718,-0.66796875 C 10.234203,-1.242625 10.234203,-1.852 10.234203,-2.2152812 c 0,-0.3867188 0,-0.9257813 0.246094,-1.359375 0.269531,-0.4570313 0.738281,-0.6679688 1.136719,-0.6679688 0.433593,0 0.867187,0.2226563 1.125,0.6445313 0.257812,0.4335937 0.257812,1.0078125 0.257812,1.3828125 0,0.3632812 0,0.9023437 -0.222656,1.33593745 -0.222656,0.4453125 -0.65625,0.73828125 -1.148438,0.73828125 z m 6.550782,-0.41015625 v 0.65625 L 19.644359,-4.375e-4 V -0.305125 c -0.703125,0 -0.773437,-0.0703125 -0.773437,-0.5625 V -6.9145 l -1.441406,0.1054688 v 0.3164062 c 0.703125,0 0.785156,0.070312 0.785156,0.5507813 v 2.15625 c -0.292969,-0.3632813 -0.726563,-0.6210938 -1.265625,-0.6210938 -1.171875,0 -2.214844,0.984375 -2.214844,2.2617188 0,1.26562495 0.972656,2.24999995 2.109375,2.24999995 0.644531,0 1.089844,-0.33984375 1.335938,-0.65625 z m 0,-2.67187495 v 2.0507812 c 0,0.17578125 0,0.19921875 -0.105469,0.36328125 -0.304688,0.48046875 -0.75,0.703125 -1.183594,0.703125 -0.445312,0 -0.796875,-0.2578125 -1.042969,-0.64453125 -0.257812,-0.4101562 -0.292968,-0.9726562 -0.292968,-1.3828125 0,-0.3632812 0.02344,-0.9609375 0.316406,-1.4179687 0.210937,-0.3046875 0.585937,-0.6328125 1.125,-0.6328125 0.351562,0 0.761719,0.1523437 1.078125,0.5976562 0.105469,0.1640625 0.105469,0.1875 0.105469,0.3632813 z M 21.04182,-2.50825 c 0.05859,-1.4882812 0.902344,-1.734375 1.242188,-1.734375 1.019531,0 1.125,1.3476563 1.125,1.734375 z m -0.01172,0.2109375 h 2.789062 c 0.210938,0 0.246094,0 0.246094,-0.2109375 0,-0.984375 -0.539063,-1.9570312 -1.78125,-1.9570312 -1.160156,0 -2.074219,1.03125 -2.074219,2.2734375 0,1.33593745 1.042969,2.29687495 2.191406,2.29687495 1.21875,0 1.664063,-1.1015625 1.664063,-1.28906245 0,-0.1054688 -0.08203,-0.1171875 -0.128906,-0.1171875 -0.09375,0 -0.117188,0.058594 -0.128907,0.140625 -0.351562,1.0195312 -1.253906,1.0195312 -1.347656,1.0195312 -0.503906,0 -0.902344,-0.29296875 -1.125,-0.66796875 C 21.030102,-1.2895 21.030102,-1.94575 21.030102,-2.2973125 Z M 26.113109,-6.9145 24.683422,-6.8090312 v 0.3164062 c 0.703125,0 0.773437,0.070312 0.773437,0.5507813 v 5.17968745 c 0,0.45703125 -0.105468,0.45703125 -0.773437,0.45703125 v 0.3046875 c 0.328125,-0.01171875 0.855469,-0.03515625 1.101562,-0.03515625 0.257813,0 0.738282,0.0234375 1.113282,0.03515625 V -0.305125 c -0.667969,0 -0.785157,0 -0.785157,-0.45703125 z m 2.768555,0 -1.429687,0.1054688 v 0.3164062 c 0.703125,0 0.773437,0.070312 0.773437,0.5507813 v 5.17968745 c 0,0.45703125 -0.105469,0.45703125 -0.773437,0.45703125 v 0.3046875 c 0.328125,-0.01171875 0.855468,-0.03515625 1.101562,-0.03515625 0.257813,0 0.738281,0.0234375 1.113281,0.03515625 V -0.305125 c -0.667968,0 -0.785156,0 -0.785156,-0.45703125 z m 0,0"
       style="fill:#000000;fill-opacity:1;fill-rule:nonzero;stroke:none"
       aria-label="Modell"
       transform="matrix(1.3333333,0,0,1.3333333,377.56533,121.46933)" />
    <path
       id="path19"
       d="m 357.98665,56.69398 c 0,12.18714 -9.87933,22.06647 -22.06645,22.06647 -12.18714,0 -22.06647,-9.87933 -22.06647,-22.06647 0,-12.18711 9.87933,-22.06645 22.06647,-22.06645 12.18712,0 22.06645,9.87934 22.06645,22.06645 z"
       style="fill:#40adf9;fill-opacity:1;fill-rule:nonzero;stroke:#000000;stroke-width:0.3985;stroke-linecap:butt;stroke-linejoin:miter;stroke-miterlimit:10;stroke-dasharray:none;stroke-opacity:1"
       transform="matrix(1.3333333,0,0,-1.3333333,100.5,116.85867)" />
    <path
       id="path20"
       d="M 2.4024219,-6.5867578 C 2.3086719,-6.8094141 2.2852344,-6.8094141 2.0508594,-6.8094141 H 0.36335938 v 0.3164063 h 0.24609375 c 0.76171877,0 0.78515627,0.1054687 0.78515627,0.46875 v 4.9804687 c 0,0.26953129 0,0.73828129 -1.03125002,0.73828129 V -8.203125e-4 C 0.71492188,-0.01253906 1.2071094,-0.03597656 1.5352344,-0.03597656 c 0.328125,0 0.8203125,0.0234375 1.1601562,0.0351562475 V -0.30550781 c -1.0195312,0 -1.0195312,-0.46875 -1.0195312,-0.73828129 v -5.3671875 h 0.011719 l 2.4023438,6.18750004 c 0.046875,0.12890625 0.09375,0.2226562475 0.1992187,0.2226562475 0.1054688,0 0.1289063,-0.0820312475 0.1757813,-0.1874999975 L 6.9141406,-6.4930078 h 0.011719 v 5.71874999 c 0,0.3515625 -0.023437,0.46875 -0.7851563,0.46875 H 5.8946094 v 0.3046874975 c 0.375,-0.0351562475 1.0429687,-0.0351562475 1.4414062,-0.0351562475 0.3867188,0 1.0546875,0 1.4179688,0.0351562475 V -0.30550781 h -0.234375 c -0.7734375,0 -0.7851563,-0.1171875 -0.7851563,-0.46875 V -6.0242578 c 0,-0.3632813 0.011719,-0.46875 0.7851563,-0.46875 h 0.234375 V -6.8094141 H 7.0782031 c -0.2695312,0 -0.2695312,0.011719 -0.3398437,0.1992188 l -2.1796875,5.6015625 z m 11.4169921,4.453125 c 0,-1.2773438 -0.996094,-2.3320313 -2.191406,-2.3320313 -1.253906,0 -2.2148439,1.0898438 -2.2148439,2.3320313 0,1.28906249 1.0312499,2.23828124 2.2031249,2.23828124 1.207031,0 2.203125,-0.97265625 2.203125,-2.23828124 z m -2.191406,1.99218749 c -0.433594,0 -0.867188,-0.2109375 -1.136719,-0.66796875 -0.257812,-0.43359374 -0.257812,-1.04296874 -0.257812,-1.40625004 0,-0.3867187 0,-0.9257812 0.246093,-1.359375 0.269532,-0.4570312 0.738282,-0.6679687 1.136719,-0.6679687 0.433594,0 0.867188,0.2226562 1.125,0.6445312 0.257813,0.4335938 0.257813,1.0078125 0.257813,1.3828125 0,0.3632813 0,0.9023438 -0.222657,1.33593754 -0.222656,0.4453125 -0.65625,0.73828125 -1.148437,0.73828125 z m 6.550781,-0.41015625 v 0.65625 L 19.643633,-8.203125e-4 V -0.30550781 c -0.703125,0 -0.773438,-0.0703125 -0.773438,-0.5625 V -6.9148828 l -1.441406,0.1054687 v 0.3164063 c 0.703125,0 0.785156,0.070312 0.785156,0.5507812 v 2.15625 c -0.292968,-0.3632812 -0.726562,-0.6210937 -1.265625,-0.6210937 -1.171875,0 -2.214843,0.984375 -2.214843,2.2617187 0,1.26562504 0.972656,2.25000004 2.109375,2.25000004 0.644531,0 1.089843,-0.33984375 1.335937,-0.65625 z m 0,-2.67187504 v 2.0507813 c 0,0.17578124 0,0.19921874 -0.105469,0.36328124 -0.304687,0.48046875 -0.75,0.703125 -1.183593,0.703125 -0.445313,0 -0.796875,-0.2578125 -1.042969,-0.64453125 -0.257813,-0.41015629 -0.292969,-0.97265629 -0.292969,-1.38281249 0,-0.3632813 0.02344,-0.9609375 0.316406,-1.4179688 0.210938,-0.3046875 0.585938,-0.6328125 1.125,-0.6328125 0.351563,0 0.761719,0.1523438 1.078125,0.5976563 0.105469,0.1640625 0.105469,0.1875 0.105469,0.3632812 z m 2.862305,0.7148438 c 0.05859,-1.4882813 0.902344,-1.734375 1.242187,-1.734375 1.019532,0 1.125,1.3476562 1.125,1.734375 z m -0.01172,0.2109375 h 2.789063 c 0.210937,0 0.246093,0 0.246093,-0.2109375 0,-0.984375 -0.539062,-1.9570313 -1.78125,-1.9570313 -1.160156,0 -2.074218,1.03125 -2.074218,2.2734375 0,1.33593754 1.042968,2.29687504 2.191406,2.29687504 1.21875,0 1.664062,-1.1015625 1.664062,-1.28906254 0,-0.1054687 -0.08203,-0.1171875 -0.128906,-0.1171875 -0.09375,0 -0.117187,0.058594 -0.128906,0.140625 -0.351563,1.01953129 -1.253906,1.01953129 -1.347656,1.01953129 -0.503907,0 -0.902344,-0.29296875 -1.125,-0.66796875 C 21.029375,-1.2898828 21.029375,-1.9461328 21.029375,-2.2976953 Z m 5.083008,-4.6171875 -1.429688,0.1054687 v 0.3164063 c 0.703125,0 0.773438,0.070312 0.773438,0.5507812 v 5.17968754 c 0,0.45703125 -0.105469,0.45703125 -0.773438,0.45703125 V -8.203125e-4 C 25.01082,-0.01253906 25.538164,-0.03597656 25.784258,-0.03597656 c 0.257812,0 0.738281,0.0234375 1.113281,0.0351562475 V -0.30550781 c -0.667969,0 -0.785156,0 -0.785156,-0.45703125 z m 7.256836,0.5390625 c 0,-0.234375 0,-0.2578125 -0.234375,-0.2578125 -0.609375,0.6328125 -1.488281,0.6328125 -1.804688,0.6328125 v 0.3164062 c 0.199219,0 0.785157,0 1.300782,-0.2578125 v 5.15625004 c 0,0.3515625 -0.03516,0.48046875 -0.925782,0.48046875 H 31.38875 V -8.203125e-4 C 31.740313,-0.03597656 32.595781,-0.03597656 32.994219,-0.03597656 c 0.398437,0 1.265625,0 1.617187,0.0351562475 V -0.30550781 H 34.295 c -0.902344,0 -0.925781,-0.1171875 -0.925781,-0.48046875 z m 0,0"
       style="fill:#000000;fill-opacity:1;fill-rule:nonzero;stroke:none"
       aria-label="Model1"
       transform="matrix(1.3333333,0,0,1.3333333,524.77333,45.88)" />
    <path
       id="path21"
       d="m 357.98665,3.5e-4 c 0,12.18713 -9.87933,22.06647 -22.06645,22.06647 -12.18714,0 -22.06647,-9.87934 -22.06647,-22.06647 0,-12.1871 9.87933,-22.06644 22.06647,-22.06644 12.18712,0 22.06645,9.87934 22.06645,22.06644 z"
       style="fill:#40adf9;fill-opacity:1;fill-rule:nonzero;stroke:#000000;stroke-width:0.3985;stroke-linecap:butt;stroke-linejoin:miter;stroke-miterlimit:10;stroke-dasharray:none;stroke-opacity:1"
       transform="matrix(1.3333333,0,0,-1.3333333,100.5,116.85867)" />
    <path
       id="path22"
       d="M 2.4024219,-6.586375 C 2.3086719,-6.8090312 2.2852344,-6.8090312 2.0508594,-6.8090312 H 0.36335938 v 0.3164062 h 0.24609375 c 0.76171877,0 0.78515627,0.1054688 0.78515627,0.46875 v 4.9804688 c 0,0.2695312 0,0.7382812 -1.03125002,0.7382812 v 0.3046875 c 0.3515625,-0.01171875 0.84375002,-0.03515625 1.17187502,-0.03515625 0.328125,0 0.8203125,0.0234375 1.1601562,0.03515625 V -0.305125 c -1.0195312,0 -1.0195312,-0.46875 -1.0195312,-0.7382812 v -5.3671875 h 0.011719 l 2.4023438,6.18749995 c 0.046875,0.12890625 0.09375,0.22265625 0.1992187,0.22265625 0.1054688,0 0.1289063,-0.08203125 0.1757813,-0.1875 L 6.9141406,-6.492625 h 0.011719 v 5.71875 c 0,0.3515625 -0.023437,0.46875 -0.7851563,0.46875 H 5.8946094 v 0.3046875 c 0.375,-0.03515625 1.0429687,-0.03515625 1.4414062,-0.03515625 0.3867188,0 1.0546875,0 1.4179688,0.03515625 V -0.305125 h -0.234375 c -0.7734375,0 -0.7851563,-0.1171875 -0.7851563,-0.46875 v -5.25 c 0,-0.3632812 0.011719,-0.46875 0.7851563,-0.46875 h 0.234375 V -6.8090312 H 7.0782031 c -0.2695312,0 -0.2695312,0.011719 -0.3398437,0.1992187 L 4.5586719,-1.00825 Z M 13.819414,-2.13325 c 0,-1.2773437 -0.996094,-2.3320312 -2.191406,-2.3320312 -1.253906,0 -2.2148439,1.0898437 -2.2148439,2.3320312 0,1.2890625 1.0312499,2.23828125 2.2031249,2.23828125 1.207031,0 2.203125,-0.97265625 2.203125,-2.23828125 z m -2.191406,1.9921875 c -0.433594,0 -0.867188,-0.2109375 -1.136719,-0.66796875 C 10.233477,-1.242625 10.233477,-1.852 10.233477,-2.2152812 c 0,-0.3867188 0,-0.9257813 0.246093,-1.359375 0.269532,-0.4570313 0.738282,-0.6679688 1.136719,-0.6679688 0.433594,0 0.867188,0.2226563 1.125,0.6445313 0.257813,0.4335937 0.257813,1.0078125 0.257813,1.3828125 0,0.3632812 0,0.9023437 -0.222657,1.33593745 -0.222656,0.4453125 -0.65625,0.73828125 -1.148437,0.73828125 z m 6.550781,-0.41015625 v 0.65625 L 19.643633,-4.375e-4 V -0.305125 c -0.703125,0 -0.773438,-0.0703125 -0.773438,-0.5625 V -6.9145 l -1.441406,0.1054688 v 0.3164062 c 0.703125,0 0.785156,0.070312 0.785156,0.5507813 v 2.15625 c -0.292968,-0.3632813 -0.726562,-0.6210938 -1.265625,-0.6210938 -1.171875,0 -2.214843,0.984375 -2.214843,2.2617188 0,1.26562495 0.972656,2.24999995 2.109375,2.24999995 0.644531,0 1.089843,-0.33984375 1.335937,-0.65625 z m 0,-2.67187495 v 2.0507812 c 0,0.17578125 0,0.19921875 -0.105469,0.36328125 -0.304687,0.48046875 -0.75,0.703125 -1.183593,0.703125 -0.445313,0 -0.796875,-0.2578125 -1.042969,-0.64453125 -0.257813,-0.4101562 -0.292969,-0.9726562 -0.292969,-1.3828125 0,-0.3632812 0.02344,-0.9609375 0.316406,-1.4179687 0.210938,-0.3046875 0.585938,-0.6328125 1.125,-0.6328125 0.351563,0 0.761719,0.1523437 1.078125,0.5976562 0.105469,0.1640625 0.105469,0.1875 0.105469,0.3632813 z m 2.862305,0.7148437 c 0.05859,-1.4882812 0.902344,-1.734375 1.242187,-1.734375 1.019532,0 1.125,1.3476563 1.125,1.734375 z m -0.01172,0.2109375 h 2.789063 c 0.210937,0 0.246093,0 0.246093,-0.2109375 0,-0.984375 -0.539062,-1.9570312 -1.78125,-1.9570312 -1.160156,0 -2.074218,1.03125 -2.074218,2.2734375 0,1.33593745 1.042968,2.29687495 2.191406,2.29687495 1.21875,0 1.664062,-1.1015625 1.664062,-1.28906245 0,-0.1054688 -0.08203,-0.1171875 -0.128906,-0.1171875 -0.09375,0 -0.117187,0.058594 -0.128906,0.140625 -0.351563,1.0195312 -1.253906,1.0195312 -1.347656,1.0195312 -0.503907,0 -0.902344,-0.29296875 -1.125,-0.66796875 C 21.029375,-1.2895 21.029375,-1.94575 21.029375,-2.2973125 Z M 26.112383,-6.9145 24.682695,-6.8090312 v 0.3164062 c 0.703125,0 0.773438,0.070312 0.773438,0.5507813 v 5.17968745 c 0,0.45703125 -0.105469,0.45703125 -0.773438,0.45703125 v 0.3046875 c 0.328125,-0.01171875 0.855469,-0.03515625 1.101563,-0.03515625 0.257812,0 0.738281,0.0234375 1.113281,0.03515625 V -0.305125 c -0.667969,0 -0.785156,0 -0.785156,-0.45703125 z m 5.592773,6.15234375 1.054688,-1.03124995 c 1.558594,-1.3710938 2.15625,-1.9101563 2.15625,-2.90625 0,-1.1367188 -0.902344,-1.9335938 -2.121094,-1.9335938 -1.125,0 -1.851562,0.9140625 -1.851562,1.8046875 0,0.5507813 0.492187,0.5507813 0.527343,0.5507813 0.164063,0 0.515625,-0.1171875 0.515625,-0.5273438 0,-0.2578125 -0.1875,-0.515625 -0.527343,-0.515625 -0.08203,0 -0.105469,0 -0.128907,0.011719 0.222657,-0.6445313 0.761719,-1.0195313 1.335938,-1.0195313 0.914062,0 1.335937,0.8085938 1.335937,1.6289063 0,0.796875 -0.492187,1.5820312 -1.042968,2.203125 l -1.910157,2.13281245 C 30.943438,-0.25825 30.943438,-0.2348125 30.943438,-4.375e-4 h 3.691406 l 0.28125,-1.734375 h -0.257813 c -0.04687,0.3046875 -0.117187,0.73828125 -0.210937,0.890625 -0.07031,0.0820313 -0.726563,0.0820313 -0.949219,0.0820313 z m 0,0"
       style="fill:#000000;fill-opacity:1;fill-rule:nonzero;stroke:none"
       aria-label="Model2"
       transform="matrix(1.3333333,0,0,1.3333333,524.77333,121.46933)" />
    <path
       id="path23"
       d="m 357.98665,-56.69327 c 0,12.18714 -9.87933,22.06647 -22.06645,22.06647 -12.18714,0 -22.06647,-9.87933 -22.06647,-22.06647 0,-12.18712 9.87933,-22.06645 22.06647,-22.06645 12.18712,0 22.06645,9.87933 22.06645,22.06645 z"
       style="fill:#40adf9;fill-opacity:1;fill-rule:nonzero;stroke:#000000;stroke-width:0.3985;stroke-linecap:butt;stroke-linejoin:miter;stroke-miterlimit:10;stroke-dasharray:none;stroke-opacity:1"
       transform="matrix(1.3333333,0,0,-1.3333333,100.5,116.85867)" />
    <path
       id="path24"
       d="M 2.4024219,-6.5869922 C 2.3086719,-6.8096484 2.2852344,-6.8096484 2.0508594,-6.8096484 H 0.36335938 v 0.3164062 h 0.24609375 c 0.76171877,0 0.78515627,0.1054688 0.78515627,0.46875 v 4.9804688 c 0,0.26953121 0,0.73828121 -1.03125002,0.73828121 v 0.3046875 c 0.3515625,-0.01171875 0.84375002,-0.03515625 1.17187502,-0.03515625 0.328125,0 0.8203125,0.0234375 1.1601562,0.03515625 v -0.3046875 c -1.0195312,0 -1.0195312,-0.46875 -1.0195312,-0.73828121 v -5.3671875 h 0.011719 l 2.4023438,6.18749996 c 0.046875,0.12890625 0.09375,0.22265625 0.1992187,0.22265625 0.1054688,0 0.1289063,-0.08203125 0.1757813,-0.1875 L 6.9141406,-6.4932422 h 0.011719 v 5.71875001 c 0,0.3515625 -0.023437,0.46875 -0.7851563,0.46875 H 5.8946094 v 0.3046875 c 0.375,-0.03515625 1.0429687,-0.03515625 1.4414062,-0.03515625 0.3867188,0 1.0546875,0 1.4179688,0.03515625 v -0.3046875 h -0.234375 c -0.7734375,0 -0.7851563,-0.1171875 -0.7851563,-0.46875 V -6.0244922 c 0,-0.3632812 0.011719,-0.46875 0.7851563,-0.46875 h 0.234375 V -6.8096484 H 7.0782031 c -0.2695312,0 -0.2695312,0.011719 -0.3398437,0.1992187 l -2.1796875,5.6015625 z m 11.4169921,4.453125 c 0,-1.2773437 -0.996094,-2.3320312 -2.191406,-2.3320312 -1.253906,0 -2.2148439,1.0898437 -2.2148439,2.3320312 0,1.28906251 1.0312499,2.23828126 2.2031249,2.23828126 1.207031,0 2.203125,-0.97265625 2.203125,-2.23828126 z m -2.191406,1.99218751 c -0.433594,0 -0.867188,-0.2109375 -1.136719,-0.66796875 -0.257812,-0.43359376 -0.257812,-1.04296876 -0.257812,-1.40624996 0,-0.3867188 0,-0.9257813 0.246093,-1.359375 0.269532,-0.4570313 0.738282,-0.6679688 1.136719,-0.6679688 0.433594,0 0.867188,0.2226563 1.125,0.6445313 0.257813,0.4335937 0.257813,1.0078125 0.257813,1.3828125 0,0.3632812 0,0.9023437 -0.222657,1.33593746 -0.222656,0.4453125 -0.65625,0.73828125 -1.148437,0.73828125 z m 6.550781,-0.41015625 v 0.65625 l 1.464844,-0.10546875 v -0.3046875 c -0.703125,0 -0.773438,-0.0703125 -0.773438,-0.5625 V -6.9151172 l -1.441406,0.1054688 v 0.3164062 c 0.703125,0 0.785156,0.070312 0.785156,0.5507813 v 2.15625 c -0.292968,-0.3632813 -0.726562,-0.6210938 -1.265625,-0.6210938 -1.171875,0 -2.214843,0.984375 -2.214843,2.2617188 0,1.26562496 0.972656,2.24999996 2.109375,2.24999996 0.644531,0 1.089843,-0.33984375 1.335937,-0.65625 z m 0,-2.67187496 v 2.0507812 c 0,0.17578126 0,0.19921876 -0.105469,0.36328126 -0.304687,0.48046875 -0.75,0.703125 -1.183593,0.703125 -0.445313,0 -0.796875,-0.2578125 -1.042969,-0.64453125 -0.257813,-0.41015621 -0.292969,-0.97265621 -0.292969,-1.38281251 0,-0.3632812 0.02344,-0.9609375 0.316406,-1.4179687 0.210938,-0.3046875 0.585938,-0.6328125 1.125,-0.6328125 0.351563,0 0.761719,0.1523437 1.078125,0.5976562 0.105469,0.1640625 0.105469,0.1875 0.105469,0.3632813 z m 2.862305,0.7148437 c 0.05859,-1.4882812 0.902344,-1.734375 1.242187,-1.734375 1.019532,0 1.125,1.3476563 1.125,1.734375 z m -0.01172,0.2109375 h 2.789063 c 0.210937,0 0.246093,0 0.246093,-0.2109375 0,-0.984375 -0.539062,-1.9570312 -1.78125,-1.9570312 -1.160156,0 -2.074218,1.03125 -2.074218,2.2734375 0,1.33593746 1.042968,2.29687496 2.191406,2.29687496 1.21875,0 1.664062,-1.1015625 1.664062,-1.28906246 0,-0.1054688 -0.08203,-0.1171875 -0.128906,-0.1171875 -0.09375,0 -0.117187,0.058594 -0.128906,0.140625 -0.351563,1.01953121 -1.253906,1.01953121 -1.347656,1.01953121 -0.503907,0 -0.902344,-0.29296875 -1.125,-0.66796875 C 21.029375,-1.2901172 21.029375,-1.9463672 21.029375,-2.2979297 Z m 5.083008,-4.6171875 -1.429688,0.1054688 v 0.3164062 c 0.703125,0 0.773438,0.070312 0.773438,0.5507813 v 5.17968746 c 0,0.45703125 -0.105469,0.45703125 -0.773438,0.45703125 v 0.3046875 c 0.328125,-0.01171875 0.855469,-0.03515625 1.101563,-0.03515625 0.257812,0 0.738281,0.0234375 1.113281,0.03515625 v -0.3046875 c -0.667969,0 -0.785156,0 -0.785156,-0.45703125 z m 7.22168,3.4101563 c 0.808593,-0.2695313 1.394531,-0.9726563 1.394531,-1.7578125 0,-0.8203125 -0.878906,-1.3710938 -1.839844,-1.3710938 -1.007812,0 -1.757812,0.5976563 -1.757812,1.3476563 0,0.3398437 0.210937,0.5273437 0.503906,0.5273437 0.304687,0 0.503906,-0.2226562 0.503906,-0.515625 0,-0.4921875 -0.46875,-0.4921875 -0.609375,-0.4921875 0.304688,-0.4921875 0.960938,-0.6210937 1.324219,-0.6210937 0.410156,0 0.949219,0.2226562 0.949219,1.1132812 0,0.1289063 -0.01172,0.703125 -0.269532,1.1367188 -0.304687,0.4804687 -0.644531,0.515625 -0.890625,0.515625 -0.08203,0.011719 -0.316406,0.035156 -0.386718,0.035156 -0.08203,0.011719 -0.152344,0.023437 -0.152344,0.1171875 0,0.1171875 0.07031,0.1171875 0.234375,0.1171875 h 0.445312 c 0.808594,0 1.183594,0.6679688 1.183594,1.6523438 0,1.34765621 -0.691406,1.64062496 -1.125,1.64062496 -0.433594,0 -1.171875,-0.17578125 -1.523437,-0.76171875 0.351562,0.0585938 0.65625,-0.1640625 0.65625,-0.53906251 0,-0.3632812 -0.269532,-0.5625 -0.5625,-0.5625 -0.234375,0 -0.550782,0.140625 -0.550782,0.5742188 0,0.91406246 0.925782,1.57031246 2.003907,1.57031246 1.21875,0 2.121093,-0.9140625 2.121093,-1.92187496 0,-0.8203125 -0.621093,-1.59375 -1.652343,-1.8046873 z m 0,0"
       style="fill:#000000;fill-opacity:1;fill-rule:nonzero;stroke:none"
       aria-label="Model3"
       transform="matrix(1.3333333,0,0,1.3333333,524.77333,197.06)" />
    <path
       id="path25"
       d="M 443.42561,-14.17302 H 561.53926 V 14.17377 H 443.42561 Z"
       style="fill:#70c1fa;fill-opacity:1;fill-rule:nonzero;stroke:#000000;stroke-width:0.3985;stroke-linecap:butt;stroke-linejoin:miter;stroke-miterlimit:10;stroke-dasharray:none;stroke-opacity:1"
       transform="matrix(1.3333333,0,0,-1.3333333,100.5,116.85867)" />
    <path
       id="path26"
       d="m 1.3605625,-0.77267187 c 0,0.3515625 -0.023437,0.46875 -0.796875,0.46875 H 0.3293125 V 7.65625e-4 H 6.0832188 L 6.493375,-2.5656406 H 6.2472813 C 6.0011875,-1.0304844 5.7668125,-0.30392187 4.055875,-0.30392187 H 2.7316563 c -0.46875,0 -0.4921875,-0.0703125 -0.4921875,-0.3984375 V -3.3625156 h 0.9023437 c 0.9609375,0 1.078125,0.3164062 1.078125,1.1601562 H 4.4660313 V -4.8390781 H 4.2199375 c 0,0.8554687 -0.1171875,1.1601562 -1.078125,1.1601562 H 2.2394688 v -2.390625 c 0,-0.328125 0.023437,-0.3984375 0.4921875,-0.3984375 h 1.2890625 c 1.5234375,0 1.7929687,0.5507813 1.9453125,1.9335938 H 6.212125 L 5.9425938,-6.7726719 H 0.3293125 v 0.3046875 h 0.234375 c 0.7734375,0 0.796875,0.1171875 0.796875,0.46875 z M 7.8820469,-3.4211094 v 2.66015628 c 0,0.45703125 -0.1171875,0.45703125 -0.7851563,0.45703125 V 7.65625e-4 c 0.3515625,-0.011718745 0.8554688,-0.035156245 1.125,-0.035156245 0.2578125,0 0.7851563,0.0234375 1.1132813,0.035156245 V -0.30392187 c -0.65625,0 -0.7734375,0 -0.7734375,-0.45703125 V -2.5890781 c 0,-1.03125 0.7148437,-1.59375 1.3476562,-1.59375 0.6210934,0 0.7382814,0.5390625 0.7382814,1.1015625 v 2.32031248 c 0,0.45703125 -0.117188,0.45703125 -0.7734376,0.45703125 V 7.65625e-4 C 10.214078,-0.01095312 10.729703,-0.03439062 10.999234,-0.03439062 c 0.257813,0 0.773438,0.0234375 1.113282,0.035156245 V -0.30392187 c -0.515625,0 -0.773438,0 -0.785157,-0.3046875 V -2.5070469 c 0,-0.8554687 0,-1.171875 -0.304687,-1.5234375 -0.140625,-0.1757812 -0.46875,-0.375 -1.0429689,-0.375 -0.7265625,0 -1.1953125,0.4335938 -1.4765625,1.0546875 v -1.0546875 l -1.40625,0.1171875 v 0.3046875 c 0.703125,0 0.7851563,0.070312 0.7851563,0.5625 z m 6.5068361,1.4882813 c 0.222656,0.035156 1.03125,0.1992187 1.03125,0.9140625 0,0.51562498 -0.351563,0.91406248 -1.125,0.91406248 -0.832031,0 -1.195313,-0.57421875 -1.382813,-1.41796878 -0.03516,-0.1289062 -0.03516,-0.1757812 -0.140625,-0.1757812 -0.128906,0 -0.128906,0.070312 -0.128906,0.2578125 v 1.31249998 c 0,0.1640625 0,0.234375 0.105469,0.234375 0.05859,0 0.07031,0 0.257812,-0.19921875 0.01172,-0.01171875 0.01172,-0.03515625 0.199219,-0.22265625 0.433594,0.421875 0.878906,0.421875 1.089844,0.421875 1.148437,0 1.605469,-0.66796875 1.605469,-1.38281248 0,-0.5273438 -0.292969,-0.8203125 -0.421875,-0.9492188 -0.328125,-0.3164062 -0.714844,-0.3984375 -1.136719,-0.46875 -0.550781,-0.1171875 -1.21875,-0.2460937 -1.21875,-0.8203125 0,-0.3515625 0.257812,-0.7617187 1.113281,-0.7617187 1.101563,0 1.148438,0.9023437 1.171875,1.2070312 0,0.09375 0.09375,0.09375 0.117188,0.09375 0.128906,0 0.128906,-0.046875 0.128906,-0.2460937 v -0.9960938 c 0,-0.1757812 0,-0.2460937 -0.117188,-0.2460937 -0.04687,0 -0.07031,0 -0.199218,0.1171875 -0.02344,0.046875 -0.128907,0.1289062 -0.164063,0.1640625 -0.375,-0.28125 -0.785156,-0.28125 -0.9375,-0.28125 -1.21875,0 -1.59375,0.6679687 -1.59375,1.2304687 0,0.3398438 0.164063,0.6210938 0.433594,0.84375 0.316406,0.2578125 0.597656,0.3164063 1.3125,0.4570313 z m 2.970703,-0.5742188 c 0.05859,-1.4882812 0.902344,-1.734375 1.242187,-1.734375 1.019532,0 1.125,1.3476563 1.125,1.734375 z m -0.01172,0.2109375 h 2.789063 c 0.210937,0 0.246093,0 0.246093,-0.2109375 0,-0.984375 -0.539062,-1.9570312 -1.78125,-1.9570312 -1.160156,0 -2.074218,1.03125 -2.074218,2.2734375 0,1.33593748 1.042968,2.29687498 2.191406,2.29687498 1.21875,0 1.664062,-1.1015625 1.664062,-1.28906248 0,-0.1054688 -0.08203,-0.1171875 -0.128906,-0.1171875 -0.09375,0 -0.117187,0.058594 -0.128906,0.140625 -0.351563,1.01953123 -1.253906,1.01953123 -1.347656,1.01953123 -0.503907,0 -0.902344,-0.29296875 -1.125,-0.66796875 C 17.347867,-1.2882969 17.347867,-1.9445469 17.347867,-2.2961094 Z m 4.426758,-1.125 v 2.66015628 c 0,0.45703125 -0.117187,0.45703125 -0.785156,0.45703125 V 7.65625e-4 c 0.351562,-0.011718745 0.855469,-0.035156245 1.125,-0.035156245 0.257812,0 0.785156,0.0234375 1.113281,0.035156245 V -0.30392187 c -0.65625,0 -0.773437,0 -0.773437,-0.45703125 V -2.5890781 c 0,-1.03125 0.714843,-1.59375 1.347656,-1.59375 0.621094,0 0.738281,0.5390625 0.738281,1.1015625 v 2.32031248 c 0,0.45703125 -0.117187,0.45703125 -0.773437,0.45703125 V 7.65625e-4 c 0.339843,-0.011718745 0.855468,-0.035156245 1.125,-0.035156245 0.257812,0 0.773437,0.0234375 1.113281,0.035156245 V -0.30392187 c -0.667969,0 -0.785156,0 -0.785156,-0.45703125 V -2.5890781 c 0,-1.03125 0.714843,-1.59375 1.347656,-1.59375 0.632812,0 0.738281,0.5390625 0.738281,1.1015625 v 2.32031248 c 0,0.45703125 -0.105469,0.45703125 -0.773437,0.45703125 V 7.65625e-4 c 0.351562,-0.011718745 0.855468,-0.035156245 1.125,-0.035156245 0.257812,0 0.773437,0.0234375 1.113281,0.035156245 V -0.30392187 c -0.515625,0 -0.761719,0 -0.773438,-0.3046875 V -2.5070469 c 0,-0.8554687 0,-1.171875 -0.316406,-1.5234375 -0.128906,-0.1757812 -0.46875,-0.375 -1.042969,-0.375 -0.832031,0 -1.277343,0.5976563 -1.441406,0.984375 -0.140625,-0.8671875 -0.878906,-0.984375 -1.324219,-0.984375 -0.726562,0 -1.195312,0.4335938 -1.476562,1.0546875 v -1.0546875 l -1.40625,0.1171875 v 0.3046875 c 0.703125,0 0.785156,0.070312 0.785156,0.5625 z m 8.630859,-0.328125 v -3.1640625 l -1.429687,0.1054688 v 0.3164062 c 0.691406,0 0.773437,0.070312 0.773437,0.5507813 V 7.65625e-4 h 0.246094 c 0.01172,-0.011718745 0.09375,-0.152343745 0.363281,-0.621093745 0.152344,0.234375 0.5625,0.7265625 1.300782,0.7265625 1.183593,0 2.226562,-0.97265625 2.226562,-2.26171878 0,-1.265625 -0.972656,-2.25 -2.109375,-2.25 -0.785156,0 -1.207031,0.46875 -1.371094,0.65625 z m 0.03516,2.6132813 v -2.0507813 c 0,-0.1875 0,-0.1992187 0.105468,-0.3632812 0.386719,-0.5507813 0.9375,-0.6328125 1.171875,-0.6328125 0.457032,0 0.808594,0.2578125 1.054688,0.6328125 0.257812,0.4101562 0.28125,0.984375 0.28125,1.3945312 0,0.3632813 -0.01172,0.9609375 -0.304688,1.40625003 -0.210937,0.31640625 -0.585937,0.64453125 -1.125,0.64453125 -0.445312,0 -0.808593,-0.24609375 -1.042968,-0.609375 -0.140625,-0.2109375 -0.140625,-0.24609375 -0.140625,-0.42187498 z m 5.548828,-5.7773438 -1.429688,0.1054688 v 0.3164062 c 0.703125,0 0.773438,0.070312 0.773438,0.5507813 v 5.17968748 c 0,0.45703125 -0.105469,0.45703125 -0.773438,0.45703125 V 7.65625e-4 c 0.328125,-0.011718745 0.855469,-0.035156245 1.101563,-0.035156245 0.257812,0 0.738281,0.0234375 1.113281,0.035156245 V -0.30392187 c -0.667969,0 -0.785156,0 -0.785156,-0.45703125 z m 2.121094,4.40625 c 0.05859,-1.4882812 0.902343,-1.734375 1.242187,-1.734375 1.019531,0 1.125,1.3476563 1.125,1.734375 z m -0.01172,0.2109375 h 2.789062 c 0.210938,0 0.246094,0 0.246094,-0.2109375 0,-0.984375 -0.539062,-1.9570312 -1.78125,-1.9570312 -1.160156,0 -2.074219,1.03125 -2.074219,2.2734375 0,1.33593748 1.042969,2.29687498 2.191407,2.29687498 1.21875,0 1.664062,-1.1015625 1.664062,-1.28906248 0,-0.1054688 -0.08203,-0.1171875 -0.128906,-0.1171875 -0.09375,0 -0.117188,0.058594 -0.128906,0.140625 -0.351563,1.01953123 -1.253907,1.01953123 -1.347657,1.01953123 -0.503906,0 -0.902343,-0.29296875 -1.125,-0.66796875 C 38.098844,-1.2882969 38.098844,-1.9445469 38.098845,-2.2961094 Z m 5.727539,-4.2890625 c -0.09375,-0.2226562 -0.117188,-0.2226562 -0.351563,-0.2226562 h -1.6875 v 0.3164062 h 0.246094 c 0.761719,0 0.785156,0.1054688 0.785156,0.46875 v 4.9804688 c 0,0.26953123 0,0.73828123 -1.03125,0.73828123 V 7.65625e-4 c 0.351563,-0.011718745 0.84375,-0.035156245 1.171875,-0.035156245 0.328125,0 0.820313,0.0234375 1.160157,0.035156245 V -0.30392187 c -1.019532,0 -1.019532,-0.46875 -1.019532,-0.73828123 v -5.3671875 h 0.01172 l 2.402344,6.18749998 c 0.04687,0.12890625 0.09375,0.222656245 0.199219,0.222656245 0.105468,0 0.128906,-0.082031245 0.175781,-0.187499995 l 2.449219,-6.30468753 h 0.01172 v 5.71875003 c 0,0.3515625 -0.02344,0.46875 -0.785156,0.46875 H 47.31857 V 7.65625e-4 c 0.375,-0.035156245 1.042969,-0.035156245 1.441407,-0.035156245 0.386718,0 1.054687,0 1.417968,0.035156245 V -0.30392187 H 49.94357 c -0.773437,0 -0.785156,-0.1171875 -0.785156,-0.46875 V -6.0226719 c 0,-0.3632812 0.01172,-0.46875 0.785156,-0.46875 h 0.234375 v -0.3164062 h -1.675781 c -0.269531,0 -0.269531,0.011719 -0.339844,0.1992187 l -2.179687,5.6015625 z m 11.419922,4.453125 c 0,-1.2773437 -0.996094,-2.3320312 -2.191407,-2.3320312 -1.253906,0 -2.214843,1.0898437 -2.214843,2.3320312 0,1.28906253 1.03125,2.23828128 2.203125,2.23828128 1.207031,0 2.203125,-0.97265625 2.203125,-2.23828128 z m -2.191407,1.99218753 c -0.433593,0 -0.867187,-0.2109375 -1.136718,-0.66796875 -0.257813,-0.43359378 -0.257813,-1.04296878 -0.257813,-1.40624998 0,-0.3867188 0,-0.9257813 0.246094,-1.359375 0.269531,-0.4570313 0.738281,-0.6679688 1.136719,-0.6679688 0.433593,0 0.867187,0.2226563 1.125,0.6445313 0.257812,0.4335937 0.257812,1.0078125 0.257812,1.3828125 0,0.3632812 0,0.9023437 -0.222656,1.33593748 -0.222656,0.4453125 -0.65625,0.73828125 -1.148438,0.73828125 z m 6.547852,-0.41015625 v 0.65625 L 61.067594,7.65625e-4 V -0.30392187 c -0.703125,0 -0.773438,-0.0703125 -0.773438,-0.5625 V -6.9132969 l -1.441406,0.1054688 v 0.3164062 c 0.703125,0 0.785156,0.070312 0.785156,0.5507813 v 2.15625 c -0.292968,-0.3632813 -0.726562,-0.6210938 -1.265625,-0.6210938 -1.171875,0 -2.214843,0.984375 -2.214843,2.2617188 0,1.26562498 0.972656,2.24999998 2.109375,2.24999998 0.644531,0 1.089843,-0.33984375 1.335938,-0.65625 z m 0,-2.67187498 v 2.0507812 c 0,0.17578128 0,0.19921878 -0.105469,0.36328128 -0.304687,0.48046875 -0.75,0.703125 -1.183593,0.703125 -0.445313,0 -0.796875,-0.2578125 -1.042969,-0.64453125 -0.257814,-0.41015623 -0.29297,-0.97265623 -0.29297,-1.38281253 0,-0.3632812 0.02344,-0.9609375 0.316406,-1.4179687 0.210938,-0.3046875 0.585938,-0.6328125 1.125,-0.6328125 0.351563,0 0.761719,0.1523437 1.078125,0.5976562 0.105469,0.1640625 0.105469,0.1875 0.10547,0.3632813 z m 2.865234,0.7148437 c 0.05859,-1.4882812 0.902344,-1.734375 1.242188,-1.734375 1.019531,0 1.125,1.3476563 1.125,1.734375 z m -0.01172,0.2109375 h 2.789062 c 0.210938,0 0.246094,0 0.246094,-0.2109375 0,-0.984375 -0.539063,-1.9570312 -1.78125,-1.9570312 -1.160156,0 -2.074219,1.03125 -2.074219,2.2734375 0,1.33593748 1.042969,2.29687498 2.191406,2.29687498 1.21875,0 1.664063,-1.1015625 1.664063,-1.28906248 0,-0.1054688 -0.08203,-0.1171875 -0.128906,-0.1171875 -0.09375,0 -0.117188,0.058594 -0.128907,0.140625 -0.351562,1.01953123 -1.253906,1.01953123 -1.347656,1.01953123 -0.503906,0 -0.902344,-0.29296875 -1.125,-0.66796875 C 62.456266,-1.2882969 62.456266,-1.9445469 62.456265,-2.2961094 Z m 5.083007,-4.6171875 -1.429687,0.1054688 v 0.3164062 c 0.703125,0 0.773437,0.070312 0.773437,0.5507813 v 5.17968748 c 0,0.45703125 -0.105468,0.45703125 -0.773437,0.45703125 V 7.65625e-4 c 0.328125,-0.011718745 0.855469,-0.035156245 1.101562,-0.035156245 0.257813,0 0.738282,0.0234375 1.113282,0.035156245 V -0.30392187 c -0.667969,0 -0.785157,0 -0.785157,-0.45703125 z m 4.303711,9.3046875 c 0,-0.035156 0,-0.046875 -0.164062,-0.2226562 -1.242188,-1.25390627 -1.570313,-3.12890627 -1.570313,-4.6640625 0,-1.7226563 0.386719,-3.4570313 1.605469,-4.7109375 0.128906,-0.1171875 0.128906,-0.1289063 0.128906,-0.1640625 0,-0.070312 -0.03516,-0.1054688 -0.09375,-0.1054688 -0.105468,0 -0.996093,0.6796875 -1.582031,1.9453125 -0.515625,1.1015625 -0.632812,2.203125 -0.632812,3.0351563 0,0.7851562 0.117187,1.99218748 0.65625,3.11718748 0.597656,1.21875002 1.453125,1.87500002 1.558593,1.87500002 0.05859,0 0.09375,-0.035156 0.09375,-0.1054688 z M 76.384,-6.9367344 c -0.04687,-0.1289062 -0.07031,-0.1992187 -0.222656,-0.1992187 -0.164063,0 -0.1875,0.058594 -0.246094,0.1992187 l -2.0625,5.96484378 c -0.175781,0.50390625 -0.574219,0.65625 -1.113281,0.66796875 V 7.65625e-4 c 0.234375,-0.011718745 0.65625,-0.035156245 1.019531,-0.035156245 0.304688,0 0.820313,0.0234375 1.148438,0.035156245 V -0.30392187 c -0.503907,0 -0.75,-0.2578125 -0.75,-0.515625 0,-0.0234375 0.01172,-0.12890625 0.02344,-0.140625 l 0.457031,-1.31250003 h 2.460938 l 0.527344,1.52343753 c 0.01172,0.046875 0.02344,0.10546875 0.02344,0.140625 0,0.3046875 -0.550781,0.3046875 -0.820312,0.3046875 V 7.65625e-4 C 77.180875,-0.03439062 77.884,-0.03439062 78.259,-0.03439062 c 0.433594,0 0.890625,0.01171875 1.300781,0.035156245 V -0.30392187 H 79.384 c -0.597656,0 -0.738281,-0.0703125 -0.84375,-0.3984375 z m -0.527344,1.125 1.125,3.234375 h -2.238281 z m 8.185547,2.4960938 c 0.08203,-0.234375 0.257813,-0.65625 0.914063,-0.6679688 v -0.3046875 c -0.234375,0.011719 -0.515625,0.023437 -0.75,0.023437 -0.234375,0 -0.691407,-0.023437 -0.867188,-0.023437 v 0.3046875 c 0.375,0.011719 0.480469,0.234375 0.480469,0.4335938 0,0.082031 -0.02344,0.1289062 -0.05859,0.234375 l -1.019531,2.54296873 -1.113281,-2.77734373 c -0.05859,-0.140625 -0.05859,-0.1523438 -0.05859,-0.1757813 0,-0.2578125 0.386719,-0.2578125 0.5625,-0.2578125 v -0.3046875 c -0.292969,0 -0.855469,0.023437 -1.078125,0.023437 -0.269531,0 -0.667969,-0.011719 -0.972656,-0.023437 v 0.3046875 c 0.632812,0 0.667968,0.058594 0.796875,0.3632813 l 1.441406,3.53906248 c 0.05859,0.140625 0.07031,0.1875 0.199219,0.1875 0.128906,0 0.175781,-0.08203125 0.210937,-0.1875 z m 1.945313,0.8085937 c 0.05859,-1.4882812 0.902343,-1.734375 1.242187,-1.734375 1.019531,0 1.125,1.3476563 1.125,1.734375 z m -0.01172,0.2109375 h 2.789062 c 0.210938,0 0.246094,0 0.246094,-0.2109375 0,-0.984375 -0.539062,-1.9570312 -1.78125,-1.9570312 -1.160156,0 -2.074219,1.03125 -2.074219,2.2734375 0,1.33593748 1.042969,2.29687498 2.191407,2.29687498 1.21875,0 1.664062,-1.1015625 1.664062,-1.28906248 0,-0.1054688 -0.08203,-0.1171875 -0.128906,-0.1171875 -0.09375,0 -0.117188,0.058594 -0.128906,0.140625 -0.351563,1.01953123 -1.253907,1.01953123 -1.347657,1.01953123 -0.503906,0 -0.902343,-0.29296875 -1.125,-0.66796875 C 85.975797,-1.2882969 85.975797,-1.9445469 85.975796,-2.2961094 Z m 4.989258,-1.0078125 v -1.1015625 l -1.382813,0.1171875 v 0.3046875 c 0.691406,0 0.773438,0.070312 0.773438,0.5625 v 2.66015628 c 0,0.45703125 -0.105469,0.45703125 -0.773438,0.45703125 V 7.65625e-4 C 89.96896,-0.01095312 90.43771,-0.03439062 90.71896,-0.03439062 c 0.398437,0 0.867187,0 1.265625,0.035156245 V -0.30392187 h -0.210938 c -0.738281,0 -0.761718,-0.1171875 -0.761718,-0.46875 V -2.3078281 c 0,-0.984375 0.421875,-1.875 1.183593,-1.875 0.05859,0 0.08203,0 0.105469,0.011719 -0.03516,0.011719 -0.234375,0.1289063 -0.234375,0.3867188 0,0.28125 0.210938,0.4335937 0.433594,0.4335937 0.175781,0 0.421875,-0.1289062 0.421875,-0.4453125 0,-0.3164062 -0.304688,-0.609375 -0.726563,-0.609375 -0.738281,0 -1.089843,0.6679688 -1.230468,1.1015622 z m 5.554687,2.54296878 c 0.03516,0.3984375 0.304688,0.8203125 0.773438,0.8203125 0.210937,0 0.820312,-0.140625 0.820312,-0.94921875 V -1.4406406 h -0.246094 v 0.55078123 c 0,0.5859375 -0.246093,0.64453125 -0.363281,0.64453125 -0.328125,0 -0.363281,-0.45703125 -0.363281,-0.50390625 V -2.7414219 c 0,-0.4101562 0,-0.8085937 -0.363281,-1.171875 -0.386719,-0.3867187 -0.878907,-0.5507812 -1.359375,-0.5507812 -0.820313,0 -1.511719,0.46875 -1.511719,1.125 0,0.3046875 0.199219,0.46875 0.457031,0.46875 0.28125,0 0.46875,-0.1992188 0.46875,-0.4570313 0,-0.1171875 -0.05859,-0.4453125 -0.515625,-0.4570312 0.269531,-0.3515625 0.761719,-0.4570313 1.078125,-0.4570313 0.492188,0 1.054688,0.3867188 1.054688,1.2773438 v 0.3632812 c -0.503907,0.035156 -1.207032,0.058594 -1.828125,0.3632813 -0.75,0.3398437 -0.996094,0.8554687 -0.996094,1.28906248 0,0.80859375 0.960937,1.0546875 1.59375,1.0546875 0.65625,0 1.113281,-0.3984375 1.300781,-0.8671875 z M 96.44943,-2.3898594 v 0.9960938 c 0,0.94921873 -0.714844,1.28906248 -1.160157,1.28906248 -0.492187,0 -0.902343,-0.3515625 -0.902343,-0.85546875 0,-0.53906253 0.421875,-1.37109373 2.0625,-1.42968753 z m 3.95215,0.6796875 c -0.867189,0 -0.867189,-0.9960937 -0.867189,-1.2304687 0,-0.2695313 0.01172,-0.5859375 0.152343,-0.8320313 0.08203,-0.1171875 0.316406,-0.3984375 0.714846,-0.3984375 0.86719,0 0.86719,0.9960938 0.86719,1.21875 0,0.2695313 -0.0117,0.5976563 -0.16407,0.84375 -0.082,0.1171875 -0.30468,0.3984375 -0.70312,0.3984375 z m -1.160158,0.3867188 c 0,-0.035156 0,-0.2695313 0.175781,-0.46875 0.386719,0.28125 0.796877,0.3046875 0.984377,0.3046875 0.92578,0 1.60547,-0.6796875 1.60547,-1.453125 0,-0.3632813 -0.15235,-0.7382813 -0.39844,-0.9609375 0.35156,-0.3398438 0.71484,-0.3867188 0.89062,-0.3867188 0.0234,0 0.0703,0 0.10547,0 -0.11718,0.046875 -0.16406,0.1523438 -0.16406,0.2695313 0,0.1757812 0.12891,0.2929687 0.29297,0.2929687 0.0937,0 0.28125,-0.070312 0.28125,-0.2929687 0,-0.1757813 -0.11719,-0.4921875 -0.50391,-0.4921875 -0.19922,0 -0.63281,0.058594 -1.05468,0.46875 -0.42188,-0.328125 -0.84375,-0.3632813 -1.05469,-0.3632813 -0.925783,0 -1.617189,0.6914063 -1.617189,1.453125 0,0.4453125 0.222656,0.8203125 0.46875,1.03125 -0.128907,0.1523438 -0.304688,0.4804688 -0.304688,0.8203125 0,0.31640628 0.128906,0.69140628 0.433594,0.89062503 -0.597656,0.17578125 -0.914063,0.59765625 -0.914063,0.99609375 0,0.71484372 0.984375,1.26562502 2.203126,1.26562502 1.17187,0 2.20312,-0.5039063 2.20312,-1.28906252 0,-0.33984375 -0.14062,-0.85546875 -0.64453,-1.125 -0.52734,-0.28125 -1.10156,-0.28125 -1.71093,-0.28125 -0.2461,0 -0.679692,0 -0.750004,-0.0117188 -0.316407,-0.046875 -0.527344,-0.35156248 -0.527344,-0.66796868 z m 1.441408,3.1523437 c -1.007814,0 -1.699221,-0.515625 -1.699221,-1.04296872 0,-0.45703125 0.375,-0.8203125 0.820313,-0.85546875 h 0.585938 c 0.85547,0 1.96875,0 1.96875,0.85546875 0,0.53906252 -0.70313,1.04296872 -1.67578,1.04296872 z m 3.59765,-4.3359375 c 0.0586,-1.4882812 0.90235,-1.734375 1.24219,-1.734375 1.01953,0 1.125,1.3476563 1.125,1.734375 z m -0.0117,0.2109375 h 2.78906 c 0.21094,0 0.24609,0 0.24609,-0.2109375 0,-0.984375 -0.53906,-1.9570312 -1.78125,-1.9570312 -1.16015,0 -2.07422,1.03125 -2.07422,2.2734375 0,1.33593748 1.04297,2.29687498 2.19141,2.29687498 1.21875,0 1.66406,-1.1015625 1.66406,-1.28906248 0,-0.1054688 -0.082,-0.1171875 -0.1289,-0.1171875 -0.0937,0 -0.11719,0.058594 -0.12891,0.140625 -0.35156,1.01953123 -1.25391,1.01953123 -1.34766,1.01953123 -0.5039,0 -0.90234,-0.29296875 -1.125,-0.66796875 -0.30468,-0.48046878 -0.30468,-1.13671878 -0.30468,-1.48828128 z m 6.208,-0.1992187 c 0,-0.7734375 -0.11718,-1.9804688 -0.65625,-3.1054688 -0.59765,-1.21875 -1.46484,-1.875 -1.55859,-1.875 -0.0586,0 -0.10547,0.046875 -0.10547,0.1054688 0,0.035156 0,0.046875 0.19922,0.234375 0.97266,0.984375 1.53516,2.5664062 1.53516,4.640625 0,1.71093748 -0.36329,3.45703123 -1.59375,4.7226562 -0.14063,0.1171875 -0.14063,0.1289063 -0.14063,0.1640625 0,0.058594 0.0469,0.1054688 0.10547,0.1054688 0.0937,0 0.99609,-0.6796875 1.58203,-1.94531252 0.50391,-1.1015625 0.63281,-2.20312498 0.63281,-3.04687498 z m 0,0"
       style="fill:#000000;fill-opacity:1;fill-rule:nonzero;stroke:none"
       aria-label="EnsembleModel(Average)"
       transform="matrix(1.3333333,0,0,1.3333333,696.15467,120.17867)" />
    <path
       id="path27"
       d="M 32.20682,16.54303 85.2538,43.79211"
       style="fill:none;stroke:#000000;stroke-width:0.79701;stroke-linecap:butt;stroke-linejoin:miter;stroke-miterlimit:10;stroke-dasharray:none;stroke-opacity:1"
       transform="matrix(1.3333333,0,0,-1.3333333,100.5,116.85867)" />
    <path
       id="path28"
       d="M 5.44046,0 1.28699,1.5706 2.66432,0 1.28699,-1.5706 Z"
       style="fill:#000000;fill-opacity:1;fill-rule:nonzero;stroke:#000000;stroke-width:0.79701;stroke-linecap:butt;stroke-linejoin:miter;stroke-miterlimit:10;stroke-dasharray:none;stroke-opacity:1"
       transform="matrix(1.1859733,-0.60917333,-0.60917333,-1.1859733,211.24821,59.970827)" />
    <path
       id="path29"
       d="M 32.21541,5.2e-4 84.79868,2.9e-4"
       style="fill:none;stroke:#000000;stroke-width:0.79701;stroke-linecap:butt;stroke-linejoin:miter;stroke-miterlimit:10;stroke-dasharray:none;stroke-opacity:1"
       transform="matrix(1.3333333,0,0,-1.3333333,100.5,116.85867)" />
    <path
       id="path30"
       d="M 5.44046,0 1.28699,1.5706 2.66432,0 1.28699,-1.5706 Z"
       style="fill:#000000;fill-opacity:1;fill-rule:nonzero;stroke:#000000;stroke-width:0.79701;stroke-linecap:butt;stroke-linejoin:miter;stroke-miterlimit:10;stroke-dasharray:none;stroke-opacity:1"
       transform="matrix(1.3333333,0,0,-1.3333333,210.27813,116.85828)" />
    <path
       id="path31"
       d="M 30.51442,-15.6743 85.2538,-43.79237"
       style="fill:none;stroke:#000000;stroke-width:0.79701;stroke-linecap:butt;stroke-linejoin:miter;stroke-miterlimit:10;stroke-dasharray:none;stroke-opacity:1"
       transform="matrix(1.3333333,0,0,-1.3333333,100.5,116.85867)" />
    <path
       id="path32"
       d="M 5.44046,0 1.28699,1.5706 2.66432,0 1.28699,-1.5706 Z"
       style="fill:#000000;fill-opacity:1;fill-rule:nonzero;stroke:#000000;stroke-width:0.79701;stroke-linecap:butt;stroke-linejoin:miter;stroke-miterlimit:10;stroke-dasharray:none;stroke-opacity:1"
       transform="matrix(1.1859733,0.60917333,0.60917333,-1.1859733,211.24821,173.74685)" />
    <path
       id="path33"
       d="M 131.8319,45.86925 190.60327,16.22409"
       style="fill:none;stroke:#000000;stroke-width:0.79701;stroke-linecap:butt;stroke-linejoin:miter;stroke-miterlimit:10;stroke-dasharray:none;stroke-opacity:1"
       transform="matrix(1.3333333,0,0,-1.3333333,100.5,116.85867)" />
    <path
       id="path34"
       d="M 5.44046,0 1.28699,1.5706 2.66432,0 1.28699,-1.5706 Z"
       style="fill:#000000;fill-opacity:1;fill-rule:nonzero;stroke:#000000;stroke-width:0.79701;stroke-linecap:butt;stroke-linejoin:miter;stroke-miterlimit:10;stroke-dasharray:none;stroke-opacity:1"
       transform="matrix(1.1904,0.60046667,0.60046667,-1.1904,351.70327,93.74636)" />
    <path
       id="path35"
       d="m 131.8365,3.5e-4 h 52.58328"
       style="fill:none;stroke:#000000;stroke-width:0.79701;stroke-linecap:butt;stroke-linejoin:miter;stroke-miterlimit:10;stroke-dasharray:none;stroke-opacity:1"
       transform="matrix(1.3333333,0,0,-1.3333333,100.5,116.85867)" />
    <path
       id="path36"
       d="M 5.44046,0 1.28699,1.5706 2.66432,0 1.28699,-1.5706 Z"
       style="fill:#000000;fill-opacity:1;fill-rule:nonzero;stroke:#000000;stroke-width:0.79701;stroke-linecap:butt;stroke-linejoin:miter;stroke-miterlimit:10;stroke-dasharray:none;stroke-opacity:1"
       transform="matrix(1.3333333,0,0,-1.3333333,343.10628,116.8582)" />
    <path
       id="path37"
       d="m 131.8319,-45.86931 58.77137,29.64595"
       style="fill:none;stroke:#000000;stroke-width:0.79701;stroke-linecap:butt;stroke-linejoin:miter;stroke-miterlimit:10;stroke-dasharray:none;stroke-opacity:1"
       transform="matrix(1.3333333,0,0,-1.3333333,100.5,116.85867)" />
    <path
       id="path38"
       d="M 5.44046,0 1.28699,1.5706 2.66432,0 1.28699,-1.5706 Z"
       style="fill:#000000;fill-opacity:1;fill-rule:nonzero;stroke:#000000;stroke-width:0.79701;stroke-linecap:butt;stroke-linejoin:miter;stroke-miterlimit:10;stroke-dasharray:none;stroke-opacity:1"
       transform="matrix(1.1904,-0.60046667,-0.60046667,-1.1904,351.70327,139.97)" />
    <path
       id="path39"
       d="m 251.42719,14.373 60.91154,30.5084"
       style="fill:none;stroke:#000000;stroke-width:0.79701;stroke-linecap:butt;stroke-linejoin:miter;stroke-miterlimit:10;stroke-dasharray:none;stroke-opacity:1"
       transform="matrix(1.3333333,0,0,-1.3333333,100.5,116.85867)" />
    <path
       id="path40"
       d="M 5.44046,0 1.28699,1.5706 2.66432,0 1.28699,-1.5706 Z"
       style="fill:#000000;fill-opacity:1;fill-rule:nonzero;stroke:#000000;stroke-width:0.79701;stroke-linecap:butt;stroke-linejoin:miter;stroke-miterlimit:10;stroke-dasharray:none;stroke-opacity:1"
       transform="matrix(1.1920933,-0.59708,-0.59708,-1.1920933,514.01304,58.488667)" />
    <path
       id="path41"
       d="m 256.96085,3.5e-4 h 52.58326"
       style="fill:none;stroke:#000000;stroke-width:0.79701;stroke-linecap:butt;stroke-linejoin:miter;stroke-miterlimit:10;stroke-dasharray:none;stroke-opacity:1"
       transform="matrix(1.3333333,0,0,-1.3333333,100.5,116.85867)" />
    <path
       id="path42"
       d="M 5.44046,0 1.28699,1.5706 2.66432,0 1.28699,-1.5706 Z"
       style="fill:#000000;fill-opacity:1;fill-rule:nonzero;stroke:#000000;stroke-width:0.79701;stroke-linecap:butt;stroke-linejoin:miter;stroke-miterlimit:10;stroke-dasharray:none;stroke-opacity:1"
       transform="matrix(1.3333333,0,0,-1.3333333,509.93872,116.8582)" />
    <path
       id="path43"
       d="m 251.42719,-14.37228 60.91154,-30.50838"
       style="fill:none;stroke:#000000;stroke-width:0.79701;stroke-linecap:butt;stroke-linejoin:miter;stroke-miterlimit:10;stroke-dasharray:none;stroke-opacity:1"
       transform="matrix(1.3333333,0,0,-1.3333333,100.5,116.85867)" />
    <path
       id="path44"
       d="M 5.44046,0 1.28699,1.5706 2.66432,0 1.28699,-1.5706 Z"
       style="fill:#000000;fill-opacity:1;fill-rule:nonzero;stroke:#000000;stroke-width:0.79701;stroke-linecap:butt;stroke-linejoin:miter;stroke-miterlimit:10;stroke-dasharray:none;stroke-opacity:1"
       transform="matrix(1.1920933,0.59708,0.59708,-1.1920933,514.01304,175.22768)" />
    <path
       id="path45"
       d="M 356.99814,49.52124 456.38997,15.69719"
       style="fill:none;stroke:#000000;stroke-width:0.79701;stroke-linecap:butt;stroke-linejoin:miter;stroke-miterlimit:10;stroke-dasharray:none;stroke-opacity:1"
       transform="matrix(1.3333333,0,0,-1.3333333,100.5,116.85867)" />
    <path
       id="path46"
       d="M 5.44046,0 1.28699,1.5706 2.66432,0 1.28699,-1.5706 Z"
       style="fill:#000000;fill-opacity:1;fill-rule:nonzero;stroke:#000000;stroke-width:0.79701;stroke-linecap:butt;stroke-linejoin:miter;stroke-miterlimit:10;stroke-dasharray:none;stroke-opacity:1"
       transform="matrix(1.2621867,0.42954667,0.42954667,-1.2621867,705.90859,94.870227)" />
    <path
       id="path47"
       d="m 358.18591,3.5e-4 h 80.9301"
       style="fill:none;stroke:#000000;stroke-width:0.79701;stroke-linecap:butt;stroke-linejoin:miter;stroke-miterlimit:10;stroke-dasharray:none;stroke-opacity:1"
       transform="matrix(1.3333333,0,0,-1.3333333,100.5,116.85867)" />
    <path
       id="path48"
       d="M 5.44046,0 1.28699,1.5706 2.66432,0 1.28699,-1.5706 Z"
       style="fill:#000000;fill-opacity:1;fill-rule:nonzero;stroke:#000000;stroke-width:0.79701;stroke-linecap:butt;stroke-linejoin:miter;stroke-miterlimit:10;stroke-dasharray:none;stroke-opacity:1"
       transform="matrix(1.3333333,0,0,-1.3333333,682.70125,116.8582)" />
    <path
       id="path49"
       d="m 356.99814,-49.52051 99.39183,33.82405"
       style="fill:none;stroke:#000000;stroke-width:0.79701;stroke-linecap:butt;stroke-linejoin:miter;stroke-miterlimit:10;stroke-dasharray:none;stroke-opacity:1"
       transform="matrix(1.3333333,0,0,-1.3333333,100.5,116.85867)" />
    <path
       id="path50"
       d="M 5.44046,0 1.28699,1.5706 2.66432,0 1.28699,-1.5706 Z"
       style="fill:#000000;fill-opacity:1;fill-rule:nonzero;stroke:#000000;stroke-width:0.79701;stroke-linecap:butt;stroke-linejoin:miter;stroke-miterlimit:10;stroke-dasharray:none;stroke-opacity:1"
       transform="matrix(1.2621867,-0.42954667,-0.42954667,-1.2621867,705.90859,138.84613)" />
  </g>
</svg>
