<?xml version="1.0" encoding="UTF-8" standalone="no"?>
<!-- Created with Inkscape (http://www.inkscape.org/) -->

<svg
   version="1.1"
   id="svg1"
   width="838.67334"
   height="159.27068"
   viewBox="0 0 838.67334 159.27068"
   xmlns="http://www.w3.org/2000/svg"
   xmlns:svg="http://www.w3.org/2000/svg">
  <defs
     id="defs1" />
  <g
     id="g1">
    <path
       id="path1"
       d="m -34.1222,-12.19867 c 0,-4.71133 15.2768,-8.53055 34.1222,-8.53055 18.8454,0 34.1222,3.81922 34.1222,8.53055 V 24.599 c 0,-4.71134 -15.2768,-8.53055 -34.1222,-8.53055 -18.8454,0 -34.1222,3.81921 -34.1222,8.53055 z"
       style="fill:#ffc266;fill-opacity:1;fill-rule:nonzero;stroke:none"
       transform="matrix(1.3333333,0,0,-1.3333333,103.32267,79.636)" />
    <path
       id="path2"
       d="m -34.1222,24.599 c 0,4.71133 15.2768,8.53055 34.1222,8.53055 18.8454,0 34.1222,-3.81922 34.1222,-8.53055 0,-4.71134 -15.2768,-8.53055 -34.1222,-8.53055 -18.8454,0 -34.1222,3.81921 -34.1222,8.53055 z"
       style="fill:#ffad33;fill-opacity:1;fill-rule:nonzero;stroke:none"
       transform="matrix(1.3333333,0,0,-1.3333333,103.32267,79.636)" />
    <path
       id="path3"
       d="m -34.1222,-12.19867 c 0,-4.71133 15.2768,-8.53055 34.1222,-8.53055 18.8454,0 34.1222,3.81922 34.1222,8.53055 V 24.599 c 0,4.71133 -15.2768,8.53055 -34.1222,8.53055 -18.8454,0 -34.1222,-3.81922 -34.1222,-8.53055 z m 0,36.79767 c 0,-4.71134 15.2768,-8.53055 34.1222,-8.53055 18.8454,0 34.1222,3.81921 34.1222,8.53055"
       style="fill:none;stroke:#000000;stroke-width:0.3985;stroke-linecap:butt;stroke-linejoin:miter;stroke-miterlimit:10;stroke-dasharray:none;stroke-opacity:1"
       transform="matrix(1.3333333,0,0,-1.3333333,103.32267,79.636)" />
    <path
       id="path4"
       d="M 6.6322422,-6.7381719 H 0.55021094 l -0.1875,2.2382813 h 0.24609375 c 0.140625,-1.6054688 0.29296875,-1.9335938 1.79296871,-1.9335938 0.1757813,0 0.4335938,0 0.5390625,0.023437 0.2109375,0.035156 0.2109375,0.140625 0.2109375,0.375 v 5.25000003 c 0,0.33984375 0,0.48046875 -1.0546875,0.48046875 H 1.6986484 V 1.09375e-4 C 2.1088047,-0.03504687 3.1283359,-0.03504687 3.5853672,-0.03504687 c 0.4570312,0 1.4882812,0 1.8984375,0.035156245 V -0.30457812 H 5.0853672 c -1.0546875,0 -1.0546875,-0.140625 -1.0546875,-0.48046875 V -6.0350469 c 0,-0.1992187 0,-0.3398437 0.1875,-0.375 0.1054687,-0.023437 0.375,-0.023437 0.5625,-0.023437 1.5,0 1.6523437,0.328125 1.7929687,1.9335938 h 0.2460938 z m 1.4003906,3.4335938 v -1.1015625 l -1.3828125,0.1171875 v 0.3046875 c 0.6914063,0 0.7734375,0.070312 0.7734375,0.5625 v 2.66015623 c 0,0.45703125 -0.1054687,0.45703125 -0.7734375,0.45703125 V 1.09375e-4 C 7.0365391,-0.01160937 7.5052891,-0.03504687 7.7865391,-0.03504687 c 0.3984375,0 0.8671875,0 1.265625,0.035156245 V -0.30457812 H 8.8412266 c -0.7382813,0 -0.7617188,-0.1171875 -0.7617188,-0.46875 V -2.3084844 c 0,-0.984375 0.421875,-1.875 1.1835938,-1.875 0.058594,0 0.082031,0 0.1054687,0.011719 -0.035156,0.011719 -0.234375,0.1289062 -0.234375,0.3867187 0,0.28125 0.2109375,0.4335938 0.4335938,0.4335938 0.1757812,0 0.421875,-0.1289063 0.421875,-0.4453125 0,-0.3164063 -0.3046875,-0.609375 -0.7265625,-0.609375 -0.7382813,0 -1.0898438,0.6679687 -1.2304688,1.1015623 z m 5.5546872,2.54296873 c 0.03516,0.3984375 0.304688,0.8203125 0.773438,0.8203125 0.210937,0 0.820312,-0.140625 0.820312,-0.94921875 V -1.4412969 h -0.246093 v 0.55078128 c 0,0.5859375 -0.246094,0.64453125 -0.363282,0.64453125 -0.328125,0 -0.363281,-0.45703125 -0.363281,-0.50390625 V -2.7420781 c 0,-0.4101563 0,-0.8085938 -0.363281,-1.171875 -0.386719,-0.3867188 -0.878906,-0.5507813 -1.359375,-0.5507813 -0.820313,0 -1.511719,0.46875 -1.511719,1.125 0,0.3046875 0.199219,0.46875 0.457031,0.46875 0.28125,0 0.46875,-0.1992187 0.46875,-0.4570312 0,-0.1171875 -0.05859,-0.4453125 -0.515625,-0.4570313 0.269532,-0.3515625 0.761719,-0.4570312 1.078125,-0.4570312 0.492188,0 1.054688,0.3867187 1.054688,1.2773437 v 0.3632813 c -0.503906,0.035156 -1.207031,0.058594 -1.828125,0.3632812 -0.75,0.3398438 -0.996094,0.8554688 -0.996094,1.28906253 0,0.80859375 0.960938,1.0546875 1.59375,1.0546875 0.65625,0 1.113281,-0.3984375 1.300781,-0.8671875 z M 13.51701,-2.3905156 v 0.9960937 c 0,0.94921878 -0.714844,1.28906253 -1.160156,1.28906253 -0.492188,0 -0.902344,-0.3515625 -0.902344,-0.85546875 0,-0.53906248 0.421875,-1.37109378 2.0625,-1.42968748 z m 3.492187,-2.015625 -1.394531,0.1171875 v 0.3046875 c 0.65625,0 0.738281,0.058594 0.738281,0.5507812 v 2.67187503 c 0,0.45703125 -0.105468,0.45703125 -0.773437,0.45703125 V 1.09375e-4 c 0.316406,-0.011718745 0.855469,-0.035156245 1.101562,-0.035156245 0.339844,0 0.691407,0.0234375 1.03125,0.035156245 V -0.30457812 c -0.65625,0 -0.703125,-0.0585938 -0.703125,-0.4453125 z m 0.04687,-1.734375 c 0,-0.3164063 -0.246093,-0.5273438 -0.527343,-0.5273438 -0.316407,0 -0.527344,0.2695313 -0.527344,0.5273438 0,0.2695312 0.210937,0.5273437 0.527344,0.5273437 0.28125,0 0.527343,-0.1992187 0.527343,-0.5273437 z m 2.06543,2.71875 v 2.66015623 c 0,0.45703125 -0.117188,0.45703125 -0.785156,0.45703125 V 1.09375e-4 c 0.351562,-0.011718745 0.855468,-0.035156245 1.125,-0.035156245 0.257812,0 0.785156,0.0234375 1.113281,0.035156245 V -0.30457812 c -0.65625,0 -0.773438,0 -0.773438,-0.45703125 V -2.5897344 c 0,-1.03125 0.714844,-1.59375 1.347657,-1.59375 0.621093,0 0.738281,0.5390625 0.738281,1.1015625 v 2.32031253 c 0,0.45703125 -0.117188,0.45703125 -0.773438,0.45703125 V 1.09375e-4 c 0.339844,-0.011718745 0.855469,-0.035156245 1.125,-0.035156245 0.257813,0 0.773438,0.0234375 1.113282,0.035156245 V -0.30457812 c -0.515625,0 -0.773438,0 -0.785157,-0.3046875 V -2.5077031 c 0,-0.8554688 0,-1.171875 -0.304687,-1.5234375 -0.140625,-0.1757813 -0.46875,-0.375 -1.042969,-0.375 -0.726562,0 -1.195312,0.4335937 -1.476562,1.0546875 v -1.0546875 l -1.40625,0.1171875 v 0.3046875 c 0.703125,0 0.785156,0.070312 0.785156,0.5625 z m 6.19043,-0.984375 -1.394532,0.1171875 v 0.3046875 c 0.65625,0 0.738282,0.058594 0.738282,0.5507812 v 2.67187503 c 0,0.45703125 -0.105469,0.45703125 -0.773438,0.45703125 V 1.09375e-4 c 0.316406,-0.011718745 0.855469,-0.035156245 1.101563,-0.035156245 0.339843,0 0.691406,0.0234375 1.03125,0.035156245 V -0.30457812 c -0.65625,0 -0.703125,-0.0585938 -0.703125,-0.4453125 z m 0.04687,-1.734375 c 0,-0.3164063 -0.246094,-0.5273438 -0.527344,-0.5273438 -0.316406,0 -0.527344,0.2695313 -0.527344,0.5273438 0,0.2695312 0.210938,0.5273437 0.527344,0.5273437 0.28125,0 0.527344,-0.1992187 0.527344,-0.5273437 z m 2.065429,2.71875 v 2.66015623 c 0,0.45703125 -0.117187,0.45703125 -0.785156,0.45703125 V 1.09375e-4 c 0.351563,-0.011718745 0.855469,-0.035156245 1.125,-0.035156245 0.257813,0 0.785156,0.0234375 1.113281,0.035156245 V -0.30457812 c -0.65625,0 -0.773437,0 -0.773437,-0.45703125 V -2.5897344 c 0,-1.03125 0.714844,-1.59375 1.347656,-1.59375 0.621094,0 0.738281,0.5390625 0.738281,1.1015625 v 2.32031253 c 0,0.45703125 -0.117187,0.45703125 -0.773437,0.45703125 V 1.09375e-4 c 0.339844,-0.011718745 0.855469,-0.035156245 1.125,-0.035156245 0.257812,0 0.773437,0.0234375 1.113281,0.035156245 V -0.30457812 c -0.515625,0 -0.773437,0 -0.785156,-0.3046875 V -2.5077031 c 0,-0.8554688 0,-1.171875 -0.304688,-1.5234375 -0.140625,-0.1757813 -0.46875,-0.375 -1.042968,-0.375 -0.726563,0 -1.195313,0.4335937 -1.476563,1.0546875 v -1.0546875 l -1.40625,0.1171875 v 0.3046875 c 0.703125,0 0.785156,0.070312 0.785156,0.5625 z m 6.647461,1.7109375 c -0.867187,0 -0.867187,-0.9960938 -0.867187,-1.2304688 0,-0.2695312 0.01172,-0.5859375 0.152344,-0.8320312 0.08203,-0.1171875 0.316406,-0.3984375 0.714843,-0.3984375 0.867188,0 0.867188,0.9960937 0.867188,1.21875 0,0.2695312 -0.01172,0.5976562 -0.164063,0.84375 -0.08203,0.1171875 -0.304687,0.3984375 -0.703125,0.3984375 z m -1.160156,0.3867187 c 0,-0.035156 0,-0.2695312 0.175781,-0.46875 0.386719,0.28125 0.796875,0.3046875 0.984375,0.3046875 0.925782,0 1.605469,-0.6796875 1.605469,-1.453125 0,-0.3632812 -0.152344,-0.7382812 -0.398437,-0.9609375 0.351562,-0.3398437 0.714843,-0.3867187 0.890625,-0.3867187 0.02344,0 0.07031,0 0.105468,0 -0.117187,0.046875 -0.164062,0.1523437 -0.164062,0.2695312 0,0.1757813 0.128906,0.2929688 0.292969,0.2929688 0.09375,0 0.28125,-0.070312 0.28125,-0.2929688 0,-0.1757812 -0.117188,-0.4921875 -0.503907,-0.4921875 -0.199218,0 -0.632812,0.058594 -1.054687,0.46875 -0.421875,-0.328125 -0.84375,-0.3632812 -1.054688,-0.3632812 -0.925781,0 -1.617187,0.6914062 -1.617187,1.453125 0,0.4453125 0.222656,0.8203125 0.46875,1.03125 -0.128906,0.1523437 -0.304688,0.4804687 -0.304688,0.8203125 0,0.31640623 0.128907,0.69140623 0.433594,0.89062498 -0.597656,0.17578125 -0.914062,0.59765625 -0.914062,0.99609375 0,0.71484377 0.984375,1.26562497 2.203125,1.26562497 1.171875,0 2.203125,-0.5039062 2.203125,-1.28906247 0,-0.33984375 -0.140625,-0.85546875 -0.644532,-1.125 -0.527343,-0.28125 -1.101562,-0.28125 -1.710937,-0.28125 -0.246094,0 -0.679688,0 -0.75,-0.0117188 -0.316406,-0.046875 -0.527344,-0.35156243 -0.527344,-0.66796873 z m 1.441406,3.1523438 c -1.007812,0 -1.699218,-0.515625 -1.699218,-1.04296877 0,-0.45703125 0.375,-0.8203125 0.820312,-0.85546875 h 0.585938 c 0.855468,0 1.96875,0 1.96875,0.85546875 0,0.53906247 -0.703125,1.04296877 -1.675782,1.04296877 z m 6.155274,-8.6367188 v 0.3164063 h 0.234375 c 0.773437,0 0.785156,0.1054687 0.785156,0.46875 v 5.24999998 c 0,0.3515625 -0.01172,0.46875 -0.785156,0.46875 H 40.508219 V 1.09375e-4 h 3.644531 c 1.675781,0 3.046875,-1.476562475 3.046875,-3.351562475 0,-1.8867188 -1.347656,-3.4570313 -3.046875,-3.4570313 z m 2.367187,6.50390628 c -0.46875,0 -0.492187,-0.0703125 -0.492187,-0.3984375 V -6.0936406 c 0,-0.328125 0.02344,-0.3984375 0.492187,-0.3984375 H 43.8715 c 0.621094,0 1.300781,0.2109375 1.816406,0.9257812 0.421875,0.5859375 0.515625,1.4414063 0.515625,2.2148438 0,1.1132812 -0.1875,1.7109375 -0.550781,2.1914062 -0.199219,0.26953128 -0.761719,0.85546878 -1.769531,0.85546878 z m 8.208985,-0.45703125 c 0.03516,0.3984375 0.304687,0.8203125 0.773437,0.8203125 0.210938,0 0.820313,-0.140625 0.820313,-0.94921875 V -1.4412969 h -0.246094 v 0.55078128 c 0,0.5859375 -0.246094,0.64453125 -0.363281,0.64453125 -0.328125,0 -0.363282,-0.45703125 -0.363282,-0.50390625 V -2.7420781 c 0,-0.4101563 0,-0.8085938 -0.363281,-1.171875 -0.386719,-0.3867188 -0.878906,-0.5507813 -1.359375,-0.5507813 -0.820312,0 -1.511719,0.46875 -1.511719,1.125 0,0.3046875 0.199219,0.46875 0.457032,0.46875 0.28125,0 0.46875,-0.1992187 0.46875,-0.4570312 0,-0.1171875 -0.05859,-0.4453125 -0.515625,-0.4570313 0.269531,-0.3515625 0.761718,-0.4570312 1.078125,-0.4570312 0.492187,0 1.054687,0.3867187 1.054687,1.2773437 v 0.3632813 c -0.503906,0.035156 -1.207031,0.058594 -1.828125,0.3632812 -0.75,0.3398438 -0.996094,0.8554688 -0.996094,1.28906253 0,0.80859375 0.960938,1.0546875 1.59375,1.0546875 0.65625,0 1.113282,-0.3984375 1.300782,-0.8671875 z m -0.07031,-1.62890623 v 0.9960937 c 0,0.94921878 -0.714844,1.28906253 -1.160156,1.28906253 -0.492188,0 -0.902344,-0.3515625 -0.902344,-0.85546875 0,-0.53906248 0.421875,-1.37109378 2.0625,-1.42968748 z m 3.457031,-1.59375 h 1.429688 v -0.3046875 h -1.429688 v -1.8398438 h -0.246093 c -0.01172,0.8203125 -0.316407,1.8867188 -1.289063,1.921875 v 0.2226563 h 0.84375 v 2.7539062 c 0,1.21875003 0.925781,1.33593753 1.289063,1.33593753 0.703125,0 0.984375,-0.703125 0.984375,-1.33593753 v -0.5742187 h -0.246094 v 0.5507812 c 0,0.73828128 -0.304688,1.11328128 -0.667969,1.11328128 -0.667969,0 -0.667969,-0.90234378 -0.667969,-1.07812498 z m 5.466797,3.22265623 c 0.03516,0.3984375 0.304688,0.8203125 0.773438,0.8203125 0.210937,0 0.820312,-0.140625 0.820312,-0.94921875 V -1.4412969 h -0.246094 v 0.55078128 c 0,0.5859375 -0.246093,0.64453125 -0.363281,0.64453125 -0.328125,0 -0.363281,-0.45703125 -0.363281,-0.50390625 V -2.7420781 c 0,-0.4101563 0,-0.8085938 -0.363281,-1.171875 -0.386719,-0.3867188 -0.878907,-0.5507813 -1.359375,-0.5507813 -0.820313,0 -1.511719,0.46875 -1.511719,1.125 0,0.3046875 0.199219,0.46875 0.457031,0.46875 0.28125,0 0.46875,-0.1992187 0.46875,-0.4570312 0,-0.1171875 -0.05859,-0.4453125 -0.515625,-0.4570313 0.269531,-0.3515625 0.761719,-0.4570312 1.078125,-0.4570312 0.492188,0 1.054688,0.3867187 1.054688,1.2773437 v 0.3632813 c -0.503907,0.035156 -1.207032,0.058594 -1.828125,0.3632812 -0.75,0.3398438 -0.996094,0.8554688 -0.996094,1.28906253 0,0.80859375 0.960937,1.0546875 1.59375,1.0546875 0.65625,0 1.113281,-0.3984375 1.300781,-0.8671875 z m -0.07031,-1.62890623 v 0.9960937 c 0,0.94921878 -0.714844,1.28906253 -1.160157,1.28906253 -0.492187,0 -0.902343,-0.3515625 -0.902343,-0.85546875 0,-0.53906248 0.421875,-1.37109378 2.0625,-1.42968748 z m 0,0"
       style="fill:#000000;fill-opacity:1;fill-rule:nonzero;stroke:none"
       aria-label="TrainingData"
       transform="matrix(1.3333333,0,0,1.3333333,62.254667,82.882667)" />
    <path
       id="path5"
       d="m 91.2234,25.51239 h 68.0322 V 53.85918 H 91.2234 Z"
       style="fill:#70c1fa;fill-opacity:1;fill-rule:nonzero;stroke:#000000;stroke-width:0.3985;stroke-linecap:butt;stroke-linejoin:miter;stroke-miterlimit:10;stroke-dasharray:none;stroke-opacity:1"
       transform="matrix(1.3333333,0,0,-1.3333333,103.32267,79.636)" />
    <path
       id="path6"
       d="M 2.4033125,-6.5857109 C 2.3095625,-6.8083672 2.286125,-6.8083672 2.05175,-6.8083672 h -1.6875 v 0.3164063 h 0.24609375 c 0.76171875,0 0.78515625,0.1054687 0.78515625,0.46875 v 4.9804687 c 0,0.26953126 0,0.73828126 -1.03125,0.73828126 V 2.265625e-4 C 0.7158125,-0.01149219 1.208,-0.03492969 1.536125,-0.03492969 c 0.328125,0 0.8203125,0.0234375 1.1601562,0.0351562525 V -0.30446094 c -1.0195312,0 -1.0195312,-0.46875 -1.0195312,-0.73828126 v -5.3671875 h 0.011719 l 2.4023438,6.18750001 c 0.046875,0.12890625 0.09375,0.2226562525 0.1992187,0.2226562525 0.1054688,0 0.1289063,-0.0820312525 0.1757813,-0.1875000025 L 6.9150312,-6.4919609 H 6.92675 v 5.71874996 c 0,0.3515625 -0.023437,0.46875 -0.7851563,0.46875 H 5.8955 V 2.265625e-4 C 6.2705,-0.03492969 6.9384687,-0.03492969 7.3369062,-0.03492969 c 0.3867188,0 1.0546875,0 1.4179688,0.0351562525 V -0.30446094 H 8.5205 c -0.7734375,0 -0.7851563,-0.1171875 -0.7851563,-0.46875 V -6.0232109 c 0,-0.3632813 0.011719,-0.46875 0.7851563,-0.46875 H 8.754875 V -6.8083672 H 7.0790937 c -0.2695312,0 -0.2695312,0.011719 -0.3398437,0.1992188 l -2.1796875,5.6015625 z m 11.4169925,4.453125 c 0,-1.2773438 -0.996094,-2.3320313 -2.191407,-2.3320313 -1.253906,0 -2.2148433,1.0898438 -2.2148433,2.3320313 0,1.28906246 1.0312503,2.23828121 2.2031253,2.23828121 1.207031,0 2.203125,-0.97265625 2.203125,-2.23828121 z m -2.191407,1.99218746 c -0.433593,0 -0.867187,-0.2109375 -1.136718,-0.66796875 -0.257813,-0.43359371 -0.257813,-1.04296871 -0.257813,-1.40625001 0,-0.3867187 0,-0.9257812 0.246094,-1.359375 0.269531,-0.4570312 0.738281,-0.6679687 1.136719,-0.6679687 0.433593,0 0.867187,0.2226562 1.125,0.6445312 0.257812,0.4335938 0.257812,1.0078125 0.257812,1.3828125 0,0.3632813 0,0.9023438 -0.222656,1.33593751 -0.222656,0.4453125 -0.65625,0.73828125 -1.148438,0.73828125 z m 6.547852,-0.41015625 v 0.65625 L 19.641594,2.265625e-4 V -0.30446094 c -0.703125,0 -0.773438,-0.0703125 -0.773438,-0.5625 V -6.9138359 l -1.441406,0.1054687 v 0.3164063 c 0.703125,0 0.785156,0.070312 0.785156,0.5507812 v 2.15625 c -0.292969,-0.3632812 -0.726562,-0.6210937 -1.265625,-0.6210937 -1.171875,0 -2.214844,0.984375 -2.214844,2.2617187 0,1.26562501 0.972657,2.25000001 2.109375,2.25000001 0.644532,0 1.089844,-0.33984375 1.335938,-0.65625 z m 0,-2.67187501 v 2.0507813 c 0,0.17578121 0,0.19921871 -0.105469,0.36328121 -0.304687,0.48046875 -0.75,0.703125 -1.183594,0.703125 -0.445312,0 -0.796875,-0.2578125 -1.042968,-0.64453125 C 15.586906,-1.1599297 15.55175,-1.7224297 15.55175,-2.1325859 c 0,-0.3632813 0.02344,-0.9609375 0.316406,-1.4179688 0.210938,-0.3046875 0.585938,-0.6328125 1.125,-0.6328125 0.351563,0 0.761719,0.1523438 1.078125,0.5976563 0.105469,0.1640625 0.105469,0.1875 0.105469,0.3632812 z m 2.865234,0.7148438 c 0.05859,-1.4882813 0.902344,-1.734375 1.242188,-1.734375 1.019531,0 1.125,1.3476562 1.125,1.734375 z m -0.01172,0.2109375 h 2.789062 c 0.210938,0 0.246094,0 0.246094,-0.2109375 0,-0.984375 -0.539063,-1.9570313 -1.78125,-1.9570313 -1.160156,0 -2.074219,1.03125 -2.074219,2.2734375 0,1.33593751 1.042969,2.29687501 2.191406,2.29687501 1.21875,0 1.664063,-1.1015625 1.664063,-1.28906251 0,-0.1054687 -0.08203,-0.1171875 -0.128906,-0.1171875 -0.09375,0 -0.117188,0.058594 -0.128907,0.140625 -0.351562,1.01953126 -1.253906,1.01953126 -1.347656,1.01953126 -0.503906,0 -0.902344,-0.29296875 -1.125,-0.66796875 C 21.030266,-1.2888359 21.030266,-1.9450859 21.030266,-2.2966484 Z m 5.083007,-4.6171875 -1.429687,0.1054687 v 0.3164063 c 0.703125,0 0.773437,0.070312 0.773437,0.5507812 v 5.17968751 c 0,0.45703125 -0.105468,0.45703125 -0.773437,0.45703125 V 2.265625e-4 C 25.011711,-0.01149219 25.539055,-0.03492969 25.785148,-0.03492969 c 0.257813,0 0.738282,0.0234375 1.113282,0.0351562525 V -0.30446094 c -0.667969,0 -0.785157,0 -0.785157,-0.45703125 z m 2.768555,2.5078125 -1.394531,0.1171875 v 0.3046875 c 0.65625,0 0.738281,0.058594 0.738281,0.5507812 v 2.67187501 c 0,0.45703125 -0.105469,0.45703125 -0.773437,0.45703125 V 2.265625e-4 c 0.316408,-0.0117187525 0.85547,-0.0351562525 1.101564,-0.0351562525 0.339844,0 0.691406,0.0234375 1.03125,0.0351562525 V -0.30446094 c -0.65625,0 -0.703125,-0.0585938 -0.703125,-0.4453125 z m 0.04687,-1.734375 c 0,-0.3164063 -0.246094,-0.5273438 -0.527344,-0.5273438 -0.316406,0 -0.527343,0.2695313 -0.527343,0.5273438 0,0.2695312 0.210937,0.5273437 0.527343,0.5273437 0.28125,0 0.527344,-0.1992187 0.527344,-0.5273437 z m 2.0625,2.71875 v 2.66015621 c 0,0.45703125 -0.117187,0.45703125 -0.785156,0.45703125 V 2.265625e-4 c 0.351562,-0.0117187525 0.855469,-0.0351562525 1.125,-0.0351562525 0.257812,0 0.785156,0.0234375 1.113281,0.0351562525 V -0.30446094 c -0.65625,0 -0.773437,0 -0.773437,-0.45703125 V -2.5896172 c 0,-1.03125 0.714843,-1.59375 1.347656,-1.59375 0.621094,0 0.738281,0.5390625 0.738281,1.1015625 v 2.32031251 c 0,0.45703125 -0.117187,0.45703125 -0.773437,0.45703125 V 2.265625e-4 c 0.339843,-0.0117187525 0.855468,-0.0351562525 1.125,-0.0351562525 0.257812,0 0.773437,0.0234375 1.113281,0.0351562525 V -0.30446094 c -0.515625,0 -0.773438,0 -0.785156,-0.3046875 V -2.5075859 c 0,-0.8554688 0,-1.171875 -0.304688,-1.5234375 -0.140625,-0.1757813 -0.46875,-0.375 -1.042969,-0.375 -0.726562,0 -1.195312,0.4335937 -1.476562,1.0546875 v -1.0546875 l -1.40625,0.1171875 v 0.3046875 c 0.703125,0 0.785156,0.070312 0.785156,0.5625 z m 6.650391,1.7109375 c -0.867188,0 -0.867188,-0.9960938 -0.867188,-1.2304688 0,-0.2695312 0.01172,-0.5859375 0.152344,-0.8320312 0.08203,-0.1171875 0.316406,-0.3984375 0.714844,-0.3984375 0.867187,0 0.867187,0.9960937 0.867187,1.21875 0,0.2695312 -0.01172,0.5976562 -0.164062,0.84375 -0.08203,0.1171875 -0.304688,0.3984375 -0.703125,0.3984375 z m -1.160157,0.3867187 c 0,-0.035156 0,-0.2695312 0.175782,-0.46875 0.386718,0.28125 0.796875,0.3046875 0.984375,0.3046875 0.925781,0 1.605468,-0.6796875 1.605468,-1.453125 0,-0.3632812 -0.152343,-0.7382812 -0.398437,-0.9609375 0.351562,-0.3398437 0.714844,-0.3867187 0.890625,-0.3867187 0.02344,0 0.07031,0 0.105469,0 -0.117188,0.046875 -0.164063,0.1523437 -0.164063,0.2695312 0,0.1757813 0.128906,0.2929688 0.292969,0.2929688 0.09375,0 0.28125,-0.070312 0.28125,-0.2929688 0,-0.1757812 -0.117188,-0.4921875 -0.503906,-0.4921875 -0.199219,0 -0.632813,0.058594 -1.054688,0.46875 -0.421875,-0.328125 -0.84375,-0.3632812 -1.054687,-0.3632812 -0.925782,0 -1.617188,0.6914062 -1.617188,1.453125 0,0.4453125 0.222656,0.8203125 0.46875,1.03125 -0.128906,0.1523437 -0.304687,0.4804687 -0.304687,0.8203125 0,0.31640621 0.128906,0.69140621 0.433593,0.89062496 C 36.024406,-0.03492969 35.708,0.38694531 35.708,0.78538281 c 0,0.71484379 0.984375,1.26562499 2.203125,1.26562499 1.171875,0 2.203125,-0.5039062 2.203125,-1.28906249 0,-0.33984375 -0.140625,-0.85546875 -0.644531,-1.125 -0.527344,-0.28125 -1.101563,-0.28125 -1.710938,-0.28125 -0.246094,0 -0.679687,0 -0.75,-0.0117188 -0.316406,-0.046875 -0.527344,-0.35156251 -0.527344,-0.66796881 z m 1.441407,3.1523438 c -1.007813,0 -1.699219,-0.515625 -1.699219,-1.04296879 0,-0.45703125 0.375,-0.8203125 0.820312,-0.85546875 h 0.585938 c 0.855469,0 1.96875,0 1.96875,0.85546875 0,0.53906249 -0.703125,1.04296879 -1.675781,1.04296879 z m 6.445312,-8.765625 c -0.04687,-0.1289063 -0.07031,-0.1992188 -0.222656,-0.1992188 -0.164063,0 -0.1875,0.058594 -0.246094,0.1992188 l -2.0625,5.96484371 c -0.175781,0.50390625 -0.574219,0.65625 -1.113281,0.66796875 V 2.265625e-4 C 40.958,-0.01149219 41.379875,-0.03492969 41.743156,-0.03492969 c 0.304688,0 0.820313,0.0234375 1.148438,0.0351562525 V -0.30446094 c -0.503907,0 -0.75,-0.2578125 -0.75,-0.515625 0,-0.0234375 0.01172,-0.12890625 0.02344,-0.140625 L 42.622062,-2.2732109 H 45.083 l 0.527344,1.52343746 c 0.01172,0.046875 0.02344,0.10546875 0.02344,0.140625 0,0.3046875 -0.550781,0.3046875 -0.820312,0.3046875 V 2.265625e-4 C 45.165031,-0.03492969 45.868156,-0.03492969 46.243156,-0.03492969 c 0.433594,0 0.890625,0.01171875 1.300781,0.0351562525 V -0.30446094 h -0.175781 c -0.597656,0 -0.738281,-0.0703125 -0.84375,-0.3984375 z m -0.527344,1.125 1.125,3.234375 h -2.238281 z m 0,0"
       style="fill:#000000;fill-opacity:1;fill-rule:nonzero;stroke:none"
       aria-label="ModelingA"
       transform="matrix(1.3333333,0,0,1.3333333,238.38933,30.042667)" />
    <path
       id="path7"
       d="m 91.2234,-53.85834 h 68.0322 v 28.34679 H 91.2234 Z"
       style="fill:#70c1fa;fill-opacity:1;fill-rule:nonzero;stroke:#000000;stroke-width:0.3985;stroke-linecap:butt;stroke-linejoin:miter;stroke-miterlimit:10;stroke-dasharray:none;stroke-opacity:1"
       transform="matrix(1.3333333,0,0,-1.3333333,103.32267,79.636)" />
    <path
       id="path8"
       d="M 2.4033203,-6.5846172 C 2.3095703,-6.8072734 2.2861328,-6.8072734 2.0517578,-6.8072734 H 0.36425781 v 0.3164062 h 0.24609375 c 0.76171874,0 0.78515624,0.1054688 0.78515624,0.46875 v 4.9804688 c 0,0.26953121 0,0.73828121 -1.03124999,0.73828121 v 0.3046875 c 0.3515625,-0.01171875 0.84374999,-0.03515625 1.17187499,-0.03515625 0.328125,0 0.8203125,0.0234375 1.1601563,0.03515625 v -0.3046875 c -1.0195313,0 -1.0195313,-0.46875 -1.0195313,-0.73828121 v -5.3671875 h 0.011719 l 2.4023437,6.18749996 c 0.046875,0.12890625 0.09375,0.22265625 0.1992188,0.22265625 0.1054687,0 0.1289062,-0.08203125 0.1757812,-0.1875 L 6.9150391,-6.4908672 h 0.011719 v 5.71875001 c 0,0.3515625 -0.023437,0.46875 -0.7851562,0.46875 H 5.8955078 v 0.3046875 c 0.375,-0.03515625 1.0429688,-0.03515625 1.4414063,-0.03515625 0.3867187,0 1.0546875,0 1.4179687,0.03515625 v -0.3046875 h -0.234375 c -0.7734375,0 -0.7851562,-0.1171875 -0.7851562,-0.46875 V -6.0221172 c 0,-0.3632812 0.011719,-0.46875 0.7851562,-0.46875 h 0.234375 V -6.8072734 H 7.0791016 c -0.2695313,0 -0.2695313,0.011719 -0.3398438,0.1992187 l -2.1796875,5.6015625 z m 11.4169927,4.453125 c 0,-1.2773437 -0.996094,-2.3320312 -2.191407,-2.3320312 -1.253906,0 -2.2148435,1.0898437 -2.2148435,2.3320312 0,1.28906251 1.0312505,2.23828126 2.2031255,2.23828126 1.207031,0 2.203125,-0.97265625 2.203125,-2.23828126 z m -2.191407,1.99218751 c -0.433593,0 -0.867187,-0.2109375 -1.136718,-0.66796875 -0.257813,-0.43359376 -0.257813,-1.04296876 -0.257813,-1.40624996 0,-0.3867188 0,-0.9257813 0.246094,-1.359375 0.269531,-0.4570313 0.738281,-0.6679688 1.136719,-0.6679688 0.433593,0 0.867187,0.2226563 1.125,0.6445313 C 13,-3.1627422 13,-2.5885234 13,-2.2135234 c 0,0.3632812 0,0.9023437 -0.222656,1.33593746 -0.222656,0.4453125 -0.65625,0.73828125 -1.148438,0.73828125 z m 6.547852,-0.41015625 v 0.65625 l 1.464844,-0.10546875 v -0.3046875 c -0.703125,0 -0.773438,-0.0703125 -0.773438,-0.5625 V -6.9127422 l -1.441406,0.1054688 v 0.3164062 c 0.703125,0 0.785156,0.070312 0.785156,0.5507813 v 2.15625 c -0.292969,-0.3632813 -0.726562,-0.6210938 -1.265625,-0.6210938 -1.171875,0 -2.214844,0.984375 -2.214844,2.2617188 0,1.26562496 0.972657,2.24999996 2.109375,2.24999996 0.644532,0 1.089844,-0.33984375 1.335938,-0.65625 z m 0,-2.67187496 v 2.0507812 c 0,0.17578126 0,0.19921876 -0.105469,0.36328126 -0.304687,0.48046875 -0.75,0.703125 -1.183594,0.703125 -0.445312,0 -0.796875,-0.2578125 -1.042968,-0.64453125 -0.257813,-0.41015621 -0.292969,-0.97265621 -0.292969,-1.38281251 0,-0.3632812 0.02344,-0.9609375 0.316406,-1.4179687 0.210938,-0.3046875 0.585938,-0.6328125 1.125,-0.6328125 0.351563,0 0.761719,0.1523437 1.078125,0.5976562 0.105469,0.1640625 0.105469,0.1875 0.105469,0.3632813 z m 2.865234,0.7148437 c 0.05859,-1.4882812 0.902344,-1.734375 1.242188,-1.734375 1.019531,0 1.125,1.3476563 1.125,1.734375 z m -0.01172,0.2109375 h 2.789063 c 0.210937,0 0.246094,0 0.246094,-0.2109375 0,-0.984375 -0.539063,-1.9570312 -1.78125,-1.9570312 -1.160157,0 -2.074219,1.03125 -2.074219,2.2734375 0,1.33593746 1.042969,2.29687496 2.191406,2.29687496 1.21875,0 1.664063,-1.1015625 1.664063,-1.28906246 0,-0.1054688 -0.08203,-0.1171875 -0.128907,-0.1171875 -0.09375,0 -0.117187,0.058594 -0.128906,0.140625 -0.351562,1.01953121 -1.253906,1.01953121 -1.347656,1.01953121 -0.503906,0 -0.902344,-0.29296875 -1.125,-0.66796875 C 21.030273,-1.2877422 21.030273,-1.9439922 21.030273,-2.2955547 Z m 5.083008,-4.6171875 -1.429687,0.1054688 v 0.3164062 c 0.703125,0 0.773437,0.070312 0.773437,0.5507813 v 5.17968746 c 0,0.45703125 -0.105469,0.45703125 -0.773437,0.45703125 v 0.3046875 c 0.328125,-0.01171875 0.855468,-0.03515625 1.101562,-0.03515625 0.257813,0 0.738281,0.0234375 1.113281,0.03515625 v -0.3046875 c -0.667968,0 -0.785156,0 -0.785156,-0.45703125 z m 2.768555,2.5078125 -1.394531,0.1171875 v 0.3046875 c 0.65625,0 0.738281,0.058594 0.738281,0.5507813 v 2.67187496 c 0,0.45703125 -0.105469,0.45703125 -0.773438,0.45703125 v 0.3046875 c 0.316407,-0.01171875 0.855469,-0.03515625 1.101563,-0.03515625 0.339844,0 0.691406,0.0234375 1.03125,0.03515625 v -0.3046875 c -0.65625,0 -0.703125,-0.0585938 -0.703125,-0.4453125 z m 0.04687,-1.734375 c 0,-0.3164062 -0.246094,-0.5273437 -0.527344,-0.5273437 -0.316406,0 -0.527344,0.2695312 -0.527344,0.5273437 0,0.2695313 0.210938,0.5273438 0.527344,0.5273438 0.28125,0 0.527344,-0.1992188 0.527344,-0.5273438 z m 2.0625,2.71875 v 2.66015626 c 0,0.45703125 -0.117188,0.45703125 -0.785156,0.45703125 v 0.3046875 c 0.351562,-0.01171875 0.855468,-0.03515625 1.125,-0.03515625 0.257812,0 0.785156,0.0234375 1.113281,0.03515625 v -0.3046875 c -0.65625,0 -0.773438,0 -0.773438,-0.45703125 V -2.5885234 c 0,-1.03125 0.714844,-1.59375 1.347657,-1.59375 0.621093,0 0.738281,0.5390625 0.738281,1.1015625 v 2.32031246 c 0,0.45703125 -0.117188,0.45703125 -0.773438,0.45703125 v 0.3046875 c 0.339844,-0.01171875 0.855469,-0.03515625 1.125,-0.03515625 0.257813,0 0.773438,0.0234375 1.113282,0.03515625 v -0.3046875 c -0.515625,0 -0.773438,0 -0.785157,-0.3046875 V -2.5064922 c 0,-0.8554687 0,-1.171875 -0.304687,-1.5234375 -0.140625,-0.1757812 -0.46875,-0.375 -1.042969,-0.375 -0.726562,0 -1.195312,0.4335938 -1.476562,1.0546875 v -1.0546875 l -1.40625,0.1171875 v 0.3046875 c 0.703125,0 0.785156,0.070312 0.785156,0.5625 z m 6.650391,1.7109375 c -0.867188,0 -0.867188,-0.9960937 -0.867188,-1.2304687 0,-0.2695313 0.01172,-0.5859375 0.152344,-0.8320313 0.08203,-0.1171875 0.316406,-0.3984375 0.714844,-0.3984375 0.867187,0 0.867187,0.9960938 0.867187,1.21875 0,0.2695313 -0.01172,0.5976563 -0.164062,0.84375 -0.08203,0.1171875 -0.304688,0.3984375 -0.703125,0.3984375 z m -1.160157,0.3867188 c 0,-0.035156 0,-0.2695313 0.175782,-0.46875 0.386718,0.28125 0.796875,0.3046875 0.984375,0.3046875 0.925781,0 1.605468,-0.6796875 1.605468,-1.453125 0,-0.3632813 -0.152343,-0.7382813 -0.398437,-0.9609375 0.351562,-0.3398438 0.714844,-0.3867188 0.890625,-0.3867188 0.02344,0 0.07031,0 0.105469,0 -0.117188,0.046875 -0.164063,0.1523438 -0.164063,0.2695313 0,0.1757812 0.128906,0.2929687 0.292969,0.2929687 0.09375,0 0.28125,-0.070312 0.28125,-0.2929687 0,-0.1757813 -0.117188,-0.4921875 -0.503906,-0.4921875 -0.199219,0 -0.632813,0.058594 -1.054688,0.46875 -0.421875,-0.328125 -0.84375,-0.3632813 -1.054687,-0.3632813 -0.925782,0 -1.617188,0.6914063 -1.617188,1.453125 0,0.4453125 0.222656,0.8203125 0.46875,1.03125 -0.128906,0.1523438 -0.304687,0.4804688 -0.304687,0.8203125 0,0.31640626 0.128906,0.69140626 0.433593,0.89062501 -0.597656,0.17578125 -0.914062,0.59765625 -0.914062,0.99609375 0,0.71484374 0.984375,1.26562504 2.203125,1.26562504 1.171875,0 2.203125,-0.5039063 2.203125,-1.28906254 0,-0.33984375 -0.140625,-0.85546875 -0.644531,-1.125 -0.527344,-0.28125 -1.101563,-0.28125 -1.710938,-0.28125 -0.246094,0 -0.679687,0 -0.75,-0.0117188 -0.316406,-0.046875 -0.527344,-0.35156256 -0.527344,-0.66796866 z m 1.441407,3.1523437 c -1.007813,0 -1.699219,-0.515625 -1.699219,-1.04296874 0,-0.45703125 0.375,-0.8203125 0.820312,-0.85546875 h 0.585938 c 0.855469,0 1.96875,0 1.96875,0.85546875 0,0.53906254 -0.703125,1.04296874 -1.675781,1.04296874 z m 4.699218,-5.4726562 v -2.4492188 c 0,-0.328125 0.01172,-0.3984375 0.480469,-0.3984375 h 1.242188 c 0.960937,0 1.3125,0.84375 1.3125,1.3710938 0,0.6328125 -0.492188,1.4765625 -1.59375,1.4765625 z m 2.34375,0.09375 c 0.972657,-0.1992188 1.652344,-0.8320313 1.652344,-1.5703125 0,-0.8671875 -0.914062,-1.6875 -2.203125,-1.6875 h -3.644531 v 0.3164062 h 0.234375 c 0.761719,0 0.785156,0.1054688 0.785156,0.46875 v 5.25000001 c 0,0.3515625 -0.02344,0.46875 -0.785156,0.46875 h -0.234375 v 0.3046875 h 3.902344 c 1.324218,0 2.214843,-0.890625 2.214843,-1.82812501 0,-0.8671875 -0.808593,-1.6054687 -1.921875,-1.7226562 z m -0.609375,3.24609371 h -1.253906 c -0.46875,0 -0.480469,-0.0703125 -0.480469,-0.3984375 V -3.4205547 h 1.875 c 0.984375,0 1.394532,0.9257813 1.394532,1.59375 0,0.703125 -0.515625,1.52343751 -1.535157,1.52343751 z m 0,0"
       style="fill:#000000;fill-opacity:1;fill-rule:nonzero;stroke:none"
       aria-label="ModelingB"
       transform="matrix(1.3333333,0,0,1.3333333,238.66667,135.86933)" />
    <path
       id="path9"
       d="m 256.03311,39.68579 c 0,10.95895 -8.88373,19.84268 -19.84268,19.84268 -10.95895,0 -19.8427,-8.88373 -19.8427,-19.84268 0,-10.95895 8.88375,-19.84268 19.8427,-19.84268 10.95895,0 19.84268,8.88373 19.84268,19.84268 z"
       style="fill:#40adf9;fill-opacity:1;fill-rule:nonzero;stroke:#000000;stroke-width:0.3985;stroke-linecap:butt;stroke-linejoin:miter;stroke-miterlimit:10;stroke-dasharray:none;stroke-opacity:1"
       transform="matrix(1.3333333,0,0,-1.3333333,103.32267,79.636)" />
    <path
       id="path10"
       d="m 3.9602969,-6.9362109 c -0.046875,-0.1289063 -0.070312,-0.1992188 -0.2226563,-0.1992188 -0.1640625,0 -0.1875,0.058594 -0.2460937,0.1992188 l -2.0625,5.96484371 c -0.1757813,0.50390625 -0.57421878,0.65625 -1.11328128,0.66796875 v 0.3046875 c 0.234375,-0.01171875 0.65625,-0.03515625 1.01953128,-0.03515625 0.3046875,0 0.8203125,0.0234375 1.1484375,0.03515625 v -0.3046875 c -0.5039063,0 -0.75,-0.2578125 -0.75,-0.515625 0,-0.0234375 0.011719,-0.12890625 0.023437,-0.140625 L 2.2142031,-2.2721484 h 2.4609375 l 0.5273438,1.52343746 c 0.011719,0.046875 0.023437,0.10546875 0.023437,0.140625 0,0.3046875 -0.5507813,0.3046875 -0.8203125,0.3046875 v 0.3046875 c 0.3515625,-0.03515625 1.0546875,-0.03515625 1.4296875,-0.03515625 0.4335937,0 0.890625,0.01171875 1.3007812,0.03515625 v -0.3046875 H 6.9602969 c -0.5976563,0 -0.7382813,-0.0703125 -0.84375,-0.3984375 z m -0.5273438,1.125 1.125,3.234375 H 2.3196719 Z m 0,0"
       style="fill:#000000;fill-opacity:1;fill-rule:nonzero;stroke:none"
       aria-label="A"
       transform="matrix(1.3333333,0,0,1.3333333,413.25867,31.26)" />
    <path
       id="path11"
       d="m 256.03311,-39.68494 c 0,10.95896 -8.88373,19.84269 -19.84268,19.84269 -10.95895,0 -19.8427,-8.88373 -19.8427,-19.84269 0,-10.95895 8.88375,-19.84268 19.8427,-19.84268 10.95895,0 19.84268,8.88373 19.84268,19.84268 z"
       style="fill:#40adf9;fill-opacity:1;fill-rule:nonzero;stroke:#000000;stroke-width:0.3985;stroke-linecap:butt;stroke-linejoin:miter;stroke-miterlimit:10;stroke-dasharray:none;stroke-opacity:1"
       transform="matrix(1.3333333,0,0,-1.3333333,103.32267,79.636)" />
    <path
       id="path12"
       d="m 2.2152109,-3.6450781 v -2.4492188 c 0,-0.328125 0.011719,-0.3984375 0.4804688,-0.3984375 h 1.2421875 c 0.9609375,0 1.3125,0.84375 1.3125,1.3710938 0,0.6328125 -0.4921875,1.4765625 -1.59375,1.4765625 z m 2.34375,0.09375 c 0.9726563,-0.1992188 1.6523438,-0.8320313 1.6523438,-1.5703125 0,-0.8671875 -0.9140625,-1.6875 -2.203125,-1.6875 H 0.36364844 v 0.3164062 h 0.234375 c 0.76171876,0 0.78515626,0.1054688 0.78515626,0.46875 v 5.25000003 c 0,0.3515625 -0.023437,0.46875 -0.78515626,0.46875 h -0.234375 V -5.46875e-4 H 4.2659922 c 1.3242187,0 2.2148437,-0.890624995 2.2148437,-1.828125025 0,-0.8671875 -0.8085937,-1.6054687 -1.921875,-1.7226562 z m -0.609375,3.24609373 H 2.6956797 c -0.46875,0 -0.4804688,-0.0703125 -0.4804688,-0.3984375 V -3.4224219 h 1.875 c 0.984375,0 1.3945313,0.9257813 1.3945313,1.59375 0,0.703125 -0.515625,1.52343753 -1.5351563,1.52343753 z m 0,0"
       style="fill:#000000;fill-opacity:1;fill-rule:nonzero;stroke:none"
       aria-label="B"
       transform="matrix(1.3333333,0,0,1.3333333,413.53467,137.08667)" />
    <path
       id="path13"
       d="M 321.43013,-14.17296 H 439.54378 V 14.17383 H 321.43013 Z"
       style="fill:#70c1fa;fill-opacity:1;fill-rule:nonzero;stroke:#000000;stroke-width:0.3985;stroke-linecap:butt;stroke-linejoin:miter;stroke-miterlimit:10;stroke-dasharray:none;stroke-opacity:1"
       transform="matrix(1.3333333,0,0,-1.3333333,103.32267,79.636)" />
    <path
       id="path14"
       d="m 1.3606094,-0.77266406 c 0,0.3515625 -0.023437,0.46875 -0.79687503,0.46875 h -0.234375 V 7.734375e-4 H 6.0832656 L 6.4934219,-2.5656328 H 6.2473281 C 6.0012344,-1.0304766 5.7668594,-0.30391406 4.0559219,-0.30391406 H 2.7317031 c -0.46875,0 -0.4921875,-0.0703125 -0.4921875,-0.3984375 V -3.3625078 h 0.9023438 c 0.9609375,0 1.078125,0.3164062 1.078125,1.1601562 H 4.4660781 V -4.8390703 H 4.2199844 c 0,0.8554687 -0.1171875,1.1601562 -1.078125,1.1601562 H 2.2395156 v -2.390625 c 0,-0.328125 0.023437,-0.3984375 0.4921875,-0.3984375 h 1.2890625 c 1.5234375,0 1.7929688,0.5507813 1.9453125,1.9335938 H 6.2121719 L 5.9426406,-6.7726641 H 0.32935937 v 0.3046875 h 0.234375 c 0.77343753,0 0.79687503,0.1171875 0.79687503,0.46875 z M 7.8820937,-3.4211016 v 2.66015629 c 0,0.45703125 -0.1171875,0.45703125 -0.7851562,0.45703125 V 7.734375e-4 C 7.4485,-0.01094531 7.9524062,-0.03438281 8.2219375,-0.03438281 c 0.2578125,0 0.7851562,0.0234375 1.1132812,0.0351562475 V -0.30391406 c -0.65625,0 -0.7734375,0 -0.7734375,-0.45703125 V -2.5890703 c 0,-1.03125 0.7148438,-1.59375 1.3476563,-1.59375 0.6210935,0 0.7382815,0.5390625 0.7382815,1.1015625 v 2.32031249 c 0,0.45703125 -0.117188,0.45703125 -0.7734378,0.45703125 V 7.734375e-4 C 10.214125,-0.01094531 10.72975,-0.03438281 10.999281,-0.03438281 c 0.257813,0 0.773438,0.0234375 1.113281,0.0351562475 V -0.30391406 c -0.515625,0 -0.773437,0 -0.785156,-0.3046875 V -2.5070391 c 0,-0.8554687 0,-1.171875 -0.304687,-1.5234375 -0.140625,-0.1757812 -0.46875,-0.375 -1.042969,-0.375 -0.7265625,0 -1.1953125,0.4335938 -1.4765625,1.0546875 v -1.0546875 l -1.40625,0.1171875 v 0.3046875 c 0.703125,0 0.7851562,0.070312 0.7851562,0.5625 z m 6.5068363,1.4882813 c 0.222656,0.035156 1.03125,0.1992187 1.03125,0.9140625 0,0.51562499 -0.351563,0.91406249 -1.125,0.91406249 -0.832032,0 -1.195313,-0.57421875 -1.382813,-1.41796879 -0.03516,-0.1289062 -0.03516,-0.1757812 -0.140625,-0.1757812 -0.128906,0 -0.128906,0.070312 -0.128906,0.2578125 v 1.31249999 c 0,0.1640625 0,0.234375 0.105469,0.234375 0.05859,0 0.07031,0 0.257812,-0.19921875 0.01172,-0.01171875 0.01172,-0.03515625 0.199219,-0.22265625 0.433594,0.421875 0.878906,0.421875 1.089844,0.421875 1.148437,0 1.605468,-0.66796875 1.605468,-1.38281249 0,-0.5273438 -0.292968,-0.8203125 -0.421875,-0.9492188 -0.328125,-0.3164062 -0.714843,-0.3984375 -1.136718,-0.46875 -0.550782,-0.1171875 -1.21875,-0.2460937 -1.21875,-0.8203125 0,-0.3515625 0.257812,-0.7617187 1.113281,-0.7617187 1.101562,0 1.148437,0.9023437 1.171875,1.2070312 0,0.09375 0.09375,0.09375 0.117187,0.09375 0.128907,0 0.128907,-0.046875 0.128907,-0.2460937 v -0.9960938 c 0,-0.1757812 0,-0.2460937 -0.117188,-0.2460937 -0.04687,0 -0.07031,0 -0.199219,0.1171875 -0.02344,0.046875 -0.128906,0.1289062 -0.164062,0.1640625 -0.375,-0.28125 -0.785156,-0.28125 -0.9375,-0.28125 -1.21875,0 -1.59375,0.6679687 -1.59375,1.2304687 0,0.3398438 0.164062,0.6210938 0.433594,0.84375 0.316406,0.2578125 0.597656,0.3164063 1.3125,0.4570313 z m 2.970703,-0.5742188 c 0.05859,-1.4882812 0.902344,-1.734375 1.242187,-1.734375 1.019532,0 1.125,1.3476563 1.125,1.734375 z m -0.01172,0.2109375 h 2.789063 c 0.210937,0 0.246093,0 0.246093,-0.2109375 0,-0.984375 -0.539062,-1.9570312 -1.78125,-1.9570312 -1.160156,0 -2.074218,1.03125 -2.074218,2.2734375 0,1.33593749 1.042968,2.29687499 2.191406,2.29687499 1.21875,0 1.664062,-1.1015625 1.664062,-1.28906249 0,-0.1054688 -0.08203,-0.1171875 -0.128906,-0.1171875 -0.09375,0 -0.117187,0.058594 -0.128906,0.140625 -0.351563,1.01953124 -1.253906,1.01953124 -1.347656,1.01953124 -0.503907,0 -0.902344,-0.29296875 -1.125,-0.66796875 C 17.347914,-1.2882891 17.347914,-1.9445391 17.347914,-2.2961016 Z m 4.426758,-1.125 v 2.66015629 c 0,0.45703125 -0.117188,0.45703125 -0.785156,0.45703125 V 7.734375e-4 c 0.351562,-0.0117187475 0.855468,-0.0351562475 1.125,-0.0351562475 0.257812,0 0.785156,0.0234375 1.113281,0.0351562475 V -0.30391406 c -0.65625,0 -0.773438,0 -0.773438,-0.45703125 V -2.5890703 c 0,-1.03125 0.714844,-1.59375 1.347657,-1.59375 0.621093,0 0.738281,0.5390625 0.738281,1.1015625 v 2.32031249 c 0,0.45703125 -0.117188,0.45703125 -0.773438,0.45703125 V 7.734375e-4 c 0.339844,-0.0117187475 0.855469,-0.0351562475 1.125,-0.0351562475 0.257813,0 0.773438,0.0234375 1.113282,0.0351562475 V -0.30391406 c -0.667969,0 -0.785157,0 -0.785157,-0.45703125 V -2.5890703 c 0,-1.03125 0.714844,-1.59375 1.347657,-1.59375 0.632812,0 0.738281,0.5390625 0.738281,1.1015625 v 2.32031249 c 0,0.45703125 -0.105469,0.45703125 -0.773438,0.45703125 V 7.734375e-4 c 0.351563,-0.0117187475 0.855469,-0.0351562475 1.125,-0.0351562475 0.257813,0 0.773438,0.0234375 1.113282,0.0351562475 V -0.30391406 c -0.515625,0 -0.761719,0 -0.773438,-0.3046875 V -2.5070391 c 0,-0.8554687 0,-1.171875 -0.316406,-1.5234375 -0.128906,-0.1757812 -0.46875,-0.375 -1.042969,-0.375 -0.832031,0 -1.277344,0.5976563 -1.441406,0.984375 -0.140625,-0.8671875 -0.878906,-0.984375 -1.324219,-0.984375 -0.726562,0 -1.195312,0.4335938 -1.476562,1.0546875 v -1.0546875 l -1.40625,0.1171875 v 0.3046875 c 0.703125,0 0.785156,0.070312 0.785156,0.5625 z m 8.630859,-0.328125 v -3.1640625 l -1.429687,0.1054688 v 0.3164062 c 0.691406,0 0.773437,0.070312 0.773437,0.5507813 V 7.734375e-4 h 0.246094 c 0.01172,-0.0117187475 0.09375,-0.1523437475 0.363281,-0.6210937475 0.152344,0.234375 0.5625,0.7265625 1.300781,0.7265625 1.183594,0 2.226563,-0.97265625 2.226563,-2.26171879 0,-1.265625 -0.972656,-2.25 -2.109375,-2.25 -0.785156,0 -1.207031,0.46875 -1.371094,0.65625 z m 0.03516,2.6132813 v -2.0507813 c 0,-0.1875 0,-0.1992187 0.105469,-0.3632812 0.386719,-0.5507813 0.9375,-0.6328125 1.171875,-0.6328125 0.457031,0 0.808594,0.2578125 1.054688,0.6328125 0.257812,0.4101562 0.28125,0.984375 0.28125,1.3945312 0,0.3632813 -0.01172,0.9609375 -0.304688,1.40625004 -0.210937,0.31640625 -0.585937,0.64453125 -1.125,0.64453125 -0.445312,0 -0.808594,-0.24609375 -1.042969,-0.609375 C 30.44069,-0.92500781 30.44069,-0.96016406 30.44069,-1.1359453 Z m 5.548829,-5.7773438 -1.429688,0.1054688 v 0.3164062 c 0.703125,0 0.773438,0.070312 0.773438,0.5507813 v 5.17968749 c 0,0.45703125 -0.105469,0.45703125 -0.773438,0.45703125 V 7.734375e-4 c 0.328122,-0.0117187475 0.855466,-0.0351562475 1.10156,-0.0351562475 0.257812,0 0.738281,0.0234375 1.113281,0.0351562475 V -0.30391406 c -0.667969,0 -0.785156,0 -0.785156,-0.45703125 z m 2.121093,4.40625 c 0.05859,-1.4882812 0.902344,-1.734375 1.242188,-1.734375 1.019531,0 1.125,1.3476563 1.125,1.734375 z m -0.01172,0.2109375 h 2.789062 c 0.210938,0 0.246094,0 0.246094,-0.2109375 0,-0.984375 -0.539063,-1.9570312 -1.78125,-1.9570312 -1.160156,0 -2.074219,1.03125 -2.074219,2.2734375 0,1.33593749 1.042969,2.29687499 2.191406,2.29687499 1.21875,0 1.664063,-1.1015625 1.664063,-1.28906249 0,-0.1054688 -0.08203,-0.1171875 -0.128906,-0.1171875 -0.09375,0 -0.117188,0.058594 -0.128907,0.140625 -0.351562,1.01953124 -1.253906,1.01953124 -1.347656,1.01953124 -0.503906,0 -0.902344,-0.29296875 -1.125,-0.66796875 C 38.098891,-1.2882891 38.098891,-1.9445391 38.098891,-2.2961016 Z m 5.727539,-4.2890625 c -0.09375,-0.2226562 -0.117188,-0.2226562 -0.351563,-0.2226562 h -1.6875 v 0.3164062 h 0.246094 c 0.761719,0 0.785156,0.1054688 0.785156,0.46875 v 4.9804688 c 0,0.26953124 0,0.73828124 -1.03125,0.73828124 V 7.734375e-4 C 42.13893,-0.01094531 42.631117,-0.03438281 42.959242,-0.03438281 c 0.328125,0 0.820313,0.0234375 1.160156,0.0351562475 V -0.30391406 c -1.019531,0 -1.019531,-0.46875 -1.019531,-0.73828124 v -5.3671875 h 0.01172 l 2.402344,6.18749999 c 0.04687,0.12890625 0.09375,0.2226562475 0.199218,0.2226562475 0.105469,0 0.128907,-0.0820312475 0.175782,-0.1874999975 l 2.449218,-6.30468754 h 0.01172 v 5.71875004 c 0,0.3515625 -0.02344,0.46875 -0.785156,0.46875 H 47.318617 V 7.734375e-4 c 0.375,-0.0351562475 1.042969,-0.0351562475 1.441406,-0.0351562475 0.386719,0 1.054688,0 1.417969,0.0351562475 V -0.30391406 h -0.234375 c -0.773437,0 -0.785156,-0.1171875 -0.785156,-0.46875 V -6.0226641 c 0,-0.3632812 0.01172,-0.46875 0.785156,-0.46875 h 0.234375 v -0.3164062 h -1.675781 c -0.269531,0 -0.269531,0.011719 -0.339844,0.1992187 l -2.179687,5.6015625 z m 11.419922,4.453125 c 0,-1.2773437 -0.996094,-2.3320312 -2.191407,-2.3320312 -1.253906,0 -2.214843,1.0898437 -2.214843,2.3320312 0,1.28906254 1.03125,2.23828129 2.203125,2.23828129 1.207031,0 2.203125,-0.97265625 2.203125,-2.23828129 z m -2.191407,1.99218754 c -0.433593,0 -0.867187,-0.2109375 -1.136718,-0.66796875 -0.257813,-0.43359379 -0.257813,-1.04296879 -0.257813,-1.40624999 0,-0.3867188 0,-0.9257813 0.246094,-1.359375 0.269531,-0.4570313 0.738281,-0.6679688 1.136719,-0.6679688 0.433593,0 0.867187,0.2226563 1.125,0.6445313 0.257812,0.4335937 0.257812,1.0078125 0.257812,1.3828125 0,0.3632812 0,0.9023437 -0.222656,1.33593749 -0.222656,0.4453125 -0.65625,0.73828125 -1.148438,0.73828125 z m 6.547852,-0.41015625 v 0.65625 L 61.067641,7.734375e-4 V -0.30391406 c -0.703125,0 -0.773438,-0.0703125 -0.773438,-0.5625 V -6.9132891 l -1.441406,0.1054688 v 0.3164062 c 0.703125,0 0.785156,0.070312 0.785156,0.5507813 v 2.15625 c -0.292969,-0.3632813 -0.726562,-0.6210938 -1.265625,-0.6210938 -1.171875,0 -2.214844,0.984375 -2.214844,2.2617188 0,1.26562499 0.972657,2.24999999 2.109375,2.24999999 0.644532,0 1.089844,-0.33984375 1.335938,-0.65625 z m 0,-2.67187499 v 2.0507812 c 0,0.17578129 0,0.19921879 -0.105469,0.36328129 -0.304687,0.48046875 -0.75,0.703125 -1.183594,0.703125 -0.445312,0 -0.796875,-0.2578125 -1.042968,-0.64453125 -0.257813,-0.41015624 -0.292969,-0.97265624 -0.292969,-1.38281254 0,-0.3632812 0.02344,-0.9609375 0.316406,-1.4179687 0.210938,-0.3046875 0.585938,-0.6328125 1.125,-0.6328125 0.351563,0 0.761719,0.1523437 1.078125,0.5976562 0.105469,0.1640625 0.105469,0.1875 0.105469,0.3632813 z m 2.865234,0.7148437 c 0.05859,-1.4882812 0.902344,-1.734375 1.242188,-1.734375 1.019531,0 1.125,1.3476563 1.125,1.734375 z m -0.01172,0.2109375 h 2.789063 c 0.210937,0 0.246094,0 0.246094,-0.2109375 0,-0.984375 -0.539063,-1.9570312 -1.78125,-1.9570312 -1.160157,0 -2.074219,1.03125 -2.074219,2.2734375 0,1.33593749 1.042969,2.29687499 2.191406,2.29687499 1.21875,0 1.664063,-1.1015625 1.664063,-1.28906249 0,-0.1054688 -0.08203,-0.1171875 -0.128907,-0.1171875 -0.09375,0 -0.117187,0.058594 -0.128906,0.140625 -0.351562,1.01953124 -1.253906,1.01953124 -1.347656,1.01953124 -0.503906,0 -0.902344,-0.29296875 -1.125,-0.66796875 C 62.456312,-1.2882891 62.456312,-1.9445391 62.456312,-2.2961016 Z m 5.083008,-4.6171875 -1.429687,0.1054688 v 0.3164062 c 0.703125,0 0.773437,0.070312 0.773437,0.5507813 v 5.17968749 c 0,0.45703125 -0.105468,0.45703125 -0.773437,0.45703125 V 7.734375e-4 C 66.437758,-0.01094531 66.965102,-0.03438281 67.211195,-0.03438281 c 0.257813,0 0.738282,0.0234375 1.113282,0.0351562475 V -0.30391406 c -0.667969,0 -0.785157,0 -0.785157,-0.45703125 z m 4.303711,9.3046875 c 0,-0.035156 0,-0.046875 -0.164062,-0.2226562 -1.242188,-1.25390626 -1.570313,-3.12890626 -1.570313,-4.6640625 0,-1.7226563 0.386719,-3.4570313 1.605469,-4.7109375 0.128906,-0.1171875 0.128906,-0.1289063 0.128906,-0.1640625 0,-0.070312 -0.03516,-0.1054688 -0.09375,-0.1054688 -0.105469,0 -0.996094,0.6796875 -1.582031,1.9453125 -0.515625,1.1015625 -0.632813,2.203125 -0.632813,3.0351563 0,0.7851562 0.117188,1.99218749 0.65625,3.11718749 0.597657,1.21875001 1.453125,1.87500001 1.558594,1.87500001 0.05859,0 0.09375,-0.035156 0.09375,-0.1054688 z m 4.541016,-9.328125 c -0.04687,-0.1289062 -0.07031,-0.1992187 -0.222656,-0.1992187 -0.164063,0 -0.1875,0.058594 -0.246094,0.1992187 l -2.0625,5.96484379 c -0.175781,0.50390625 -0.574219,0.65625 -1.113281,0.66796875 V 7.734375e-4 c 0.234375,-0.0117187475 0.65625,-0.0351562475 1.019531,-0.0351562475 0.304687,0 0.820312,0.0234375 1.148437,0.0351562475 V -0.30391406 c -0.503906,0 -0.75,-0.2578125 -0.75,-0.515625 0,-0.0234375 0.01172,-0.12890625 0.02344,-0.140625 l 0.457031,-1.31250004 h 2.460938 l 0.527343,1.52343754 c 0.01172,0.046875 0.02344,0.10546875 0.02344,0.140625 0,0.3046875 -0.550781,0.3046875 -0.820313,0.3046875 V 7.734375e-4 C 77.180922,-0.03438281 77.884047,-0.03438281 78.259047,-0.03438281 c 0.433594,0 0.890625,0.01171875 1.300781,0.0351562475 V -0.30391406 h -0.175781 c -0.597656,0 -0.738281,-0.0703125 -0.84375,-0.3984375 z m -0.527344,1.125 1.125,3.234375 h -2.238281 z m 8.185547,2.4960938 c 0.08203,-0.234375 0.257812,-0.65625 0.914062,-0.6679688 v -0.3046875 c -0.234375,0.011719 -0.515625,0.023437 -0.75,0.023437 -0.234375,0 -0.691406,-0.023437 -0.867187,-0.023437 v 0.3046875 c 0.375,0.011719 0.480469,0.234375 0.480469,0.4335938 0,0.082031 -0.02344,0.1289062 -0.05859,0.234375 l -1.019531,2.54296874 -1.113282,-2.77734374 c -0.05859,-0.140625 -0.05859,-0.1523438 -0.05859,-0.1757813 0,-0.2578125 0.386718,-0.2578125 0.5625,-0.2578125 v -0.3046875 c -0.292969,0 -0.855469,0.023437 -1.078125,0.023437 -0.269532,0 -0.667969,-0.011719 -0.972657,-0.023437 v 0.3046875 c 0.632813,0 0.667969,0.058594 0.796875,0.3632813 l 1.441407,3.53906249 c 0.05859,0.140625 0.07031,0.1875 0.199218,0.1875 0.128907,0 0.175782,-0.08203125 0.210938,-0.1875 z m 1.945312,0.8085937 c 0.05859,-1.4882812 0.902344,-1.734375 1.242188,-1.734375 1.019531,0 1.125,1.3476563 1.125,1.734375 z m -0.01172,0.2109375 h 2.789062 c 0.210938,0 0.246094,0 0.246094,-0.2109375 0,-0.984375 -0.539063,-1.9570312 -1.78125,-1.9570312 -1.160156,0 -2.074219,1.03125 -2.074219,2.2734375 0,1.33593749 1.042969,2.29687499 2.191406,2.29687499 1.21875,0 1.664063,-1.1015625 1.664063,-1.28906249 0,-0.1054688 -0.08203,-0.1171875 -0.128906,-0.1171875 -0.09375,0 -0.117188,0.058594 -0.128907,0.140625 -0.351562,1.01953124 -1.253906,1.01953124 -1.347656,1.01953124 -0.503906,0 -0.902344,-0.29296875 -1.125,-0.66796875 C 85.975844,-1.2882891 85.975844,-1.9445391 85.975844,-2.2961016 Z M 90.9651,-3.3039141 v -1.1015625 l -1.382813,0.1171875 v 0.3046875 c 0.691406,0 0.773438,0.070312 0.773438,0.5625 v 2.66015629 c 0,0.45703125 -0.105469,0.45703125 -0.773438,0.45703125 V 7.734375e-4 C 89.969008,-0.01094531 90.437758,-0.03438281 90.719008,-0.03438281 c 0.398437,0 0.867187,0 1.265625,0.0351562475 V -0.30391406 h -0.210938 c -0.738281,0 -0.761718,-0.1171875 -0.761718,-0.46875 V -2.3078203 c 0,-0.984375 0.421875,-1.875 1.183593,-1.875 0.05859,0 0.08203,0 0.105469,0.011719 -0.03516,0.011719 -0.234375,0.1289063 -0.234375,0.3867188 0,0.28125 0.210938,0.4335937 0.433594,0.4335937 0.175781,0 0.421875,-0.1289062 0.421875,-0.4453125 0,-0.3164062 -0.304688,-0.609375 -0.726563,-0.609375 -0.738281,0 -1.089843,0.6679688 -1.230468,1.1015625 z m 5.554687,2.54296879 c 0.03516,0.3984375 0.304688,0.8203125 0.773438,0.8203125 0.210937,0 0.820312,-0.140625 0.820312,-0.94921875 V -1.4406328 h -0.246094 v 0.55078124 c 0,0.5859375 -0.246093,0.64453125 -0.363281,0.64453125 -0.328125,0 -0.363281,-0.45703125 -0.363281,-0.50390625 V -2.7414141 c 0,-0.4101562 0,-0.8085937 -0.363281,-1.171875 -0.386719,-0.3867187 -0.878907,-0.5507812 -1.359375,-0.5507812 -0.820313,0 -1.511719,0.46875 -1.511719,1.125 0,0.3046875 0.199219,0.46875 0.457031,0.46875 0.28125,0 0.46875,-0.1992188 0.46875,-0.4570313 0,-0.1171875 -0.05859,-0.4453125 -0.515625,-0.4570312 0.269531,-0.3515625 0.761719,-0.4570313 1.078125,-0.4570313 0.492188,0 1.054688,0.3867188 1.054688,1.2773438 v 0.3632812 c -0.503907,0.035156 -1.207032,0.058594 -1.828125,0.3632813 -0.75,0.3398437 -0.996094,0.8554687 -0.996094,1.28906249 0,0.80859375 0.960937,1.0546875 1.59375,1.0546875 0.65625,0 1.113281,-0.3984375 1.300781,-0.8671875 z m -0.07031,-1.62890629 v 0.9960938 c 0,0.94921874 -0.714844,1.28906249 -1.160157,1.28906249 -0.492187,0 -0.902343,-0.3515625 -0.902343,-0.85546875 0,-0.53906254 0.421875,-1.37109374 2.0625,-1.42968754 z m 3.952143,0.6796875 c -0.867183,0 -0.867183,-0.9960937 -0.867183,-1.2304687 0,-0.2695313 0.01172,-0.5859375 0.152344,-0.8320313 0.08203,-0.1171875 0.316409,-0.3984375 0.714839,-0.3984375 0.86719,0 0.86719,0.9960938 0.86719,1.21875 0,0.2695313 -0.0117,0.5976563 -0.16406,0.84375 -0.082,0.1171875 -0.30469,0.3984375 -0.70313,0.3984375 z m -1.160151,0.3867188 c 0,-0.035156 0,-0.2695313 0.175781,-0.46875 0.386719,0.28125 0.79687,0.3046875 0.98437,0.3046875 0.92579,0 1.60547,-0.6796875 1.60547,-1.453125 0,-0.3632813 -0.15234,-0.7382813 -0.39843,-0.9609375 0.35156,-0.3398438 0.71484,-0.3867188 0.89062,-0.3867188 0.0234,0 0.0703,0 0.10547,0 -0.11719,0.046875 -0.16406,0.1523438 -0.16406,0.2695313 0,0.1757812 0.1289,0.2929687 0.29297,0.2929687 0.0937,0 0.28125,-0.070312 0.28125,-0.2929687 0,-0.1757813 -0.11719,-0.4921875 -0.50391,-0.4921875 -0.19922,0 -0.63281,0.058594 -1.05469,0.46875 -0.42187,-0.328125 -0.84375,-0.3632813 -1.05469,-0.3632813 -0.925776,0 -1.617183,0.6914063 -1.617183,1.453125 0,0.4453125 0.222657,0.8203125 0.46875,1.03125 -0.128906,0.1523438 -0.304687,0.4804688 -0.304687,0.8203125 0,0.31640629 0.128906,0.69140629 0.433594,0.89062504 -0.597657,0.17578125 -0.914063,0.59765625 -0.914063,0.99609375 0,0.71484371 0.984375,1.26562501 2.203129,1.26562501 1.17187,0 2.20312,-0.5039063 2.20312,-1.28906251 0,-0.33984375 -0.14062,-0.85546875 -0.64453,-1.125 -0.52734,-0.28125 -1.10156,-0.28125 -1.71094,-0.28125 -0.24609,0 -0.679685,0 -0.749998,-0.0117188 -0.316406,-0.046875 -0.527343,-0.35156259 -0.527343,-0.66796869 z m 1.441401,3.1523437 c -1.007808,0 -1.699214,-0.515625 -1.699214,-1.04296871 0,-0.45703125 0.375,-0.8203125 0.820313,-0.85546875 h 0.585941 c 0.85546,0 1.96875,0 1.96875,0.85546875 0,0.53906251 -0.70313,1.04296871 -1.67579,1.04296871 z m 3.59766,-4.3359375 c 0.0586,-1.4882812 0.90234,-1.734375 1.24219,-1.734375 1.01953,0 1.125,1.3476563 1.125,1.734375 z m -0.0117,0.2109375 h 2.78906 c 0.21094,0 0.2461,0 0.2461,-0.2109375 0,-0.984375 -0.53906,-1.9570312 -1.78125,-1.9570312 -1.16016,0 -2.07422,1.03125 -2.07422,2.2734375 0,1.33593749 1.04297,2.29687499 2.19141,2.29687499 1.21875,0 1.66406,-1.1015625 1.66406,-1.28906249 0,-0.1054688 -0.082,-0.1171875 -0.12891,-0.1171875 -0.0937,0 -0.11719,0.058594 -0.1289,0.140625 -0.35157,1.01953124 -1.25391,1.01953124 -1.34766,1.01953124 -0.50391,0 -0.90234,-0.29296875 -1.125,-0.66796875 -0.30469,-0.48046879 -0.30469,-1.13671879 -0.30469,-1.48828129 z m 6.20801,-0.1992187 c 0,-0.7734375 -0.11719,-1.9804688 -0.65625,-3.1054688 -0.59766,-1.21875 -1.46484,-1.875 -1.55859,-1.875 -0.0586,0 -0.10547,0.046875 -0.10547,0.1054688 0,0.035156 0,0.046875 0.19922,0.234375 0.97265,0.984375 1.53515,2.5664062 1.53515,4.640625 0,1.71093749 -0.36328,3.45703124 -1.59375,4.7226562 -0.14062,0.1171875 -0.14062,0.1289063 -0.14062,0.1640625 0,0.058594 0.0469,0.1054688 0.10547,0.1054688 0.0937,0 0.99609,-0.6796875 1.58203,-1.94531251 0.5039,-1.1015625 0.63281,-2.20312499 0.63281,-3.04687499 z m 0,0"
       style="fill:#000000;fill-opacity:1;fill-rule:nonzero;stroke:none"
       aria-label="EnsembleModel(Average)"
       transform="matrix(1.3333333,0,0,1.3333333,536.31867,82.956)" />
    <path
       id="path15"
       d="m 496.63663,-14.94429 c 0,-3.77518 12.24121,-6.83548 27.34195,-6.83548 15.10074,0 27.34195,3.0603 27.34195,6.83548 V 25.2435 c 0,-3.77516 -12.24121,-6.83548 -27.34195,-6.83548 -15.10074,0 -27.34195,3.06032 -27.34195,6.83548 z"
       style="fill:#ffc266;fill-opacity:1;fill-rule:nonzero;stroke:none"
       transform="matrix(1.3333333,0,0,-1.3333333,103.32267,79.636)" />
    <path
       id="path16"
       d="m 496.63663,25.2435 c 0,3.77516 12.24121,6.83548 27.34195,6.83548 15.10074,0 27.34195,-3.06032 27.34195,-6.83548 0,-3.77516 -12.24121,-6.83548 -27.34195,-6.83548 -15.10074,0 -27.34195,3.06032 -27.34195,6.83548 z"
       style="fill:#ffad33;fill-opacity:1;fill-rule:nonzero;stroke:none"
       transform="matrix(1.3333333,0,0,-1.3333333,103.32267,79.636)" />
    <path
       id="path17"
       d="m 496.63663,-14.94429 c 0,-3.77518 12.24121,-6.83548 27.34195,-6.83548 15.10074,0 27.34195,3.0603 27.34195,6.83548 V 25.2435 c 0,3.77516 -12.24121,6.83548 -27.34195,6.83548 -15.10074,0 -27.34195,-3.06032 -27.34195,-6.83548 z m 0,40.18779 c 0,-3.77516 12.24121,-6.83548 27.34195,-6.83548 15.10074,0 27.34195,3.06032 27.34195,6.83548"
       style="fill:none;stroke:#000000;stroke-width:0.3985;stroke-linecap:butt;stroke-linejoin:miter;stroke-miterlimit:10;stroke-dasharray:none;stroke-opacity:1"
       transform="matrix(1.3333333,0,0,-1.3333333,103.32267,79.636)" />
    <path
       id="path18"
       d="M 3.4818047,-3.8663516 2.2044609,-4.1710391 c -0.6210937,-0.1523437 -1.0078125,-0.6914062 -1.0078125,-1.265625 0,-0.703125 0.5390625,-1.3007812 1.3125,-1.3007812 1.6640625,0 1.8867188,1.6289062 1.9453125,2.0742187 0.011719,0.058594 0.011719,0.1171875 0.1171875,0.1171875 0.1289063,0 0.1289063,-0.046875 0.1289063,-0.234375 v -2.0039062 c 0,-0.1640625 0,-0.234375 -0.1054688,-0.234375 -0.070312,0 -0.082031,0.011719 -0.1523437,0.1289062 l -0.3515625,0.5625 c -0.2929688,-0.28125 -0.703125,-0.6914062 -1.59375,-0.6914062 -1.1015625,0 -1.93359376,0.8789062 -1.93359376,1.9335937 0,0.8203125 0.52734376,1.546875 1.30078126,1.8164063 0.1054687,0.046875 0.6210937,0.1640625 1.3125,0.328125 0.2695312,0.070312 0.5742187,0.140625 0.84375,0.515625 0.2109375,0.2578125 0.3164062,0.5859375 0.3164062,0.9140625 0,0.70312499 -0.5039062,1.41796874 -1.3359375,1.41796874 -0.2929687,0 -1.0429687,-0.046875 -1.5703125,-0.5390625 C 0.84508594,-1.1593203 0.82164844,-1.8038516 0.80992969,-2.1554141 c -0.0117188,-0.1054687 -0.09375,-0.1054687 -0.1171875,-0.1054687 -0.12890625,0 -0.12890625,0.070312 -0.12890625,0.2460937 v 1.99218754 c 0,0.17578125 0,0.24609375 0.10546875,0.24609375 0.0703125,0 0.0820313,-0.0234375 0.15234375,-0.12890625 0,-0.01171875 0.0234375,-0.046875 0.35156246,-0.57421875 0.3164063,0.33984375 0.9492188,0.703125 1.8398438,0.703125 1.1601562,0 1.9570312,-0.984375 1.9570312,-2.07421879 0,-0.9960937 -0.65625,-1.8164062 -1.4882812,-2.015625 z m 3.2138672,1.6992188 c 0,-1.6289063 0.8203125,-2.0507813 1.3476562,-2.0507813 0.09375,0 0.7148438,0.011719 1.0664063,0.375 -0.4101563,0.023437 -0.46875,0.328125 -0.46875,0.4570313 0,0.2578125 0.1875,0.4570312 0.4570312,0.4570312 0.2578125,0 0.4570313,-0.1640625 0.4570313,-0.46875 0,-0.6796875 -0.75,-1.0664062 -1.5234375,-1.0664062 -1.2421875,0 -2.15625,1.078125 -2.15625,2.3085937 0,1.27734379 0.984375,2.26171879 2.1445312,2.26171879 1.3359375,0 1.6523438,-1.19531249 1.6523438,-1.28906249 0,-0.1054688 -0.1054688,-0.1054688 -0.1289063,-0.1054688 -0.09375,0 -0.1171875,0.046875 -0.1289062,0.1054688 -0.2929688,0.92578124 -0.9375,1.04296874 -1.3125,1.04296874 -0.5273438,0 -1.40625,-0.421875 -1.40625,-2.02734374 z m 7.9541011,0.035156 c 0,-1.2773437 -0.996093,-2.3320312 -2.191406,-2.3320312 -1.253906,0 -2.214844,1.0898437 -2.214844,2.3320312 0,1.28906254 1.03125,2.23828129 2.203125,2.23828129 1.207032,0 2.203125,-0.97265625 2.203125,-2.23828129 z m -2.191406,1.99218754 c -0.433594,0 -0.867187,-0.2109375 -1.136719,-0.66796875 -0.257812,-0.43359379 -0.257812,-1.04296879 -0.257812,-1.40624999 0,-0.3867188 0,-0.9257813 0.246094,-1.359375 0.269531,-0.4570313 0.738281,-0.6679688 1.136718,-0.6679688 0.433594,0 0.867188,0.2226563 1.125,0.6445313 0.257813,0.4335937 0.257813,1.0078125 0.257813,1.3828125 0,0.3632812 0,0.9023437 -0.222656,1.33593749 -0.222657,0.4453125 -0.65625,0.73828125 -1.148438,0.73828125 z m 4.148438,-3.16406254 v -1.1015625 l -1.382813,0.1171875 v 0.3046875 c 0.691406,0 0.773438,0.070312 0.773438,0.5625 v 2.66015629 c 0,0.45703125 -0.105469,0.45703125 -0.773438,0.45703125 V 8.359375e-4 C 15.610711,-0.01088281 16.079461,-0.03432031 16.360711,-0.03432031 c 0.398437,0 0.867187,0 1.265625,0.0351562475 V -0.30385156 h -0.210938 c -0.738281,0 -0.761718,-0.1171875 -0.761718,-0.46875 V -2.3077578 c 0,-0.984375 0.421875,-1.875 1.183593,-1.875 0.05859,0 0.08203,0 0.105469,0.011719 -0.03516,0.011719 -0.234375,0.1289063 -0.234375,0.3867188 0,0.28125 0.210938,0.4335937 0.433594,0.4335937 0.175781,0 0.421875,-0.1289062 0.421875,-0.4453125 0,-0.3164062 -0.304688,-0.609375 -0.726563,-0.609375 -0.738281,0 -1.089843,0.6679688 -1.230468,1.101562 z m 3.351562,0.796875 c 0.05859,-1.4882812 0.902344,-1.734375 1.242188,-1.734375 1.019531,0 1.125,1.3476563 1.125,1.734375 z m -0.01172,0.2109375 h 2.789063 c 0.210937,0 0.246094,0 0.246094,-0.2109375 0,-0.984375 -0.539063,-1.9570312 -1.78125,-1.9570312 -1.160157,0 -2.074219,1.03125 -2.074219,2.2734375 0,1.33593749 1.042969,2.29687499 2.191406,2.29687499 1.21875,0 1.664063,-1.1015625 1.664063,-1.28906249 0,-0.1054688 -0.08203,-0.1171875 -0.128907,-0.1171875 -0.09375,0 -0.117187,0.058594 -0.128906,0.140625 -0.351562,1.01953124 -1.253906,1.01953124 -1.347656,1.01953124 -0.503906,0 -0.902344,-0.29296875 -1.125,-0.66796875 C 19.946648,-1.2882266 19.946648,-1.9444766 19.946648,-2.2960391 Z m 6.996094,-4.5117187 v 0.3164062 h 0.234375 c 0.773438,0 0.785156,0.1054688 0.785156,0.46875 v 5.25000004 c 0,0.3515625 -0.01172,0.46875 -0.785156,0.46875 H 26.942742 V 8.359375e-4 h 3.644531 c 1.675782,0 3.046875,-1.4765625375 3.046875,-3.3515625375 0,-1.8867187 -1.347656,-3.4570312 -3.046875,-3.4570312 z m 2.367188,6.50390624 c -0.46875,0 -0.492188,-0.0703125 -0.492188,-0.3984375 V -6.0929141 c 0,-0.328125 0.02344,-0.3984375 0.492188,-0.3984375 h 0.996093 c 0.621094,0 1.300782,0.2109375 1.816407,0.9257813 0.421875,0.5859375 0.515625,1.4414062 0.515625,2.2148437 0,1.1132813 -0.1875,1.7109375 -0.550782,2.1914063 -0.199218,0.26953124 -0.761718,0.85546874 -1.769531,0.85546874 z m 8.208984,-0.45703125 c 0.03516,0.3984375 0.304688,0.8203125 0.773438,0.8203125 0.210937,0 0.820312,-0.140625 0.820312,-0.94921875 V -1.4405703 H 38.86657 v 0.55078124 c 0,0.5859375 -0.246093,0.64453125 -0.363281,0.64453125 -0.328125,0 -0.363281,-0.45703125 -0.363281,-0.50390625 V -2.7413516 c 0,-0.4101562 0,-0.8085937 -0.363281,-1.171875 -0.386719,-0.3867187 -0.878907,-0.5507812 -1.359375,-0.5507812 -0.820313,0 -1.511719,0.46875 -1.511719,1.125 0,0.3046875 0.199219,0.46875 0.457031,0.46875 0.28125,0 0.46875,-0.1992188 0.46875,-0.4570313 0,-0.1171875 -0.05859,-0.4453125 -0.515625,-0.4570312 0.269531,-0.3515625 0.761719,-0.4570313 1.078125,-0.4570313 0.492188,0 1.054688,0.3867188 1.054688,1.2773438 v 0.3632812 c -0.503907,0.035156 -1.207032,0.058594 -1.828125,0.3632813 -0.75,0.3398437 -0.996094,0.8554687 -0.996094,1.28906249 0,0.80859375 0.960937,1.0546875 1.59375,1.0546875 0.65625,0 1.113281,-0.3984375 1.300781,-0.8671875 z m -0.07031,-1.62890629 v 0.9960938 c 0,0.94921874 -0.714844,1.28906249 -1.160157,1.28906249 -0.492187,0 -0.902343,-0.3515625 -0.902343,-0.85546875 0,-0.53906254 0.421875,-1.37109374 2.0625,-1.42968754 z m 3.457031,-1.59375 h 1.429687 V -4.2882268 H 40.905634 V -6.1280705 H 40.65954 c -0.01172,0.8203125 -0.316406,1.8867187 -1.289062,1.921875 v 0.2226562 h 0.84375 v 2.7539063 c 0,1.21874999 0.925781,1.33593749 1.289062,1.33593749 0.703125,0 0.984375,-0.703125 0.984375,-1.33593749 V -1.8038516 H 42.24157 v 0.5507813 c 0,0.73828124 -0.304687,1.11328124 -0.667968,1.11328124 -0.667969,0 -0.667969,-0.90234374 -0.667969,-1.07812504 z m 5.466797,3.22265629 c 0.03516,0.3984375 0.304687,0.8203125 0.773437,0.8203125 0.210938,0 0.820313,-0.140625 0.820313,-0.94921875 V -1.4405703 h -0.246094 v 0.55078124 c 0,0.5859375 -0.246094,0.64453125 -0.363281,0.64453125 -0.328125,0 -0.363282,-0.45703125 -0.363282,-0.50390625 V -2.7413516 c 0,-0.4101562 0,-0.8085937 -0.363281,-1.171875 -0.386719,-0.3867187 -0.878906,-0.5507812 -1.359375,-0.5507812 -0.820312,0 -1.511719,0.46875 -1.511719,1.125 0,0.3046875 0.199219,0.46875 0.457032,0.46875 0.28125,0 0.46875,-0.1992188 0.46875,-0.4570313 0,-0.1171875 -0.05859,-0.4453125 -0.515625,-0.4570312 0.269531,-0.3515625 0.761718,-0.4570313 1.078125,-0.4570313 0.492187,0 1.054687,0.3867188 1.054687,1.2773438 v 0.3632812 c -0.503906,0.035156 -1.207031,0.058594 -1.828125,0.3632813 -0.75,0.3398437 -0.996094,0.8554687 -0.996094,1.28906249 0,0.80859375 0.960938,1.0546875 1.59375,1.0546875 0.65625,0 1.113282,-0.3984375 1.300782,-0.8671877 z m -0.07031,-1.62890629 v 0.9960938 c 0,0.94921874 -0.714844,1.28906249 -1.160156,1.28906249 -0.492188,0 -0.902344,-0.3515625 -0.902344,-0.85546875 0,-0.53906254 0.421875,-1.37109374 2.0625,-1.42968754 z m 0,0"
       style="fill:#000000;fill-opacity:1;fill-rule:nonzero;stroke:none"
       aria-label="ScoreData"
       transform="matrix(1.3333333,0,0,1.3333333,769.924,84.174667)" />
    <path
       id="path19"
       d="M 34.32031,10.87737 87.1061,27.60915"
       style="fill:none;stroke:#000000;stroke-width:0.79701;stroke-linecap:butt;stroke-linejoin:miter;stroke-miterlimit:10;stroke-dasharray:none;stroke-opacity:1"
       transform="matrix(1.3333333,0,0,-1.3333333,103.32267,79.636)" />
    <path
       id="path20"
       d="M 5.44046,0 1.28699,1.5706 2.66432,0 1.28699,-1.5706 Z"
       style="fill:#000000;fill-opacity:1;fill-rule:nonzero;stroke:#000000;stroke-width:0.79701;stroke-linecap:butt;stroke-linejoin:miter;stroke-miterlimit:10;stroke-dasharray:none;stroke-opacity:1"
       transform="matrix(1.27096,-0.40282667,-0.40282667,-1.27096,216.33113,43.816827)" />
    <path
       id="path21"
       d="M 34.32031,-10.87708 87.1061,-27.60829"
       style="fill:none;stroke:#000000;stroke-width:0.79701;stroke-linecap:butt;stroke-linejoin:miter;stroke-miterlimit:10;stroke-dasharray:none;stroke-opacity:1"
       transform="matrix(1.3333333,0,0,-1.3333333,103.32267,79.636)" />
    <path
       id="path22"
       d="M 5.44046,0 1.28699,1.5706 2.66432,0 1.28699,-1.5706 Z"
       style="fill:#000000;fill-opacity:1;fill-rule:nonzero;stroke:#000000;stroke-width:0.79701;stroke-linecap:butt;stroke-linejoin:miter;stroke-miterlimit:10;stroke-dasharray:none;stroke-opacity:1"
       transform="matrix(1.27096,0.40282667,0.40282667,-1.27096,216.33113,115.45404)" />
    <path
       id="path23"
       d="m 159.45485,39.68579 h 52.58328"
       style="fill:none;stroke:#000000;stroke-width:0.79701;stroke-linecap:butt;stroke-linejoin:miter;stroke-miterlimit:10;stroke-dasharray:none;stroke-opacity:1"
       transform="matrix(1.3333333,0,0,-1.3333333,103.32267,79.636)" />
    <path
       id="path24"
       d="M 5.44046,0 1.28699,1.5706 2.66432,0 1.28699,-1.5706 Z"
       style="fill:#000000;fill-opacity:1;fill-rule:nonzero;stroke:#000000;stroke-width:0.79701;stroke-linecap:butt;stroke-linejoin:miter;stroke-miterlimit:10;stroke-dasharray:none;stroke-opacity:1"
       transform="matrix(1.3333333,0,0,-1.3333333,382.75341,26.721613)" />
    <path
       id="path25"
       d="m 159.45485,-39.68494 h 52.58328"
       style="fill:none;stroke:#000000;stroke-width:0.79701;stroke-linecap:butt;stroke-linejoin:miter;stroke-miterlimit:10;stroke-dasharray:none;stroke-opacity:1"
       transform="matrix(1.3333333,0,0,-1.3333333,103.32267,79.636)" />
    <path
       id="path26"
       d="M 5.44046,0 1.28699,1.5706 2.66432,0 1.28699,-1.5706 Z"
       style="fill:#000000;fill-opacity:1;fill-rule:nonzero;stroke:#000000;stroke-width:0.79701;stroke-linecap:butt;stroke-linejoin:miter;stroke-miterlimit:10;stroke-dasharray:none;stroke-opacity:1"
       transform="matrix(1.3333333,0,0,-1.3333333,382.75341,132.54925)" />
    <path
       id="path27"
       d="M 255.51399,34.37193 324.27264,15.46286"
       style="fill:none;stroke:#000000;stroke-width:0.79701;stroke-linecap:butt;stroke-linejoin:miter;stroke-miterlimit:10;stroke-dasharray:none;stroke-opacity:1"
       transform="matrix(1.3333333,0,0,-1.3333333,103.32267,79.636)" />
    <path
       id="path28"
       d="M 5.44046,0 1.28699,1.5706 2.66432,0 1.28699,-1.5706 Z"
       style="fill:#000000;fill-opacity:1;fill-rule:nonzero;stroke:#000000;stroke-width:0.79701;stroke-linecap:butt;stroke-linejoin:miter;stroke-miterlimit:10;stroke-dasharray:none;stroke-opacity:1"
       transform="matrix(1.2855467,0.35352,0.35352,-1.2855467,532.51723,58.147413)" />
    <path
       id="path29"
       d="m 255.51399,-34.3711 68.75865,18.90908"
       style="fill:none;stroke:#000000;stroke-width:0.79701;stroke-linecap:butt;stroke-linejoin:miter;stroke-miterlimit:10;stroke-dasharray:none;stroke-opacity:1"
       transform="matrix(1.3333333,0,0,-1.3333333,103.32267,79.636)" />
    <path
       id="path30"
       d="M 5.44046,0 1.28699,1.5706 2.66432,0 1.28699,-1.5706 Z"
       style="fill:#000000;fill-opacity:1;fill-rule:nonzero;stroke:#000000;stroke-width:0.79701;stroke-linecap:butt;stroke-linejoin:miter;stroke-miterlimit:10;stroke-dasharray:none;stroke-opacity:1"
       transform="matrix(1.2855467,-0.35352,-0.35352,-1.2855467,532.51723,101.12347)" />
    <path
       id="path31"
       d="m 439.74304,4.1e-4 52.58328,2e-4"
       style="fill:none;stroke:#000000;stroke-width:0.79701;stroke-linecap:butt;stroke-linejoin:miter;stroke-miterlimit:10;stroke-dasharray:none;stroke-opacity:1"
       transform="matrix(1.3333333,0,0,-1.3333333,103.32267,79.636)" />
    <path
       id="path32"
       d="M 5.44046,0 1.28699,1.5706 2.66432,0 1.28699,-1.5706 Z"
       style="fill:#000000;fill-opacity:1;fill-rule:nonzero;stroke:#000000;stroke-width:0.79701;stroke-linecap:butt;stroke-linejoin:miter;stroke-miterlimit:10;stroke-dasharray:none;stroke-opacity:1"
       transform="matrix(1.3333333,0,0,-1.3333333,756.471,79.635187)" />
  </g>
</svg>
