<?xml version="1.0" encoding="UTF-8" standalone="no"?>
<!-- Created with Inkscape (http://www.inkscape.org/) -->

<svg
   version="1.1"
   id="svg1"
   width="838.26398"
   height="159.27068"
   viewBox="0 0 838.26398 159.27068"
   xmlns="http://www.w3.org/2000/svg"
   xmlns:svg="http://www.w3.org/2000/svg">
  <defs
     id="defs1" />
  <g
     id="g1">
    <path
       id="path1"
       d="m -32.0051,-13.05359 c 0,-4.41902 14.32897,-8.00127 32.0051,-8.00127 17.67613,0 32.0051,3.58225 32.0051,8.00127 V 24.80264 C 32.0051,20.3836 17.67613,16.80138 0,16.80138 c -17.67613,0 -32.0051,3.58222 -32.0051,8.00126 z"
       style="fill:#ffc266;fill-opacity:1;fill-rule:nonzero;stroke:none"
       transform="matrix(1.3333333,0,0,-1.3333333,100.5,79.636)" />
    <path
       id="path2"
       d="m -32.0051,24.80264 c 0,4.41904 14.32897,8.00127 32.0051,8.00127 17.67613,0 32.0051,-3.58223 32.0051,-8.00127 0,-4.41904 -14.32897,-8.00126 -32.0051,-8.00126 -17.67613,0 -32.0051,3.58222 -32.0051,8.00126 z"
       style="fill:#ffad33;fill-opacity:1;fill-rule:nonzero;stroke:none"
       transform="matrix(1.3333333,0,0,-1.3333333,100.5,79.636)" />
    <path
       id="path3"
       d="m -32.0051,-13.05359 c 0,-4.41902 14.32897,-8.00127 32.0051,-8.00127 17.67613,0 32.0051,3.58225 32.0051,8.00127 v 37.85623 c 0,4.41904 -14.32897,8.00127 -32.0051,8.00127 -17.67613,0 -32.0051,-3.58223 -32.0051,-8.00127 z m 0,37.85623 c 0,-4.41904 14.32897,-8.00126 32.0051,-8.00126 17.67613,0 32.0051,3.58222 32.0051,8.00126"
       style="fill:none;stroke:#000000;stroke-width:0.3985;stroke-linecap:butt;stroke-linejoin:miter;stroke-miterlimit:10;stroke-dasharray:none;stroke-opacity:1"
       transform="matrix(1.3333333,0,0,-1.3333333,100.5,79.636)" />
    <path
       id="path4"
       d="M 6.6322422,-6.7375078 H 0.55021094 l -0.1875,2.2382812 h 0.24609375 c 0.140625,-1.6054687 0.29296875,-1.9335937 1.79296871,-1.9335937 0.1757813,0 0.4335938,0 0.5390625,0.023437 0.2109375,0.035156 0.2109375,0.140625 0.2109375,0.375 v 5.24999999 c 0,0.33984375 0,0.48046875 -1.0546875,0.48046875 H 1.6986484 V 7.734375e-4 C 2.1088047,-0.03438281 3.1283359,-0.03438281 3.5853672,-0.03438281 c 0.4570312,0 1.4882812,0 1.8984375,0.0351562475 V -0.30391406 H 5.0853672 c -1.0546875,0 -1.0546875,-0.140625 -1.0546875,-0.48046875 V -6.0343828 c 0,-0.1992188 0,-0.3398438 0.1875,-0.375 0.1054687,-0.023437 0.375,-0.023437 0.5625,-0.023437 1.5,0 1.6523437,0.328125 1.7929687,1.9335937 h 0.2460938 z m 1.4003906,3.4335937 v -1.1015625 l -1.3828125,0.1171875 v 0.3046875 c 0.6914063,0 0.7734375,0.070312 0.7734375,0.5625 v 2.66015629 c 0,0.45703125 -0.1054687,0.45703125 -0.7734375,0.45703125 V 7.734375e-4 C 7.0365391,-0.01094531 7.5052891,-0.03438281 7.7865391,-0.03438281 c 0.3984375,0 0.8671875,0 1.265625,0.0351562475 V -0.30391406 H 8.8412266 c -0.7382813,0 -0.7617188,-0.1171875 -0.7617188,-0.46875 V -2.3078203 c 0,-0.984375 0.421875,-1.875 1.1835938,-1.875 0.058594,0 0.082031,0 0.1054687,0.011719 -0.035156,0.011719 -0.234375,0.1289063 -0.234375,0.3867188 0,0.28125 0.2109375,0.4335937 0.4335938,0.4335937 0.1757812,0 0.421875,-0.1289062 0.421875,-0.4453125 0,-0.3164062 -0.3046875,-0.609375 -0.7265625,-0.609375 -0.7382813,0 -1.0898438,0.6679688 -1.2304688,1.1015622 z m 4.2656252,-2.859375 c 0,-0.2460937 -0.199219,-0.5039062 -0.503906,-0.5039062 -0.28125,0 -0.492188,0.2226562 -0.492188,0.5039062 0,0.28125 0.210938,0.4921875 0.492188,0.4921875 0.304687,0 0.503906,-0.2578125 0.503906,-0.4921875 z m 1.921875,0 c 0,-0.28125 -0.222656,-0.5039062 -0.503906,-0.5039062 -0.292969,0 -0.492188,0.2578125 -0.492188,0.5039062 0,0.234375 0.199219,0.4921875 0.492188,0.4921875 0.28125,0 0.503906,-0.2109375 0.503906,-0.4921875 z m -0.632813,5.40234379 c 0.03516,0.3984375 0.304688,0.8203125 0.773438,0.8203125 0.210937,0 0.820312,-0.140625 0.820312,-0.94921875 V -1.4406328 h -0.246093 v 0.55078124 c 0,0.5859375 -0.246094,0.64453125 -0.363282,0.64453125 -0.328125,0 -0.363281,-0.45703125 -0.363281,-0.50390625 V -2.7414141 c 0,-0.4101562 0,-0.8085937 -0.363281,-1.171875 -0.386719,-0.3867187 -0.878906,-0.5507812 -1.359375,-0.5507812 -0.820313,0 -1.511719,0.46875 -1.511719,1.125 0,0.3046875 0.199219,0.46875 0.457031,0.46875 0.28125,0 0.46875,-0.1992188 0.46875,-0.4570313 0,-0.1171875 -0.05859,-0.4453125 -0.515625,-0.4570312 0.269532,-0.3515625 0.761719,-0.4570313 1.078125,-0.4570313 0.492188,0 1.054688,0.3867188 1.054688,1.2773438 v 0.3632812 c -0.503906,0.035156 -1.207031,0.058594 -1.828125,0.3632813 -0.75,0.3398437 -0.996094,0.8554687 -0.996094,1.28906249 0,0.80859375 0.960938,1.0546875 1.59375,1.0546875 0.65625,0 1.113281,-0.3984375 1.300781,-0.8671875 z M 13.51701,-2.3898516 v 0.9960938 c 0,0.94921874 -0.714844,1.28906249 -1.160156,1.28906249 -0.492188,0 -0.902344,-0.3515625 -0.902344,-0.85546875 0,-0.53906254 0.421875,-1.37109374 2.0625,-1.42968754 z m 2.835937,-1.03125 v 2.66015629 c 0,0.45703125 -0.117187,0.45703125 -0.785156,0.45703125 V 7.734375e-4 c 0.351563,-0.0117187475 0.855469,-0.0351562475 1.125,-0.0351562475 0.257813,0 0.785156,0.0234375 1.113281,0.0351562475 V -0.30391406 c -0.65625,0 -0.773437,0 -0.773437,-0.45703125 V -2.5890703 c 0,-1.03125 0.714844,-1.59375 1.347656,-1.59375 0.621094,0 0.738281,0.5390625 0.738281,1.1015625 v 2.32031249 c 0,0.45703125 -0.117187,0.45703125 -0.773437,0.45703125 V 7.734375e-4 c 0.339844,-0.0117187475 0.855469,-0.0351562475 1.125,-0.0351562475 0.257812,0 0.773437,0.0234375 1.113281,0.0351562475 V -0.30391406 c -0.515625,0 -0.773437,0 -0.785156,-0.3046875 V -2.5070391 c 0,-0.8554687 0,-1.171875 -0.304688,-1.5234375 -0.140625,-0.1757812 -0.46875,-0.375 -1.042968,-0.375 -0.726563,0 -1.195313,0.4335938 -1.476563,1.0546875 v -1.0546875 l -1.40625,0.1171875 v 0.3046875 c 0.703125,0 0.785156,0.070312 0.785156,0.5625 z m 6.19043,-0.984375 -1.394531,0.1171875 v 0.3046875 c 0.65625,0 0.738281,0.058594 0.738281,0.5507813 v 2.67187499 c 0,0.45703125 -0.105469,0.45703125 -0.773437,0.45703125 V 7.734375e-4 C 21.430094,-0.01094531 21.969156,-0.03438281 22.21525,-0.03438281 c 0.339844,0 0.691406,0.0234375 1.03125,0.0351562475 V -0.30391406 c -0.65625,0 -0.703125,-0.0585938 -0.703125,-0.4453125 z m 0.04687,-1.734375 c 0,-0.3164062 -0.246094,-0.5273437 -0.527344,-0.5273437 -0.316406,0 -0.527343,0.2695312 -0.527343,0.5273437 0,0.2695313 0.210937,0.5273438 0.527343,0.5273438 0.28125,0 0.527344,-0.1992188 0.527344,-0.5273438 z m 2.06543,2.71875 v 2.66015629 c 0,0.45703125 -0.117188,0.45703125 -0.785157,0.45703125 V 7.734375e-4 c 0.351563,-0.0117187475 0.855469,-0.0351562475 1.125,-0.0351562475 0.257813,0 0.785157,0.0234375 1.113282,0.0351562475 V -0.30391406 c -0.65625,0 -0.773438,0 -0.773438,-0.45703125 V -2.5890703 c 0,-1.03125 0.714844,-1.59375 1.347656,-1.59375 0.621094,0 0.738282,0.5390625 0.738282,1.1015625 v 2.32031249 c 0,0.45703125 -0.117188,0.45703125 -0.773438,0.45703125 V 7.734375e-4 c 0.339844,-0.0117187475 0.855469,-0.0351562475 1.125,-0.0351562475 0.257813,0 0.773438,0.0234375 1.113281,0.0351562475 V -0.30391406 c -0.515625,0 -0.773437,0 -0.785156,-0.3046875 V -2.5070391 c 0,-0.8554687 0,-1.171875 -0.304687,-1.5234375 -0.140625,-0.1757812 -0.46875,-0.375 -1.042969,-0.375 -0.726563,0 -1.195313,0.4335938 -1.476563,1.0546875 v -1.0546875 l -1.40625,0.1171875 v 0.3046875 c 0.703125,0 0.785157,0.070312 0.785157,0.5625 z m 6.65039,1.7109375 c -0.867187,0 -0.867187,-0.9960937 -0.867187,-1.2304687 0,-0.2695313 0.01172,-0.5859375 0.152344,-0.8320313 0.08203,-0.1171875 0.316406,-0.3984375 0.714843,-0.3984375 0.867188,0 0.867188,0.9960938 0.867188,1.21875 0,0.2695313 -0.01172,0.5976563 -0.164063,0.84375 -0.08203,0.1171875 -0.304687,0.3984375 -0.703125,0.3984375 z m -1.160156,0.3867188 c 0,-0.035156 0,-0.2695313 0.175781,-0.46875 0.386719,0.28125 0.796875,0.3046875 0.984375,0.3046875 0.925782,0 1.605469,-0.6796875 1.605469,-1.453125 0,-0.3632813 -0.152344,-0.7382813 -0.398437,-0.9609375 0.351562,-0.3398438 0.714843,-0.3867188 0.890625,-0.3867188 0.02344,0 0.07031,0 0.105468,0 -0.117187,0.046875 -0.164062,0.1523438 -0.164062,0.2695313 0,0.1757812 0.128906,0.2929687 0.292969,0.2929687 0.09375,0 0.28125,-0.070312 0.28125,-0.2929687 0,-0.1757813 -0.117188,-0.4921875 -0.503907,-0.4921875 -0.199218,0 -0.632812,0.058594 -1.054687,0.46875 -0.421875,-0.328125 -0.84375,-0.3632813 -1.054688,-0.3632813 -0.925781,0 -1.617187,0.6914063 -1.617187,1.453125 0,0.4453125 0.222656,0.8203125 0.46875,1.03125 -0.128906,0.1523438 -0.304688,0.4804688 -0.304688,0.8203125 0,0.31640629 0.128907,0.69140629 0.433594,0.89062504 -0.597656,0.17578125 -0.914062,0.59765625 -0.914062,0.99609375 0,0.71484371 0.984375,1.26562501 2.203125,1.26562501 1.171875,0 2.203125,-0.5039063 2.203125,-1.28906251 0,-0.33984375 -0.140625,-0.85546875 -0.644532,-1.125 -0.527343,-0.28125 -1.101562,-0.28125 -1.710937,-0.28125 -0.246094,0 -0.679688,0 -0.75,-0.0117188 -0.316406,-0.046875 -0.527344,-0.35156259 -0.527344,-0.66796869 z m 1.441406,3.1523437 c -1.007812,0 -1.699218,-0.515625 -1.699218,-1.04296871 0,-0.45703125 0.375,-0.8203125 0.820312,-0.85546875 h 0.585938 c 0.855468,0 1.96875,0 1.96875,0.85546875 0,0.53906251 -0.703125,1.04296871 -1.675782,1.04296871 z m 4.558594,-3.7617187 c 0.222656,0.035156 1.03125,0.1992187 1.03125,0.9140625 0,0.51562499 -0.351562,0.91406249 -1.125,0.91406249 -0.832031,0 -1.195312,-0.57421875 -1.382812,-1.41796879 -0.03516,-0.1289062 -0.03516,-0.1757812 -0.140625,-0.1757812 -0.128907,0 -0.128907,0.070312 -0.128907,0.2578125 v 1.31249999 c 0,0.1640625 0,0.234375 0.105469,0.234375 0.05859,0 0.07031,0 0.257813,-0.19921875 0.01172,-0.01171875 0.01172,-0.03515625 0.199218,-0.22265625 0.433594,0.421875 0.878907,0.421875 1.089844,0.421875 1.148438,0 1.605469,-0.66796875 1.605469,-1.38281249 0,-0.5273438 -0.292969,-0.8203125 -0.421875,-0.9492188 -0.328125,-0.3164062 -0.714844,-0.3984375 -1.136719,-0.46875 -0.550781,-0.1171875 -1.21875,-0.2460937 -1.21875,-0.8203125 0,-0.3515625 0.257813,-0.7617187 1.113281,-0.7617187 1.101563,0 1.148438,0.9023437 1.171875,1.2070312 0,0.09375 0.09375,0.09375 0.117188,0.09375 0.128906,0 0.128906,-0.046875 0.128906,-0.2460937 v -0.9960938 c 0,-0.1757812 0,-0.2460937 -0.117187,-0.2460937 -0.04687,0 -0.07031,0 -0.199219,0.1171875 -0.02344,0.046875 -0.128906,0.1289062 -0.164063,0.1640625 -0.375,-0.28125 -0.785156,-0.28125 -0.9375,-0.28125 -1.21875,0 -1.59375,0.6679687 -1.59375,1.2304687 0,0.3398438 0.164063,0.6210938 0.433594,0.84375 0.316406,0.2578125 0.597656,0.3164063 1.3125,0.4570313 z m 5.639649,1.38281249 v 0.65625 L 43.250406,7.734375e-4 V -0.30391406 c -0.703125,0 -0.773437,-0.0703125 -0.773437,-0.5625 V -6.9132891 l -1.441406,0.1054688 v 0.3164062 c 0.703125,0 0.785156,0.070312 0.785156,0.5507813 v 2.15625 c -0.292969,-0.3632813 -0.726563,-0.6210938 -1.265625,-0.6210938 -1.171875,0 -2.214844,0.984375 -2.214844,2.2617188 0,1.26562499 0.972656,2.24999999 2.109375,2.24999999 0.644531,0 1.089844,-0.33984375 1.335938,-0.65625 z m 0,-2.67187499 v 2.0507812 c 0,0.17578129 0,0.19921879 -0.105469,0.36328129 -0.304688,0.48046875 -0.75,0.703125 -1.183594,0.703125 -0.445312,0 -0.796875,-0.2578125 -1.042969,-0.64453125 C 39.195716,-1.1593828 39.16056,-1.7218828 39.16056,-2.1320391 c 0,-0.3632812 0.02344,-0.9609375 0.316406,-1.4179687 0.210937,-0.3046875 0.585937,-0.6328125 1.125,-0.6328125 0.351562,0 0.761719,0.1523437 1.078125,0.5976562 0.105469,0.1640625 0.105469,0.1875 0.105469,0.3632813 z m 5.065429,2.46093749 c 0.03516,0.3984375 0.304688,0.8203125 0.773438,0.8203125 0.210937,0 0.820312,-0.140625 0.820312,-0.94921875 V -1.4406328 h -0.246094 v 0.55078124 c 0,0.5859375 -0.246093,0.64453125 -0.363281,0.64453125 -0.328125,0 -0.363281,-0.45703125 -0.363281,-0.50390625 V -2.7414141 c 0,-0.4101562 0,-0.8085937 -0.363281,-1.171875 -0.386719,-0.3867187 -0.878907,-0.5507812 -1.359375,-0.5507812 -0.820313,0 -1.511719,0.46875 -1.511719,1.125 0,0.3046875 0.199219,0.46875 0.457031,0.46875 0.28125,0 0.46875,-0.1992188 0.46875,-0.4570313 0,-0.1171875 -0.05859,-0.4453125 -0.515625,-0.4570312 0.269531,-0.3515625 0.761719,-0.4570313 1.078125,-0.4570313 0.492188,0 1.054688,0.3867188 1.054688,1.2773438 v 0.3632812 c -0.503907,0.035156 -1.207032,0.058594 -1.828125,0.3632813 -0.75,0.3398437 -0.996094,0.8554687 -0.996094,1.28906249 0,0.80859375 0.960937,1.0546875 1.59375,1.0546875 0.65625,0 1.113281,-0.3984375 1.300781,-0.8671875 z M 46.78068,-2.3898516 v 0.9960938 c 0,0.94921874 -0.714844,1.28906249 -1.160157,1.28906249 -0.492187,0 -0.902343,-0.3515625 -0.902343,-0.85546875 0,-0.53906254 0.421875,-1.37109374 2.0625,-1.42968754 z m 3.459961,-1.59375 h 1.429687 v -0.3046875 h -1.429687 v -1.8398437 h -0.246094 c -0.01172,0.8203125 -0.316406,1.8867187 -1.289063,1.921875 v 0.2226562 h 0.84375 v 2.7539063 c 0,1.21874999 0.925782,1.33593749 1.289063,1.33593749 0.703125,0 0.984375,-0.703125 0.984375,-1.33593749 v -0.5742188 h -0.246094 v 0.5507813 c 0,0.73828124 -0.304687,1.11328124 -0.667969,1.11328124 -0.667968,0 -0.667968,-0.90234374 -0.667968,-1.07812504 z m 5.466797,3.22265629 c 0.03516,0.3984375 0.304687,0.8203125 0.773437,0.8203125 0.210938,0 0.820313,-0.140625 0.820313,-0.94921875 V -1.4406328 h -0.246094 v 0.55078124 c 0,0.5859375 -0.246094,0.64453125 -0.363281,0.64453125 -0.328125,0 -0.363282,-0.45703125 -0.363282,-0.50390625 V -2.7414141 c 0,-0.4101562 0,-0.8085937 -0.363281,-1.171875 -0.386719,-0.3867187 -0.878906,-0.5507812 -1.359375,-0.5507812 -0.820312,0 -1.511719,0.46875 -1.511719,1.125 0,0.3046875 0.199219,0.46875 0.457032,0.46875 0.28125,0 0.46875,-0.1992188 0.46875,-0.4570313 0,-0.1171875 -0.05859,-0.4453125 -0.515625,-0.4570312 0.269531,-0.3515625 0.761718,-0.4570313 1.078125,-0.4570313 0.492187,0 1.054687,0.3867188 1.054687,1.2773438 v 0.3632812 c -0.503906,0.035156 -1.207031,0.058594 -1.828125,0.3632813 -0.75,0.3398437 -0.996094,0.8554687 -0.996094,1.28906249 0,0.80859375 0.960938,1.0546875 1.59375,1.0546875 0.65625,0 1.113282,-0.3984375 1.300782,-0.8671875 z m -0.07031,-1.62890629 v 0.9960938 c 0,0.94921874 -0.714844,1.28906249 -1.160156,1.28906249 -0.492188,0 -0.902344,-0.3515625 -0.902344,-0.85546875 0,-0.53906254 0.421875,-1.37109374 2.0625,-1.42968754 z m 0,0"
       style="fill:#000000;fill-opacity:1;fill-rule:nonzero;stroke:none"
       aria-label="Tr¨aningsdata"
       transform="matrix(1.3333333,0,0,1.3333333,62.254667,82.956)" />
    <path
       id="path5"
       d="m 89.10829,25.51233 h 68.0322 v 28.34679 h -68.0322 z"
       style="fill:#70c1fa;fill-opacity:1;fill-rule:nonzero;stroke:#000000;stroke-width:0.3985;stroke-linecap:butt;stroke-linejoin:miter;stroke-miterlimit:10;stroke-dasharray:none;stroke-opacity:1"
       transform="matrix(1.3333333,0,0,-1.3333333,100.5,79.636)" />
    <path
       id="path6"
       d="m 2.2136875,-3.6435781 v -2.4492188 c 0,-0.328125 0.011719,-0.3984375 0.4804688,-0.3984375 h 1.2421875 c 0.9609375,0 1.3125,0.84375 1.3125,1.3710938 0,0.6328125 -0.4921875,1.4765625 -1.59375,1.4765625 z m 2.34375,0.09375 c 0.9726563,-0.1992188 1.6523438,-0.8320313 1.6523438,-1.5703125 0,-0.8671875 -0.9140625,-1.6875 -2.203125,-1.6875 H 0.362125 v 0.3164062 H 0.5965 c 0.7617188,0 0.7851563,0.1054688 0.7851563,0.46875 v 5.25000003 c 0,0.3515625 -0.023437,0.46875 -0.7851563,0.46875 H 0.362125 V 9.53125e-4 h 3.9023438 c 1.3242187,0 2.2148437,-0.890624995 2.2148437,-1.828125025 0,-0.8671875 -0.8085937,-1.6054687 -1.921875,-1.7226562 z m -0.609375,3.24609373 H 2.6941563 c -0.46875,0 -0.4804688,-0.0703125 -0.4804688,-0.3984375 V -3.4209219 h 1.875 c 0.984375,0 1.3945313,0.9257813 1.3945313,1.59375 0,0.703125 -0.515625,1.52343753 -1.5351563,1.52343753 z M 8.1697422,-2.5068594 c 0.058594,-1.4882812 0.9023437,-1.734375 1.2421875,-1.734375 1.0195313,0 1.1250003,1.3476563 1.1250003,1.734375 z m -0.011719,0.2109375 h 2.7890628 c 0.210937,0 0.246094,0 0.246094,-0.2109375 0,-0.984375 -0.539063,-1.9570312 -1.7812505,-1.9570312 -1.1601563,0 -2.0742188,1.03125 -2.0742188,2.2734375 0,1.33593748 1.0429688,2.29687498 2.1914063,2.29687498 1.21875,0 1.664063,-1.1015625 1.664063,-1.28906248 0,-0.1054688 -0.08203,-0.1171875 -0.128907,-0.1171875 -0.09375,0 -0.117187,0.058594 -0.128906,0.140625 -0.351562,1.01953123 -1.2539063,1.01953123 -1.3476563,1.01953123 -0.5039062,0 -0.9023437,-0.29296875 -1.125,-0.66796875 C 8.1580234,-1.2881094 8.1580234,-1.9443594 8.1580232,-2.2959219 Z m 5.3994148,0.3632813 c 0.222656,0.035156 1.03125,0.1992187 1.03125,0.9140625 0,0.51562498 -0.351563,0.91406248 -1.125,0.91406248 -0.832032,0 -1.195313,-0.57421875 -1.382813,-1.41796878 -0.03516,-0.1289062 -0.03516,-0.1757812 -0.140625,-0.1757812 -0.128906,0 -0.128906,0.070312 -0.128906,0.2578125 v 1.31249998 c 0,0.1640625 0,0.234375 0.105469,0.234375 0.05859,0 0.07031,0 0.257812,-0.19921875 0.01172,-0.01171875 0.01172,-0.03515625 0.199219,-0.22265625 0.433594,0.421875 0.878906,0.421875 1.089844,0.421875 1.148437,0 1.605468,-0.66796875 1.605468,-1.38281248 0,-0.5273438 -0.292968,-0.8203125 -0.421875,-0.9492188 -0.328125,-0.3164062 -0.714843,-0.3984375 -1.136718,-0.46875 -0.550782,-0.1171875 -1.21875,-0.2460937 -1.21875,-0.8203125 0,-0.3515625 0.257812,-0.7617187 1.113281,-0.7617187 1.101562,0 1.148437,0.9023437 1.171875,1.2070312 0,0.09375 0.09375,0.09375 0.117187,0.09375 0.128907,0 0.128907,-0.046875 0.128907,-0.2460937 v -0.9960938 c 0,-0.1757812 0,-0.2460937 -0.117188,-0.2460937 -0.04687,0 -0.07031,0 -0.199219,0.1171875 -0.02344,0.046875 -0.128906,0.1289062 -0.164062,0.1640625 -0.375,-0.28125 -0.785156,-0.28125 -0.9375,-0.28125 -1.21875,0 -1.59375,0.6679687 -1.59375,1.2304687 0,0.3398438 0.164062,0.6210938 0.433594,0.84375 0.316406,0.2578125 0.597656,0.3164063 1.3125,0.4570313 z m 3.612304,-4.9804688 -1.429687,0.1054688 v 0.3164062 c 0.703125,0 0.773437,0.070312 0.773437,0.5507813 v 5.17968748 c 0,0.45703125 -0.105469,0.45703125 -0.773437,0.45703125 V 9.53125e-4 c 0.328125,-0.011718745 0.855468,-0.035156245 1.101562,-0.035156245 0.257813,0 0.738281,0.0234375 1.113281,0.035156245 V -0.30373437 c -0.667968,0 -0.785156,0 -0.785156,-0.45703125 z m 4.901367,6.12890628 v 0.890625 L 23.512516,9.53125e-4 V -0.30373437 c -0.703125,0 -0.785157,-0.0703125 -0.785157,-0.5625 V -4.4052969 l -1.453125,0.1171875 v 0.3046875 c 0.691407,0 0.773438,0.070312 0.773438,0.5625 v 1.7695313 c 0,0.86718748 -0.480469,1.54687498 -1.207031,1.54687498 -0.832032,0 -0.878907,-0.46875 -0.878907,-0.99609378 v -3.3046875 l -1.464843,0.1171875 v 0.3046875 c 0.785156,0 0.785156,0.035156 0.785156,0.9140625 v 1.5 c 0,0.77343753 0,1.67578128 1.511719,1.67578128 0.550781,0 0.996093,-0.26953125 1.277343,-0.890625 z M 25.43732,-3.9834219 h 1.429688 V -4.2881094 H 25.43732 v -1.8398437 h -0.246093 c -0.01172,0.8203125 -0.316407,1.8867187 -1.289063,1.921875 v 0.2226562 h 0.84375 v 2.7539063 c 0,1.21874998 0.925781,1.33593748 1.289063,1.33593748 0.703125,0 0.984375,-0.703125 0.984375,-1.33593748 v -0.5742188 h -0.246094 v 0.5507813 c 0,0.73828123 -0.304688,1.11328123 -0.667969,1.11328123 -0.667969,0 -0.667969,-0.90234373 -0.667969,-1.07812503 z m 4.227539,2.0507813 c 0.222657,0.035156 1.03125,0.1992187 1.03125,0.9140625 0,0.51562498 -0.351562,0.91406248 -1.125,0.91406248 -0.832031,0 -1.195312,-0.57421875 -1.382812,-1.41796878 -0.03516,-0.1289062 -0.03516,-0.1757812 -0.140625,-0.1757812 -0.128906,0 -0.128906,0.070312 -0.128906,0.2578125 v 1.31249998 c 0,0.1640625 0,0.234375 0.105468,0.234375 0.05859,0 0.07031,0 0.257813,-0.19921875 0.01172,-0.01171875 0.01172,-0.03515625 0.199219,-0.22265625 0.433593,0.421875 0.878906,0.421875 1.089843,0.421875 1.148438,0 1.605469,-0.66796875 1.605469,-1.38281248 0,-0.5273438 -0.292969,-0.8203125 -0.421875,-0.9492188 -0.328125,-0.3164062 -0.714844,-0.3984375 -1.136719,-0.46875 -0.550781,-0.1171875 -1.21875,-0.2460937 -1.21875,-0.8203125 0,-0.3515625 0.257813,-0.7617187 1.113282,-0.7617187 1.101562,0 1.148437,0.9023437 1.171875,1.2070312 0,0.09375 0.09375,0.09375 0.117187,0.09375 0.128906,0 0.128906,-0.046875 0.128906,-0.2460937 v -0.9960938 c 0,-0.1757812 0,-0.2460937 -0.117187,-0.2460937 -0.04687,0 -0.07031,0 -0.199219,0.1171875 -0.02344,0.046875 -0.128906,0.1289062 -0.164062,0.1640625 -0.375,-0.28125 -0.785157,-0.28125 -0.9375,-0.28125 -1.21875,0 -1.59375,0.6679687 -1.59375,1.2304687 0,0.3398438 0.164062,0.6210938 0.433593,0.84375 0.316407,0.2578125 0.597657,0.3164063 1.3125,0.4570313 z m 3.577149,-2.0507813 h 1.429687 v -0.3046875 h -1.429687 v -1.8398437 h -0.246094 c -0.01172,0.8203125 -0.316406,1.8867187 -1.289062,1.921875 v 0.2226562 h 0.84375 v 2.7539063 c 0,1.21874998 0.925781,1.33593748 1.289062,1.33593748 0.703125,0 0.984375,-0.703125 0.984375,-1.33593748 v -0.5742188 h -0.246094 v 0.5507813 c 0,0.73828123 -0.304687,1.11328123 -0.667968,1.11328123 -0.667969,0 -0.667969,-0.90234373 -0.667969,-1.07812503 z m 3.817383,0.6796875 v -1.1015625 l -1.382813,0.1171875 v 0.3046875 c 0.691406,0 0.773438,0.070312 0.773438,0.5625 v 2.66015628 c 0,0.45703125 -0.105469,0.45703125 -0.773438,0.45703125 V 9.53125e-4 c 0.386719,-0.011718745 0.855469,-0.035156245 1.136719,-0.035156245 0.398437,0 0.867187,0 1.265625,0.035156245 V -0.30373437 h -0.210938 c -0.738281,0 -0.761718,-0.1171875 -0.761718,-0.46875 V -2.3076406 c 0,-0.984375 0.421875,-1.875 1.183593,-1.875 0.05859,0 0.08203,0 0.105469,0.011719 -0.03516,0.011719 -0.234375,0.1289063 -0.234375,0.3867188 0,0.28125 0.210938,0.4335937 0.433594,0.4335937 0.175781,0 0.421875,-0.1289062 0.421875,-0.4453125 0,-0.3164062 -0.304688,-0.609375 -0.726563,-0.609375 -0.738281,0 -1.089843,0.6679688 -1.230468,1.1015622 z m 4.265625,-2.859375 c 0,-0.2460937 -0.199219,-0.5039062 -0.503907,-0.5039062 -0.28125,0 -0.492187,0.2226562 -0.492187,0.5039062 0,0.28125 0.210937,0.4921875 0.492187,0.4921875 0.304688,0 0.503907,-0.2578125 0.503907,-0.4921875 z m 1.921875,0 c 0,-0.28125 -0.222657,-0.5039062 -0.503907,-0.5039062 -0.292968,0 -0.492187,0.2578125 -0.492187,0.5039062 0,0.234375 0.199219,0.4921875 0.492187,0.4921875 0.28125,0 0.503907,-0.2109375 0.503907,-0.4921875 z m -0.632813,5.40234378 c 0.03516,0.3984375 0.304688,0.8203125 0.773438,0.8203125 0.210937,0 0.820312,-0.140625 0.820312,-0.94921875 V -1.4404531 h -0.246094 v 0.55078123 c 0,0.5859375 -0.246093,0.64453125 -0.363281,0.64453125 -0.328125,0 -0.363281,-0.45703125 -0.363281,-0.50390625 V -2.7412344 c 0,-0.4101562 0,-0.8085937 -0.363281,-1.171875 -0.386719,-0.3867187 -0.878907,-0.5507812 -1.359375,-0.5507812 -0.820313,0 -1.511719,0.46875 -1.511719,1.125 0,0.3046875 0.199219,0.46875 0.457031,0.46875 0.28125,0 0.46875,-0.1992188 0.46875,-0.4570313 0,-0.1171875 -0.05859,-0.4453125 -0.515625,-0.4570312 0.269531,-0.3515625 0.761719,-0.4570313 1.078125,-0.4570313 0.492188,0 1.054688,0.3867188 1.054688,1.2773438 v 0.3632812 c -0.503907,0.035156 -1.207032,0.058594 -1.828125,0.3632813 -0.75,0.3398437 -0.996094,0.8554687 -0.996094,1.28906248 0,0.80859375 0.960937,1.0546875 1.59375,1.0546875 0.65625,0 1.113281,-0.3984375 1.300781,-0.8671875 z m -0.07031,-1.62890628 v 0.9960938 c 0,0.94921873 -0.714844,1.28906248 -1.160157,1.28906248 -0.492187,0 -0.902343,-0.3515625 -0.902343,-0.85546875 0,-0.53906253 0.421875,-1.37109373 2.0625,-1.42968753 z m 5.519531,1.83984378 v 0.65625 L 49.528141,9.53125e-4 V -0.30373437 c -0.703125,0 -0.773438,-0.0703125 -0.773438,-0.5625 V -6.9131094 l -1.441406,0.1054688 v 0.3164062 c 0.703125,0 0.785156,0.070312 0.785156,0.5507813 v 2.15625 c -0.292969,-0.3632813 -0.726562,-0.6210938 -1.265625,-0.6210938 -1.171875,0 -2.214844,0.984375 -2.214844,2.2617188 0,1.26562498 0.972657,2.24999998 2.109375,2.24999998 0.644532,0 1.089844,-0.33984375 1.335938,-0.65625 z m 0,-2.67187498 v 2.0507812 c 0,0.17578128 0,0.19921878 -0.105469,0.36328128 -0.304687,0.48046875 -0.75,0.703125 -1.183594,0.703125 -0.445312,0 -0.796875,-0.2578125 -1.042968,-0.64453125 -0.257813,-0.41015623 -0.292969,-0.97265623 -0.292969,-1.38281253 0,-0.3632812 0.02344,-0.9609375 0.316406,-1.4179687 0.210938,-0.3046875 0.585938,-0.6328125 1.125,-0.6328125 0.351563,0 0.761719,0.1523437 1.078125,0.5976562 0.105469,0.1640625 0.105469,0.1875 0.105469,0.3632813 z m 0,0"
       style="fill:#000000;fill-opacity:1;fill-rule:nonzero;stroke:none"
       aria-label="Beslutstr¨ad"
       transform="matrix(1.3333333,0,0,1.3333333,231.45467,31.334667)" />
    <path
       id="path7"
       d="m 89.10829,-53.8584 h 75.88252 v 28.34679 H 89.10829 Z"
       style="fill:#70c1fa;fill-opacity:1;fill-rule:nonzero;stroke:#000000;stroke-width:0.3985;stroke-linecap:butt;stroke-linejoin:miter;stroke-miterlimit:10;stroke-dasharray:none;stroke-opacity:1"
       transform="matrix(1.3333333,0,0,-1.3333333,100.5,79.636)" />
    <path
       id="path8"
       d="m 2.3093047,-6.6805703 c -0.082031,-0.1171875 -0.09375,-0.1289063 -0.28125,-0.1289063 H 0.32883594 v 0.3164063 h 0.29296875 c 0.140625,0 0.33984375,0.011719 0.49218751,0.011719 0.234375,0.035156 0.2460937,0.046875 0.2460937,0.234375 v 5.203125 c 0,0.26953129 0,0.73828129 -1.03124996,0.73828129 V -8.828125e-4 C 0.68039844,-0.01260156 1.1608672,-0.03603906 1.5007109,-0.03603906 c 0.328125,0 0.8085938,0.0234375 1.1601563,0.0351562475 V -0.30557031 c -1.03125,0 -1.03125,-0.46875 -1.03125,-0.73828129 v -5.1796875 c 0.058594,0.046875 0.070312,0.058594 0.1054687,0.1171875 l 4.0664063,5.97656254 c 0.082031,0.1171875 0.09375,0.1289062475 0.1640625,0.1289062475 0.140625,0 0.140625,-0.0703124975 0.140625,-0.2578124975 V -5.7547891 c 0,-0.2695312 0,-0.7382812 1.03125,-0.7382812 v -0.3164063 c -0.3515625,0.011719 -0.84375,0.035156 -1.171875,0.035156 -0.328125,0 -0.8203125,-0.023437 -1.1601563,-0.035156 v 0.3164063 c 1.0195313,0 1.0195313,0.46875 1.0195313,0.7382812 v 4.2539063 z m 6.2753906,4.171875 c 0.058594,-1.4882813 0.9023438,-1.734375 1.2421875,-1.734375 1.0195312,0 1.1250002,1.3476562 1.1250002,1.734375 z m -0.011719,0.2109375 h 2.7890627 c 0.210938,0 0.246094,0 0.246094,-0.2109375 0,-0.984375 -0.539063,-1.9570313 -1.7812505,-1.9570313 -1.1601562,0 -2.0742187,1.03125 -2.0742187,2.2734375 0,1.33593754 1.0429687,2.29687504 2.1914062,2.29687504 1.21875,0 1.664063,-1.1015625 1.664063,-1.28906254 0,-0.1054687 -0.08203,-0.1171875 -0.128906,-0.1171875 -0.09375,0 -0.117188,0.058594 -0.128907,0.140625 -0.351562,1.01953129 -1.253906,1.01953129 -1.347656,1.01953129 -0.5039065,0 -0.902344,-0.29296875 -1.1250002,-0.66796875 C 8.5729766,-1.2899453 8.5729766,-1.9461953 8.5729763,-2.2977578 Z m 7.2158207,1.51171874 v 0.890625 L 17.230203,-8.828125e-4 V -0.30557031 c -0.703125,0 -0.785156,-0.0703125 -0.785156,-0.5625 V -4.4071328 l -1.453125,0.1171875 v 0.3046875 c 0.691406,0 0.773437,0.070312 0.773437,0.5625 v 1.7695312 c 0,0.86718754 -0.480468,1.54687504 -1.207031,1.54687504 -0.832031,0 -0.878906,-0.46875 -0.878906,-0.99609374 v -3.3046875 l -1.464844,0.1171875 v 0.3046875 c 0.785156,0 0.785156,0.035156 0.785156,0.9140625 v 1.5 c 0,0.77343749 0,1.67578124 1.511719,1.67578124 0.550781,0 0.996094,-0.26953125 1.277344,-0.890625 z m 3.310547,-2.51953124 v -1.1015625 l -1.382813,0.1171875 v 0.3046875 c 0.691407,0 0.773438,0.070312 0.773438,0.5625 v 2.66015624 c 0,0.45703125 -0.105469,0.45703125 -0.773438,0.45703125 V -8.828125e-4 C 18.10325,-0.01260156 18.572,-0.03603906 18.85325,-0.03603906 c 0.398438,0 0.867188,0 1.265625,0.0351562475 V -0.30557031 h -0.210937 c -0.738282,0 -0.761719,-0.1171875 -0.761719,-0.46875 V -2.3094766 c 0,-0.984375 0.421875,-1.875 1.183594,-1.875 0.05859,0 0.08203,0 0.105468,0.011719 -0.03516,0.011719 -0.234375,0.1289062 -0.234375,0.3867187 0,0.28125 0.210938,0.4335938 0.433594,0.4335938 0.175781,0 0.421875,-0.1289063 0.421875,-0.4453125 0,-0.3164063 -0.304687,-0.609375 -0.726562,-0.609375 -0.738282,0 -1.089844,0.6679687 -1.230469,1.1015623 z m 5.554687,2.54296874 c 0.03516,0.3984375 0.304688,0.8203125 0.773438,0.8203125 0.210937,0 0.820312,-0.140625 0.820312,-0.94921875 V -1.4422891 h -0.246093 v 0.55078129 c 0,0.5859375 -0.246094,0.64453125 -0.363282,0.64453125 -0.328125,0 -0.363281,-0.45703125 -0.363281,-0.50390625 V -2.7430703 c 0,-0.4101563 0,-0.8085938 -0.363281,-1.171875 -0.386719,-0.3867188 -0.878906,-0.5507813 -1.359375,-0.5507813 -0.820313,0 -1.511719,0.46875 -1.511719,1.125 0,0.3046875 0.199219,0.46875 0.457031,0.46875 0.28125,0 0.46875,-0.1992187 0.46875,-0.4570312 0,-0.1171875 -0.05859,-0.4453125 -0.515625,-0.4570313 0.269532,-0.3515625 0.761719,-0.4570312 1.078125,-0.4570312 0.492188,0 1.054688,0.3867187 1.054688,1.2773437 v 0.3632813 c -0.503906,0.035156 -1.207031,0.058594 -1.828125,0.3632812 -0.75,0.3398438 -0.996094,0.8554688 -0.996094,1.28906254 0,0.80859375 0.960938,1.0546875 1.59375,1.0546875 0.65625,0 1.113281,-0.3984375 1.300781,-0.8671875 z m -0.07031,-1.62890624 v 0.9960937 c 0,0.94921879 -0.714844,1.28906254 -1.160156,1.28906254 -0.492188,0 -0.902344,-0.3515625 -0.902344,-0.85546875 0,-0.53906249 0.421875,-1.37109379 2.0625,-1.42968749 z m 3.492187,-4.5234375 -1.429687,0.1054687 v 0.3164063 c 0.703125,0 0.773437,0.070312 0.773437,0.5507812 v 5.17968754 c 0,0.45703125 -0.105468,0.45703125 -0.773437,0.45703125 v 0.3046874975 c 0.328123,-0.0117187475 0.855467,-0.0351562475 1.10156,-0.0351562475 0.257813,0 0.738282,0.0234375 1.113282,0.0351562475 V -0.30557031 c -0.667969,0 -0.785157,0 -0.785157,-0.45703125 z m 2.733399,2.9296875 h 1.429687 v -0.3046875 h -1.429687 v -1.8398438 h -0.246094 c -0.01172,0.8203125 -0.316406,1.8867188 -1.289063,1.921875 v 0.2226563 h 0.84375 v 2.7539062 c 0,1.21875004 0.925782,1.33593754 1.289063,1.33593754 0.703125,0 0.984375,-0.703125 0.984375,-1.33593754 v -0.5742187 h -0.246094 v 0.5507812 c 0,0.73828129 -0.304687,1.11328129 -0.667969,1.11328129 -0.667968,0 -0.667968,-0.90234379 -0.667968,-1.07812499 z m 6.571289,0.5625 v 2.66015624 c 0,0.45703125 -0.117188,0.45703125 -0.785156,0.45703125 V -8.828125e-4 C 36.947,-0.01260156 37.450906,-0.03603906 37.720438,-0.03603906 c 0.257812,0 0.785156,0.0234375 1.113281,0.0351562475 V -0.30557031 c -0.65625,0 -0.773438,0 -0.773438,-0.45703125 V -2.5907266 c 0,-1.03125 0.714844,-1.59375 1.347657,-1.59375 0.621093,0 0.738281,0.5390625 0.738281,1.1015625 v 2.32031254 c 0,0.45703125 -0.117188,0.45703125 -0.773438,0.45703125 v 0.3046874975 c 0.339844,-0.0117187475 0.855469,-0.0351562475 1.125,-0.0351562475 0.257813,0 0.773438,0.0234375 1.113282,0.0351562475 V -0.30557031 c -0.515625,0 -0.773438,0 -0.785157,-0.3046875 V -2.5086953 c 0,-0.8554688 0,-1.171875 -0.304687,-1.5234375 -0.140625,-0.1757813 -0.46875,-0.375 -1.042969,-0.375 -0.726562,0 -1.195312,0.4335937 -1.476562,1.0546875 v -1.0546875 l -1.40625,0.1171875 v 0.3046875 c 0.703125,0 0.785156,0.070312 0.785156,0.5625 z m 6.459961,-2.7421875 c 0,-0.2460938 -0.199219,-0.5039063 -0.503907,-0.5039063 -0.28125,0 -0.492187,0.2226563 -0.492187,0.5039063 0,0.28125 0.210937,0.4921875 0.492187,0.4921875 0.304688,0 0.503907,-0.2578125 0.503907,-0.4921875 z m 1.921875,0 c 0,-0.28125 -0.222657,-0.5039063 -0.503907,-0.5039063 -0.292968,0 -0.492187,0.2578125 -0.492187,0.5039063 0,0.234375 0.199219,0.4921875 0.492187,0.4921875 0.28125,0 0.503907,-0.2109375 0.503907,-0.4921875 z m -0.632813,5.40234374 c 0.03516,0.3984375 0.304688,0.8203125 0.773438,0.8203125 0.210937,0 0.820312,-0.140625 0.820312,-0.94921875 V -1.4422891 h -0.246094 v 0.55078129 c 0,0.5859375 -0.246093,0.64453125 -0.363281,0.64453125 -0.328125,0 -0.363281,-0.45703125 -0.363281,-0.50390625 V -2.7430703 c 0,-0.4101563 0,-0.8085938 -0.363281,-1.171875 -0.386719,-0.3867188 -0.878907,-0.5507813 -1.359375,-0.5507813 -0.820313,0 -1.511719,0.46875 -1.511719,1.125 0,0.3046875 0.199219,0.46875 0.457031,0.46875 0.28125,0 0.46875,-0.1992187 0.46875,-0.4570312 0,-0.1171875 -0.05859,-0.4453125 -0.515625,-0.4570313 0.269531,-0.3515625 0.761719,-0.4570312 1.078125,-0.4570312 0.492188,0 1.054688,0.3867187 1.054688,1.2773437 v 0.3632813 c -0.503907,0.035156 -1.207032,0.058594 -1.828125,0.3632812 -0.75,0.3398438 -0.996094,0.8554688 -0.996094,1.28906254 0,0.80859375 0.960937,1.0546875 1.59375,1.0546875 0.65625,0 1.113281,-0.3984375 1.300781,-0.8671875 z m -0.07031,-1.62890624 v 0.9960937 c 0,0.94921879 -0.714844,1.28906254 -1.160157,1.28906254 -0.492187,0 -0.902343,-0.3515625 -0.902343,-0.85546875 0,-0.53906249 0.421875,-1.37109379 2.0625,-1.42968749 z m 3.457031,-1.59375 h 1.429687 V -4.2899453 H 48.51634 v -1.8398438 h -0.246094 c -0.01172,0.8203125 -0.316406,1.8867188 -1.289062,1.921875 v 0.2226563 h 0.84375 v 2.7539062 c 0,1.21875004 0.925781,1.33593754 1.289062,1.33593754 0.703125,0 0.984375,-0.703125 0.984375,-1.33593754 v -0.5742187 h -0.246094 v 0.5507812 c 0,0.73828129 -0.304687,1.11328129 -0.667968,1.11328129 -0.667969,0 -0.667969,-0.90234379 -0.667969,-1.07812499 z m 6.301758,0.6679687 c 0.08203,-0.234375 0.257812,-0.65625 0.914062,-0.6679687 v -0.3046875 c -0.234375,0.011719 -0.515625,0.023437 -0.75,0.023437 -0.234375,0 -0.691406,-0.023437 -0.867187,-0.023437 v 0.3046875 c 0.375,0.011719 0.480469,0.234375 0.480469,0.4335937 0,0.082031 -0.02344,0.1289063 -0.05859,0.234375 l -1.019531,2.54296879 -1.113282,-2.77734379 c -0.05859,-0.140625 -0.05859,-0.1523437 -0.05859,-0.1757812 0,-0.2578125 0.386718,-0.2578125 0.5625,-0.2578125 v -0.3046875 c -0.292969,0 -0.855469,0.023437 -1.078125,0.023437 -0.269532,0 -0.667969,-0.011719 -0.972657,-0.023437 v 0.3046875 c 0.632813,0 0.667969,0.058594 0.796875,0.3632812 l 1.441407,3.53906254 c 0.05859,0.140625 0.07031,0.1875 0.199218,0.1875 0.128907,0 0.175782,-0.08203125 0.210938,-0.1875 z m 1.942383,0.8085938 c 0.05859,-1.4882813 0.902343,-1.734375 1.242187,-1.734375 1.019531,0 1.125,1.3476562 1.125,1.734375 z m -0.01172,0.2109375 h 2.789062 c 0.210938,0 0.246094,0 0.246094,-0.2109375 0,-0.984375 -0.539062,-1.9570313 -1.78125,-1.9570313 -1.160156,0 -2.074219,1.03125 -2.074219,2.2734375 0,1.33593754 1.042969,2.29687504 2.191407,2.29687504 1.21875,0 1.664062,-1.1015625 1.664062,-1.28906254 0,-0.1054687 -0.08203,-0.1171875 -0.128906,-0.1171875 -0.09375,0 -0.117188,0.058594 -0.128906,0.140625 -0.351563,1.01953129 -1.253907,1.01953129 -1.347657,1.01953129 -0.503906,0 -0.902343,-0.29296875 -1.125,-0.66796875 -0.30469,-0.48046874 -0.30469,-1.13671874 -0.30469,-1.48828124 z m 4.992187,-1.0078125 v -1.1015625 l -1.382812,0.1171875 v 0.3046875 c 0.691406,0 0.773437,0.070312 0.773437,0.5625 v 2.66015624 c 0,0.45703125 -0.105468,0.45703125 -0.773437,0.45703125 V -8.828125e-4 C 60.744852,-0.01260156 61.213602,-0.03603906 61.494852,-0.03603906 c 0.398437,0 0.867187,0 1.265625,0.0351562475 V -0.30557031 h -0.210938 c -0.738281,0 -0.761719,-0.1171875 -0.761719,-0.46875 V -2.3094766 c 0,-0.984375 0.421875,-1.875 1.183594,-1.875 0.05859,0 0.08203,0 0.105469,0.011719 -0.03516,0.011719 -0.234375,0.1289062 -0.234375,0.3867187 0,0.28125 0.210937,0.4335938 0.433594,0.4335938 0.175781,0 0.421875,-0.1289063 0.421875,-0.4453125 0,-0.3164063 -0.304688,-0.609375 -0.726563,-0.609375 -0.738281,0 -1.089844,0.6679687 -1.230469,1.1015625 z m 3.292969,2.54296874 c 0,0.45703125 -0.105469,0.45703125 -0.773437,0.45703125 V -8.828125e-4 C 64.588602,-0.01260156 65.057352,-0.03603906 65.338602,-0.03603906 c 0.304687,0 0.703125,0.01171875 1.101562,0.0351562475 V -0.30557031 c -0.667969,0 -0.773437,0 -0.773437,-0.45703125 V -1.7821328 l 0.632812,-0.5507813 c 0.773438,1.0546875 1.183594,1.61718754 1.183594,1.79296879 0,0.1875 -0.164063,0.234375 -0.351563,0.234375 V -8.828125e-4 C 67.401102,-0.01260156 67.998758,-0.03603906 68.197977,-0.03603906 c 0.292968,0 0.585937,0.01171875 0.867187,0.0351562475 V -0.30557031 c -0.363281,0 -0.585937,0 -0.960937,-0.52734375 L 66.838602,-2.6258828 c -0.01172,-0.011719 -0.05859,-0.070312 -0.05859,-0.1054688 0,-0.035156 0.703125,-0.6328125 0.808594,-0.7148437 0.621093,-0.5039063 1.042968,-0.5273438 1.253906,-0.5390625 v -0.3046875 c -0.292969,0.023437 -0.421875,0.023437 -0.703125,0.023437 -0.351563,0 -0.972656,-0.023437 -1.113281,-0.023437 v 0.3046875 c 0.1875,0.011719 0.292968,0.1171875 0.292968,0.2460937 0,0.1992188 -0.140625,0.3164063 -0.222656,0.3867188 l -1.40625,1.21875 v -4.78125 l -1.429687,0.1054687 v 0.3164063 c 0.691406,0 0.773437,0.070312 0.773437,0.5507812 z m 0,0"
       style="fill:#000000;fill-opacity:1;fill-rule:nonzero;stroke:none"
       aria-label="Neuraltn¨atverk"
       transform="matrix(1.3333333,0,0,1.3333333,223.73733,137.16133)" />
    <path
       id="path9"
       d="m 253.918,39.68573 c 0,10.95895 -8.88373,19.84268 -19.84268,19.84268 -10.95896,0 -19.8427,-8.88373 -19.8427,-19.84268 0,-10.95895 8.88374,-19.84268 19.8427,-19.84268 10.95895,0 19.84268,8.88373 19.84268,19.84268 z"
       style="fill:#40adf9;fill-opacity:1;fill-rule:nonzero;stroke:#000000;stroke-width:0.3985;stroke-linecap:butt;stroke-linejoin:miter;stroke-miterlimit:10;stroke-dasharray:none;stroke-opacity:1"
       transform="matrix(1.3333333,0,0,-1.3333333,100.5,79.636)" />
    <path
       id="path10"
       d="m 3.9618281,-6.9362109 c -0.046875,-0.1289063 -0.070312,-0.1992188 -0.2226562,-0.1992188 -0.1640625,0 -0.1875,0.058594 -0.2460938,0.1992188 l -2.0625,5.96484371 c -0.1757812,0.50390625 -0.57421872,0.65625 -1.11328122,0.66796875 v 0.3046875 c 0.234375,-0.01171875 0.65625,-0.03515625 1.01953122,-0.03515625 0.3046875,0 0.8203125,0.0234375 1.1484375,0.03515625 v -0.3046875 c -0.5039062,0 -0.75,-0.2578125 -0.75,-0.515625 0,-0.0234375 0.011719,-0.12890625 0.023437,-0.140625 L 2.2157344,-2.2721484 h 2.4609375 l 0.5273437,1.52343746 c 0.011719,0.046875 0.023437,0.10546875 0.023437,0.140625 0,0.3046875 -0.5507812,0.3046875 -0.8203125,0.3046875 v 0.3046875 c 0.3515625,-0.03515625 1.0546875,-0.03515625 1.4296875,-0.03515625 0.4335938,0 0.890625,0.01171875 1.3007813,0.03515625 v -0.3046875 H 6.9618281 c -0.5976562,0 -0.7382812,-0.0703125 -0.84375,-0.3984375 z m -0.5273437,1.125 1.125,3.234375 H 2.3212031 Z m 0,0"
       style="fill:#000000;fill-opacity:1;fill-rule:nonzero;stroke:none"
       aria-label="A"
       transform="matrix(1.3333333,0,0,1.3333333,407.616,31.26)" />
    <path
       id="path11"
       d="m 261.76833,-39.685 c 0,10.95896 -8.88373,19.84268 -19.84269,19.84268 -10.95895,0 -19.84268,-8.88372 -19.84268,-19.84268 0,-10.95895 8.88373,-19.84268 19.84268,-19.84268 10.95896,0 19.84269,8.88373 19.84269,19.84268 z"
       style="fill:#40adf9;fill-opacity:1;fill-rule:nonzero;stroke:#000000;stroke-width:0.3985;stroke-linecap:butt;stroke-linejoin:miter;stroke-miterlimit:10;stroke-dasharray:none;stroke-opacity:1"
       transform="matrix(1.3333333,0,0,-1.3333333,100.5,79.636)" />
    <path
       id="path12"
       d="m 2.215375,-3.6450781 v -2.4492188 c 0,-0.328125 0.011719,-0.3984375 0.4804687,-0.3984375 h 1.2421875 c 0.9609375,0 1.3125,0.84375 1.3125,1.3710938 0,0.6328125 -0.4921875,1.4765625 -1.59375,1.4765625 z m 2.34375,0.09375 c 0.9726562,-0.1992188 1.6523437,-0.8320313 1.6523437,-1.5703125 0,-0.8671875 -0.9140625,-1.6875 -2.203125,-1.6875 H 0.3638125 v 0.3164062 h 0.234375 c 0.7617187,0 0.7851562,0.1054688 0.7851562,0.46875 v 5.25000003 c 0,0.3515625 -0.023437,0.46875 -0.7851562,0.46875 H 0.3638125 V -5.46875e-4 H 4.2661562 C 5.590375,-5.46875e-4 6.481,-0.89117187 6.481,-1.8286719 6.481,-2.6958594 5.6724062,-3.4341406 4.559125,-3.5513281 Z M 3.94975,-0.30523437 H 2.6958437 c -0.46875,0 -0.4804687,-0.0703125 -0.4804687,-0.3984375 V -3.4224219 h 1.875 c 0.984375,0 1.3945312,0.9257813 1.3945312,1.59375 0,0.703125 -0.515625,1.52343753 -1.5351562,1.52343753 z m 0,0"
       style="fill:#000000;fill-opacity:1;fill-rule:nonzero;stroke:none"
       aria-label="B"
       transform="matrix(1.3333333,0,0,1.3333333,418.35867,137.08667)" />
    <path
       id="path13"
       d="M 323.24019,-14.17302 H 441.35384 V 14.17377 H 323.24019 Z"
       style="fill:#70c1fa;fill-opacity:1;fill-rule:nonzero;stroke:#000000;stroke-width:0.3985;stroke-linecap:butt;stroke-linejoin:miter;stroke-miterlimit:10;stroke-dasharray:none;stroke-opacity:1"
       transform="matrix(1.3333333,0,0,-1.3333333,100.5,79.636)" />
    <path
       id="path14"
       d="m 1.3599922,-0.77266406 c 0,0.3515625 -0.023437,0.46875 -0.79687501,0.46875 h -0.234375 V 7.734375e-4 H 6.0826484 L 6.4928047,-2.5656328 H 6.2467109 C 6.0006172,-1.0304766 5.7662422,-0.30391406 4.0553047,-0.30391406 H 2.7310859 c -0.46875,0 -0.4921875,-0.0703125 -0.4921875,-0.3984375 V -3.3625078 h 0.9023438 c 0.9609375,0 1.078125,0.3164062 1.078125,1.1601562 H 4.4654609 V -4.8390703 H 4.2193672 c 0,0.8554687 -0.1171875,1.1601562 -1.078125,1.1601562 H 2.2388984 v -2.390625 c 0,-0.328125 0.023437,-0.3984375 0.4921875,-0.3984375 h 1.2890625 c 1.5234375,0 1.7929688,0.5507813 1.9453125,1.9335938 H 6.2115547 L 5.9420234,-6.7726641 H 0.32874219 v 0.3046875 h 0.234375 c 0.77343751,0 0.79687501,0.1171875 0.79687501,0.46875 z M 7.8814766,-3.4211016 v 2.66015629 c 0,0.45703125 -0.1171875,0.45703125 -0.7851563,0.45703125 V 7.734375e-4 c 0.3515625,-0.0117187475 0.8554688,-0.0351562475 1.125,-0.0351562475 0.2578125,0 0.7851563,0.0234375 1.1132813,0.0351562475 V -0.30391406 c -0.65625,0 -0.7734375,0 -0.7734375,-0.45703125 V -2.5890703 c 0,-1.03125 0.7148437,-1.59375 1.3476562,-1.59375 0.6210937,0 0.7382817,0.5390625 0.7382817,1.1015625 v 2.32031249 c 0,0.45703125 -0.117188,0.45703125 -0.7734379,0.45703125 V 7.734375e-4 C 10.213508,-0.01094531 10.729133,-0.03438281 10.998664,-0.03438281 c 0.257813,0 0.773438,0.0234375 1.113281,0.0351562475 V -0.30391406 c -0.515625,0 -0.773437,0 -0.785156,-0.3046875 V -2.5070391 c 0,-0.8554687 0,-1.171875 -0.304687,-1.5234375 -0.140625,-0.1757812 -0.46875,-0.375 -1.0429692,-0.375 -0.7265625,0 -1.1953125,0.4335938 -1.4765625,1.0546875 v -1.0546875 l -1.40625,0.1171875 v 0.3046875 c 0.703125,0 0.7851563,0.070312 0.7851563,0.5625 z m 6.5097654,1.4882813 c 0.222656,0.035156 1.03125,0.1992187 1.03125,0.9140625 0,0.51562499 -0.351562,0.91406249 -1.125,0.91406249 -0.832031,0 -1.195312,-0.57421875 -1.382812,-1.41796879 -0.03516,-0.1289062 -0.03516,-0.1757812 -0.140625,-0.1757812 -0.128907,0 -0.128907,0.070312 -0.128907,0.2578125 v 1.31249999 c 0,0.1640625 0,0.234375 0.105469,0.234375 0.05859,0 0.07031,0 0.257813,-0.19921875 0.01172,-0.01171875 0.01172,-0.03515625 0.199218,-0.22265625 0.433594,0.421875 0.878907,0.421875 1.089844,0.421875 1.148438,0 1.605469,-0.66796875 1.605469,-1.38281249 0,-0.5273438 -0.292969,-0.8203125 -0.421875,-0.9492188 -0.328125,-0.3164062 -0.714844,-0.3984375 -1.136719,-0.46875 -0.550781,-0.1171875 -1.21875,-0.2460937 -1.21875,-0.8203125 0,-0.3515625 0.257813,-0.7617187 1.113281,-0.7617187 1.101563,0 1.148438,0.9023437 1.171875,1.2070312 0,0.09375 0.09375,0.09375 0.117188,0.09375 0.128906,0 0.128906,-0.046875 0.128906,-0.2460937 v -0.9960938 c 0,-0.1757812 0,-0.2460937 -0.117187,-0.2460937 -0.04687,0 -0.07031,0 -0.199219,0.1171875 -0.02344,0.046875 -0.128906,0.1289062 -0.164063,0.1640625 -0.375,-0.28125 -0.785156,-0.28125 -0.9375,-0.28125 -1.21875,0 -1.59375,0.6679687 -1.59375,1.2304687 0,0.3398438 0.164063,0.6210938 0.433594,0.84375 0.316406,0.2578125 0.597656,0.3164063 1.3125,0.4570313 z m 2.967774,-0.5742188 c 0.05859,-1.4882812 0.902343,-1.734375 1.242187,-1.734375 1.019531,0 1.125,1.3476563 1.125,1.734375 z m -0.01172,0.2109375 h 2.789062 c 0.210938,0 0.246094,0 0.246094,-0.2109375 0,-0.984375 -0.539062,-1.9570312 -1.78125,-1.9570312 -1.160156,0 -2.074219,1.03125 -2.074219,2.2734375 0,1.33593749 1.042969,2.29687499 2.191407,2.29687499 1.21875,0 1.664062,-1.1015625 1.664062,-1.28906249 0,-0.1054688 -0.08203,-0.1171875 -0.128906,-0.1171875 -0.09375,0 -0.117188,0.058594 -0.128906,0.140625 -0.351563,1.01953124 -1.253907,1.01953124 -1.347657,1.01953124 -0.503906,0 -0.902343,-0.29296875 -1.125,-0.66796875 C 17.347297,-1.2882891 17.347297,-1.9445391 17.347297,-2.2961016 Z m 4.426758,-1.125 v 2.66015629 c 0,0.45703125 -0.117188,0.45703125 -0.785157,0.45703125 V 7.734375e-4 c 0.351563,-0.0117187475 0.855469,-0.0351562475 1.125,-0.0351562475 0.257813,0 0.785157,0.0234375 1.113282,0.0351562475 V -0.30391406 c -0.65625,0 -0.773438,0 -0.773438,-0.45703125 V -2.5890703 c 0,-1.03125 0.714844,-1.59375 1.347656,-1.59375 0.621094,0 0.738282,0.5390625 0.738282,1.1015625 v 2.32031249 c 0,0.45703125 -0.117188,0.45703125 -0.773438,0.45703125 V 7.734375e-4 c 0.339844,-0.0117187475 0.855469,-0.0351562475 1.125,-0.0351562475 0.257813,0 0.773438,0.0234375 1.113281,0.0351562475 V -0.30391406 c -0.667968,0 -0.785156,0 -0.785156,-0.45703125 V -2.5890703 c 0,-1.03125 0.714844,-1.59375 1.347656,-1.59375 0.632813,0 0.738282,0.5390625 0.738282,1.1015625 v 2.32031249 c 0,0.45703125 -0.105469,0.45703125 -0.773438,0.45703125 V 7.734375e-4 c 0.351563,-0.0117187475 0.855469,-0.0351562475 1.125,-0.0351562475 0.257813,0 0.773438,0.0234375 1.113281,0.0351562475 V -0.30391406 c -0.515625,0 -0.761718,0 -0.773437,-0.3046875 V -2.5070391 c 0,-0.8554687 0,-1.171875 -0.316406,-1.5234375 -0.128907,-0.1757812 -0.46875,-0.375 -1.042969,-0.375 -0.832031,0 -1.277344,0.5976563 -1.441406,0.984375 -0.140625,-0.8671875 -0.878907,-0.984375 -1.324219,-0.984375 -0.726563,0 -1.195313,0.4335938 -1.476563,1.0546875 v -1.0546875 l -1.40625,0.1171875 v 0.3046875 c 0.703125,0 0.785157,0.070312 0.785157,0.5625 z m 8.630859,-0.328125 v -3.1640625 l -1.429687,0.1054688 v 0.3164062 c 0.691406,0 0.773437,0.070312 0.773437,0.5507813 V 7.734375e-4 h 0.246094 c 0.01172,-0.0117187475 0.09375,-0.1523437475 0.363281,-0.6210937475 0.152344,0.234375 0.5625,0.7265625 1.300781,0.7265625 1.183594,0 2.226563,-0.97265625 2.226563,-2.26171879 0,-1.265625 -0.972656,-2.25 -2.109375,-2.25 -0.785156,0 -1.207031,0.46875 -1.371094,0.65625 z m 0.03516,2.6132813 v -2.0507813 c 0,-0.1875 0,-0.1992187 0.105469,-0.3632812 0.386719,-0.5507813 0.9375,-0.6328125 1.171875,-0.6328125 0.457031,0 0.808594,0.2578125 1.054688,0.6328125 0.257812,0.4101562 0.28125,0.984375 0.28125,1.3945312 0,0.3632813 -0.01172,0.9609375 -0.304688,1.40625004 -0.210937,0.31640625 -0.585937,0.64453125 -1.125,0.64453125 -0.445312,0 -0.808594,-0.24609375 -1.042969,-0.609375 C 30.44007,-0.92500781 30.44007,-0.96016406 30.44007,-1.1359453 Z m 5.548828,-5.7773438 -1.429687,0.1054688 v 0.3164062 c 0.703125,0 0.773437,0.070312 0.773437,0.5507813 v 5.17968749 c 0,0.45703125 -0.105468,0.45703125 -0.773437,0.45703125 V 7.734375e-4 C 34.887336,-0.01094531 35.41468,-0.03438281 35.660773,-0.03438281 c 0.257813,0 0.738282,0.0234375 1.113282,0.0351562475 V -0.30391406 c -0.667969,0 -0.785157,0 -0.785157,-0.45703125 z m 2.121094,4.40625 c 0.05859,-1.4882812 0.902344,-1.734375 1.242188,-1.734375 1.019531,0 1.125,1.3476563 1.125,1.734375 z m -0.01172,0.2109375 h 2.789063 c 0.210937,0 0.246094,0 0.246094,-0.2109375 0,-0.984375 -0.539063,-1.9570312 -1.78125,-1.9570312 -1.160157,0 -2.074219,1.03125 -2.074219,2.2734375 0,1.33593749 1.042969,2.29687499 2.191406,2.29687499 1.21875,0 1.664063,-1.1015625 1.664063,-1.28906249 0,-0.1054688 -0.08203,-0.1171875 -0.128907,-0.1171875 -0.09375,0 -0.117187,0.058594 -0.128906,0.140625 -0.351562,1.01953124 -1.253906,1.01953124 -1.347656,1.01953124 -0.503906,0 -0.902344,-0.29296875 -1.125,-0.66796875 -0.30469,-0.48046879 -0.30469,-1.13671879 -0.30469,-1.48828129 z m 5.730469,-4.2890625 c -0.09375,-0.2226562 -0.117187,-0.2226562 -0.351562,-0.2226562 h -1.6875 v 0.3164062 h 0.246093 c 0.761719,0 0.785157,0.1054688 0.785157,0.46875 v 4.9804688 c 0,0.26953124 0,0.73828124 -1.03125,0.73828124 V 7.734375e-4 C 42.141242,-0.01094531 42.63343,-0.03438281 42.961555,-0.03438281 c 0.328125,0 0.820312,0.0234375 1.160156,0.0351562475 V -0.30391406 c -1.019531,0 -1.019531,-0.46875 -1.019531,-0.73828124 v -5.3671875 h 0.01172 l 2.402344,6.18749999 c 0.04687,0.12890625 0.09375,0.2226562475 0.199219,0.2226562475 0.105469,0 0.128906,-0.0820312475 0.175781,-0.1874999975 l 2.449219,-6.30468754 h 0.01172 v 5.71875004 c 0,0.3515625 -0.02344,0.46875 -0.785157,0.46875 H 47.32093 V 7.734375e-4 c 0.375,-0.0351562475 1.042968,-0.0351562475 1.441406,-0.0351562475 0.386719,0 1.054687,0 1.417969,0.0351562475 V -0.30391406 H 49.94593 c -0.773438,0 -0.785157,-0.1171875 -0.785157,-0.46875 V -6.0226641 c 0,-0.3632812 0.01172,-0.46875 0.785157,-0.46875 h 0.234375 v -0.3164062 h -1.675782 c -0.269531,0 -0.269531,0.011719 -0.339843,0.1992187 l -2.179688,5.6015625 z m 11.416992,4.453125 c 0,-1.2773437 -0.996093,-2.3320312 -2.191406,-2.3320312 -1.253906,0 -2.214844,1.0898437 -2.214844,2.3320312 0,1.28906254 1.03125,2.23828129 2.203125,2.23828129 1.207032,0 2.203125,-0.97265625 2.203125,-2.23828129 z m -2.191406,1.99218754 c -0.433594,0 -0.867187,-0.2109375 -1.136719,-0.66796875 -0.257812,-0.43359379 -0.257812,-1.04296879 -0.257812,-1.40624999 0,-0.3867188 0,-0.9257813 0.246094,-1.359375 0.269531,-0.4570313 0.738281,-0.6679688 1.136718,-0.6679688 0.433594,0 0.867188,0.2226563 1.125,0.6445313 0.257813,0.4335937 0.257813,1.0078125 0.257813,1.3828125 0,0.3632812 0,0.9023437 -0.222656,1.33593749 -0.222657,0.4453125 -0.65625,0.73828125 -1.148438,0.73828125 z m 6.547852,-0.41015625 v 0.65625 L 61.067023,7.734375e-4 V -0.30391406 c -0.703125,0 -0.773437,-0.0703125 -0.773437,-0.5625 V -6.9132891 l -1.441406,0.1054688 v 0.3164062 c 0.703125,0 0.785156,0.070312 0.785156,0.5507813 v 2.15625 c -0.292969,-0.3632813 -0.726563,-0.6210938 -1.265625,-0.6210938 -1.171875,0 -2.214844,0.984375 -2.214844,2.2617188 0,1.26562499 0.972656,2.24999999 2.109375,2.24999999 0.644531,0 1.089844,-0.33984375 1.335938,-0.65625 z m 0,-2.67187499 v 2.0507812 c 0,0.17578129 0,0.19921879 -0.105469,0.36328129 -0.304688,0.48046875 -0.75,0.703125 -1.183594,0.703125 -0.445312,0 -0.796875,-0.2578125 -1.042969,-0.64453125 -0.257814,-0.41015624 -0.29297,-0.97265624 -0.29297,-1.38281254 0,-0.3632812 0.02344,-0.9609375 0.316406,-1.4179687 0.210937,-0.3046875 0.585937,-0.6328125 1.125,-0.6328125 0.351562,0 0.761719,0.1523437 1.078125,0.5976562 0.105469,0.1640625 0.105469,0.1875 0.105469,0.3632813 z m 2.865234,0.7148437 c 0.05859,-1.4882812 0.902344,-1.734375 1.242188,-1.734375 1.019531,0 1.125,1.3476563 1.125,1.734375 z m -0.01172,0.2109375 h 2.789063 c 0.210937,0 0.246094,0 0.246094,-0.2109375 0,-0.984375 -0.539063,-1.9570312 -1.78125,-1.9570312 -1.160157,0 -2.074219,1.03125 -2.074219,2.2734375 0,1.33593749 1.042969,2.29687499 2.191406,2.29687499 1.21875,0 1.664063,-1.1015625 1.664063,-1.28906249 0,-0.1054688 -0.08203,-0.1171875 -0.128907,-0.1171875 -0.09375,0 -0.117187,0.058594 -0.128906,0.140625 -0.351562,1.01953124 -1.253906,1.01953124 -1.347656,1.01953124 -0.503906,0 -0.902344,-0.29296875 -1.125,-0.66796875 C 62.455695,-1.2882891 62.455695,-1.9445391 62.455695,-2.2961016 Z m 5.083008,-4.6171875 -1.429687,0.1054688 v 0.3164062 c 0.703125,0 0.773437,0.070312 0.773437,0.5507813 v 5.17968749 c 0,0.45703125 -0.105469,0.45703125 -0.773437,0.45703125 V 7.734375e-4 C 66.437141,-0.01094531 66.964484,-0.03438281 67.210578,-0.03438281 c 0.257813,0 0.738281,0.0234375 1.113281,0.0351562475 V -0.30391406 c -0.667968,0 -0.785156,0 -0.785156,-0.45703125 z m 4.303711,9.3046875 c 0,-0.035156 0,-0.046875 -0.164062,-0.2226562 -1.242188,-1.25390626 -1.570313,-3.12890626 -1.570313,-4.6640625 0,-1.7226563 0.386719,-3.4570313 1.605469,-4.7109375 0.128906,-0.1171875 0.128906,-0.1289063 0.128906,-0.1640625 0,-0.070312 -0.03516,-0.1054688 -0.09375,-0.1054688 -0.105469,0 -0.996094,0.6796875 -1.582031,1.9453125 -0.515625,1.1015625 -0.632813,2.203125 -0.632813,3.0351563 0,0.7851562 0.117188,1.99218749 0.65625,3.11718749 0.597657,1.21875001 1.453125,1.87500001 1.558594,1.87500001 0.05859,0 0.09375,-0.035156 0.09375,-0.1054688 z m 4.541016,-9.328125 c -0.04687,-0.1289062 -0.07031,-0.1992187 -0.222657,-0.1992187 -0.164062,0 -0.1875,0.058594 -0.246093,0.1992187 l -2.0625,5.96484379 c -0.175782,0.50390625 -0.574219,0.65625 -1.113282,0.66796875 V 7.734375e-4 C 72.973273,-0.01094531 73.395148,-0.03438281 73.75843,-0.03438281 c 0.304687,0 0.820312,0.0234375 1.148437,0.0351562475 V -0.30391406 c -0.503906,0 -0.75,-0.2578125 -0.75,-0.515625 0,-0.0234375 0.01172,-0.12890625 0.02344,-0.140625 l 0.457031,-1.31250004 h 2.460937 l 0.527344,1.52343754 c 0.01172,0.046875 0.02344,0.10546875 0.02344,0.140625 0,0.3046875 -0.550782,0.3046875 -0.820313,0.3046875 V 7.734375e-4 C 77.180305,-0.03438281 77.88343,-0.03438281 78.25843,-0.03438281 c 0.433593,0 0.890625,0.01171875 1.300781,0.0351562475 V -0.30391406 H 79.38343 c -0.597657,0 -0.738282,-0.0703125 -0.84375,-0.3984375 z m -0.527344,1.125 1.125,3.234375 h -2.238281 z m 8.188477,2.4960938 c 0.08203,-0.234375 0.257812,-0.65625 0.914062,-0.6679688 v -0.3046875 c -0.234375,0.011719 -0.515625,0.023437 -0.75,0.023437 -0.234375,0 -0.691406,-0.023437 -0.867187,-0.023437 v 0.3046875 c 0.375,0.011719 0.480468,0.234375 0.480468,0.4335938 0,0.082031 -0.02344,0.1289062 -0.05859,0.234375 L 82.743781,-0.77266406 81.6305,-3.5500078 c -0.05859,-0.140625 -0.05859,-0.1523438 -0.05859,-0.1757813 0,-0.2578125 0.386719,-0.2578125 0.5625,-0.2578125 v -0.3046875 c -0.292968,0 -0.855468,0.023437 -1.078125,0.023437 -0.269531,0 -0.667968,-0.011719 -0.972656,-0.023437 v 0.3046875 c 0.632813,0 0.667969,0.058594 0.796875,0.3632813 l 1.441406,3.53906249 c 0.05859,0.140625 0.07031,0.1875 0.199219,0.1875 0.128906,0 0.175781,-0.08203125 0.210938,-0.1875 z m 1.942382,0.8085937 c 0.05859,-1.4882812 0.902344,-1.734375 1.242188,-1.734375 1.019531,0 1.125,1.3476563 1.125,1.734375 z m -0.01172,0.2109375 h 2.789062 c 0.210938,0 0.246094,0 0.246094,-0.2109375 0,-0.984375 -0.539063,-1.9570312 -1.78125,-1.9570312 -1.160156,0 -2.074219,1.03125 -2.074219,2.2734375 0,1.33593749 1.042969,2.29687499 2.191406,2.29687499 1.21875,0 1.664063,-1.1015625 1.664063,-1.28906249 0,-0.1054688 -0.08203,-0.1171875 -0.128906,-0.1171875 -0.09375,0 -0.117188,0.058594 -0.128907,0.140625 -0.351562,1.01953124 -1.253906,1.01953124 -1.347656,1.01953124 -0.503906,0 -0.902344,-0.29296875 -1.125,-0.66796875 C 85.975227,-1.2882891 85.975227,-1.9445391 85.975226,-2.2961016 Z m 4.989257,-1.0078125 v -1.1015625 l -1.382812,0.1171875 v 0.3046875 c 0.691406,0 0.773437,0.070312 0.773437,0.5625 v 2.66015629 c 0,0.45703125 -0.105468,0.45703125 -0.773437,0.45703125 V 7.734375e-4 c 0.38672,-0.0117187475 0.85547,-0.0351562475 1.13672,-0.0351562475 0.398437,0 0.867187,0 1.265625,0.0351562475 V -0.30391406 h -0.210938 c -0.738281,0 -0.761719,-0.1171875 -0.761719,-0.46875 V -2.3078203 c 0,-0.984375 0.421875,-1.875 1.183594,-1.875 0.05859,0 0.08203,0 0.105469,0.011719 -0.03516,0.011719 -0.234375,0.1289063 -0.234375,0.3867188 0,0.28125 0.210937,0.4335937 0.433594,0.4335937 0.175781,0 0.421875,-0.1289062 0.421875,-0.4453125 0,-0.3164062 -0.304688,-0.609375 -0.726563,-0.609375 -0.738281,0 -1.089844,0.6679688 -1.230469,1.1015625 z m 5.554688,2.54296879 c 0.03516,0.3984375 0.304687,0.8203125 0.773437,0.8203125 0.210938,0 0.820313,-0.140625 0.820313,-0.94921875 V -1.4406328 h -0.246094 v 0.55078124 c 0,0.5859375 -0.246094,0.64453125 -0.363281,0.64453125 -0.328125,0 -0.363281,-0.45703125 -0.363281,-0.50390625 V -2.7414141 c 0,-0.4101562 0,-0.8085937 -0.363282,-1.171875 -0.386718,-0.3867187 -0.878906,-0.5507812 -1.359375,-0.5507812 -0.820312,0 -1.511718,0.46875 -1.511718,1.125 0,0.3046875 0.199218,0.46875 0.457031,0.46875 0.28125,0 0.46875,-0.1992188 0.46875,-0.4570313 0,-0.1171875 -0.05859,-0.4453125 -0.515625,-0.4570312 0.269531,-0.3515625 0.761719,-0.4570313 1.078125,-0.4570313 0.492187,0 1.054687,0.3867188 1.054687,1.2773438 v 0.3632812 c -0.503906,0.035156 -1.207031,0.058594 -1.828125,0.3632813 -0.75,0.3398437 -0.996093,0.8554687 -0.996093,1.28906249 0,0.80859375 0.960937,1.0546875 1.59375,1.0546875 0.65625,0 1.113281,-0.3984375 1.300781,-0.8671875 z m -0.07031,-1.62890629 v 0.9960938 c 0,0.94921874 -0.714843,1.28906249 -1.160156,1.28906249 -0.492187,0 -0.902344,-0.3515625 -0.902344,-0.85546875 0,-0.53906254 0.421875,-1.37109374 2.0625,-1.42968754 z m 3.952149,0.6796875 c -0.867188,0 -0.867188,-0.9960937 -0.867188,-1.2304687 0,-0.2695313 0.01172,-0.5859375 0.152344,-0.8320313 0.08203,-0.1171875 0.316404,-0.3984375 0.714844,-0.3984375 0.86719,0 0.86719,0.9960938 0.86719,1.21875 0,0.2695313 -0.0117,0.5976563 -0.16407,0.84375 -0.082,0.1171875 -0.30468,0.3984375 -0.70312,0.3984375 z m -1.160156,0.3867188 c 0,-0.035156 0,-0.2695313 0.175781,-0.46875 0.386719,0.28125 0.796875,0.3046875 0.984375,0.3046875 0.92578,0 1.60547,-0.6796875 1.60547,-1.453125 0,-0.3632813 -0.15235,-0.7382813 -0.39844,-0.9609375 0.35156,-0.3398438 0.71484,-0.3867188 0.89062,-0.3867188 0.0234,0 0.0703,0 0.10547,0 -0.11718,0.046875 -0.16406,0.1523438 -0.16406,0.2695313 0,0.1757812 0.12891,0.2929687 0.29297,0.2929687 0.0937,0 0.28125,-0.070312 0.28125,-0.2929687 0,-0.1757813 -0.11719,-0.4921875 -0.50391,-0.4921875 -0.19922,0 -0.63281,0.058594 -1.05468,0.46875 -0.42188,-0.328125 -0.84375,-0.3632813 -1.05469,-0.3632813 -0.925781,0 -1.617188,0.6914063 -1.617188,1.453125 0,0.4453125 0.222657,0.8203125 0.46875,1.03125 -0.128906,0.1523438 -0.304687,0.4804688 -0.304687,0.8203125 0,0.31640629 0.128906,0.69140629 0.433594,0.89062504 -0.597657,0.17578125 -0.914063,0.59765625 -0.914063,0.99609375 0,0.71484371 0.984375,1.26562501 2.203124,1.26562501 1.17187,0 2.20312,-0.5039063 2.20312,-1.28906251 0,-0.33984375 -0.14062,-0.85546875 -0.64453,-1.125 -0.52734,-0.28125 -1.10156,-0.28125 -1.71093,-0.28125 -0.2461,0 -0.67969,0 -0.750003,-0.0117188 -0.316406,-0.046875 -0.527343,-0.35156259 -0.527343,-0.66796869 z m 1.441406,3.1523437 c -1.007813,0 -1.699219,-0.515625 -1.699219,-1.04296871 0,-0.45703125 0.375,-0.8203125 0.820313,-0.85546875 h 0.585936 c 0.85547,0 1.96875,0 1.96875,0.85546875 0,0.53906251 -0.70313,1.04296871 -1.67578,1.04296871 z m 3.59765,-4.3359375 c 0.0586,-1.4882812 0.90235,-1.734375 1.24219,-1.734375 1.01953,0 1.125,1.3476563 1.125,1.734375 z m -0.0117,0.2109375 h 2.78906 c 0.21094,0 0.24609,0 0.24609,-0.2109375 0,-0.984375 -0.53906,-1.9570312 -1.78125,-1.9570312 -1.16015,0 -2.07422,1.03125 -2.07422,2.2734375 0,1.33593749 1.04297,2.29687499 2.19141,2.29687499 1.21875,0 1.66406,-1.1015625 1.66406,-1.28906249 0,-0.1054688 -0.082,-0.1171875 -0.1289,-0.1171875 -0.0937,0 -0.11719,0.058594 -0.12891,0.140625 -0.35156,1.01953124 -1.25391,1.01953124 -1.34766,1.01953124 -0.5039,0 -0.90234,-0.29296875 -1.125,-0.66796875 C 104.2682,-1.2882891 104.2682,-1.9445391 104.2682,-2.2961016 Z m 6.208,-0.1992187 c 0,-0.7734375 -0.11718,-1.9804688 -0.65625,-3.1054688 -0.59765,-1.21875 -1.46484,-1.875 -1.55859,-1.875 -0.0586,0 -0.10547,0.046875 -0.10547,0.1054688 0,0.035156 0,0.046875 0.19922,0.234375 0.97266,0.984375 1.53516,2.5664062 1.53516,4.640625 0,1.71093749 -0.36329,3.45703124 -1.59375,4.7226562 -0.14063,0.1171875 -0.14063,0.1289063 -0.14063,0.1640625 0,0.058594 0.0469,0.1054688 0.10547,0.1054688 0.0937,0 0.99609,-0.6796875 1.58203,-1.94531251 0.50391,-1.1015625 0.63281,-2.20312499 0.63281,-3.04687499 z m 0,0"
       style="fill:#000000;fill-opacity:1;fill-rule:nonzero;stroke:none"
       aria-label="EnsembleModel(Average)"
       transform="matrix(1.3333333,0,0,1.3333333,535.90933,82.956)" />
    <path
       id="path15"
       d="m 498.44669,-14.94435 c 0,-3.77518 12.24121,-6.83548 27.34195,-6.83548 15.10072,0 27.34193,3.0603 27.34193,6.83548 v 40.18779 c 0,-3.77516 -12.24121,-6.83548 -27.34193,-6.83548 -15.10074,0 -27.34195,3.06032 -27.34195,6.83548 z"
       style="fill:#ffc266;fill-opacity:1;fill-rule:nonzero;stroke:none"
       transform="matrix(1.3333333,0,0,-1.3333333,100.5,79.636)" />
    <path
       id="path16"
       d="m 498.44669,25.24344 c 0,3.77516 12.24121,6.83548 27.34195,6.83548 15.10072,0 27.34193,-3.06032 27.34193,-6.83548 0,-3.77516 -12.24121,-6.83548 -27.34193,-6.83548 -15.10074,0 -27.34195,3.06032 -27.34195,6.83548 z"
       style="fill:#ffad33;fill-opacity:1;fill-rule:nonzero;stroke:none"
       transform="matrix(1.3333333,0,0,-1.3333333,100.5,79.636)" />
    <path
       id="path17"
       d="m 498.44669,-14.94435 c 0,-3.77518 12.24121,-6.83548 27.34195,-6.83548 15.10072,0 27.34193,3.0603 27.34193,6.83548 v 40.18779 c 0,3.77516 -12.24121,6.83548 -27.34193,6.83548 -15.10074,0 -27.34195,-3.06032 -27.34195,-6.83548 z m 0,40.18779 c 0,-3.77516 12.24121,-6.83548 27.34195,-6.83548 15.10072,0 27.34193,3.06032 27.34193,6.83548"
       style="fill:none;stroke:#000000;stroke-width:0.3985;stroke-linecap:butt;stroke-linejoin:miter;stroke-miterlimit:10;stroke-dasharray:none;stroke-opacity:1"
       transform="matrix(1.3333333,0,0,-1.3333333,100.5,79.636)" />
    <path
       id="path18"
       d="M 3.4811875,-3.8663516 2.2038438,-4.1710391 C 1.58275,-4.3233828 1.1960313,-4.8624453 1.1960313,-5.4366641 c 0,-0.703125 0.5390625,-1.3007812 1.3125,-1.3007812 1.6640625,0 1.8867187,1.6289062 1.9453125,2.0742187 0.011719,0.058594 0.011719,0.1171875 0.1171875,0.1171875 0.1289062,0 0.1289062,-0.046875 0.1289062,-0.234375 v -2.0039062 c 0,-0.1640625 0,-0.234375 -0.1054687,-0.234375 -0.070312,0 -0.082031,0.011719 -0.1523438,0.1289062 l -0.3515625,0.5625 c -0.2929687,-0.28125 -0.703125,-0.6914062 -1.59375,-0.6914062 -1.1015625,0 -1.93359375,0.8789062 -1.93359375,1.9335937 0,0.8203125 0.52734375,1.546875 1.30078125,1.8164063 0.1054688,0.046875 0.6210938,0.1640625 1.3125,0.328125 0.2695313,0.070312 0.5742188,0.140625 0.84375,0.515625 0.2109375,0.2578125 0.3164063,0.5859375 0.3164063,0.9140625 0,0.70312499 -0.5039063,1.41796874 -1.3359375,1.41796874 -0.2929688,0 -1.0429688,-0.046875 -1.5703125,-0.5390625 C 0.84446875,-1.1593203 0.82103125,-1.8038516 0.8093125,-2.1554141 0.79759375,-2.2608828 0.7155625,-2.2608828 0.692125,-2.2608828 c -0.12890625,0 -0.12890625,0.070312 -0.12890625,0.2460937 v 1.99218754 c 0,0.17578125 0,0.24609375 0.10546875,0.24609375 0.0703125,0 0.0820313,-0.0234375 0.15234375,-0.12890625 0,-0.01171875 0.0234375,-0.046875 0.35156255,-0.57421875 0.3164062,0.33984375 0.9492187,0.703125 1.8398437,0.703125 1.1601563,0 1.9570313,-0.984375 1.9570313,-2.07421879 0,-0.9960937 -0.65625,-1.8164062 -1.4882813,-2.015625 z m 3.2138672,1.6992188 c 0,-1.6289063 0.8203125,-2.0507813 1.3476562,-2.0507813 0.09375,0 0.7148438,0.011719 1.0664063,0.375 -0.4101563,0.023437 -0.46875,0.328125 -0.46875,0.4570313 0,0.2578125 0.1875,0.4570312 0.4570312,0.4570312 0.2578125,0 0.4570313,-0.1640625 0.4570313,-0.46875 0,-0.6796875 -0.75,-1.0664062 -1.5234375,-1.0664062 -1.2421875,0 -2.15625,1.078125 -2.15625,2.3085937 0,1.27734379 0.984375,2.26171879 2.1445312,2.26171879 1.3359375,0 1.6523438,-1.19531249 1.6523438,-1.28906249 0,-0.1054688 -0.1054688,-0.1054688 -0.1289063,-0.1054688 -0.09375,0 -0.1171875,0.046875 -0.1289062,0.1054688 -0.2929688,0.92578124 -0.9375,1.04296874 -1.3125,1.04296874 -0.5273438,0 -1.40625,-0.421875 -1.40625,-2.02734374 z m 7.9541013,0.035156 c 0,-1.2773437 -0.996093,-2.3320312 -2.191406,-2.3320312 -1.253906,0 -2.214844,1.0898437 -2.214844,2.3320312 0,1.28906254 1.03125,2.23828129 2.203125,2.23828129 1.207032,0 2.203125,-0.97265625 2.203125,-2.23828129 z m -2.191406,1.99218754 c -0.433594,0 -0.867187,-0.2109375 -1.136719,-0.66796875 -0.257812,-0.43359379 -0.257812,-1.04296879 -0.257812,-1.40624999 0,-0.3867188 0,-0.9257813 0.246094,-1.359375 0.269531,-0.4570313 0.738281,-0.6679688 1.136718,-0.6679688 0.433594,0 0.867188,0.2226563 1.125,0.6445313 0.257813,0.4335937 0.257813,1.0078125 0.257813,1.3828125 0,0.3632812 0,0.9023437 -0.222656,1.33593749 -0.222657,0.4453125 -0.65625,0.73828125 -1.148438,0.73828125 z m 4.151367,-3.16406254 v -1.1015625 l -1.382812,0.1171875 v 0.3046875 c 0.691406,0 0.773437,0.070312 0.773437,0.5625 v 2.66015629 c 0,0.45703125 -0.105469,0.45703125 -0.773437,0.45703125 V 8.359375e-4 C 15.613023,-0.01088281 16.081773,-0.03432031 16.363023,-0.03432031 c 0.398438,0 0.867188,0 1.265625,0.0351562475 V -0.30385156 h -0.210937 c -0.738281,0 -0.761719,-0.1171875 -0.761719,-0.46875 V -2.3077578 c 0,-0.984375 0.421875,-1.875 1.183594,-1.875 0.05859,0 0.08203,0 0.105469,0.011719 -0.03516,0.011719 -0.234375,0.1289063 -0.234375,0.3867188 0,0.28125 0.210937,0.4335937 0.433593,0.4335937 0.175782,0 0.421875,-0.1289062 0.421875,-0.4453125 0,-0.3164062 -0.304687,-0.609375 -0.726562,-0.609375 -0.738281,0 -1.089844,0.6679688 -1.230469,1.101562 z m 3.351563,0.796875 c 0.05859,-1.4882812 0.902343,-1.734375 1.242187,-1.734375 1.019531,0 1.125,1.3476563 1.125,1.734375 z m -0.01172,0.2109375 h 2.789062 c 0.210938,0 0.246094,0 0.246094,-0.2109375 0,-0.984375 -0.539062,-1.9570312 -1.78125,-1.9570312 -1.160156,0 -2.074219,1.03125 -2.074219,2.2734375 0,1.33593749 1.042969,2.29687499 2.191407,2.29687499 1.21875,0 1.664062,-1.1015625 1.664062,-1.28906249 0,-0.1054688 -0.08203,-0.1171875 -0.128906,-0.1171875 -0.09375,0 -0.117188,0.058594 -0.128906,0.140625 -0.351563,1.01953124 -1.253907,1.01953124 -1.347657,1.01953124 -0.503906,0 -0.902343,-0.29296875 -1.125,-0.66796875 C 19.948961,-1.2882266 19.948961,-1.9444766 19.948961,-2.2960391 Z m 6.993164,-4.5117187 v 0.3164062 H 27.1765 c 0.773438,0 0.785156,0.1054688 0.785156,0.46875 v 5.25000004 c 0,0.3515625 -0.01172,0.46875 -0.785156,0.46875 H 26.942125 V 8.359375e-4 h 3.644531 c 1.675782,0 3.046875,-1.4765625375 3.046875,-3.3515625375 0,-1.8867187 -1.347656,-3.4570312 -3.046875,-3.4570312 z m 2.367188,6.50390624 c -0.46875,0 -0.492188,-0.0703125 -0.492188,-0.3984375 V -6.0929141 c 0,-0.328125 0.02344,-0.3984375 0.492188,-0.3984375 h 0.996093 c 0.621094,0 1.300782,0.2109375 1.816407,0.9257813 0.421875,0.5859375 0.515625,1.4414062 0.515625,2.2148437 0,1.1132813 -0.1875,1.7109375 -0.550782,2.1914063 -0.199218,0.26953124 -0.761718,0.85546874 -1.769531,0.85546874 z m 8.208984,-0.45703125 c 0.03516,0.3984375 0.304687,0.8203125 0.773437,0.8203125 0.210938,0 0.820313,-0.140625 0.820313,-0.94921875 V -1.4405703 h -0.246094 v 0.55078124 c 0,0.5859375 -0.246094,0.64453125 -0.363281,0.64453125 -0.328125,0 -0.363281,-0.45703125 -0.363281,-0.50390625 V -2.7413516 c 0,-0.4101562 0,-0.8085937 -0.363282,-1.171875 -0.386718,-0.3867187 -0.878906,-0.5507812 -1.359375,-0.5507812 -0.820312,0 -1.511718,0.46875 -1.511718,1.125 0,0.3046875 0.199218,0.46875 0.457031,0.46875 0.28125,0 0.46875,-0.1992188 0.46875,-0.4570313 0,-0.1171875 -0.05859,-0.4453125 -0.515625,-0.4570312 0.269531,-0.3515625 0.761719,-0.4570313 1.078125,-0.4570313 0.492187,0 1.054687,0.3867188 1.054687,1.2773438 v 0.3632812 c -0.503906,0.035156 -1.207031,0.058594 -1.828125,0.3632813 -0.75,0.3398437 -0.996093,0.8554687 -0.996093,1.28906249 0,0.80859375 0.960937,1.0546875 1.59375,1.0546875 0.65625,0 1.113281,-0.3984375 1.300781,-0.8671877 z m -0.07031,-1.62890629 v 0.9960938 c 0,0.94921874 -0.714843,1.28906249 -1.160156,1.28906249 -0.492187,0 -0.902344,-0.3515625 -0.902344,-0.85546875 0,-0.53906254 0.421875,-1.37109374 2.0625,-1.42968754 z m 3.457032,-1.59375 h 1.429687 v -0.3046875 h -1.429687 v -1.8398437 h -0.246094 c -0.01172,0.8203125 -0.316406,1.8867187 -1.289063,1.921875 v 0.2226562 h 0.84375 v 2.7539063 c 0,1.21874999 0.925782,1.33593749 1.289063,1.33593749 0.703125,0 0.984375,-0.703125 0.984375,-1.33593749 v -0.5742188 h -0.246094 v 0.5507813 c 0,0.73828124 -0.304687,1.11328124 -0.667969,1.11328124 -0.667968,0 -0.667968,-0.90234374 -0.667968,-1.07812504 z m 5.469726,3.22265629 c 0.03516,0.3984375 0.304688,0.8203125 0.773438,0.8203125 0.210937,0 0.820312,-0.140625 0.820312,-0.94921875 V -1.4405703 H 47.7224 v 0.55078124 c 0,0.5859375 -0.246093,0.64453125 -0.363281,0.64453125 -0.328125,0 -0.363281,-0.45703125 -0.363281,-0.50390625 V -2.7413516 c 0,-0.4101562 0,-0.8085937 -0.363281,-1.171875 -0.386719,-0.3867187 -0.878907,-0.5507812 -1.359375,-0.5507812 -0.820313,0 -1.511719,0.46875 -1.511719,1.125 0,0.3046875 0.199219,0.46875 0.457031,0.46875 0.28125,0 0.46875,-0.1992188 0.46875,-0.4570313 0,-0.1171875 -0.05859,-0.4453125 -0.515625,-0.4570312 0.269531,-0.3515625 0.761719,-0.4570313 1.078125,-0.4570313 0.492188,0 1.054688,0.3867188 1.054688,1.2773438 v 0.3632812 c -0.503907,0.035156 -1.207032,0.058594 -1.828125,0.3632813 -0.75,0.3398437 -0.996094,0.8554687 -0.996094,1.28906249 0,0.80859375 0.960937,1.0546875 1.59375,1.0546875 0.65625,0 1.113281,-0.3984375 1.300781,-0.8671877 z M 46.30443,-2.3897891 v 0.9960938 c 0,0.94921874 -0.714844,1.28906249 -1.160157,1.28906249 -0.492187,0 -0.902343,-0.3515625 -0.902343,-0.85546875 0,-0.53906254 0.421875,-1.37109374 2.0625,-1.42968754 z m 0,0"
       style="fill:#000000;fill-opacity:1;fill-rule:nonzero;stroke:none"
       aria-label="ScoreData"
       transform="matrix(1.3333333,0,0,1.3333333,769.51467,84.174667)" />
    <path
       id="path19"
       d="M 32.20395,10.3813 84.99707,27.40227"
       style="fill:none;stroke:#000000;stroke-width:0.79701;stroke-linecap:butt;stroke-linejoin:miter;stroke-miterlimit:10;stroke-dasharray:none;stroke-opacity:1"
       transform="matrix(1.3333333,0,0,-1.3333333,100.5,79.636)" />
    <path
       id="path20"
       d="M 5.44046,0 1.28699,1.5706 2.66432,0 1.28699,-1.5706 Z"
       style="fill:#000000;fill-opacity:1;fill-rule:nonzero;stroke:#000000;stroke-width:0.79701;stroke-linecap:butt;stroke-linejoin:miter;stroke-miterlimit:10;stroke-dasharray:none;stroke-opacity:1"
       transform="matrix(1.2689867,-0.40912,-0.40912,-1.2689867,210.70128,44.108133)" />
    <path
       id="path21"
       d="M 32.20491,-10.06596 84.98615,-26.56653"
       style="fill:none;stroke:#000000;stroke-width:0.79701;stroke-linecap:butt;stroke-linejoin:miter;stroke-miterlimit:10;stroke-dasharray:none;stroke-opacity:1"
       transform="matrix(1.3333333,0,0,-1.3333333,100.5,79.636)" />
    <path
       id="path22"
       d="M 5.44046,0 1.28699,1.5706 2.66432,0 1.28699,-1.5706 Z"
       style="fill:#000000;fill-opacity:1;fill-rule:nonzero;stroke:#000000;stroke-width:0.79701;stroke-linecap:butt;stroke-linejoin:miter;stroke-miterlimit:10;stroke-dasharray:none;stroke-opacity:1"
       transform="matrix(1.27252,0.39781333,0.39781333,-1.27252,210.67801,114.07743)" />
    <path
       id="path23"
       d="m 157.33974,39.68573 h 52.58328"
       style="fill:none;stroke:#000000;stroke-width:0.79701;stroke-linecap:butt;stroke-linejoin:miter;stroke-miterlimit:10;stroke-dasharray:none;stroke-opacity:1"
       transform="matrix(1.3333333,0,0,-1.3333333,100.5,79.636)" />
    <path
       id="path24"
       d="M 5.44046,0 1.28699,1.5706 2.66432,0 1.28699,-1.5706 Z"
       style="fill:#000000;fill-opacity:1;fill-rule:nonzero;stroke:#000000;stroke-width:0.79701;stroke-linecap:butt;stroke-linejoin:miter;stroke-miterlimit:10;stroke-dasharray:none;stroke-opacity:1"
       transform="matrix(1.3333333,0,0,-1.3333333,377.1106,26.721693)" />
    <path
       id="path25"
       d="m 165.19006,-39.685 h 52.58329"
       style="fill:none;stroke:#000000;stroke-width:0.79701;stroke-linecap:butt;stroke-linejoin:miter;stroke-miterlimit:10;stroke-dasharray:none;stroke-opacity:1"
       transform="matrix(1.3333333,0,0,-1.3333333,100.5,79.636)" />
    <path
       id="path26"
       d="M 5.44046,0 1.28699,1.5706 2.66432,0 1.28699,-1.5706 Z"
       style="fill:#000000;fill-opacity:1;fill-rule:nonzero;stroke:#000000;stroke-width:0.79701;stroke-linecap:butt;stroke-linejoin:miter;stroke-miterlimit:10;stroke-dasharray:none;stroke-opacity:1"
       transform="matrix(1.3333333,0,0,-1.3333333,387.57769,132.54933)" />
    <path
       id="path27"
       d="M 253.43527,34.50307 324.6539,15.43596"
       style="fill:none;stroke:#000000;stroke-width:0.79701;stroke-linecap:butt;stroke-linejoin:miter;stroke-miterlimit:10;stroke-dasharray:none;stroke-opacity:1"
       transform="matrix(1.3333333,0,0,-1.3333333,100.5,79.636)" />
    <path
       id="path28"
       d="M 5.44046,0 1.28699,1.5706 2.66432,0 1.28699,-1.5706 Z"
       style="fill:#000000;fill-opacity:1;fill-rule:nonzero;stroke:#000000;stroke-width:0.79701;stroke-linecap:butt;stroke-linejoin:miter;stroke-miterlimit:10;stroke-dasharray:none;stroke-opacity:1"
       transform="matrix(1.28796,0.3448,0.3448,-1.28796,530.19693,58.204747)" />
    <path
       id="path29"
       d="m 261.21098,-34.23354 66.30092,18.74323"
       style="fill:none;stroke:#000000;stroke-width:0.79701;stroke-linecap:butt;stroke-linejoin:miter;stroke-miterlimit:10;stroke-dasharray:none;stroke-opacity:1"
       transform="matrix(1.3333333,0,0,-1.3333333,100.5,79.636)" />
    <path
       id="path30"
       d="M 5.44046,0 1.28699,1.5706 2.66432,0 1.28699,-1.5706 Z"
       style="fill:#000000;fill-opacity:1;fill-rule:nonzero;stroke:#000000;stroke-width:0.79701;stroke-linecap:butt;stroke-linejoin:miter;stroke-miterlimit:10;stroke-dasharray:none;stroke-opacity:1"
       transform="matrix(1.283,-0.36266667,-0.36266667,-1.283,534.01984,101.18375)" />
    <path
       id="path31"
       d="m 441.5531,3.5e-4 52.58328,2e-4"
       style="fill:none;stroke:#000000;stroke-width:0.79701;stroke-linecap:butt;stroke-linejoin:miter;stroke-miterlimit:10;stroke-dasharray:none;stroke-opacity:1"
       transform="matrix(1.3333333,0,0,-1.3333333,100.5,79.636)" />
    <path
       id="path32"
       d="M 5.44046,0 1.28699,1.5706 2.66432,0 1.28699,-1.5706 Z"
       style="fill:#000000;fill-opacity:1;fill-rule:nonzero;stroke:#000000;stroke-width:0.79701;stroke-linecap:butt;stroke-linejoin:miter;stroke-miterlimit:10;stroke-dasharray:none;stroke-opacity:1"
       transform="matrix(1.3333333,0,0,-1.3333333,756.06173,79.635267)" />
  </g>
</svg>
