<?xml version="1.0" encoding="UTF-8" standalone="no"?>
<!-- Created with Inkscape (http://www.inkscape.org/) -->

<svg
   version="1.1"
   id="svg1"
   width="446.85199"
   height="228.36533"
   viewBox="0 0 446.85199 228.36533"
   xmlns="http://www.w3.org/2000/svg"
   xmlns:svg="http://www.w3.org/2000/svg">
  <defs
     id="defs1" />
  <g
     id="g1">
    <path
       id="path1"
       d="M -28.85022,-14.17339 H 28.85022 V 14.1734 h -57.70044 z"
       style="fill:#70c1fa;fill-opacity:1;fill-rule:nonzero;stroke:#000000;stroke-width:0.3985;stroke-linecap:butt;stroke-linejoin:miter;stroke-miterlimit:10;stroke-dasharray:none;stroke-opacity:1"
       transform="matrix(1.3333333,0,0,-1.3333333,225.64,19.162667)" />
    <path
       id="path2"
       d="m 2.2267344,-3.5153437 v -2.578125 c 0,-0.234375 0,-0.3515625 0.2226562,-0.3867188 0.1054688,-0.011719 0.3867188,-0.011719 0.5859375,-0.011719 0.9023438,0 2.015625,0.035156 2.015625,1.4765625 0,0.6914062 -0.234375,1.5 -1.7109375,1.5 z m 2.109375,0.1289062 c 0.9609375,-0.234375 1.7460937,-0.84375 1.7460937,-1.6289062 0,-0.9492188 -1.1367187,-1.7929688 -2.6015625,-1.7929688 H 0.35173438 v 0.3164063 h 0.234375 c 0.77343752,0 0.78515622,0.1054687 0.78515622,0.46875 v 5.24999995 c 0,0.3515625 -0.011719,0.46875 -0.78515622,0.46875 h -0.234375 V 2.8125e-4 C 0.70329688,-0.034875 1.4181406,-0.034875 1.8048594,-0.034875 c 0.3867187,0 1.0898437,0 1.453125,0.03515625 v -0.3046875 h -0.234375 c -0.7734375,0 -0.796875,-0.1171875 -0.796875,-0.46875 V -3.2926875 h 1.1484375 c 0.1640625,0 0.5742187,0 0.9257812,0.3398438 0.3867188,0.3515625 0.3867188,0.65625 0.3867188,1.3242187 0,0.65625 0,1.0546875 0.3984375,1.4296875 0.4101562,0.36328125 0.9609375,0.421875 1.2539062,0.421875 0.7851563,0 0.9492188,-0.8203125 0.9492188,-1.1015625 0,-0.0585938 0,-0.1640625 -0.1289063,-0.1640625 -0.1054687,0 -0.1054687,0.0820313 -0.1171875,0.15234375 -0.058594,0.71484375 -0.4101562,0.890625 -0.65625,0.890625 -0.4921875,0 -0.5742187,-0.50390625 -0.703125,-1.42968745 l -0.140625,-0.796875 C 5.3673594,-2.8708125 4.8868906,-3.1989375 4.3361094,-3.3864375 Z m 7.6845706,1.2539063 c 0,-1.2773438 -0.996094,-2.3320313 -2.1914066,-2.3320313 -1.2539062,0 -2.2148437,1.0898438 -2.2148437,2.3320313 0,1.28906245 1.03125,2.2382812 2.203125,2.2382812 1.2070313,0 2.2031253,-0.97265625 2.2031253,-2.2382812 z m -2.1914066,1.99218745 c -0.4335937,0 -0.8671875,-0.2109375 -1.1367187,-0.66796875 -0.2578125,-0.4335937 -0.2578125,-1.0429687 -0.2578125,-1.40625 0,-0.3867187 0,-0.9257812 0.2460937,-1.359375 0.2695313,-0.4570312 0.7382813,-0.6679687 1.1367188,-0.6679687 0.4335933,0 0.8671873,0.2226562 1.1250003,0.6445312 0.257812,0.4335938 0.257812,1.0078125 0.257812,1.3828125 0,0.3632813 0,0.9023438 -0.222656,1.3359375 -0.222656,0.4453125 -0.65625,0.73828125 -1.1484376,0.73828125 z M 14.036305,-3.9840937 h 1.429687 V -4.2887812 H 14.036305 V -6.128625 h -0.246094 c -0.01172,0.8203125 -0.316406,1.8867188 -1.289063,1.921875 v 0.2226563 h 0.84375 v 2.7539062 c 0,1.21875 0.925782,1.3359375 1.289063,1.3359375 0.703125,0 0.984375,-0.703125 0.984375,-1.3359375 v -0.5742187 h -0.246094 v 0.5507812 c 0,0.73828125 -0.304687,1.11328125 -0.667969,1.11328125 -0.667968,0 -0.667968,-0.90234375 -0.667968,-1.07812495 z m 3.254883,0.5625 v 2.6601562 c 0,0.45703125 -0.117188,0.45703125 -0.785157,0.45703125 v 0.3046875 c 0.351563,-0.01171875 0.855469,-0.03515625 1.125,-0.03515625 0.257813,0 0.785157,0.0234375 1.113282,0.03515625 v -0.3046875 c -0.65625,0 -0.773438,0 -0.773438,-0.45703125 v -1.828125 c 0,-1.03125 0.714844,-1.59375 1.347656,-1.59375 0.621094,0 0.738282,0.5390625 0.738282,1.1015625 v 2.3203125 c 0,0.45703125 -0.117188,0.45703125 -0.773438,0.45703125 v 0.3046875 c 0.339844,-0.01171875 0.855469,-0.03515625 1.125,-0.03515625 0.257813,0 0.773438,0.0234375 1.113281,0.03515625 v -0.3046875 c -0.515625,0 -0.773437,0 -0.785156,-0.3046875 V -2.5075312 c 0,-0.8554688 0,-1.171875 -0.304687,-1.5234375 -0.140625,-0.1757813 -0.46875,-0.375 -1.042969,-0.375 -0.726563,0 -1.195313,0.4335937 -1.476563,1.0546875 v -1.0546875 l -1.40625,0.1171875 v 0.3046875 c 0.703125,0 0.785157,0.070312 0.785157,0.5625 z m 9.120117,1.2890625 c 0,-1.2773438 -0.996094,-2.3320313 -2.191407,-2.3320313 -1.253906,0 -2.214843,1.0898438 -2.214843,2.3320313 0,1.28906245 1.03125,2.2382812 2.203125,2.2382812 1.207031,0 2.203125,-0.97265625 2.203125,-2.2382812 z m -2.191407,1.99218745 c -0.433593,0 -0.867187,-0.2109375 -1.136718,-0.66796875 -0.257813,-0.4335937 -0.257813,-1.0429687 -0.257813,-1.40625 0,-0.3867187 0,-0.9257812 0.246094,-1.359375 0.269531,-0.4570312 0.738281,-0.6679687 1.136719,-0.6679687 0.433593,0 0.867187,0.2226562 1.125,0.6445312 0.257812,0.4335938 0.257812,1.0078125 0.257812,1.3828125 0,0.3632813 0,0.9023438 -0.222656,1.3359375 -0.222656,0.4453125 -0.65625,0.73828125 -1.148438,0.73828125 z M 30.77068,-0.5505 V 0.10575 L 32.235523,2.8125e-4 v -0.3046875 c -0.703125,0 -0.773437,-0.0703125 -0.773437,-0.5625 V -6.9137812 l -1.441406,0.1054687 v 0.3164063 c 0.703125,0 0.785156,0.070312 0.785156,0.5507812 v 2.15625 c -0.292969,-0.3632812 -0.726563,-0.6210937 -1.265625,-0.6210937 -1.171875,0 -2.214844,0.984375 -2.214844,2.2617187 0,1.265625 0.972656,2.25 2.109375,2.25 0.644531,0 1.089844,-0.33984375 1.335938,-0.65625 z m 0,-2.671875 v 2.0507813 c 0,0.1757812 0,0.1992187 -0.105469,0.3632812 -0.304688,0.48046875 -0.75,0.703125 -1.183594,0.703125 -0.445312,0 -0.796875,-0.2578125 -1.042969,-0.64453125 C 28.180836,-1.159875 28.14568,-1.722375 28.14568,-2.1325312 c 0,-0.3632813 0.02344,-0.9609375 0.316406,-1.4179688 0.210937,-0.3046875 0.585937,-0.6328125 1.125,-0.6328125 0.351562,0 0.761719,0.1523438 1.078125,0.5976563 0.105469,0.1640625 0.105469,0.1875 0.105469,0.3632812 z m 3.776367,3.2109375 c 0,-0.6328125 -0.246094,-1.0429687 -0.644531,-1.0429687 -0.351563,0 -0.527344,0.2695312 -0.527344,0.5273437 0,0.2578125 0.175781,0.52734375 0.527344,0.52734375 0.164062,0 0.28125,-0.05859375 0.375,-0.140625 l 0.02344,-0.0234375 c 0.01172,0 0.02344,0.0117188 0.02344,0.15234375 0,0.64453125 -0.28125,1.2421875 -0.714844,1.7109375 -0.05859,0.058594 -0.07031,0.070312 -0.07031,0.1171875 0,0.070312 0.04687,0.1054688 0.09375,0.1054688 0.117188,0 0.914063,-0.7851563 0.914063,-1.9335938 z m 6.366211,-6.6679687 c -0.08203,-0.1171875 -0.09375,-0.1289063 -0.28125,-0.1289063 h -1.699219 v 0.3164063 h 0.292969 c 0.140625,0 0.339844,0.011719 0.492187,0.011719 0.234375,0.035156 0.246094,0.046875 0.246094,0.234375 v 5.203125 c 0,0.26953125 0,0.73828125 -1.03125,0.73828125 V 2.8125e-4 C 39.284352,-0.0114375 39.76482,-0.034875 40.104664,-0.034875 c 0.328125,0 0.808594,0.0234375 1.160156,0.03515625 v -0.3046875 c -1.03125,0 -1.03125,-0.46875 -1.03125,-0.73828125 V -6.222375 c 0.05859,0.046875 0.07031,0.058594 0.105469,0.1171875 l 4.066406,5.9765625 c 0.08203,0.1171875 0.09375,0.12890625 0.164063,0.12890625 0.140625,0 0.140625,-0.0703125 0.140625,-0.2578125 V -5.753625 c 0,-0.2695312 0,-0.7382812 1.03125,-0.7382812 v -0.3164063 c -0.351563,0.011719 -0.84375,0.035156 -1.171875,0.035156 -0.328125,0 -0.820313,-0.023437 -1.160156,-0.035156 v 0.3164063 c 1.019531,0 1.019531,0.46875 1.019531,0.7382812 v 4.2539063 z m 8.094726,0.3046875 c 0,-0.234375 0,-0.2578125 -0.234375,-0.2578125 -0.609375,0.6328125 -1.488281,0.6328125 -1.804687,0.6328125 v 0.3164062 c 0.199219,0 0.785156,0 1.300781,-0.2578125 v 5.15625 c 0,0.3515625 -0.03516,0.48046875 -0.925781,0.48046875 H 47.027516 V 2.8125e-4 C 47.379078,-0.034875 48.234547,-0.034875 48.632984,-0.034875 c 0.398438,0 1.265625,0 1.617188,0.03515625 v -0.3046875 h -0.316406 c -0.902344,0 -0.925782,-0.1171875 -0.925782,-0.48046875 z m 0,0"
       style="fill:#000000;fill-opacity:1;fill-rule:nonzero;stroke:none"
       aria-label="Rotnod,N1"
       transform="matrix(1.3333333,0,0,1.3333333,191.60133,22.484)" />
    <path
       id="path3"
       d="m -108.61989,-85.4389 h 45.35507 v 28.34679 h -45.35507 z"
       style="fill:#ffc266;fill-opacity:1;fill-rule:nonzero;stroke:#000000;stroke-width:0.3985;stroke-linecap:butt;stroke-linejoin:miter;stroke-miterlimit:10;stroke-dasharray:none;stroke-opacity:1"
       transform="matrix(1.3333333,0,0,-1.3333333,225.64,19.162667)" />
    <path
       id="path4"
       d="m 2.3090937,-6.6786953 c -0.082031,-0.1171875 -0.09375,-0.1289063 -0.28125,-0.1289063 H 0.328625 v 0.3164063 h 0.29296875 c 0.140625,0 0.33984375,0.011719 0.49218745,0.011719 0.234375,0.035156 0.2460938,0.046875 0.2460938,0.234375 v 5.203125 c 0,0.26953129 0,0.73828129 -1.03125,0.73828129 V 9.921875e-4 C 0.6801875,-0.01072656 1.1606562,-0.03416406 1.5005,-0.03416406 c 0.328125,0 0.8085937,0.0234375 1.1601562,0.0351562475 V -0.30369531 c -1.03125,0 -1.03125,-0.46875 -1.03125,-0.73828129 v -5.1796875 c 0.058594,0.046875 0.070312,0.058594 0.1054688,0.1171875 l 4.0664062,5.97656254 c 0.082031,0.1171875 0.09375,0.1289062475 0.1640625,0.1289062475 0.140625,0 0.140625,-0.0703124975 0.140625,-0.2578124975 V -5.7529141 c 0,-0.2695312 0,-0.7382812 1.03125,-0.7382812 v -0.3164063 c -0.3515625,0.011719 -0.84375,0.035156 -1.171875,0.035156 -0.328125,0 -0.8203125,-0.023437 -1.1601562,-0.035156 v 0.3164063 c 1.0195312,0 1.0195312,0.46875 1.0195312,0.7382812 v 4.2539063 z m 6.4277344,5.91796874 1.0546875,-1.03125004 c 1.5585934,-1.3710937 2.1562504,-1.9101562 2.1562504,-2.90625 0,-1.1367187 -0.902344,-1.9335937 -2.1210941,-1.9335937 -1.125,0 -1.8515625,0.9140625 -1.8515625,1.8046875 0,0.5507812 0.4921875,0.5507812 0.5273437,0.5507812 0.1640625,0 0.515625,-0.1171875 0.515625,-0.5273437 0,-0.2578125 -0.1875,-0.515625 -0.5273437,-0.515625 -0.082031,0 -0.1054688,0 -0.1289063,0.011719 0.2226563,-0.6445312 0.7617188,-1.0195312 1.3359375,-1.0195312 0.9140624,0 1.3359374,0.8085937 1.3359374,1.6289062 0,0.796875 -0.492187,1.5820313 -1.0429686,2.203125 L 8.0805781,-0.36228906 C 7.9751094,-0.25682031 7.9751094,-0.23338281 7.9751094,9.921875e-4 H 11.666516 L 11.947766,-1.7333828 h -0.257813 c -0.04687,0.3046875 -0.117187,0.73828124 -0.210937,0.89062499 -0.07031,0.0820313 -0.726563,0.0820313 -0.949219,0.0820313 z m 0,0"
       style="fill:#000000;fill-opacity:1;fill-rule:nonzero;stroke:none"
       aria-label="N2"
       transform="matrix(1.3333333,0,0,1.3333333,102.74933,118.72133)" />
    <path
       id="path5"
       d="m 63.26482,-85.4389 h 45.35507 v 28.34679 H 63.26482 Z"
       style="fill:#ffc266;fill-opacity:1;fill-rule:nonzero;stroke:#000000;stroke-width:0.3985;stroke-linecap:butt;stroke-linejoin:miter;stroke-miterlimit:10;stroke-dasharray:none;stroke-opacity:1"
       transform="matrix(1.3333333,0,0,-1.3333333,225.64,19.162667)" />
    <path
       id="path6"
       d="m 2.3079297,-6.6786953 c -0.082031,-0.1171875 -0.09375,-0.1289063 -0.28125,-0.1289063 H 0.32746094 v 0.3164063 h 0.29296875 c 0.140625,0 0.33984375,0.011719 0.49218751,0.011719 0.234375,0.035156 0.2460937,0.046875 0.2460937,0.234375 v 5.203125 c 0,0.26953129 0,0.73828129 -1.03124996,0.73828129 V 9.921875e-4 C 0.67902344,-0.01072656 1.1594922,-0.03416406 1.4993359,-0.03416406 c 0.328125,0 0.8085938,0.0234375 1.1601563,0.0351562475 V -0.30369531 c -1.03125,0 -1.03125,-0.46875 -1.03125,-0.73828129 v -5.1796875 c 0.058594,0.046875 0.070312,0.058594 0.1054687,0.1171875 l 4.0664063,5.97656254 c 0.082031,0.1171875 0.09375,0.1289062475 0.1640625,0.1289062475 0.140625,0 0.140625,-0.0703124975 0.140625,-0.2578124975 V -5.7529141 c 0,-0.2695312 0,-0.7382812 1.03125,-0.7382812 v -0.3164063 c -0.3515625,0.011719 -0.84375,0.035156 -1.171875,0.035156 -0.328125,0 -0.8203125,-0.023437 -1.1601563,-0.035156 v 0.3164063 c 1.0195313,0 1.0195313,0.46875 1.0195313,0.7382812 v 4.2539063 z M 10.3675,-3.5029141 c 0.808594,-0.2695312 1.394531,-0.9726562 1.394531,-1.7578125 0,-0.8203125 -0.878906,-1.3710937 -1.8398435,-1.3710937 -1.0078125,0 -1.7578125,0.5976562 -1.7578125,1.3476562 0,0.3398438 0.2109375,0.5273438 0.5039063,0.5273438 0.3046875,0 0.5039062,-0.2226563 0.5039062,-0.515625 0,-0.4921875 -0.46875,-0.4921875 -0.609375,-0.4921875 C 8.8675,-6.2568203 9.52375,-6.3857266 9.8870313,-6.3857266 c 0.4101567,0 0.9492187,0.2226563 0.9492187,1.1132813 0,0.1289062 -0.01172,0.703125 -0.269531,1.1367187 -0.304688,0.4804688 -0.6445315,0.515625 -0.8906252,0.515625 -0.082031,0.011719 -0.3164063,0.035156 -0.3867188,0.035156 -0.082031,0.011719 -0.1523437,0.023437 -0.1523437,0.1171875 0,0.1171875 0.070312,0.1171875 0.234375,0.1171875 h 0.4453125 c 0.8085942,0 1.1835942,0.6679687 1.1835942,1.6523437 0,1.34765629 -0.691407,1.64062504 -1.1250005,1.64062504 -0.4335937,0 -1.171875,-0.17578125 -1.5234375,-0.76171875 0.3515625,0.0585938 0.65625,-0.1640625 0.65625,-0.53906249 0,-0.3632813 -0.2695312,-0.5625 -0.5625,-0.5625 -0.234375,0 -0.5507812,0.140625 -0.5507812,0.5742187 0,0.91406254 0.9257812,1.57031254 2.0039062,1.57031254 1.21875,0 2.121094,-0.9140625 2.121094,-1.92187504 0,-0.8203125 -0.621094,-1.59375 -1.652344,-1.8046872 z m 0,0"
       style="fill:#000000;fill-opacity:1;fill-rule:nonzero;stroke:none"
       aria-label="N3"
       transform="matrix(1.3333333,0,0,1.3333333,331.92667,118.72133)" />
    <path
       id="path7"
       d="m -165.71202,-156.70444 h 45.35507 v 28.34679 h -45.35507 z"
       style="fill:#ffc266;fill-opacity:1;fill-rule:nonzero;stroke:#000000;stroke-width:0.3985;stroke-linecap:butt;stroke-linejoin:miter;stroke-miterlimit:10;stroke-dasharray:none;stroke-opacity:1"
       transform="matrix(1.3333333,0,0,-1.3333333,225.64,19.162667)" />
    <path
       id="path8"
       d="m 2.3092734,-6.6809766 c -0.082031,-0.1171875 -0.09375,-0.1289062 -0.28125,-0.1289062 H 0.32880469 v 0.3164062 h 0.29296875 c 0.140625,0 0.33984375,0.011719 0.49218746,0.011719 0.234375,0.035156 0.2460938,0.046875 0.2460938,0.234375 v 5.203125 c 0,0.26953124 0,0.73828124 -1.03125001,0.73828124 v 0.3046875 c 0.3515625,-0.01171875 0.83203121,-0.03515625 1.17187501,-0.03515625 0.328125,0 0.8085937,0.0234375 1.1601562,0.03515625 v -0.3046875 c -1.03125,0 -1.03125,-0.46875 -1.03125,-0.73828124 v -5.1796875 c 0.058594,0.046875 0.070312,0.058594 0.1054688,0.1171875 l 4.0664062,5.97656249 c 0.082031,0.1171875 0.09375,0.12890625 0.1640625,0.12890625 0.140625,0 0.140625,-0.0703125 0.140625,-0.2578125 V -5.7551953 c 0,-0.2695313 0,-0.7382813 1.03125,-0.7382813 v -0.3164062 c -0.3515625,0.011719 -0.84375,0.035156 -1.171875,0.035156 -0.328125,0 -0.8203125,-0.023437 -1.1601562,-0.035156 v 0.3164062 c 1.0195312,0 1.0195312,0.46875 1.0195312,0.7382813 v 4.2539062 z m 8.0917966,5.0390625 v 0.86718754 c 0,0.3515625 -0.02344,0.46875 -0.7617184,0.46875 H 9.4284141 v 0.3046875 c 0.4101562,-0.03515625 0.9374999,-0.03515625 1.3476559,-0.03515625 0.421875,0 0.949219,0 1.359375,0.03515625 v -0.3046875 h -0.210937 c -0.738281,0 -0.761719,-0.1171875 -0.761719,-0.46875 V -1.6419141 h 0.996094 v -0.3164062 h -0.996094 v -4.5234375 c 0,-0.1992188 0,-0.2578125 -0.152344,-0.2578125 -0.09375,0 -0.117187,0 -0.199218,0.1171875 l -3.0585942,4.6640625 v 0.3164062 z m 0.05859,-0.3164062 H 8.0338828 l 2.4257812,-3.7148438 z m 0,0"
       style="fill:#000000;fill-opacity:1;fill-rule:nonzero;stroke:none"
       aria-label="N4"
       transform="matrix(1.3333333,0,0,1.3333333,26.628,213.74)" />
    <path
       id="path9"
       d="M -51.52777,-156.70444 H -6.1727 v 28.34679 h -45.35507 z"
       style="fill:#ffc266;fill-opacity:1;fill-rule:nonzero;stroke:#000000;stroke-width:0.3985;stroke-linecap:butt;stroke-linejoin:miter;stroke-miterlimit:10;stroke-dasharray:none;stroke-opacity:1"
       transform="matrix(1.3333333,0,0,-1.3333333,225.64,19.162667)" />
    <path
       id="path10"
       d="m 2.3089141,-6.6809766 c -0.082031,-0.1171875 -0.09375,-0.1289062 -0.28125,-0.1289062 H 0.32844531 v 0.3164062 h 0.29296875 c 0.140625,0 0.33984375,0.011719 0.49218754,0.011719 0.234375,0.035156 0.2460937,0.046875 0.2460937,0.234375 v 5.203125 c 0,0.26953124 0,0.73828124 -1.03124999,0.73828124 v 0.3046875 c 0.3515625,-0.01171875 0.83203129,-0.03515625 1.17187499,-0.03515625 0.328125,0 0.8085938,0.0234375 1.1601563,0.03515625 v -0.3046875 c -1.03125,0 -1.03125,-0.46875 -1.03125,-0.73828124 v -5.1796875 c 0.058594,0.046875 0.070312,0.058594 0.1054687,0.1171875 l 4.0664063,5.97656249 c 0.082031,0.1171875 0.09375,0.12890625 0.1640625,0.12890625 0.140625,0 0.140625,-0.0703125 0.140625,-0.2578125 V -5.7551953 c 0,-0.2695313 0,-0.7382813 1.03125,-0.7382813 v -0.3164062 c -0.3515625,0.011719 -0.84375,0.035156 -1.171875,0.035156 -0.328125,0 -0.8203125,-0.023437 -1.1601563,-0.035156 v 0.3164062 c 1.0195313,0 1.0195313,0.46875 1.0195313,0.7382813 v 4.2539062 z m 9.6386719,4.6757813 c 0,-1.1835938 -0.820313,-2.1796875 -1.898438,-2.1796875 -0.4804683,0 -0.9023433,0.1640625 -1.2656246,0.5039062 v -1.9335937 c 0.1992188,0.058594 0.5273438,0.1289062 0.84375,0.1289062 1.2304686,0 1.9335936,-0.9140625 1.9335936,-1.0429687 0,-0.058594 -0.03516,-0.1054688 -0.105469,-0.1054688 -0.01172,0 -0.03516,0 -0.08203,0.023437 -0.199219,0.09375 -0.679687,0.2929688 -1.347656,0.2929688 -0.3984376,0 -0.8554688,-0.070312 -1.3242188,-0.28125 -0.082031,-0.023437 -0.1054688,-0.023437 -0.1289063,-0.023437 -0.09375,0 -0.09375,0.082031 -0.09375,0.234375 v 2.953125 c 0,0.1757812 0,0.2578125 0.140625,0.2578125 0.070312,0 0.082031,-0.035156 0.1289063,-0.09375 0.1054687,-0.1523438 0.4804687,-0.6914063 1.2773438,-0.6914063 0.527344,0 0.773437,0.4570313 0.855469,0.6328125 0.152343,0.375 0.175781,0.7617188 0.175781,1.2539063 0,0.3515625 0,0.9492187 -0.234375,1.37109374 -0.246094,0.38671875 -0.609375,0.64453125 -1.0664063,0.64453125 -0.7265625,0 -1.3007813,-0.52734375 -1.4648438,-1.11328129 0.023437,0.011719 0.058594,0.011719 0.1640625,0.011719 0.328125,0 0.5039063,-0.2460938 0.5039063,-0.4804688 0,-0.2460937 -0.1757813,-0.4921875 -0.5039063,-0.4921875 -0.140625,0 -0.4804687,0.070312 -0.4804687,0.5273438 0,0.85546874 0.6796875,1.82812499 1.7929687,1.82812499 1.1601566,0 2.1796876,-0.9609375 2.1796876,-2.22656249 z m 0,0"
       style="fill:#000000;fill-opacity:1;fill-rule:nonzero;stroke:none"
       aria-label="N5"
       transform="matrix(1.3333333,0,0,1.3333333,178.87067,213.74)" />
    <path
       id="path11"
       d="m 6.1727,-156.70444 h 45.35507 v 28.34679 H 6.1727 Z"
       style="fill:#ffc266;fill-opacity:1;fill-rule:nonzero;stroke:#000000;stroke-width:0.3985;stroke-linecap:butt;stroke-linejoin:miter;stroke-miterlimit:10;stroke-dasharray:none;stroke-opacity:1"
       transform="matrix(1.3333333,0,0,-1.3333333,225.64,19.162667)" />
    <path
       id="path12"
       d="m 2.3091094,-6.6809766 c -0.082031,-0.1171875 -0.09375,-0.1289062 -0.28125,-0.1289062 H 0.32864063 v 0.3164062 h 0.29296875 c 0.140625,0 0.33984375,0.011719 0.49218752,0.011719 0.234375,0.035156 0.2460937,0.046875 0.2460937,0.234375 v 5.203125 c 0,0.26953124 0,0.73828124 -1.03124997,0.73828124 v 0.3046875 c 0.3515625,-0.01171875 0.83203127,-0.03515625 1.17187497,-0.03515625 0.328125,0 0.8085938,0.0234375 1.1601563,0.03515625 v -0.3046875 c -1.03125,0 -1.03125,-0.46875 -1.03125,-0.73828124 v -5.1796875 c 0.058594,0.046875 0.070312,0.058594 0.1054687,0.1171875 l 4.0664063,5.97656249 c 0.082031,0.1171875 0.09375,0.12890625 0.1640625,0.12890625 0.140625,0 0.140625,-0.0703125 0.140625,-0.2578125 V -5.7551953 c 0,-0.2695313 0,-0.7382813 1.03125,-0.7382813 v -0.3164062 c -0.3515625,0.011719 -0.84375,0.035156 -1.171875,0.035156 -0.328125,0 -0.8203125,-0.023437 -1.1601563,-0.035156 v 0.3164062 c 1.0195313,0 1.0195313,0.46875 1.0195313,0.7382813 v 4.2539062 z m 6.4746094,3.4101563 v -0.234375 c 0,-2.5195313 1.2421872,-2.8828125 1.7460942,-2.8828125 0.234375,0 0.65625,0.058594 0.878906,0.3984375 -0.152344,0 -0.550781,0 -0.550781,0.4453125 0,0.3164062 0.234375,0.4570312 0.457031,0.4570312 0.164062,0 0.457031,-0.082031 0.457031,-0.46875 0,-0.5976562 -0.433594,-1.078125 -1.265625,-1.078125 -1.2773437,0 -2.6132812,1.2890625 -2.6132812,3.4804688 0,2.66015624 1.1484375,3.37499999 2.0742187,3.37499999 1.1132815,0 2.0507815,-0.9375 2.0507815,-2.24999999 0,-1.265625 -0.878906,-2.2265625 -1.992188,-2.2265625 -0.6679685,0 -1.0429685,0.5039062 -1.2421872,0.984375 z m 1.1835937,3.21093749 c -0.6210937,0 -0.9257812,-0.59765625 -0.984375,-0.75 C 8.8071563,-1.2786328 8.8071563,-2.0755078 8.8071563,-2.2512891 c 0,-0.7734375 0.3164062,-1.7695312 1.2187497,-1.7695312 0.152344,0 0.609375,0 0.925782,0.609375 0.175781,0.375 0.175781,0.8789062 0.175781,1.3710937 0,0.4804688 0,0.9726563 -0.164063,1.33593754 -0.304687,0.59765625 -0.761718,0.64453125 -0.9960935,0.64453125 z m 0,0"
       style="fill:#000000;fill-opacity:1;fill-rule:nonzero;stroke:none"
       aria-label="N6"
       transform="matrix(1.3333333,0,0,1.3333333,255.804,213.74)" />
    <path
       id="path13"
       d="m 120.35695,-156.70444 h 45.35507 v 28.34679 h -45.35507 z"
       style="fill:#ffc266;fill-opacity:1;fill-rule:nonzero;stroke:#000000;stroke-width:0.3985;stroke-linecap:butt;stroke-linejoin:miter;stroke-miterlimit:10;stroke-dasharray:none;stroke-opacity:1"
       transform="matrix(1.3333333,0,0,-1.3333333,225.64,19.162667)" />
    <path
       id="path14"
       d="M 2.30775,-6.6809766 C 2.2257187,-6.7981641 2.214,-6.8098828 2.0265,-6.8098828 H 0.32728125 v 0.3164062 H 0.62025 c 0.140625,0 0.33984375,0.011719 0.4921875,0.011719 0.234375,0.035156 0.2460937,0.046875 0.2460937,0.234375 v 5.203125 c 0,0.26953124 0,0.73828124 -1.03124995,0.73828124 v 0.3046875 c 0.3515625,-0.01171875 0.83203125,-0.03515625 1.17187495,-0.03515625 0.328125,0 0.8085938,0.0234375 1.1601563,0.03515625 v -0.3046875 c -1.03125,0 -1.03125,-0.46875 -1.03125,-0.73828124 v -5.1796875 c 0.058594,0.046875 0.070312,0.058594 0.1054687,0.1171875 l 4.0664063,5.97656249 c 0.082031,0.1171875 0.09375,0.12890625 0.1640625,0.12890625 0.140625,0 0.140625,-0.0703125 0.140625,-0.2578125 V -5.7551953 c 0,-0.2695313 0,-0.7382813 1.03125,-0.7382813 v -0.3164062 c -0.3515625,0.011719 -0.84375,0.035156 -1.171875,0.035156 -0.328125,0 -0.8203125,-0.023437 -1.1601563,-0.035156 v 0.3164062 c 1.0195313,0 1.0195313,0.46875 1.0195313,0.7382813 v 4.2539062 z m 9.911133,0.609375 c 0.08203,-0.1171875 0.08203,-0.140625 0.08203,-0.3398437 H 9.8868516 c -1.21875,0 -1.2421875,-0.1289063 -1.2773438,-0.328125 H 8.3634141 l -0.328125,2.0507812 h 0.2460937 c 0.023437,-0.1523437 0.1171875,-0.7851562 0.2460938,-0.9023437 0.070312,-0.058594 0.84375,-0.058594 0.9726562,-0.058594 h 2.0625002 c -0.105469,0.1640625 -0.890625,1.2421875 -1.113281,1.5703125 -0.8906254,1.3476563 -1.2187504,2.7304688 -1.2187504,3.75000004 0,0.09375 0,0.55078125 0.4570312,0.55078125 0.4570312,0 0.4570312,-0.45703125 0.4570312,-0.55078125 v -0.50390625 c 0,-0.55078129 0.02344,-1.10156249 0.105469,-1.64062499 0.04687,-0.2226563 0.175781,-1.078125 0.621094,-1.6992188 z m 0,0"
       style="fill:#000000;fill-opacity:1;fill-rule:nonzero;stroke:none"
       aria-label="N7"
       transform="matrix(1.3333333,0,0,1.3333333,408.048,213.74)" />
    <path
       id="path15"
       d="M -17.32388,-14.37263 -65.44904,-54.26964"
       style="fill:none;stroke:#000000;stroke-width:0.79701;stroke-linecap:butt;stroke-linejoin:miter;stroke-miterlimit:10;stroke-dasharray:none;stroke-opacity:1"
       transform="matrix(1.3333333,0,0,-1.3333333,225.64,19.162667)" />
    <path
       id="path16"
       d="M 5.44046,0 1.28699,1.5706 2.66432,0 1.28699,-1.5706 Z"
       style="fill:#000000;fill-opacity:1;fill-rule:nonzero;stroke:#000000;stroke-width:0.79701;stroke-linecap:butt;stroke-linejoin:miter;stroke-miterlimit:10;stroke-dasharray:none;stroke-opacity:1"
       transform="matrix(-1.0264,0.85093333,0.85093333,1.0264,140.9048,89.424587)" />
    <path
       id="path17"
       d="m 2.2261641,-3.5164844 v -2.578125 c 0,-0.234375 0,-0.3515625 0.2226562,-0.3867187 0.1054688,-0.011719 0.3867188,-0.011719 0.5859375,-0.011719 0.9023438,0 2.015625,0.035156 2.015625,1.4765625 0,0.6914063 -0.234375,1.5 -1.7109375,1.5 z m 2.109375,0.1289063 c 0.9609375,-0.234375 1.7460937,-0.84375 1.7460937,-1.6289063 0,-0.9492187 -1.1367187,-1.7929687 -2.6015625,-1.7929687 H 0.35116406 v 0.3164062 h 0.234375 c 0.77343754,0 0.78515624,0.1054688 0.78515624,0.46875 v 5.25000003 c 0,0.3515625 -0.011719,0.46875 -0.78515624,0.46875 h -0.234375 V -8.59375e-4 C 0.70272656,-0.03601562 1.4175703,-0.03601562 1.8042891,-0.03601562 c 0.3867187,0 1.0898437,0 1.453125,0.035156245 V -0.30554687 h -0.234375 c -0.7734375,0 -0.796875,-0.1171875 -0.796875,-0.46875 V -3.2938281 h 1.1484375 c 0.1640625,0 0.5742187,0 0.9257812,0.3398437 0.3867188,0.3515625 0.3867188,0.65625 0.3867188,1.3242188 0,0.65624998 0,1.05468748 0.3984375,1.42968748 0.4101562,0.36328125 0.9609375,0.421875 1.2539062,0.421875 0.7851563,0 0.9492188,-0.8203125 0.9492188,-1.1015625 0,-0.0585938 0,-0.16406248 -0.1289063,-0.16406248 -0.1054687,0 -0.1054687,0.0820312 -0.1171875,0.15234373 -0.058594,0.71484375 -0.4101562,0.890624995 -0.65625,0.890624995 -0.4921875,0 -0.5742187,-0.503906245 -0.703125,-1.429687525 l -0.140625,-0.796875 C 5.3667891,-2.8719531 4.8863203,-3.2000781 4.3355391,-3.3875781 Z m 4.1103515,0.8789062 c 0.058594,-1.4882812 0.9023438,-1.734375 1.2421875,-1.734375 1.0195309,0 1.1249999,1.3476563 1.1249999,1.734375 z m -0.011719,0.2109375 h 2.7890624 c 0.210938,0 0.246094,0 0.246094,-0.2109375 0,-0.984375 -0.539062,-1.9570312 -1.7812502,-1.9570312 -1.1601562,0 -2.0742187,1.03125 -2.0742187,2.2734375 0,1.33593748 1.0429687,2.29687498 2.1914062,2.29687498 1.2187507,0 1.6640627,-1.1015625 1.6640627,-1.28906248 0,-0.1054688 -0.08203,-0.1171875 -0.128906,-0.1171875 -0.09375,0 -0.117188,0.058594 -0.128906,0.140625 -0.351563,1.01953123 -1.2539069,1.01953123 -1.3476569,1.01953123 -0.5039063,0 -0.9023438,-0.29296875 -1.125,-0.66796875 C 8.4341719,-1.2899219 8.4341719,-1.9461719 8.4341716,-2.2977344 Z m 5.5429694,0.5859375 c -0.867188,0 -0.867188,-0.9960937 -0.867188,-1.2304687 0,-0.2695313 0.01172,-0.5859375 0.152344,-0.8320313 0.08203,-0.1171875 0.316406,-0.3984375 0.714844,-0.3984375 0.867187,0 0.867187,0.9960938 0.867187,1.21875 0,0.2695313 -0.01172,0.5976563 -0.164062,0.84375 -0.08203,0.1171875 -0.304688,0.3984375 -0.703125,0.3984375 z m -1.160157,0.3867188 c 0,-0.035156 0,-0.2695313 0.175782,-0.46875 0.386718,0.28125 0.796875,0.3046875 0.984375,0.3046875 0.925781,0 1.605468,-0.6796875 1.605468,-1.453125 0,-0.3632813 -0.152343,-0.7382813 -0.398437,-0.9609375 0.351562,-0.3398438 0.714844,-0.3867188 0.890625,-0.3867188 0.02344,0 0.07031,0 0.105469,0 -0.117188,0.046875 -0.164063,0.1523438 -0.164063,0.2695313 0,0.1757812 0.128906,0.2929687 0.292969,0.2929687 0.09375,0 0.28125,-0.070312 0.28125,-0.2929687 0,-0.1757813 -0.117188,-0.4921875 -0.503906,-0.4921875 -0.199219,0 -0.632813,0.058594 -1.054688,0.46875 -0.421875,-0.328125 -0.84375,-0.3632813 -1.054687,-0.3632813 -0.925782,0 -1.617188,0.6914063 -1.617188,1.453125 0,0.4453125 0.222656,0.8203125 0.46875,1.03125 -0.128906,0.1523438 -0.304687,0.4804688 -0.304687,0.8203125 0,0.31640628 0.128906,0.69140628 0.433593,0.89062503 -0.597656,0.17578125 -0.914062,0.59765625 -0.914062,0.99609375 0,0.71484372 0.984375,1.26562502 2.203125,1.26562502 1.171875,0 2.203125,-0.5039063 2.203125,-1.28906252 0,-0.33984375 -0.140625,-0.85546875 -0.644531,-1.125 -0.527344,-0.28125 -1.101563,-0.28125 -1.710938,-0.28125 -0.246094,0 -0.679687,0 -0.75,-0.0117188 -0.316406,-0.046875 -0.527344,-0.35156248 -0.527344,-0.66796868 z m 1.441407,3.1523437 c -1.007813,0 -1.699219,-0.515625 -1.699219,-1.04296872 0,-0.45703125 0.375,-0.8203125 0.820312,-0.85546875 h 0.585938 c 0.855469,0 1.96875,0 1.96875,0.85546875 0,0.53906252 -0.703125,1.04296872 -1.675781,1.04296872 z m 3.597656,-4.3359375 c 0.05859,-1.4882812 0.902344,-1.734375 1.242187,-1.734375 1.019532,0 1.125,1.3476563 1.125,1.734375 z m -0.01172,0.2109375 h 2.789063 c 0.210937,0 0.246093,0 0.246093,-0.2109375 0,-0.984375 -0.539062,-1.9570312 -1.78125,-1.9570312 -1.160156,0 -2.074218,1.03125 -2.074218,2.2734375 0,1.33593748 1.042968,2.29687498 2.191406,2.29687498 1.21875,0 1.664062,-1.1015625 1.664062,-1.28906248 0,-0.1054688 -0.08203,-0.1171875 -0.128906,-0.1171875 -0.09375,0 -0.117187,0.058594 -0.128906,0.140625 -0.351563,1.01953123 -1.253906,1.01953123 -1.347656,1.01953123 -0.503907,0 -0.902344,-0.29296875 -1.125,-0.66796875 C 17.844328,-1.2899219 17.844328,-1.9461719 17.844328,-2.2977344 Z m 5.083008,-4.6171875 -1.429688,0.1054688 v 0.3164062 c 0.703125,0 0.773438,0.070312 0.773438,0.5507813 v 5.17968748 c 0,0.45703125 -0.105469,0.45703125 -0.773438,0.45703125 v 0.304687495 c 0.328125,-0.011718745 0.855469,-0.035156245 1.101563,-0.035156245 0.257812,0 0.738281,0.0234375 1.113281,0.035156245 V -0.30554687 c -0.667969,0 -0.785156,0 -0.785156,-0.45703125 z m 7.256836,0.5390625 c 0,-0.234375 0,-0.2578125 -0.234375,-0.2578125 -0.609375,0.6328125 -1.488281,0.6328125 -1.804688,0.6328125 v 0.3164063 c 0.199219,0 0.785157,0 1.300782,-0.2578125 v 5.15624998 c 0,0.3515625 -0.03516,0.48046875 -0.925782,0.48046875 h -0.316406 v 0.304687495 c 0.351563,-0.035156245 1.207031,-0.035156245 1.605469,-0.035156245 0.398437,0 1.265625,0 1.617187,0.035156245 V -0.30554687 h -0.316406 c -0.902344,0 -0.925781,-0.1171875 -0.925781,-0.48046875 z m 0,0"
       style="fill:#000000;fill-opacity:1;fill-rule:nonzero;stroke:none"
       aria-label="Regel1"
       transform="matrix(1.3333333,0,0,1.3333333,146.856,69.993333)" />
    <path
       id="path18"
       d="M 17.32388,-14.37263 65.44904,-54.26964"
       style="fill:none;stroke:#000000;stroke-width:0.79701;stroke-linecap:butt;stroke-linejoin:miter;stroke-miterlimit:10;stroke-dasharray:none;stroke-opacity:1"
       transform="matrix(1.3333333,0,0,-1.3333333,225.64,19.162667)" />
    <path
       id="path19"
       d="M 5.44046,0 1.28699,1.5706 2.66432,0 1.28699,-1.5706 Z"
       style="fill:#000000;fill-opacity:1;fill-rule:nonzero;stroke:#000000;stroke-width:0.79701;stroke-linecap:butt;stroke-linejoin:miter;stroke-miterlimit:10;stroke-dasharray:none;stroke-opacity:1"
       transform="matrix(1.0264,0.85093333,0.85093333,-1.0264,310.3752,89.424587)" />
    <path
       id="path20"
       d="m 2.2266875,-3.5164844 v -2.578125 c 0,-0.234375 0,-0.3515625 0.2226563,-0.3867187 0.1054687,-0.011719 0.3867187,-0.011719 0.5859375,-0.011719 0.9023437,0 2.015625,0.035156 2.015625,1.4765625 0,0.6914063 -0.234375,1.5 -1.7109375,1.5 z m 2.109375,0.1289063 c 0.9609375,-0.234375 1.7460938,-0.84375 1.7460938,-1.6289063 0,-0.9492187 -1.1367188,-1.7929687 -2.6015625,-1.7929687 H 0.3516875 v 0.3164062 h 0.234375 c 0.7734375,0 0.7851563,0.1054688 0.7851563,0.46875 v 5.25000003 c 0,0.3515625 -0.011719,0.46875 -0.7851563,0.46875 H 0.3516875 V -8.59375e-4 C 0.70325,-0.03601562 1.4180938,-0.03601562 1.8048125,-0.03601562 c 0.3867188,0 1.0898438,0 1.453125,0.035156245 V -0.30554687 h -0.234375 c -0.7734375,0 -0.796875,-0.1171875 -0.796875,-0.46875 V -3.2938281 H 3.375125 c 0.1640625,0 0.5742188,0 0.9257813,0.3398437 0.3867187,0.3515625 0.3867187,0.65625 0.3867187,1.3242188 0,0.65624998 0,1.05468748 0.3984375,1.42968748 0.4101563,0.36328125 0.9609375,0.421875 1.2539063,0.421875 0.7851562,0 0.9492187,-0.8203125 0.9492187,-1.1015625 0,-0.0585938 0,-0.16406248 -0.1289062,-0.16406248 -0.1054688,0 -0.1054688,0.0820312 -0.1171875,0.15234373 -0.058594,0.71484375 -0.4101563,0.890624995 -0.65625,0.890624995 -0.4921875,0 -0.5742188,-0.503906245 -0.703125,-1.429687525 l -0.140625,-0.796875 C 5.3673125,-2.8719531 4.8868438,-3.2000781 4.3360625,-3.3875781 Z m 4.1103516,0.8789062 c 0.058594,-1.4882812 0.9023437,-1.734375 1.2421875,-1.734375 1.0195314,0 1.1250004,1.3476563 1.1250004,1.734375 z m -0.011719,0.2109375 h 2.7890629 c 0.210937,0 0.246094,0 0.246094,-0.2109375 0,-0.984375 -0.539063,-1.9570312 -1.7812506,-1.9570312 -1.1601563,0 -2.0742188,1.03125 -2.0742188,2.2734375 0,1.33593748 1.0429688,2.29687498 2.1914063,2.29687498 1.2187501,0 1.6640631,-1.1015625 1.6640631,-1.28906248 0,-0.1054688 -0.08203,-0.1171875 -0.128907,-0.1171875 -0.09375,0 -0.117187,0.058594 -0.128906,0.140625 -0.351562,1.01953123 -1.2539064,1.01953123 -1.3476564,1.01953123 -0.5039062,0 -0.9023437,-0.29296875 -1.125,-0.66796875 C 8.4346953,-1.2899219 8.4346953,-1.9461719 8.4346951,-2.2977344 Z m 5.5400389,0.5859375 c -0.867187,0 -0.867187,-0.9960937 -0.867187,-1.2304687 0,-0.2695313 0.01172,-0.5859375 0.152344,-0.8320313 0.08203,-0.1171875 0.316406,-0.3984375 0.714843,-0.3984375 0.867188,0 0.867188,0.9960938 0.867188,1.21875 0,0.2695313 -0.01172,0.5976563 -0.164063,0.84375 -0.08203,0.1171875 -0.304687,0.3984375 -0.703125,0.3984375 z m -1.160156,0.3867188 c 0,-0.035156 0,-0.2695313 0.175781,-0.46875 0.386719,0.28125 0.796875,0.3046875 0.984375,0.3046875 0.925782,0 1.605469,-0.6796875 1.605469,-1.453125 0,-0.3632813 -0.152344,-0.7382813 -0.398437,-0.9609375 0.351562,-0.3398438 0.714843,-0.3867188 0.890625,-0.3867188 0.02344,0 0.07031,0 0.105468,0 -0.117187,0.046875 -0.164062,0.1523438 -0.164062,0.2695313 0,0.1757812 0.128906,0.2929687 0.292969,0.2929687 0.09375,0 0.28125,-0.070312 0.28125,-0.2929687 0,-0.1757813 -0.117188,-0.4921875 -0.503907,-0.4921875 -0.199218,0 -0.632812,0.058594 -1.054687,0.46875 -0.421875,-0.328125 -0.84375,-0.3632813 -1.054688,-0.3632813 -0.925781,0 -1.617187,0.6914063 -1.617187,1.453125 0,0.4453125 0.222656,0.8203125 0.46875,1.03125 -0.128906,0.1523438 -0.304688,0.4804688 -0.304688,0.8203125 0,0.31640628 0.128907,0.69140628 0.433594,0.89062503 -0.597656,0.17578125 -0.914062,0.59765625 -0.914062,0.99609375 0,0.71484372 0.984375,1.26562502 2.203125,1.26562502 1.171875,0 2.203125,-0.5039063 2.203125,-1.28906252 0,-0.33984375 -0.140625,-0.85546875 -0.644532,-1.125 -0.527343,-0.28125 -1.101562,-0.28125 -1.710937,-0.28125 -0.246094,0 -0.679688,0 -0.75,-0.0117188 -0.316406,-0.046875 -0.527344,-0.35156248 -0.527344,-0.66796868 z m 1.441406,3.1523437 c -1.007812,0 -1.699218,-0.515625 -1.699218,-1.04296872 0,-0.45703125 0.375,-0.8203125 0.820312,-0.85546875 h 0.585938 c 0.855468,0 1.96875,0 1.96875,0.85546875 0,0.53906252 -0.703125,1.04296872 -1.675782,1.04296872 z m 3.600586,-4.3359375 c 0.05859,-1.4882812 0.902344,-1.734375 1.242188,-1.734375 1.019531,0 1.125,1.3476563 1.125,1.734375 z m -0.01172,0.2109375 h 2.789062 c 0.210938,0 0.246094,0 0.246094,-0.2109375 0,-0.984375 -0.539063,-1.9570312 -1.78125,-1.9570312 -1.160156,0 -2.074219,1.03125 -2.074219,2.2734375 0,1.33593748 1.042969,2.29687498 2.191406,2.29687498 1.21875,0 1.664063,-1.1015625 1.664063,-1.28906248 0,-0.1054688 -0.08203,-0.1171875 -0.128906,-0.1171875 -0.09375,0 -0.117188,0.058594 -0.128907,0.140625 -0.351562,1.01953123 -1.253906,1.01953123 -1.347656,1.01953123 -0.503906,0 -0.902344,-0.29296875 -1.125,-0.66796875 C 17.844852,-1.2899219 17.844852,-1.9461719 17.844852,-2.2977344 Z m 5.083007,-4.6171875 -1.429687,0.1054688 v 0.3164062 c 0.703125,0 0.773437,0.070312 0.773437,0.5507813 v 5.17968748 c 0,0.45703125 -0.105468,0.45703125 -0.773437,0.45703125 v 0.304687495 c 0.328125,-0.011718745 0.855469,-0.035156245 1.101562,-0.035156245 0.257813,0 0.738282,0.0234375 1.113282,0.035156245 V -0.30554687 c -0.667969,0 -0.785157,0 -0.785157,-0.45703125 z m 5.592774,6.15234378 1.054687,-1.03124998 c 1.558594,-1.3710938 2.15625,-1.9101563 2.15625,-2.90625 0,-1.1367188 -0.902343,-1.9335938 -2.121093,-1.9335938 -1.125,0 -1.851563,0.9140625 -1.851563,1.8046875 0,0.5507813 0.492188,0.5507813 0.527344,0.5507813 0.164062,0 0.515625,-0.1171875 0.515625,-0.5273438 0,-0.2578125 -0.1875,-0.515625 -0.527344,-0.515625 -0.08203,0 -0.105469,0 -0.128906,0.011719 0.222656,-0.6445313 0.761719,-1.0195313 1.335937,-1.0195313 0.914063,0 1.335938,0.8085938 1.335938,1.6289063 0,0.796875 -0.492188,1.5820312 -1.042969,2.203125 l -1.910156,2.13281248 c -0.105469,0.10546875 -0.105469,0.12890625 -0.105469,0.363281245 H 31.45032 L 31.73157,-1.7352344 h -0.257812 c -0.04687,0.3046875 -0.117188,0.73828128 -0.210938,0.89062503 -0.07031,0.0820313 -0.726562,0.0820313 -0.949218,0.0820313 z m 0,0"
       style="fill:#000000;fill-opacity:1;fill-rule:nonzero;stroke:none"
       aria-label="Regel2"
       transform="matrix(1.3333333,0,0,1.3333333,261.43733,69.993333)" />
    <path
       id="path21"
       d="M -97.45082,-85.63817 -128.95256,-124.951"
       style="fill:none;stroke:#000000;stroke-width:0.79701;stroke-linecap:butt;stroke-linejoin:miter;stroke-miterlimit:10;stroke-dasharray:none;stroke-opacity:1"
       transform="matrix(1.3333333,0,0,-1.3333333,225.64,19.162667)" />
    <path
       id="path22"
       d="M 5.44046,0 1.28699,1.5706 2.66432,0 1.28699,-1.5706 Z"
       style="fill:#000000;fill-opacity:1;fill-rule:nonzero;stroke:#000000;stroke-width:0.79701;stroke-linecap:butt;stroke-linejoin:miter;stroke-miterlimit:10;stroke-dasharray:none;stroke-opacity:1"
       transform="matrix(-0.83372,1.0404267,1.0404267,0.83372,55.758427,183.19929)" />
    <path
       id="path23"
       d="m 2.2265625,-3.5168359 v -2.578125 c 0,-0.234375 0,-0.3515625 0.2226563,-0.3867188 0.1054687,-0.011719 0.3867187,-0.011719 0.5859375,-0.011719 0.9023437,0 2.0156249,0.035156 2.0156249,1.4765625 0,0.6914062 -0.234375,1.5 -1.7109374,1.5 z m 2.109375,0.1289062 c 0.9609375,-0.234375 1.7460937,-0.84375 1.7460937,-1.6289062 0,-0.9492188 -1.1367187,-1.7929688 -2.6015624,-1.7929688 H 0.3515625 v 0.3164063 h 0.234375 c 0.7734375,0 0.7851562,0.1054687 0.7851562,0.46875 v 5.24999996 c 0,0.3515625 -0.011719,0.46875 -0.7851562,0.46875 h -0.234375 v 0.3046875 c 0.3515625,-0.03515625 1.0664062,-0.03515625 1.453125,-0.03515625 0.3867188,0 1.0898438,0 1.453125,0.03515625 v -0.3046875 h -0.234375 c -0.7734375,0 -0.796875,-0.1171875 -0.796875,-0.46875 V -3.2941797 H 3.375 c 0.1640625,0 0.5742188,0 0.9257812,0.3398438 0.3867188,0.3515625 0.3867188,0.65625 0.3867188,1.3242187 0,0.65625001 0,1.05468751 0.3984375,1.42968751 0.4101562,0.36328125 0.9609375,0.421875 1.2539062,0.421875 0.7851563,0 0.9492188,-0.8203125 0.9492188,-1.1015625 0,-0.0585938 0,-0.16406251 -0.1289063,-0.16406251 -0.1054687,0 -0.1054687,0.0820313 -0.1171875,0.15234376 -0.058594,0.71484375 -0.4101562,0.890625 -0.65625,0.890625 -0.4921875,0 -0.5742187,-0.50390625 -0.703125,-1.42968746 l -0.140625,-0.796875 C 5.3671875,-2.8723047 4.8867187,-3.2004297 4.3359375,-3.3879297 Z m 4.1103516,0.8789063 c 0.058594,-1.4882813 0.9023437,-1.734375 1.2421875,-1.734375 1.0195314,0 1.1250004,1.3476562 1.1250004,1.734375 z m -0.011719,0.2109375 h 2.7890629 c 0.210937,0 0.246094,0 0.246094,-0.2109375 0,-0.984375 -0.539063,-1.9570313 -1.7812506,-1.9570313 -1.1601563,0 -2.0742188,1.03125 -2.0742188,2.2734375 0,1.33593751 1.0429688,2.29687501 2.1914063,2.29687501 1.2187501,0 1.6640631,-1.1015625 1.6640631,-1.28906251 0,-0.1054687 -0.08203,-0.1171875 -0.128907,-0.1171875 -0.09375,0 -0.117187,0.058594 -0.128906,0.140625 -0.351562,1.01953126 -1.2539064,1.01953126 -1.3476564,1.01953126 -0.5039062,0 -0.9023437,-0.29296875 -1.125,-0.66796875 C 8.4345703,-1.2902734 8.4345703,-1.9465234 8.4345701,-2.2980859 Z m 5.5400389,0.5859375 c -0.867187,0 -0.867187,-0.9960938 -0.867187,-1.2304688 0,-0.2695312 0.01172,-0.5859375 0.152344,-0.8320312 0.08203,-0.1171875 0.316406,-0.3984375 0.714843,-0.3984375 0.867188,0 0.867188,0.9960937 0.867188,1.21875 0,0.2695312 -0.01172,0.5976562 -0.164063,0.84375 -0.08203,0.1171875 -0.304687,0.3984375 -0.703125,0.3984375 z m -1.160156,0.3867187 c 0,-0.035156 0,-0.2695312 0.175781,-0.46875 0.386719,0.28125 0.796875,0.3046875 0.984375,0.3046875 0.925782,0 1.605469,-0.6796875 1.605469,-1.453125 0,-0.3632812 -0.152344,-0.7382812 -0.398437,-0.9609375 0.351562,-0.3398437 0.714843,-0.3867187 0.890625,-0.3867187 0.02344,0 0.07031,0 0.105468,0 -0.117187,0.046875 -0.164062,0.1523437 -0.164062,0.2695312 0,0.1757813 0.128906,0.2929688 0.292969,0.2929688 0.09375,0 0.28125,-0.070312 0.28125,-0.2929688 0,-0.1757812 -0.117188,-0.4921875 -0.503907,-0.4921875 -0.199218,0 -0.632812,0.058594 -1.054687,0.46875 -0.421875,-0.328125 -0.84375,-0.3632812 -1.054688,-0.3632812 -0.925781,0 -1.617187,0.6914062 -1.617187,1.453125 0,0.4453125 0.222656,0.8203125 0.46875,1.03125 -0.128906,0.1523437 -0.304688,0.4804687 -0.304688,0.8203125 0,0.31640621 0.128907,0.69140621 0.433594,0.89062496 -0.597656,0.17578125 -0.914062,0.59765625 -0.914062,0.99609375 0,0.71484379 0.984375,1.26562499 2.203125,1.26562499 1.171875,0 2.203125,-0.5039062 2.203125,-1.28906249 0,-0.33984375 -0.140625,-0.85546875 -0.644532,-1.125 -0.527343,-0.28125 -1.101562,-0.28125 -1.710937,-0.28125 -0.246094,0 -0.679688,0 -0.75,-0.0117188 -0.316406,-0.046875 -0.527344,-0.35156241 -0.527344,-0.66796871 z m 1.441406,3.1523438 c -1.007812,0 -1.699218,-0.515625 -1.699218,-1.04296879 0,-0.45703125 0.375,-0.8203125 0.820312,-0.85546875 h 0.585938 c 0.855468,0 1.96875,0 1.96875,0.85546875 0,0.53906249 -0.703125,1.04296879 -1.675782,1.04296879 z m 3.600586,-4.3359375 c 0.05859,-1.4882813 0.902344,-1.734375 1.242188,-1.734375 1.019531,0 1.125,1.3476562 1.125,1.734375 z m -0.01172,0.2109375 h 2.789062 c 0.210938,0 0.246094,0 0.246094,-0.2109375 0,-0.984375 -0.539063,-1.9570313 -1.78125,-1.9570313 -1.160156,0 -2.074219,1.03125 -2.074219,2.2734375 0,1.33593751 1.042969,2.29687501 2.191406,2.29687501 1.21875,0 1.664063,-1.1015625 1.664063,-1.28906251 0,-0.1054687 -0.08203,-0.1171875 -0.128906,-0.1171875 -0.09375,0 -0.117188,0.058594 -0.128907,0.140625 -0.351562,1.01953126 -1.253906,1.01953126 -1.347656,1.01953126 -0.503906,0 -0.902344,-0.29296875 -1.125,-0.66796875 C 17.844727,-1.2902734 17.844727,-1.9465234 17.844727,-2.2980859 Z m 5.083007,-4.6171875 -1.429687,0.1054687 v 0.3164063 c 0.703125,0 0.773437,0.070312 0.773437,0.5507812 v 5.17968751 c 0,0.45703125 -0.105468,0.45703125 -0.773437,0.45703125 v 0.3046875 c 0.328125,-0.01171875 0.855469,-0.03515625 1.101562,-0.03515625 0.257813,0 0.738282,0.0234375 1.113282,0.03515625 v -0.3046875 c -0.667969,0 -0.785157,0 -0.785157,-0.45703125 z m 7.22168,3.4101562 c 0.808594,-0.2695312 1.394531,-0.9726562 1.394531,-1.7578125 0,-0.8203125 -0.878906,-1.3710937 -1.839843,-1.3710937 -1.007813,0 -1.757813,0.5976562 -1.757813,1.3476562 0,0.3398438 0.210938,0.5273438 0.503906,0.5273438 0.304688,0 0.503907,-0.2226563 0.503907,-0.515625 0,-0.4921875 -0.46875,-0.4921875 -0.609375,-0.4921875 0.304687,-0.4921875 0.960937,-0.6210938 1.324218,-0.6210938 0.410157,0 0.949219,0.2226563 0.949219,1.1132813 0,0.1289062 -0.01172,0.703125 -0.269531,1.1367187 -0.304688,0.4804688 -0.644531,0.515625 -0.890625,0.515625 -0.08203,0.011719 -0.316406,0.035156 -0.386719,0.035156 -0.08203,0.011719 -0.152344,0.023437 -0.152344,0.1171875 0,0.1171875 0.07031,0.1171875 0.234375,0.1171875 h 0.445313 c 0.808594,0 1.183594,0.6679687 1.183594,1.6523437 0,1.34765626 -0.691407,1.64062501 -1.125,1.64062501 -0.433594,0 -1.171875,-0.17578125 -1.523438,-0.76171875 0.351563,0.0585938 0.65625,-0.1640625 0.65625,-0.53906246 0,-0.3632813 -0.269531,-0.5625 -0.5625,-0.5625 -0.234375,0 -0.550781,0.140625 -0.550781,0.5742187 0,0.91406251 0.925781,1.57031251 2.003906,1.57031251 1.21875,0 2.121094,-0.9140625 2.121094,-1.92187501 0,-0.8203125 -0.621094,-1.59375 -1.652344,-1.8046872 z m 0,0"
       style="fill:#000000;fill-opacity:1;fill-rule:nonzero;stroke:none"
       aria-label="Regel3"
       transform="matrix(1.3333333,0,0,1.3333333,51.5,165.01333)" />
    <path
       id="path24"
       d="M -74.4339,-85.63817 -42.93214,-124.951"
       style="fill:none;stroke:#000000;stroke-width:0.79701;stroke-linecap:butt;stroke-linejoin:miter;stroke-miterlimit:10;stroke-dasharray:none;stroke-opacity:1"
       transform="matrix(1.3333333,0,0,-1.3333333,225.64,19.162667)" />
    <path
       id="path25"
       d="M 5.44046,0 1.28699,1.5706 2.66432,0 1.28699,-1.5706 Z"
       style="fill:#000000;fill-opacity:1;fill-rule:nonzero;stroke:#000000;stroke-width:0.79701;stroke-linecap:butt;stroke-linejoin:miter;stroke-miterlimit:10;stroke-dasharray:none;stroke-opacity:1"
       transform="matrix(0.83372,1.0404267,1.0404267,-0.83372,166.34196,183.19929)" />
    <path
       id="path26"
       d="m 2.2264531,-3.5168359 v -2.578125 c 0,-0.234375 0,-0.3515625 0.2226563,-0.3867188 0.1054687,-0.011719 0.3867187,-0.011719 0.5859375,-0.011719 0.9023437,0 2.015625,0.035156 2.015625,1.4765625 0,0.6914062 -0.234375,1.5 -1.7109375,1.5 z m 2.109375,0.1289062 c 0.9609375,-0.234375 1.7460938,-0.84375 1.7460938,-1.6289062 0,-0.9492188 -1.1367188,-1.7929688 -2.6015625,-1.7929688 H 0.35145313 v 0.3164063 h 0.234375 c 0.77343747,0 0.78515627,0.1054687 0.78515627,0.46875 v 5.24999996 c 0,0.3515625 -0.011719,0.46875 -0.78515627,0.46875 h -0.234375 v 0.3046875 c 0.3515625,-0.03515625 1.06640627,-0.03515625 1.45312497,-0.03515625 0.3867188,0 1.0898438,0 1.453125,0.03515625 v -0.3046875 h -0.234375 c -0.7734375,0 -0.796875,-0.1171875 -0.796875,-0.46875 V -3.2941797 h 1.1484375 c 0.1640625,0 0.5742188,0 0.9257813,0.3398438 0.3867187,0.3515625 0.3867187,0.65625 0.3867187,1.3242187 0,0.65625001 0,1.05468751 0.3984375,1.42968751 0.4101563,0.36328125 0.9609375,0.421875 1.2539063,0.421875 0.7851562,0 0.9492187,-0.8203125 0.9492187,-1.1015625 0,-0.0585938 0,-0.16406251 -0.1289062,-0.16406251 -0.1054688,0 -0.1054688,0.0820313 -0.1171875,0.15234376 -0.058594,0.71484375 -0.4101563,0.890625 -0.65625,0.890625 -0.4921875,0 -0.5742188,-0.50390625 -0.703125,-1.42968746 l -0.140625,-0.796875 C 5.3670781,-2.8723047 4.8866094,-3.2004297 4.3358281,-3.3879297 Z m 4.1103516,0.8789063 c 0.058594,-1.4882813 0.9023437,-1.734375 1.2421875,-1.734375 1.0195308,0 1.1249998,1.3476562 1.1249998,1.734375 z m -0.011719,0.2109375 h 2.7890623 c 0.210938,0 0.246094,0 0.246094,-0.2109375 0,-0.984375 -0.539062,-1.9570313 -1.78125,-1.9570313 -1.1601563,0 -2.0742188,1.03125 -2.0742188,2.2734375 0,1.33593751 1.0429688,2.29687501 2.1914063,2.29687501 1.2187505,0 1.6640625,-1.1015625 1.6640625,-1.28906251 0,-0.1054687 -0.08203,-0.1171875 -0.128906,-0.1171875 -0.09375,0 -0.117188,0.058594 -0.128906,0.140625 -0.351563,1.01953126 -1.2539068,1.01953126 -1.3476568,1.01953126 -0.5039062,0 -0.9023437,-0.29296875 -1.125,-0.66796875 C 8.4344609,-1.2902734 8.4344609,-1.9465234 8.4344607,-2.2980859 Z M 13.9745,-1.7121484 c -0.867187,0 -0.867187,-0.9960938 -0.867187,-1.2304688 0,-0.2695312 0.01172,-0.5859375 0.152343,-0.8320312 0.08203,-0.1171875 0.316407,-0.3984375 0.714844,-0.3984375 0.867188,0 0.867188,0.9960937 0.867188,1.21875 0,0.2695312 -0.01172,0.5976562 -0.164063,0.84375 -0.08203,0.1171875 -0.304687,0.3984375 -0.703125,0.3984375 z m -1.160156,0.3867187 c 0,-0.035156 0,-0.2695312 0.175781,-0.46875 0.386719,0.28125 0.796875,0.3046875 0.984375,0.3046875 0.925781,0 1.605469,-0.6796875 1.605469,-1.453125 0,-0.3632812 -0.152344,-0.7382812 -0.398438,-0.9609375 0.351563,-0.3398437 0.714844,-0.3867187 0.890625,-0.3867187 0.02344,0 0.07031,0 0.105469,0 -0.117187,0.046875 -0.164062,0.1523437 -0.164062,0.2695312 0,0.1757813 0.128906,0.2929688 0.292968,0.2929688 0.09375,0 0.28125,-0.070312 0.28125,-0.2929688 0,-0.1757812 -0.117187,-0.4921875 -0.503906,-0.4921875 -0.199219,0 -0.632812,0.058594 -1.054687,0.46875 -0.421875,-0.328125 -0.84375,-0.3632812 -1.054688,-0.3632812 -0.925781,0 -1.617187,0.6914062 -1.617187,1.453125 0,0.4453125 0.222656,0.8203125 0.46875,1.03125 -0.128907,0.1523437 -0.304688,0.4804687 -0.304688,0.8203125 0,0.31640621 0.128906,0.69140621 0.433594,0.89062496 -0.597656,0.17578125 -0.914063,0.59765625 -0.914063,0.99609375 0,0.71484379 0.984375,1.26562499 2.203125,1.26562499 1.171875,0 2.203125,-0.5039062 2.203125,-1.28906249 0,-0.33984375 -0.140625,-0.85546875 -0.644531,-1.125 -0.527344,-0.28125 -1.101562,-0.28125 -1.710937,-0.28125 -0.246094,0 -0.679688,0 -0.75,-0.0117188 -0.316407,-0.046875 -0.527344,-0.35156241 -0.527344,-0.66796871 z m 1.441406,3.1523438 c -1.007812,0 -1.699219,-0.515625 -1.699219,-1.04296879 0,-0.45703125 0.375,-0.8203125 0.820313,-0.85546875 h 0.585937 c 0.855469,0 1.96875,0 1.96875,0.85546875 0,0.53906249 -0.703125,1.04296879 -1.675781,1.04296879 z m 3.600586,-4.3359375 c 0.05859,-1.4882813 0.902344,-1.734375 1.242187,-1.734375 1.019532,0 1.125,1.3476562 1.125,1.734375 z m -0.01172,0.2109375 h 2.789063 c 0.210937,0 0.246093,0 0.246093,-0.2109375 0,-0.984375 -0.539062,-1.9570313 -1.78125,-1.9570313 -1.160156,0 -2.074218,1.03125 -2.074218,2.2734375 0,1.33593751 1.042968,2.29687501 2.191406,2.29687501 1.21875,0 1.664062,-1.1015625 1.664062,-1.28906251 0,-0.1054687 -0.08203,-0.1171875 -0.128906,-0.1171875 -0.09375,0 -0.117187,0.058594 -0.128906,0.140625 -0.351563,1.01953126 -1.253906,1.01953126 -1.347656,1.01953126 -0.503907,0 -0.902344,-0.29296875 -1.125,-0.66796875 C 17.844617,-1.2902734 17.844617,-1.9465234 17.844617,-2.2980859 Z m 5.083008,-4.6171875 -1.429687,0.1054687 v 0.3164063 c 0.703125,0 0.773437,0.070312 0.773437,0.5507812 v 5.17968751 c 0,0.45703125 -0.105469,0.45703125 -0.773437,0.45703125 v 0.3046875 c 0.328125,-0.01171875 0.855468,-0.03515625 1.101562,-0.03515625 0.257813,0 0.738281,0.0234375 1.113281,0.03515625 v -0.3046875 c -0.667968,0 -0.785156,0 -0.785156,-0.45703125 z m 7.256836,5.2734375 v 0.86718746 c 0,0.3515625 -0.02344,0.46875 -0.761719,0.46875 h -0.210937 v 0.3046875 c 0.410156,-0.03515625 0.9375,-0.03515625 1.347656,-0.03515625 0.421875,0 0.949219,0 1.359375,0.03515625 v -0.3046875 h -0.210938 c -0.738281,0 -0.761718,-0.1171875 -0.761718,-0.46875 V -1.6418359 h 0.996093 V -1.9582422 H 30.94618 v -4.5234375 c 0,-0.1992187 0,-0.2578125 -0.152344,-0.2578125 -0.09375,0 -0.117188,0 -0.199219,0.1171875 l -3.058594,4.6640625 v 0.3164063 z m 0.05859,-0.3164063 h -2.425782 l 2.425782,-3.7148437 z m 0,0"
       style="fill:#000000;fill-opacity:1;fill-rule:nonzero;stroke:none"
       aria-label="Regel4"
       transform="matrix(1.3333333,0,0,1.3333333,127.61733,165.01333)" />
    <path
       id="path27"
       d="M 74.4339,-85.63817 42.93214,-124.951"
       style="fill:none;stroke:#000000;stroke-width:0.79701;stroke-linecap:butt;stroke-linejoin:miter;stroke-miterlimit:10;stroke-dasharray:none;stroke-opacity:1"
       transform="matrix(1.3333333,0,0,-1.3333333,225.64,19.162667)" />
    <path
       id="path28"
       d="M 5.44046,0 1.28699,1.5706 2.66432,0 1.28699,-1.5706 Z"
       style="fill:#000000;fill-opacity:1;fill-rule:nonzero;stroke:#000000;stroke-width:0.79701;stroke-linecap:butt;stroke-linejoin:miter;stroke-miterlimit:10;stroke-dasharray:none;stroke-opacity:1"
       transform="matrix(-0.83372,1.0404267,1.0404267,0.83372,284.93804,183.19929)" />
    <path
       id="path29"
       d="m 2.2263984,-3.5168359 v -2.578125 c 0,-0.234375 0,-0.3515625 0.2226563,-0.3867188 0.1054687,-0.011719 0.3867187,-0.011719 0.5859375,-0.011719 0.9023437,0 2.015625,0.035156 2.015625,1.4765625 0,0.6914062 -0.234375,1.5 -1.7109375,1.5 z m 2.109375,0.1289062 c 0.9609375,-0.234375 1.7460938,-0.84375 1.7460938,-1.6289062 0,-0.9492188 -1.1367188,-1.7929688 -2.6015625,-1.7929688 H 0.35139844 v 0.3164063 h 0.234375 c 0.77343746,0 0.78515626,0.1054687 0.78515626,0.46875 v 5.24999996 c 0,0.3515625 -0.011719,0.46875 -0.78515626,0.46875 h -0.234375 v 0.3046875 c 0.3515625,-0.03515625 1.06640626,-0.03515625 1.45312496,-0.03515625 0.3867188,0 1.0898438,0 1.453125,0.03515625 v -0.3046875 h -0.234375 c -0.7734375,0 -0.796875,-0.1171875 -0.796875,-0.46875 V -3.2941797 h 1.1484375 c 0.1640625,0 0.5742188,0 0.9257813,0.3398438 0.3867187,0.3515625 0.3867187,0.65625 0.3867187,1.3242187 0,0.65625001 0,1.05468751 0.3984375,1.42968751 0.4101563,0.36328125 0.9609375,0.421875 1.2539063,0.421875 0.7851562,0 0.9492187,-0.8203125 0.9492187,-1.1015625 0,-0.0585938 0,-0.16406251 -0.1289062,-0.16406251 -0.1054688,0 -0.1054688,0.0820313 -0.1171875,0.15234376 -0.058594,0.71484375 -0.4101563,0.890625 -0.65625,0.890625 -0.4921875,0 -0.5742188,-0.50390625 -0.703125,-1.42968746 l -0.140625,-0.796875 C 5.3670234,-2.8723047 4.8865547,-3.2004297 4.3357734,-3.3879297 Z m 4.1103516,0.8789063 c 0.058594,-1.4882813 0.9023437,-1.734375 1.2421875,-1.734375 1.0195315,0 1.1249995,1.3476562 1.1249995,1.734375 z m -0.011719,0.2109375 h 2.789063 c 0.210937,0 0.246093,0 0.246093,-0.2109375 0,-0.984375 -0.539062,-1.9570313 -1.7812497,-1.9570313 -1.1601563,0 -2.0742188,1.03125 -2.0742188,2.2734375 0,1.33593751 1.0429688,2.29687501 2.1914063,2.29687501 1.2187502,0 1.6640622,-1.1015625 1.6640622,-1.28906251 0,-0.1054687 -0.08203,-0.1171875 -0.128906,-0.1171875 -0.09375,0 -0.117187,0.058594 -0.128906,0.140625 -0.351563,1.01953126 -1.2539065,1.01953126 -1.3476565,1.01953126 -0.5039062,0 -0.9023437,-0.29296875 -1.125,-0.66796875 C 8.4344062,-1.2902734 8.4344062,-1.9465234 8.434406,-2.2980859 Z m 5.540039,0.5859375 c -0.867187,0 -0.867187,-0.9960938 -0.867187,-1.2304688 0,-0.2695312 0.01172,-0.5859375 0.152344,-0.8320312 0.08203,-0.1171875 0.316406,-0.3984375 0.714843,-0.3984375 0.867188,0 0.867188,0.9960937 0.867188,1.21875 0,0.2695312 -0.01172,0.5976562 -0.164063,0.84375 -0.08203,0.1171875 -0.304687,0.3984375 -0.703125,0.3984375 z m -1.160156,0.3867187 c 0,-0.035156 0,-0.2695312 0.175781,-0.46875 0.386719,0.28125 0.796875,0.3046875 0.984375,0.3046875 0.925782,0 1.605469,-0.6796875 1.605469,-1.453125 0,-0.3632812 -0.152344,-0.7382812 -0.398437,-0.9609375 0.351562,-0.3398437 0.714843,-0.3867187 0.890625,-0.3867187 0.02344,0 0.07031,0 0.105468,0 -0.117187,0.046875 -0.164062,0.1523437 -0.164062,0.2695312 0,0.1757813 0.128906,0.2929688 0.292969,0.2929688 0.09375,0 0.28125,-0.070312 0.28125,-0.2929688 0,-0.1757812 -0.117188,-0.4921875 -0.503907,-0.4921875 -0.199218,0 -0.632812,0.058594 -1.054687,0.46875 -0.421875,-0.328125 -0.84375,-0.3632812 -1.054688,-0.3632812 -0.925781,0 -1.617187,0.6914062 -1.617187,1.453125 0,0.4453125 0.222656,0.8203125 0.46875,1.03125 -0.128906,0.1523437 -0.304688,0.4804687 -0.304688,0.8203125 0,0.31640621 0.128907,0.69140621 0.433594,0.89062496 -0.597656,0.17578125 -0.914062,0.59765625 -0.914062,0.99609375 0,0.71484379 0.984375,1.26562499 2.203125,1.26562499 1.171875,0 2.203125,-0.5039062 2.203125,-1.28906249 0,-0.33984375 -0.140625,-0.85546875 -0.644532,-1.125 -0.527343,-0.28125 -1.101562,-0.28125 -1.710937,-0.28125 -0.246094,0 -0.679688,0 -0.75,-0.0117188 -0.316406,-0.046875 -0.527344,-0.35156241 -0.527344,-0.66796871 z m 1.441406,3.1523438 c -1.007812,0 -1.699218,-0.515625 -1.699218,-1.04296879 0,-0.45703125 0.375,-0.8203125 0.820312,-0.85546875 h 0.585938 c 0.855468,0 1.96875,0 1.96875,0.85546875 0,0.53906249 -0.703125,1.04296879 -1.675782,1.04296879 z m 3.600586,-4.3359375 c 0.05859,-1.4882813 0.902344,-1.734375 1.242188,-1.734375 1.019531,0 1.125,1.3476562 1.125,1.734375 z m -0.01172,0.2109375 h 2.789063 c 0.210937,0 0.246094,0 0.246094,-0.2109375 0,-0.984375 -0.539063,-1.9570313 -1.78125,-1.9570313 -1.160157,0 -2.074219,1.03125 -2.074219,2.2734375 0,1.33593751 1.042969,2.29687501 2.191406,2.29687501 1.21875,0 1.664063,-1.1015625 1.664063,-1.28906251 0,-0.1054687 -0.08203,-0.1171875 -0.128907,-0.1171875 -0.09375,0 -0.117187,0.058594 -0.128906,0.140625 -0.351562,1.01953126 -1.253906,1.01953126 -1.347656,1.01953126 -0.503906,0 -0.902344,-0.29296875 -1.125,-0.66796875 C 17.844562,-1.2902734 17.844562,-1.9465234 17.844562,-2.2980859 Z m 5.083008,-4.6171875 -1.429687,0.1054687 v 0.3164063 c 0.703125,0 0.773437,0.070312 0.773437,0.5507812 v 5.17968751 c 0,0.45703125 -0.105468,0.45703125 -0.773437,0.45703125 v 0.3046875 c 0.328125,-0.01171875 0.855469,-0.03515625 1.101562,-0.03515625 0.257813,0 0.738282,0.0234375 1.113282,0.03515625 v -0.3046875 c -0.667969,0 -0.785157,0 -0.785157,-0.45703125 z m 8.803711,4.9101562 c 0,-1.1835937 -0.820312,-2.1796875 -1.898437,-2.1796875 -0.480469,0 -0.902344,0.1640625 -1.265625,0.5039063 v -1.9335938 c 0.199218,0.058594 0.527343,0.1289063 0.84375,0.1289063 1.230468,0 1.933593,-0.9140625 1.933593,-1.0429688 0,-0.058594 -0.03516,-0.1054687 -0.105468,-0.1054687 -0.01172,0 -0.03516,0 -0.08203,0.023437 -0.199218,0.09375 -0.679687,0.2929687 -1.347656,0.2929687 -0.398437,0 -0.855469,-0.070312 -1.324219,-0.28125 -0.08203,-0.023437 -0.105468,-0.023437 -0.128906,-0.023437 -0.09375,0 -0.09375,0.082031 -0.09375,0.234375 v 2.953125 c 0,0.1757813 0,0.2578125 0.140625,0.2578125 0.07031,0 0.08203,-0.035156 0.128906,-0.09375 0.105469,-0.1523437 0.480469,-0.6914062 1.277344,-0.6914062 0.527344,0 0.773438,0.4570312 0.855469,0.6328125 0.152344,0.375 0.175781,0.7617187 0.175781,1.2539062 0,0.3515625 0,0.9492188 -0.234375,1.37109376 -0.246094,0.38671875 -0.609375,0.64453125 -1.066406,0.64453125 -0.726563,0 -1.300781,-0.52734375 -1.464844,-1.11328121 0.02344,0.011719 0.05859,0.011719 0.164063,0.011719 0.328125,0 0.503906,-0.2460937 0.503906,-0.4804687 0,-0.2460938 -0.175781,-0.4921875 -0.503906,-0.4921875 -0.140625,0 -0.480469,0.070312 -0.480469,0.5273437 0,0.85546876 0.679687,1.82812501 1.792969,1.82812501 1.160156,0 2.179687,-0.9609375 2.179687,-2.22656251 z m 0,0"
       style="fill:#000000;fill-opacity:1;fill-rule:nonzero;stroke:none"
       aria-label="Regel5"
       transform="matrix(1.3333333,0,0,1.3333333,280.676,165.01333)" />
    <path
       id="path30"
       d="M 97.45082,-85.63817 128.95256,-124.951"
       style="fill:none;stroke:#000000;stroke-width:0.79701;stroke-linecap:butt;stroke-linejoin:miter;stroke-miterlimit:10;stroke-dasharray:none;stroke-opacity:1"
       transform="matrix(1.3333333,0,0,-1.3333333,225.64,19.162667)" />
    <path
       id="path31"
       d="M 5.44046,0 1.28699,1.5706 2.66432,0 1.28699,-1.5706 Z"
       style="fill:#000000;fill-opacity:1;fill-rule:nonzero;stroke:#000000;stroke-width:0.79701;stroke-linecap:butt;stroke-linejoin:miter;stroke-miterlimit:10;stroke-dasharray:none;stroke-opacity:1"
       transform="matrix(0.83372,1.0404267,1.0404267,-0.83372,395.52157,183.19929)" />
    <path
       id="path32"
       d="m 2.2262891,-3.5168359 v -2.578125 c 0,-0.234375 0,-0.3515625 0.2226562,-0.3867188 0.1054688,-0.011719 0.3867188,-0.011719 0.5859375,-0.011719 0.9023438,0 2.015625,0.035156 2.015625,1.4765625 0,0.6914062 -0.234375,1.5 -1.7109375,1.5 z m 2.109375,0.1289062 c 0.9609375,-0.234375 1.7460937,-0.84375 1.7460937,-1.6289062 0,-0.9492188 -1.1367187,-1.7929688 -2.6015625,-1.7929688 H 0.35128906 v 0.3164063 h 0.234375 c 0.77343754,0 0.78515624,0.1054687 0.78515624,0.46875 v 5.24999996 c 0,0.3515625 -0.011719,0.46875 -0.78515624,0.46875 h -0.234375 v 0.3046875 c 0.3515625,-0.03515625 1.06640624,-0.03515625 1.45312504,-0.03515625 0.3867187,0 1.0898437,0 1.453125,0.03515625 v -0.3046875 h -0.234375 c -0.7734375,0 -0.796875,-0.1171875 -0.796875,-0.46875 V -3.2941797 h 1.1484375 c 0.1640625,0 0.5742187,0 0.9257812,0.3398438 0.3867188,0.3515625 0.3867188,0.65625 0.3867188,1.3242187 0,0.65625001 0,1.05468751 0.3984375,1.42968751 0.4101562,0.36328125 0.9609375,0.421875 1.2539062,0.421875 0.7851563,0 0.9492188,-0.8203125 0.9492188,-1.1015625 0,-0.0585938 0,-0.16406251 -0.1289063,-0.16406251 -0.1054687,0 -0.1054687,0.0820313 -0.1171875,0.15234376 -0.058594,0.71484375 -0.4101562,0.890625 -0.65625,0.890625 -0.4921875,0 -0.5742187,-0.50390625 -0.703125,-1.42968746 l -0.140625,-0.796875 C 5.3669141,-2.8723047 4.8864453,-3.2004297 4.3356641,-3.3879297 Z m 4.1103515,0.8789063 c 0.058594,-1.4882813 0.9023438,-1.734375 1.2421875,-1.734375 1.0195309,0 1.1249999,1.3476562 1.1249999,1.734375 z m -0.011719,0.2109375 h 2.7890624 c 0.210938,0 0.246094,0 0.246094,-0.2109375 0,-0.984375 -0.539062,-1.9570313 -1.7812502,-1.9570313 -1.1601562,0 -2.0742187,1.03125 -2.0742187,2.2734375 0,1.33593751 1.0429687,2.29687501 2.1914062,2.29687501 1.2187507,0 1.6640627,-1.1015625 1.6640627,-1.28906251 0,-0.1054687 -0.08203,-0.1171875 -0.128906,-0.1171875 -0.09375,0 -0.117188,0.058594 -0.128906,0.140625 -0.351563,1.01953126 -1.2539069,1.01953126 -1.3476569,1.01953126 -0.5039063,0 -0.9023438,-0.29296875 -1.125,-0.66796875 C 8.4342969,-1.2902734 8.4342969,-1.9465234 8.4342966,-2.2980859 Z m 5.5400394,0.5859375 c -0.867188,0 -0.867188,-0.9960938 -0.867188,-1.2304688 0,-0.2695312 0.01172,-0.5859375 0.152344,-0.8320312 0.08203,-0.1171875 0.316406,-0.3984375 0.714844,-0.3984375 0.867187,0 0.867187,0.9960937 0.867187,1.21875 0,0.2695312 -0.01172,0.5976562 -0.164062,0.84375 -0.08203,0.1171875 -0.304688,0.3984375 -0.703125,0.3984375 z m -1.160156,0.3867187 c 0,-0.035156 0,-0.2695312 0.175781,-0.46875 0.386719,0.28125 0.796875,0.3046875 0.984375,0.3046875 0.925781,0 1.605469,-0.6796875 1.605469,-1.453125 0,-0.3632812 -0.152344,-0.7382812 -0.398438,-0.9609375 0.351563,-0.3398437 0.714844,-0.3867187 0.890625,-0.3867187 0.02344,0 0.07031,0 0.105469,0 -0.117188,0.046875 -0.164063,0.1523437 -0.164063,0.2695312 0,0.1757813 0.128907,0.2929688 0.292969,0.2929688 0.09375,0 0.28125,-0.070312 0.28125,-0.2929688 0,-0.1757812 -0.117187,-0.4921875 -0.503906,-0.4921875 -0.199219,0 -0.632813,0.058594 -1.054688,0.46875 -0.421875,-0.328125 -0.84375,-0.3632812 -1.054687,-0.3632812 -0.925781,0 -1.617188,0.6914062 -1.617188,1.453125 0,0.4453125 0.222657,0.8203125 0.46875,1.03125 -0.128906,0.1523437 -0.304687,0.4804687 -0.304687,0.8203125 0,0.31640621 0.128906,0.69140621 0.433594,0.89062496 -0.597657,0.17578125 -0.914063,0.59765625 -0.914063,0.99609375 0,0.71484379 0.984375,1.26562499 2.203125,1.26562499 1.171875,0 2.203125,-0.5039062 2.203125,-1.28906249 0,-0.33984375 -0.140625,-0.85546875 -0.644531,-1.125 -0.527344,-0.28125 -1.101563,-0.28125 -1.710938,-0.28125 -0.246093,0 -0.679687,0 -0.75,-0.0117188 -0.316406,-0.046875 -0.527343,-0.35156241 -0.527343,-0.66796871 z m 1.441406,3.1523438 c -1.007813,0 -1.699219,-0.515625 -1.699219,-1.04296879 0,-0.45703125 0.375,-0.8203125 0.820313,-0.85546875 h 0.585937 c 0.855469,0 1.96875,0 1.96875,0.85546875 0,0.53906249 -0.703125,1.04296879 -1.675781,1.04296879 z m 3.600586,-4.3359375 c 0.05859,-1.4882813 0.902344,-1.734375 1.242187,-1.734375 1.019532,0 1.125,1.3476562 1.125,1.734375 z m -0.01172,0.2109375 h 2.789063 c 0.210937,0 0.246093,0 0.246093,-0.2109375 0,-0.984375 -0.539062,-1.9570313 -1.78125,-1.9570313 -1.160156,0 -2.074218,1.03125 -2.074218,2.2734375 0,1.33593751 1.042968,2.29687501 2.191406,2.29687501 1.21875,0 1.664062,-1.1015625 1.664062,-1.28906251 0,-0.1054687 -0.08203,-0.1171875 -0.128906,-0.1171875 -0.09375,0 -0.117187,0.058594 -0.128906,0.140625 -0.351563,1.01953126 -1.253906,1.01953126 -1.347656,1.01953126 -0.503907,0 -0.902344,-0.29296875 -1.125,-0.66796875 C 17.844453,-1.2902734 17.844453,-1.9465234 17.844453,-2.2980859 Z m 5.083008,-4.6171875 -1.429688,0.1054687 v 0.3164063 c 0.703125,0 0.773438,0.070312 0.773438,0.5507812 v 5.17968751 c 0,0.45703125 -0.105469,0.45703125 -0.773438,0.45703125 v 0.3046875 c 0.328125,-0.01171875 0.855469,-0.03515625 1.101563,-0.03515625 0.257812,0 0.738281,0.0234375 1.113281,0.03515625 v -0.3046875 c -0.667969,0 -0.785156,0 -0.785156,-0.45703125 z m 5.639648,3.6445312 v -0.234375 c 0,-2.5195312 1.242188,-2.8828125 1.746094,-2.8828125 0.234375,0 0.65625,0.058594 0.878906,0.3984375 -0.152343,0 -0.550781,0 -0.550781,0.4453125 0,0.3164063 0.234375,0.4570313 0.457031,0.4570313 0.164063,0 0.457032,-0.082031 0.457032,-0.46875 0,-0.5976563 -0.433594,-1.078125 -1.265625,-1.078125 -1.277344,0 -2.613282,1.2890625 -2.613282,3.4804687 0,2.66015626 1.148438,3.37500001 2.074219,3.37500001 1.113281,0 2.050781,-0.9375 2.050781,-2.25000001 0,-1.265625 -0.878906,-2.2265625 -1.992187,-2.2265625 -0.667969,0 -1.042969,0.5039063 -1.242188,0.984375 z m 1.183594,3.21093751 c -0.621094,0 -0.925781,-0.59765625 -0.984375,-0.75 -0.175781,-0.46875001 -0.175781,-1.26562501 -0.175781,-1.44140621 0,-0.7734375 0.316406,-1.7695313 1.21875,-1.7695313 0.152344,0 0.609375,0 0.925781,0.609375 0.175781,0.375 0.175781,0.8789063 0.175781,1.3710938 0,0.4804687 0,0.9726562 -0.164062,1.33593746 -0.304688,0.59765625 -0.761719,0.64453125 -0.996094,0.64453125 z m 0,0"
       style="fill:#000000;fill-opacity:1;fill-rule:nonzero;stroke:none"
       aria-label="Regel6"
       transform="matrix(1.3333333,0,0,1.3333333,356.79333,165.01333)" />
  </g>
</svg>
