<?xml version="1.0" encoding="UTF-8" standalone="no"?>
<!-- Created with Inkscape (http://www.inkscape.org/) -->

<svg
   version="1.1"
   id="svg1"
   width="482.35867"
   height="154.13333"
   viewBox="0 0 482.35867 154.13333"
   xmlns="http://www.w3.org/2000/svg"
   xmlns:svg="http://www.w3.org/2000/svg">
  <defs
     id="defs1" />
  <g
     id="g1">
    <path
       id="path1"
       d="M -56.69363,-12.75597 H 56.69364 V 12.75598 H -56.69363 Z"
       style="fill:#e6e6e6;fill-opacity:1;fill-rule:nonzero;stroke:#000000;stroke-width:0.79701;stroke-linecap:butt;stroke-linejoin:miter;stroke-miterlimit:10;stroke-dasharray:none;stroke-opacity:1"
       transform="matrix(1.3333333,0,0,-1.3333333,84.977333,136.59467)" />
    <path
       id="path2"
       d="m 3.8310391,-6.2113906 h 0.890625 c 0.1171875,0 0.234375,0 0.3632812,0 H 6.4091641 V -6.8559219 H 0.36228906 v 0.6445313 H 1.6982266 c 0.1171875,0 0.234375,0 0.3515625,0 h 0.9023437 v 6.210937475 h 0.8789063 z m 3.6826171,4.078125 c 0,-0.9960938 0.7265625,-1.7109375 1.6992188,-1.734375 V -4.5356094 C 8.32225,-4.5238906 7.7831875,-4.0317031 7.4667812,-3.5746719 V -4.4887344 H 6.775375 v 4.488281275 h 0.7382812 z m 3.6767578,-4.640625 h -0.832031 v 0.8320312 h 0.832031 z m 1.933594,0 h -0.832031 v 0.8320312 h 0.832031 z m 0.205078,3.890625 c 0,-1.0078125 -0.726563,-1.7109375 -1.640625,-1.7109375 -0.644531,0 -1.101563,0.1640625 -1.570313,0.4335937 l 0.07031,0.65625 c 0.515625,-0.375 1.007812,-0.5039062 1.5,-0.5039062 0.46875,0 0.867187,0.3984375 0.867187,1.1367187 v 0.4335938 c -1.5,0.011719 -2.7656246,0.4335937 -2.7656246,1.3125 0,0.42187498 0.2695316,1.23046873 1.1367186,1.23046873 0.140625,0 1.078125,-0.01171875 1.652344,-0.46875 v 0.363281245 h 0.75 z m -0.773438,1.5703125 c 0,0.1875 0,0.43359373 -0.339843,0.62109373 -0.292969,0.1875 -0.667969,0.1875 -0.773438,0.1875 -0.480469,0 -0.925781,-0.22265625 -0.925781,-0.64453123 0,-0.6914063 1.605469,-0.7617188 2.039062,-0.7851563 z m 5.926758,-1.6523438 c 0,-0.65625 -0.152344,-1.5703125 -1.371094,-1.5703125 -0.890625,0 -1.382812,0.6796875 -1.441406,0.7617188 V -4.4887344 H 14.955062 V -4.53125e-4 H 15.7285 V -2.4379531 c 0,-0.65625 0.246094,-1.4882813 1.007812,-1.4882813 0.960938,0 0.960938,0.703125 0.960938,1.03125 v 2.894531275 h 0.785156 z m 2.44043,-3.8085937 h -0.890625 v 0.890625 h 0.890625 z m -0.07031,2.3554687 h -0.75 v 4.417968775 h 0.75 z m 5.15625,1.453125 c 0,-0.65625 -0.152343,-1.5703125 -1.371093,-1.5703125 -0.890625,0 -1.382813,0.6796875 -1.441407,0.7617188 V -4.4887344 H 22.48143 v 4.488281275 h 0.773437 V -2.4379531 c 0,-0.65625 0.246094,-1.4882813 1.007813,-1.4882813 0.960937,0 0.960937,0.703125 0.960937,1.03125 v 2.894531275 h 0.785156 z m 4.31543,-0.9257812 c 0.222656,0 0.503906,-0.046875 0.738281,-0.046875 0.175782,0 0.574219,0.035156 0.585938,0.035156 l -0.105469,-0.6328125 c -0.703125,0 -1.277344,0.1875 -1.570312,0.3164063 -0.210938,-0.1640625 -0.550782,-0.3164063 -0.949219,-0.3164063 -0.855469,0 -1.582031,0.7148438 -1.582031,1.6289063 0,0.3632812 0.128906,0.7265625 0.328125,0.984375 -0.292969,0.4101562 -0.292969,0.796875 -0.292969,0.84375 0,0.25781248 0.09375,0.55078123 0.257812,0.76171873 -0.515625,0.3046875 -0.632812,0.76171875 -0.632812,1.01953125 0,0.75000002 0.984375,1.34765622 2.203125,1.34765622 1.21875,0 2.203125,-0.5859375 2.203125,-1.34765622 0,-1.39453125 -1.664063,-1.39453125 -2.050781,-1.39453125 h -0.878907 c -0.128906,0 -0.574218,0 -0.574218,-0.52734373 0,-0.1054688 0.04687,-0.2695313 0.117187,-0.3515625 0.199219,0.140625 0.527344,0.28125 0.902344,0.28125 0.890625,0 1.59375,-0.7382813 1.59375,-1.6171875 0,-0.4804688 -0.222656,-0.84375 -0.328125,-0.9960938 z m -1.300781,2.0390625 c -0.375,0 -0.890625,-0.234375 -0.890625,-1.0546875 0,-0.8320313 0.515625,-1.0546875 0.890625,-1.0546875 0.421875,0 0.890625,0.2695312 0.890625,1.0546875 0,0.7734375 -0.46875,1.0546875 -0.890625,1.0546875 z m 0.445312,1.88671873 c 0.222657,0 1.347657,0 1.347657,0.6796875 0,0.44531247 -0.691407,0.77343747 -1.5,0.77343747 -0.808594,0 -1.523438,-0.3164062 -1.523438,-0.78515622 0,-0.0234375 0,-0.66796875 0.785156,-0.66796875 z m 0,0"
       style="fill:#000000;fill-opacity:1;fill-rule:nonzero;stroke:none"
       aria-label="Tr¨aning"
       transform="matrix(1.3333333,0,0,1.3333333,63.778667,139.91467)" />
    <path
       id="path3"
       d="M 56.6936,-12.75597 H 170.08087 V 12.75598 H 56.6936 Z"
       style="fill:#d9d9d9;fill-opacity:1;fill-rule:nonzero;stroke:#000000;stroke-width:0.79701;stroke-linecap:butt;stroke-linejoin:miter;stroke-miterlimit:10;stroke-dasharray:none;stroke-opacity:1"
       transform="matrix(1.3333333,0,0,-1.3333333,84.977333,136.59467)" />
    <path
       id="path4"
       d="M 6.4921328,-6.9145156 H 5.7186953 L 4.3944766,-3.5043594 C 4.2304141,-3.0942031 3.4921328,-1.1723281 3.3983828,-0.71529687 H 3.3866641 C 3.3046328,-1.1137344 2.8827578,-2.2152969 2.7890078,-2.4496719 L 1.0663516,-6.9145156 H 0.14057031 L 2.8593203,-4.53125e-4 h 0.9140625 z m 3.8437502,4.03125 c 0,-1.0078125 -0.7265627,-1.7109375 -1.6406252,-1.7109375 -0.6445312,0 -1.1015625,0.1640625 -1.5703125,0.4335937 l 0.070312,0.65625 c 0.515625,-0.375 1.0078125,-0.5039062 1.5,-0.5039062 0.46875,0 0.8671875,0.3984375 0.8671875,1.1367187 v 0.4335938 c -1.5,0.011719 -2.765625,0.4335937 -2.765625,1.3125 0,0.42187498 0.2695313,1.23046873 1.1367188,1.23046873 0.140625,0 1.078125,-0.01171875 1.6523437,-0.46875 v 0.363281245 h 0.7500007 z m -0.7734377,1.5703125 c 0,0.1875 0,0.43359373 -0.3398437,0.62109373 -0.2929688,0.1875 -0.6679688,0.1875 -0.7734375,0.1875 -0.4804688,0 -0.9257813,-0.22265625 -0.9257813,-0.64453123 0,-0.6914063 1.6054688,-0.7617188 2.0390625,-0.7851563 z M 12.70893,-6.9145156 h -0.75 v 6.914062475 h 0.75 z m 2.452148,0.140625 h -0.890625 v 0.890625 h 0.890625 z m -0.07031,2.3554687 h -0.75 v 4.417968775 h 0.75 z m 5.144531,-2.4960937 h -0.75 v 2.9296875 c -0.527344,-0.4335938 -1.078125,-0.5507813 -1.453125,-0.5507813 -0.984375,0 -1.757813,1.0429688 -1.757813,2.3203125 0,1.31250003 0.761719,2.32031253 1.710938,2.32031253 0.328125,0 0.914062,-0.08203125 1.476562,-0.62109375 v 0.515624995 h 0.773438 z m -0.773438,5.53125 c 0,0.140625 -0.01172,0.3164062 -0.328125,0.60937498 -0.234375,0.19921875 -0.480468,0.26953125 -0.738281,0.26953125 -0.621094,0 -1.347656,-0.45703125 -1.347656,-1.69921873 0,-1.3125 0.855469,-1.7226563 1.441406,-1.7226563 0.445313,0 0.75,0.234375 0.972656,0.5507813 z m 5.72168,-0.796875 c 0,-0.3398438 -0.01172,-1.0898438 -0.398437,-1.6875 -0.410157,-0.6210938 -1.019532,-0.7265625 -1.371094,-0.7265625 -1.113281,0 -2.003906,1.0546875 -2.003906,2.34375 0,1.31249998 0.949218,2.35546873 2.144531,2.35546873 0.632812,0 1.195312,-0.234375 1.59375,-0.515625 L 25.07807,-1.0551406 c -0.621093,0.51562498 -1.277343,0.55078123 -1.511718,0.55078123 -0.796875,0 -1.429688,-0.70312503 -1.464844,-1.67578123 z m -3.023437,-0.5507813 c 0.152343,-0.7617187 0.679687,-1.2539062 1.253906,-1.2539062 0.515625,0 1.066406,0.3398437 1.195312,1.2539062 z m 4.883789,0.5976563 c 0,-0.9960938 0.726562,-1.7109375 1.699218,-1.734375 v -0.6679688 c -0.890625,0.011719 -1.429687,0.5039063 -1.746093,0.9609375 v -0.9140625 h -0.691407 v 4.488281275 h 0.738282 z m 3.474609,-4.640625 h -0.890625 v 0.890625 H 30.5185 Z m -0.07031,2.3554687 h -0.75 v 4.417968775 h 0.75 z m 5.159179,1.453125 c 0,-0.65625 -0.152344,-1.5703125 -1.371094,-1.5703125 -0.890625,0 -1.382812,0.6796875 -1.441406,0.7617188 v -0.7148438 h -0.714844 v 4.488281275 h 0.773438 V -2.4379531 c 0,-0.65625 0.246094,-1.4882813 1.007812,-1.4882813 0.960938,0 0.960938,0.703125 0.960938,1.03125 v 2.894531275 h 0.785156 z m 4.31543,-0.9257812 c 0.222656,0 0.503906,-0.046875 0.738281,-0.046875 0.175781,0 0.574219,0.035156 0.585938,0.035156 l -0.105469,-0.6328125 c -0.703125,0 -1.277344,0.1875 -1.570313,0.3164063 -0.210937,-0.1640625 -0.550781,-0.3164063 -0.949218,-0.3164063 -0.855469,0 -1.582032,0.7148438 -1.582032,1.6289063 0,0.3632812 0.128907,0.7265625 0.328125,0.984375 -0.292968,0.4101562 -0.292968,0.796875 -0.292968,0.84375 0,0.25781248 0.09375,0.55078123 0.257812,0.76171873 -0.515625,0.3046875 -0.632812,0.76171875 -0.632812,1.01953125 0,0.75000002 0.984375,1.34765622 2.203125,1.34765622 1.21875,0 2.203125,-0.5859375 2.203125,-1.34765622 0,-1.39453125 -1.664063,-1.39453125 -2.050782,-1.39453125 h -0.878906 c -0.128906,0 -0.574219,0 -0.574219,-0.52734373 0,-0.1054688 0.04687,-0.2695313 0.117188,-0.3515625 0.199219,0.140625 0.527344,0.28125 0.902344,0.28125 0.890625,0 1.59375,-0.7382813 1.59375,-1.6171875 0,-0.4804688 -0.222657,-0.84375 -0.328125,-0.9960938 z m -1.300781,2.0390625 c -0.375,0 -0.890625,-0.234375 -0.890625,-1.0546875 0,-0.8320313 0.515625,-1.0546875 0.890625,-1.0546875 0.421875,0 0.890625,0.2695312 0.890625,1.0546875 0,0.7734375 -0.46875,1.0546875 -0.890625,1.0546875 z m 0.445312,1.88671873 c 0.222656,0 1.347656,0 1.347656,0.6796875 0,0.44531247 -0.691406,0.77343747 -1.5,0.77343747 -0.808593,0 -1.523437,-0.3164062 -1.523437,-0.78515622 0,-0.0234375 0,-0.66796875 0.785156,-0.66796875 z m 0,0"
       style="fill:#000000;fill-opacity:1;fill-rule:nonzero;stroke:none"
       aria-label="Validering"
       transform="matrix(1.3333333,0,0,1.3333333,208.55867,139.91467)" />
    <path
       id="path5"
       d="M 170.08084,-12.75597 H 283.46811 V 12.75598 H 170.08084 Z"
       style="fill:#cccccc;fill-opacity:1;fill-rule:nonzero;stroke:#000000;stroke-width:0.79701;stroke-linecap:butt;stroke-linejoin:miter;stroke-miterlimit:10;stroke-dasharray:none;stroke-opacity:1"
       transform="matrix(1.3333333,0,0,-1.3333333,84.977333,136.59467)" />
    <path
       id="path6"
       d="m 3.8314531,-6.2106641 h 0.890625 c 0.1171875,0 0.234375,0 0.3632813,0 H 6.4095781 V -6.8551953 H 0.36270313 v 0.6445312 H 1.6986406 c 0.1171875,0 0.234375,0 0.3515625,0 H 2.9525469 V 2.734375e-4 h 0.8789062 z m 6.2460939,4.03125 c 0,-0.3398437 -0.01172,-1.0898437 -0.3984376,-1.6875 -0.4101563,-0.6210937 -1.0195313,-0.7265625 -1.3710938,-0.7265625 -1.1132812,0 -2.0039062,1.0546875 -2.0039062,2.34375 0,1.31250004 0.9492187,2.35546879 2.1445312,2.35546879 0.6328125,0 1.1953125,-0.234375 1.5937504,-0.515625 L 9.9720781,-1.0544141 c -0.6210937,0.51562504 -1.2773437,0.55078129 -1.5117187,0.55078129 -0.796875,0 -1.4296875,-0.70312499 -1.4648438,-1.67578129 z M 7.0541094,-2.7301953 c 0.1523437,-0.7617188 0.6796875,-1.2539063 1.2539062,-1.2539063 0.515625,0 1.0664063,0.3398438 1.1953125,1.2539063 z m 6.7499996,-1.546875 c -0.527343,-0.234375 -0.925781,-0.3164063 -1.441406,-0.3164063 -0.246094,0 -1.652344,0 -1.652344,1.3007813 0,0.4921875 0.292969,0.8085937 0.539063,0.9960937 0.304687,0.2226563 0.527344,0.2695313 1.078125,0.375 0.351562,0.070312 0.9375,0.1875 0.9375,0.7148438 0,0.69140624 -0.785156,0.69140624 -0.9375,0.69140624 -0.808594,0 -1.371094,-0.375 -1.546875,-0.49218754 l -0.117188,0.67968754 c 0.316407,0.1640625 0.867188,0.43359375 1.675782,0.43359375 0.175781,0 0.726562,0 1.148437,-0.31640625 0.316406,-0.234375 0.480469,-0.6328125 0.480469,-1.06640624 0,-0.5507813 -0.363281,-0.8789063 -0.386719,-0.9140625 -0.386719,-0.3515625 -0.65625,-0.4101563 -1.160156,-0.5039063 -0.539063,-0.1054687 -1.007813,-0.1992187 -1.007813,-0.6914062 0,-0.6210938 0.726563,-0.6210938 0.855469,-0.6210938 0.316406,0 0.84375,0.046875 1.40625,0.3867188 z m 2.141602,0.4335937 h 1.40625 v -0.5742187 h -1.40625 v -1.265625 h -0.691406 v 1.265625 h -0.867188 v 0.5742187 h 0.84375 v 2.6601563 c 0,0.59765624 0.128906,1.28906249 0.820313,1.28906249 0.703125,0 1.207031,-0.24609375 1.453125,-0.375 l -0.152344,-0.5859375 c -0.257813,0.2109375 -0.585938,0.328125 -0.902344,0.328125 -0.363281,0 -0.503906,-0.3046875 -0.503906,-0.83203129 z m 0,0"
       style="fill:#000000;fill-opacity:1;fill-rule:nonzero;stroke:none"
       aria-label="Test"
       transform="matrix(1.3333333,0,0,1.3333333,375.47733,141.20667)" />
    <path
       id="path7"
       d="m -14.1734,68.03238 h 85.04044 v 34.0161 H -14.1734 Z"
       style="fill:#ffe0b3;fill-opacity:1;fill-rule:nonzero;stroke:#000000;stroke-width:0.79701;stroke-linecap:butt;stroke-linejoin:miter;stroke-miterlimit:10;stroke-dasharray:none;stroke-opacity:1"
       transform="matrix(1.3333333,0,0,-1.3333333,84.977333,136.59467)" />
    <path
       id="path8"
       d="m 5.2865547,-3.537625 c -0.3515625,0.9140625 -0.8203125,2.1445313 -0.9375,2.61328125 C 4.2904609,-1.1352812 4.1732734,-1.4985625 4.0209297,-1.9204375 l -1.5585938,-4.125 L 2.1224922,-6.912625 H 0.99749219 V 0.0014375 H 1.7709297 v -6.1757812 h 0.011719 c 0.058594,0.3164062 0.4570313,1.40625 0.7148438,2.0859375 L 3.974055,-0.22121875 H 4.7006172 L 6.0248359,-3.6899687 c 0.3164063,-0.8085938 0.4101563,-1.0546875 0.4804688,-1.2539063 0.1054687,-0.2929687 0.375,-1.0078125 0.421875,-1.2421875 l 0.011719,0.011719 v 6.175781 H 7.7123359 V -6.912625 H 6.5756172 Z m 6.4072263,-3.2109375 h -0.199218 c -0.585938,0.609375 -1.417969,0.6328125 -1.8867192,0.65625 v 0.5742188 c 0.328125,-0.011719 0.8085942,-0.023437 1.3007812,-0.234375 v 5.17968745 H 9.6664375 V 0.0014375 H 12.935969 V -0.57278125 H 11.693781 Z M 16.393,-7.475125 c -0.316406,0.3046875 -0.984375,0.9140625 -1.441406,2.1328125 -0.398438,1.0664063 -0.46875,2.1210938 -0.46875,2.8476563 0,3.2226562 1.441406,4.546875 1.910156,4.9921875 h 0.609375 C 16.521906,2.0170625 15.256281,0.728 15.256281,-2.4946562 c 0,-0.5507813 0.03516,-1.7226563 0.445313,-2.8945313 0.410156,-1.1484375 0.972656,-1.7460937 1.300781,-2.0859375 z m 3.723633,5.1914063 c 0,-0.6796875 0.339844,-1.4179688 1.019531,-2.0039063 0.1875,-0.1523437 0.574219,-0.46875 0.574219,-1.1953125 0,-0.6679687 -0.398438,-1.5351562 -1.910156,-1.5351562 -0.597657,0 -1.136719,0.1640625 -1.664063,0.5273437 l 0.222656,0.6210938 c 0.246094,-0.2109375 0.726563,-0.5390625 1.441407,-0.5390625 0.46875,0 1.125,0.070312 1.125,0.9257812 0,0.4453125 -0.210938,0.6328125 -0.339844,0.75 -1.136719,0.9726563 -1.136719,2.2382813 -1.136719,2.671875 v 0.3164063 h 0.667969 z m -0.75,2.2851562 h 0.832031 v -0.83203125 h -0.832031 z m 4.705078,-0.01171875 v -0.8203125 H 23.23968 V 0.0014375 h 0.257812 L 23.23968,1.243625 h 0.410156 z m 6.834961,-2.27343745 c 0,-0.6796875 0.339844,-1.4179688 1.019531,-2.0039063 0.1875,-0.1523437 0.574219,-0.46875 0.574219,-1.1953125 0,-0.6679687 -0.398438,-1.5351562 -1.910156,-1.5351562 -0.597657,0 -1.136719,0.1640625 -1.664063,0.5273437 l 0.222656,0.6210938 c 0.246094,-0.2109375 0.726563,-0.5390625 1.441407,-0.5390625 0.46875,0 1.125,0.070312 1.125,0.9257812 0,0.4453125 -0.210938,0.6328125 -0.339844,0.75 -1.136719,0.9726563 -1.136719,2.2382813 -1.136719,2.671875 v 0.3164063 h 0.667969 z m -0.75,2.2851562 h 0.832031 v -0.83203125 h -0.832031 z m 4.069336,2.4960938 c 0.328125,-0.3046875 0.996094,-0.9140625 1.453125,-2.13281255 0.398437,-1.06640625 0.46875,-2.12109375 0.46875,-2.85937495 0,-3.2109375 -1.441406,-4.5351563 -1.921875,-4.9804688 h -0.597656 c 0.46875,0.4804688 1.734375,1.7695313 1.734375,4.9804688 0,0.5625 -0.02344,1.73437495 -0.433594,2.90624995 C 34.518977,1.5600313 33.956477,2.1576875 33.628352,2.4975313 Z m 0,0"
       style="fill:#000000;fill-opacity:1;fill-rule:nonzero;stroke:none"
       aria-label="M1(?,?)"
       transform="matrix(1.3333333,0,0,1.3333333,98.142667,26.529333)" />
    <path
       id="path9"
       d="m 99.21382,68.03238 h 85.04044 v 34.0161 H 99.21382 Z"
       style="fill:#ffe0b3;fill-opacity:1;fill-rule:nonzero;stroke:#000000;stroke-width:0.79701;stroke-linecap:butt;stroke-linejoin:miter;stroke-miterlimit:10;stroke-dasharray:none;stroke-opacity:1"
       transform="matrix(1.3333333,0,0,-1.3333333,84.977333,136.59467)" />
    <path
       id="path10"
       d="m 5.2858359,-3.537625 c -0.3515625,0.9140625 -0.8203125,2.1445313 -0.9375,2.61328125 C 4.2897422,-1.1352812 4.1725547,-1.4985625 4.0202109,-1.9204375 l -1.5585937,-4.125 L 2.1217734,-6.912625 H 0.99677344 V 0.0014375 H 1.7702109 v -6.1757812 h 0.011719 c 0.058594,0.3164062 0.4570312,1.40625 0.7148437,2.0859375 l 1.4765625,3.86718745 H 4.6998984 L 6.0241172,-3.6899687 c 0.3164062,-0.8085938 0.4101562,-1.0546875 0.4804687,-1.2539063 0.1054688,-0.2929687 0.375,-1.0078125 0.421875,-1.2421875 l 0.011719,0.011719 v 6.175781 H 7.7116172 V -6.912625 H 6.5748984 Z m 5.1650391,1.6640625 -1.2304688,1.2421875 v 0.6328125 h 3.9726558 v -0.703125 h -1.816406 c -0.117187,0 -0.234375,0 -0.363281,0 H 9.93525 c 0.316406,-0.26953125 1.078125,-1.0195312 1.382812,-1.3125 0.1875,-0.1757812 0.691407,-0.5976562 0.890625,-0.7734375 0.445313,-0.4453125 0.984375,-0.9726562 0.984375,-1.828125 0,-1.1367187 -0.808593,-2.1328125 -2.121093,-2.1328125 -1.136719,0 -1.699219,0.7734375 -1.933594,1.6289063 0.1171875,0.1757812 0.1640625,0.234375 0.1875,0.2578125 0.023437,0.023437 0.1171875,0.1523437 0.2226562,0.2929687 0.1992188,-0.7734375 0.4687498,-1.546875 1.3828128,-1.546875 0.9375,0 1.441406,0.75 1.441406,1.5234375 0,0.84375 -0.5625,1.4179688 -1.160156,2.015625 z m 5.944336,-5.6015625 c -0.316406,0.3046875 -0.984375,0.9140625 -1.441406,2.1328125 -0.398438,1.0664063 -0.46875,2.1210938 -0.46875,2.8476563 0,3.2226562 1.441406,4.546875 1.910156,4.9921875 h 0.609375 C 16.524117,2.0170625 15.258492,0.728 15.258492,-2.4946562 c 0,-0.5507813 0.03516,-1.7226563 0.445313,-2.8945313 0.410156,-1.1484375 0.972656,-1.7460937 1.300781,-2.0859375 z m 3.720703,5.1914063 c 0,-0.6796875 0.339844,-1.4179688 1.019531,-2.0039063 0.1875,-0.1523437 0.574219,-0.46875 0.574219,-1.1953125 0,-0.6679687 -0.398437,-1.5351562 -1.910156,-1.5351562 -0.597656,0 -1.136719,0.1640625 -1.664063,0.5273437 l 0.222657,0.6210938 c 0.246093,-0.2109375 0.726562,-0.5390625 1.441406,-0.5390625 0.46875,0 1.125,0.070312 1.125,0.9257812 0,0.4453125 -0.210938,0.6328125 -0.339844,0.75 -1.136719,0.9726563 -1.136719,2.2382813 -1.136719,2.671875 v 0.3164063 h 0.667969 z m -0.75,2.2851562 h 0.832031 v -0.83203125 h -0.832031 z m 4.705078,-0.01171875 v -0.8203125 H 23.238961 V 0.0014375 h 0.257812 L 23.238961,1.243625 h 0.410156 z m 6.834961,-2.27343745 c 0,-0.6796875 0.339844,-1.4179688 1.019531,-2.0039063 0.1875,-0.1523437 0.574219,-0.46875 0.574219,-1.1953125 0,-0.6679687 -0.398437,-1.5351562 -1.910156,-1.5351562 -0.597656,0 -1.136719,0.1640625 -1.664063,0.5273437 l 0.222657,0.6210938 c 0.246093,-0.2109375 0.726562,-0.5390625 1.441406,-0.5390625 0.46875,0 1.125,0.070312 1.125,0.9257812 0,0.4453125 -0.210938,0.6328125 -0.339844,0.75 -1.136719,0.9726563 -1.136719,2.2382813 -1.136719,2.671875 v 0.3164063 h 0.667969 z m -0.75,2.2851562 h 0.832031 v -0.83203125 h -0.832031 z m 4.705078,-0.01171875 v -0.8203125 H 34.029 V 0.0014375 h 0.257812 L 34.029,1.243625 h 0.410156 z m 6.84375,-2.27343745 c 0,-0.6796875 0.339844,-1.4179688 1.019531,-2.0039063 0.1875,-0.1523437 0.574219,-0.46875 0.574219,-1.1953125 0,-0.6679687 -0.398437,-1.5351562 -1.910156,-1.5351562 -0.597656,0 -1.136719,0.1640625 -1.664063,0.5273437 l 0.222657,0.6210938 c 0.246093,-0.2109375 0.726562,-0.5390625 1.441406,-0.5390625 0.46875,0 1.125,0.070312 1.125,0.9257812 0,0.4453125 -0.210938,0.6328125 -0.339844,0.75 -1.136719,0.9726563 -1.136719,2.2382813 -1.136719,2.671875 v 0.3164063 h 0.667969 z m -0.75,2.2851562 h 0.832031 v -0.83203125 h -0.832031 z m 4.072266,2.4960938 c 0.328125,-0.3046875 0.996094,-0.9140625 1.453125,-2.13281255 0.398437,-1.06640625 0.46875,-2.12109375 0.46875,-2.85937495 0,-3.2109375 -1.441406,-4.5351563 -1.921875,-4.9804688 h -0.597656 c 0.46875,0.4804688 1.734375,1.7695313 1.734375,4.9804688 0,0.5625 -0.02344,1.73437495 -0.433594,2.90624995 C 45.320016,1.5600313 44.757516,2.1576875 44.429391,2.4975313 Z m 0,0"
       style="fill:#000000;fill-opacity:1;fill-rule:nonzero;stroke:none"
       aria-label="M2(?,?,?)"
       transform="matrix(1.3333333,0,0,1.3333333,242.128,26.529333)" />
    <path
       id="path11"
       d="m 212.60106,68.03238 h 85.04044 v 34.0161 h -85.04044 z"
       style="fill:#ffe0b3;fill-opacity:1;fill-rule:nonzero;stroke:#000000;stroke-width:0.79701;stroke-linecap:butt;stroke-linejoin:miter;stroke-miterlimit:10;stroke-dasharray:none;stroke-opacity:1"
       transform="matrix(1.3333333,0,0,-1.3333333,84.977333,136.59467)" />
    <path
       id="path12"
       d="m 5.2846328,-3.537625 c -0.3515625,0.9140625 -0.8203125,2.1445313 -0.9375,2.61328125 C 4.2885391,-1.1352812 4.1713516,-1.4985625 4.0190078,-1.9204375 l -1.5585937,-4.125 L 2.1205703,-6.912625 H 0.99557031 V 0.0014375 H 1.7690078 v -6.1757812 h 0.011719 c 0.058594,0.3164062 0.4570312,1.40625 0.7148437,2.0859375 L 3.972133,-0.22121875 H 4.6986953 L 6.0229141,-3.6899687 c 0.3164062,-0.8085938 0.4101562,-1.0546875 0.4804687,-1.2539063 0.1054688,-0.2929687 0.375,-1.0078125 0.421875,-1.2421875 l 0.011719,0.011719 v 6.175781 H 7.7104141 V -6.912625 H 6.5736953 Z m 4.3476563,-1.5820312 c 0.2929687,-0.6914063 0.9374999,-1.0546875 1.5468749,-1.0546875 0.515625,0 1.007813,0.2929687 1.007813,0.9375 0,0.609375 -0.410157,1.1953125 -1.019532,1.3359375 -0.05859,0.011719 -0.08203,0.011719 -0.785156,0.070312 v 0.609375 h 0.703125 c 1.078125,0 1.300781,0.9257812 1.300781,1.4179687 0,0.7734375 -0.457031,1.41796875 -1.230468,1.41796875 -0.679688,0 -1.4765629,-0.3515625 -1.9101567,-1.03124995 L 9.1401016,-0.818875 c 0.7265625,0.9375 1.6406254,1.04296875 2.0390624,1.04296875 1.21875,0 2.085938,-0.97265625 2.085938,-2.01562495 0,-0.9023438 -0.691407,-1.5234375 -1.371094,-1.734375 0.761719,-0.4101563 1.113281,-1.0898438 1.113281,-1.7109375 0,-0.8554688 -0.832031,-1.5117188 -1.816406,-1.5117188 -0.773438,0 -1.5000002,0.3984375 -1.9101564,1.0898438 z M 16.394008,-7.475125 c -0.316406,0.3046875 -0.984375,0.9140625 -1.441406,2.1328125 -0.398438,1.0664063 -0.46875,2.1210938 -0.46875,2.8476563 0,3.2226562 1.441406,4.546875 1.910156,4.9921875 h 0.609375 C 16.522914,2.0170625 15.257289,0.728 15.257289,-2.4946562 c 0,-0.5507813 0.03516,-1.7226563 0.445313,-2.8945313 0.410156,-1.1484375 0.972656,-1.7460937 1.300781,-2.0859375 z m 3.720703,5.1914063 c 0,-0.6796875 0.339844,-1.4179688 1.019531,-2.0039063 0.1875,-0.1523437 0.574219,-0.46875 0.574219,-1.1953125 0,-0.6679687 -0.398438,-1.5351562 -1.910156,-1.5351562 -0.597657,0 -1.136719,0.1640625 -1.664063,0.5273437 l 0.222656,0.6210938 c 0.246094,-0.2109375 0.726563,-0.5390625 1.441407,-0.5390625 0.46875,0 1.125,0.070312 1.125,0.9257812 0,0.4453125 -0.210938,0.6328125 -0.339844,0.75 -1.136719,0.9726563 -1.136719,2.2382813 -1.136719,2.671875 v 0.3164063 h 0.667969 z m -0.75,2.2851562 h 0.832031 v -0.83203125 h -0.832031 z m 4.705078,-0.01171875 v -0.8203125 H 23.237758 V 0.0014375 H 23.49557 L 23.237758,1.243625 h 0.410156 z M 30.90475,-2.2837187 c 0,-0.6796875 0.339844,-1.4179688 1.019531,-2.0039063 0.1875,-0.1523437 0.574219,-0.46875 0.574219,-1.1953125 0,-0.6679687 -0.398437,-1.5351562 -1.910156,-1.5351562 -0.597656,0 -1.136719,0.1640625 -1.664063,0.5273437 l 0.222657,0.6210938 c 0.246093,-0.2109375 0.726562,-0.5390625 1.441406,-0.5390625 0.46875,0 1.125,0.070312 1.125,0.9257812 0,0.4453125 -0.210938,0.6328125 -0.339844,0.75 -1.136719,0.9726563 -1.136719,2.2382813 -1.136719,2.671875 v 0.3164063 h 0.667969 z m -0.75,2.2851562 h 0.832031 V -0.83059375 H 30.15475 Z m 4.705078,-0.01171875 v -0.8203125 H 34.027797 V 0.0014375 h 0.257812 L 34.027797,1.243625 h 0.410156 z m 6.84375,-2.27343745 c 0,-0.6796875 0.339844,-1.4179688 1.019531,-2.0039063 0.1875,-0.1523437 0.574219,-0.46875 0.574219,-1.1953125 0,-0.6679687 -0.398437,-1.5351562 -1.910156,-1.5351562 -0.597656,0 -1.136719,0.1640625 -1.664063,0.5273437 l 0.222657,0.6210938 c 0.246093,-0.2109375 0.726562,-0.5390625 1.441406,-0.5390625 0.46875,0 1.125,0.070312 1.125,0.9257812 0,0.4453125 -0.210938,0.6328125 -0.339844,0.75 -1.136719,0.9726563 -1.136719,2.2382813 -1.136719,2.671875 v 0.3164063 h 0.667969 z m -0.75,2.2851562 h 0.832031 v -0.83203125 h -0.832031 z m 4.705078,-0.01171875 v -0.8203125 H 44.826625 V 0.0014375 h 0.257813 L 44.826625,1.243625 h 0.410156 z m 6.834961,-2.27343745 c 0,-0.6796875 0.339844,-1.4179688 1.019531,-2.0039063 0.1875,-0.1523437 0.574219,-0.46875 0.574219,-1.1953125 0,-0.6679687 -0.398437,-1.5351562 -1.910156,-1.5351562 -0.597656,0 -1.136719,0.1640625 -1.664063,0.5273437 l 0.222657,0.6210938 c 0.246093,-0.2109375 0.726562,-0.5390625 1.441406,-0.5390625 0.46875,0 1.125,0.070312 1.125,0.9257812 0,0.4453125 -0.210938,0.6328125 -0.339844,0.75 -1.136719,0.9726563 -1.136719,2.2382813 -1.136719,2.671875 v 0.3164063 h 0.667969 z m -0.75,2.2851562 h 0.832031 v -0.83203125 h -0.832031 z m 4.705078,-0.01171875 v -0.8203125 H 55.616664 V 0.0014375 h 0.257813 L 55.616664,1.243625 h 0.410156 z m 6.834961,-2.27343745 c 0,-0.6796875 0.339844,-1.4179688 1.019532,-2.0039063 0.1875,-0.1523437 0.574218,-0.46875 0.574218,-1.1953125 0,-0.6679687 -0.398437,-1.5351562 -1.910156,-1.5351562 -0.597656,0 -1.136719,0.1640625 -1.664062,0.5273437 l 0.222656,0.6210938 c 0.246094,-0.2109375 0.726562,-0.5390625 1.441406,-0.5390625 0.46875,0 1.125,0.070312 1.125,0.9257812 0,0.4453125 -0.210937,0.6328125 -0.339844,0.75 -1.136718,0.9726563 -1.136718,2.2382813 -1.136718,2.671875 v 0.3164063 h 0.667968 z m -0.75,2.2851562 h 0.832032 v -0.83203125 h -0.832032 z m 4.072266,2.4960938 c 0.328125,-0.3046875 0.996094,-0.9140625 1.453125,-2.13281255 0.398437,-1.06640625 0.46875,-2.12109375 0.46875,-2.85937495 0,-3.2109375 -1.441406,-4.5351563 -1.921875,-4.9804688 h -0.597656 c 0.46875,0.4804688 1.734375,1.7695313 1.734375,4.9804688 0,0.5625 -0.02344,1.73437495 -0.433594,2.90624995 C 66.898891,1.5600313 66.336391,2.1576875 66.008266,2.4975313 Z m 0,0"
       style="fill:#000000;fill-opacity:1;fill-rule:nonzero;stroke:none"
       aria-label="M3(?,?,?,?,?)"
       transform="matrix(1.3333333,0,0,1.3333333,378.91867,26.529333)" />
    <path
       id="path13"
       d="M 0,13.15448 28.02032,67.00641"
       style="fill:none;stroke:#000000;stroke-width:0.79701;stroke-linecap:butt;stroke-linejoin:miter;stroke-miterlimit:10;stroke-dasharray:none;stroke-opacity:1"
       transform="matrix(1.3333333,0,0,-1.3333333,84.977333,136.59467)" />
    <path
       id="path14"
       d="M -1.55415,2.0722 C -1.42464,1.29512 0,0.1295 0.38852,0 0,-0.1295 -1.42464,-1.29512 -1.55415,-2.0722"
       style="fill:none;stroke:#000000;stroke-width:0.6376;stroke-linecap:round;stroke-linejoin:round;stroke-miterlimit:10;stroke-dasharray:none;stroke-opacity:1"
       transform="matrix(0.6154,-1.1827333,-1.1827333,-0.6154,122.33775,47.252787)" />
    <path
       id="path15"
       d="M 0,13.15448 141.07379,67.3801"
       style="fill:none;stroke:#000000;stroke-width:0.79701;stroke-linecap:butt;stroke-linejoin:miter;stroke-miterlimit:10;stroke-dasharray:none;stroke-opacity:1"
       transform="matrix(1.3333333,0,0,-1.3333333,84.977333,136.59467)" />
    <path
       id="path16"
       d="M -1.55415,2.0722 C -1.42464,1.29512 0,0.1295 0.38852,0 0,-0.1295 -1.42464,-1.29512 -1.55415,-2.0722"
       style="fill:none;stroke:#000000;stroke-width:0.6376;stroke-linecap:round;stroke-linejoin:round;stroke-miterlimit:10;stroke-dasharray:none;stroke-opacity:1"
       transform="matrix(1.2445467,-0.47834667,-0.47834667,-1.2445467,273.07571,46.754533)" />
    <path
       id="path17"
       d="M 0,13.15448 254.42955,67.48615"
       style="fill:none;stroke:#000000;stroke-width:0.79701;stroke-linecap:butt;stroke-linejoin:miter;stroke-miterlimit:10;stroke-dasharray:none;stroke-opacity:1"
       transform="matrix(1.3333333,0,0,-1.3333333,84.977333,136.59467)" />
    <path
       id="path18"
       d="M -1.55415,2.0722 C -1.42464,1.29512 0,0.1295 0.38852,0 0,-0.1295 -1.42464,-1.29512 -1.55415,-2.0722"
       style="fill:none;stroke:#000000;stroke-width:0.6376;stroke-linecap:round;stroke-linejoin:round;stroke-miterlimit:10;stroke-dasharray:none;stroke-opacity:1"
       transform="matrix(1.3038933,-0.27844,-0.27844,-1.3038933,424.21671,46.613133)" />
  </g>
</svg>
