<?xml version="1.0" encoding="UTF-8" standalone="no"?>
<!-- Created with Inkscape (http://www.inkscape.org/) -->

<svg
   version="1.1"
   id="svg1"
   width="411.57068"
   height="220.79733"
   viewBox="0 0 411.57068 220.79733"
   xmlns="http://www.w3.org/2000/svg"
   xmlns:svg="http://www.w3.org/2000/svg">
  <defs
     id="defs1" />
  <g
     id="g1">
    <path
       id="path1"
       d="M 0,0 H 226.3162"
       style="fill:none;stroke:#000000;stroke-width:0.3985;stroke-linecap:butt;stroke-linejoin:miter;stroke-miterlimit:10;stroke-dasharray:none;stroke-opacity:1"
       transform="matrix(1.3333333,0,0,-1.3333333,108.94267,189.24267)" />
    <path
       id="path2"
       d="M -1.19551,1.59401 C -1.09587,0.99626 0,0.09961 0.29886,0 0,-0.09961 -1.09587,-0.99626 -1.19551,-1.59401"
       style="fill:none;stroke:#000000;stroke-width:0.31879;stroke-linecap:round;stroke-linejoin:round;stroke-miterlimit:10;stroke-dasharray:none;stroke-opacity:1"
       transform="matrix(1.3333333,0,0,-1.3333333,410.6976,189.24267)" />
    <path
       id="path3"
       d="M 0,0 V 141.27576"
       style="fill:none;stroke:#000000;stroke-width:0.3985;stroke-linecap:butt;stroke-linejoin:miter;stroke-miterlimit:10;stroke-dasharray:none;stroke-opacity:1"
       transform="matrix(1.3333333,0,0,-1.3333333,108.94267,189.24267)" />
    <path
       id="path4"
       d="M -1.19551,1.59401 C -1.09587,0.99626 0,0.09961 0.29886,0 0,-0.09961 -1.09587,-0.99626 -1.19551,-1.59401"
       style="fill:none;stroke:#000000;stroke-width:0.31879;stroke-linecap:round;stroke-linejoin:round;stroke-miterlimit:10;stroke-dasharray:none;stroke-opacity:1"
       transform="matrix(0,-1.3333333,-1.3333333,0,108.94267,0.87498667)" />
    <path
       id="path5"
       d="M 1.8281484,-6.9139453 H 0.93752344 V 1.171875e-4 H 4.9687734 V -0.65613281 c -0.8789062,0.0117188 -1.7695312,0.0234375 -2.6601562,0.0234375 H 1.8281484 Z m 7.0605469,0.8320312 c 0,-0.4570312 -0.4804687,-0.8320312 -1.1015625,-0.8320312 -0.6445312,0 -1.1015625,0.3984375 -1.1015625,0.8320312 0,0.46875 0.4804688,0.8320313 1.1015625,0.8320313 0.6445313,0 1.1015625,-0.3984375 1.1015625,-0.8320313 z m -1.1015625,0.4101563 c -0.09375,0 -0.5507812,0 -0.5507812,-0.4101563 0,-0.4101562 0.4570312,-0.4101562 0.5507812,-0.4101562 0.09375,0 0.5507813,0 0.5507813,0.4101562 0,0.4101563 -0.4453125,0.4101563 -0.5507813,0.4101563 z m 1.5791016,2.7890625 c 0,-1.0078125 -0.7265625,-1.7109375 -1.640625,-1.7109375 -0.6445313,0 -1.1015625,0.1640625 -1.5703125,0.4335937 l 0.070312,0.65625 c 0.515625,-0.375 1.0078125,-0.5039062 1.5,-0.5039062 0.46875,0 0.8671875,0.3984375 0.8671875,1.1367187 v 0.4335938 c -1.5,0.011719 -2.765625,0.4335937 -2.765625,1.3125 0,0.42187499 0.2695312,1.23046874 1.1367187,1.23046874 0.140625,0 1.078125,-0.01171875 1.6523438,-0.46875 V 1.171875e-4 h 0.75 z m -0.7734375,1.5703125 c 0,0.1875 0,0.43359374 -0.3398438,0.62109374 -0.2929687,0.1875 -0.6679687,0.1875 -0.7734375,0.1875 -0.4804687,0 -0.9257812,-0.22265625 -0.9257812,-0.64453124 0,-0.6914063 1.6054687,-0.7617188 2.0390625,-0.7851563 z m 5.0917971,-2.578125 c 0.222656,0 0.503906,-0.046875 0.738281,-0.046875 0.175781,0 0.574219,0.035156 0.585938,0.035156 l -0.105469,-0.6328125 c -0.703125,0 -1.277344,0.1875 -1.570313,0.3164063 -0.210937,-0.1640625 -0.550781,-0.3164063 -0.949218,-0.3164063 -0.855469,0 -1.582032,0.7148438 -1.582032,1.6289063 0,0.3632812 0.128907,0.7265625 0.328125,0.984375 -0.292968,0.4101562 -0.292968,0.796875 -0.292968,0.84375 0,0.25781249 0.09375,0.55078124 0.257812,0.76171874 -0.515625,0.3046875 -0.632812,0.76171875 -0.632812,1.01953125 0,0.75000001 0.984375,1.34765621 2.203125,1.34765621 1.21875,0 2.203125,-0.5859375 2.203125,-1.34765621 0,-1.39453125 -1.664063,-1.39453125 -2.050782,-1.39453125 H 11.9385 c -0.128906,0 -0.574219,0 -0.574219,-0.52734374 0,-0.1054688 0.04687,-0.2695313 0.117188,-0.3515625 0.199219,0.140625 0.527344,0.28125 0.902344,0.28125 0.890625,0 1.59375,-0.7382813 1.59375,-1.6171875 0,-0.4804688 -0.222657,-0.84375 -0.328125,-0.9960938 z m -1.300781,2.0390625 c -0.375,0 -0.890625,-0.234375 -0.890625,-1.0546875 0,-0.8320313 0.515625,-1.0546875 0.890625,-1.0546875 0.421875,0 0.890625,0.2695312 0.890625,1.0546875 0,0.7734375 -0.46875,1.0546875 -0.890625,1.0546875 z m 0.445312,1.88671874 c 0.222656,0 1.347656,0 1.347656,0.6796875 0,0.44531246 -0.691406,0.77343746 -1.5,0.77343746 -0.808593,0 -1.523437,-0.3164062 -1.523437,-0.78515621 0,-0.0234375 0,-0.66796875 0.785156,-0.66796875 z m 0,0"
       style="fill:#000000;fill-opacity:1;fill-rule:nonzero;stroke:none"
       aria-label="L˚ag"
       transform="matrix(1.3333333,0,0,1.3333333,98.832,203.16)" />
    <path
       id="path6"
       d="m 6.1044141,-6.9139453 h -0.890625 v 3.0234375 H 1.8270703 V -6.9139453 H 0.93644531 V 1.171875e-4 H 1.8270703 V -3.2928516 H 5.2137891 V 1.171875e-4 h 0.890625 z m 2.8857421,0.140625 H 8.158125 v 0.8320312 h 0.8320312 z m 1.9335938,0 h -0.832031 v 0.8320312 h 0.832031 z m 0.808594,4.5820312 c 0,-1.3359375 -0.996094,-2.4023437 -2.1796878,-2.4023437 -1.2304687,0 -2.1914062,1.1015625 -2.1914062,2.4023437 0,1.31250004 1.0078125,2.29687504 2.1796875,2.29687504 1.1953125,0 2.1914065,-1.0078125 2.1914065,-2.29687504 z m -2.1914065,1.66406254 c -0.6914063,0 -1.40625,-0.56250004 -1.40625,-1.76953124 0,-1.1953125 0.75,-1.6875 1.40625,-1.6875 0.6914065,0 1.4062495,0.515625 1.4062495,1.6875 0,1.1835937 -0.667968,1.76953124 -1.4062495,1.76953124 z M 15.540937,-3.8905078 c 0.222657,0 0.503907,-0.046875 0.738282,-0.046875 0.175781,0 0.574218,0.035156 0.585937,0.035156 l -0.105469,-0.6328125 c -0.703125,0 -1.277343,0.1875 -1.570312,0.3164063 -0.210938,-0.1640625 -0.550781,-0.3164063 -0.949219,-0.3164063 -0.855469,0 -1.582031,0.7148438 -1.582031,1.6289063 0,0.3632812 0.128906,0.7265625 0.328125,0.984375 -0.292969,0.4101562 -0.292969,0.796875 -0.292969,0.84375 0,0.25781249 0.09375,0.55078124 0.257813,0.76171874 -0.515625,0.3046875 -0.632813,0.76171875 -0.632813,1.01953125 0,0.75000001 0.984375,1.34765621 2.203125,1.34765621 1.21875,0 2.203125,-0.5859375 2.203125,-1.34765621 0,-1.39453125 -1.664062,-1.39453125 -2.050781,-1.39453125 h -0.878906 c -0.128907,0 -0.574219,0 -0.574219,-0.52734374 0,-0.1054688 0.04687,-0.2695313 0.117187,-0.3515625 0.199219,0.140625 0.527344,0.28125 0.902344,0.28125 0.890625,0 1.59375,-0.7382813 1.59375,-1.6171875 0,-0.4804688 -0.222656,-0.84375 -0.328125,-0.9960938 z m -1.300781,2.0390625 c -0.375,0 -0.890625,-0.234375 -0.890625,-1.0546875 0,-0.8320313 0.515625,-1.0546875 0.890625,-1.0546875 0.421875,0 0.890625,0.2695312 0.890625,1.0546875 0,0.7734375 -0.46875,1.0546875 -0.890625,1.0546875 z m 0.445313,1.88671874 c 0.222656,0 1.347656,0 1.347656,0.6796875 0,0.44531246 -0.691406,0.77343746 -1.5,0.77343746 -0.808594,0 -1.523438,-0.3164062 -1.523438,-0.78515621 0,-0.0234375 0,-0.66796875 0.785157,-0.66796875 z m 0,0"
       style="fill:#000000;fill-opacity:1;fill-rule:nonzero;stroke:none"
       aria-label="H¨og"
       transform="matrix(1.3333333,0,0,1.3333333,381.06,203.16)" />
    <path
       id="path7"
       d="M 5.28475,-3.5401953 C 4.9331875,-2.6261328 4.4644375,-1.3956641 4.34725,-0.92691406 4.2886563,-1.1378516 4.1714688,-1.5011328 4.019125,-1.9230078 l -1.5585937,-4.125 -0.3398438,-0.8671875 h -1.125 v 6.91406249 H 1.769125 V -6.1769141 h 0.011719 c 0.058594,0.3164063 0.4570312,1.40625 0.7148437,2.0859375 L 3.97225,-0.22378906 H 4.6988125 L 6.0230313,-3.6925391 C 6.3394375,-4.5011328 6.4331875,-4.7472266 6.5035,-4.9464453 6.6089688,-5.2394141 6.8785,-5.9542578 6.925375,-6.1886328 l 0.011719,0.011719 v 6.17578129 H 7.7105313 V -6.9151953 H 6.5738125 Z m 8.109375,1.3476562 c 0,-1.3359375 -0.996094,-2.4023437 -2.179687,-2.4023437 -1.2304692,0 -2.1914067,1.1015625 -2.1914067,2.4023437 0,1.31250004 1.0078127,2.29687504 2.1796877,2.29687504 1.195312,0 2.191406,-1.0078125 2.191406,-2.29687504 z m -2.191406,1.66406254 c -0.691406,0 -1.4062502,-0.56250004 -1.4062502,-1.76953124 0,-1.1953125 0.7500002,-1.6875 1.4062502,-1.6875 0.691406,0 1.40625,0.515625 1.40625,1.6875 0,1.1835937 -0.667969,1.76953124 -1.40625,1.76953124 z m 7.098633,-6.38671874 h -0.75 v 2.9296875 c -0.527344,-0.4335938 -1.078125,-0.5507813 -1.453125,-0.5507813 -0.984375,0 -1.757813,1.0429688 -1.757813,2.3203125 0,1.31250004 0.761719,2.32031254 1.710938,2.32031254 0.328125,0 0.914062,-0.08203125 1.476562,-0.62109375 v 0.515625 h 0.773438 z m -0.773438,5.53125 c 0,0.140625 -0.01172,0.3164062 -0.328125,0.60937499 -0.234375,0.19921875 -0.480469,0.26953125 -0.738281,0.26953125 -0.621094,0 -1.347656,-0.45703125 -1.347656,-1.69921874 0,-1.3125 0.855468,-1.7226563 1.441406,-1.7226563 0.445312,0 0.75,0.234375 0.972656,0.5507813 z m 5.72168,-0.796875 c 0,-0.3398438 -0.01172,-1.0898438 -0.398438,-1.6875 -0.410156,-0.6210938 -1.019531,-0.7265625 -1.371093,-0.7265625 -1.113282,0 -2.003907,1.0546875 -2.003907,2.34375 0,1.31249999 0.949219,2.35546874 2.144532,2.35546874 0.632812,0 1.195312,-0.234375 1.59375,-0.515625 l -0.07031,-0.64453124 c -0.621094,0.51562499 -1.277344,0.55078124 -1.511719,0.55078124 -0.796875,0 -1.429687,-0.70312504 -1.464843,-1.67578124 z m -3.023438,-0.5507813 c 0.152344,-0.7617187 0.679688,-1.2539062 1.253907,-1.2539062 0.515625,0 1.066406,0.3398437 1.195312,1.2539062 z m 4.883789,-4.1835937 h -0.75 v 6.91406249 h 0.75 z m 2.381836,0 h -0.75 v 6.91406249 h 0.75 z m 4.945313,4.734375 c 0,-0.3398438 -0.01172,-1.0898438 -0.398438,-1.6875 -0.410156,-0.6210938 -1.019531,-0.7265625 -1.371093,-0.7265625 -1.113282,0 -2.003907,1.0546875 -2.003907,2.34375 0,1.31249999 0.949219,2.35546874 2.144532,2.35546874 0.632812,0 1.195312,-0.234375 1.59375,-0.515625 l -0.07031,-0.64453124 c -0.621094,0.51562499 -1.277344,0.55078124 -1.511719,0.55078124 -0.796875,0 -1.429687,-0.70312504 -1.464843,-1.67578124 z m -3.023438,-0.5507813 c 0.152344,-0.7617187 0.679688,-1.2539062 1.253907,-1.2539062 0.515625,0 1.066406,0.3398437 1.195312,1.2539062 z m 7.661133,-0.234375 c 0,-0.65625 -0.152344,-1.5703125 -1.371094,-1.5703125 -0.890625,0 -1.382812,0.6796875 -1.441406,0.7617188 v -0.7148438 h -0.714844 v 4.48828129 h 0.773438 V -2.4386328 c 0,-0.65625 0.246094,-1.4882813 1.007812,-1.4882813 0.960938,0 0.960938,0.703125 0.960938,1.03125 v 2.89453129 h 0.785156 z m 4.233399,-1.3125 c -0.527344,-0.234375 -0.925782,-0.3164062 -1.441407,-0.3164062 -0.246093,0 -1.652343,0 -1.652343,1.3007812 0,0.4921875 0.292968,0.8085938 0.539062,0.9960938 0.304688,0.2226562 0.527344,0.2695312 1.078125,0.375 0.351563,0.070312 0.9375,0.1875 0.9375,0.7148437 0,0.69140629 -0.785156,0.69140629 -0.9375,0.69140629 -0.808594,0 -1.371094,-0.375 -1.546875,-0.49218749 l -0.117187,0.67968749 c 0.316406,0.1640625 0.867187,0.43359375 1.675781,0.43359375 0.175781,0 0.726562,0 1.148437,-0.31640625 0.316407,-0.234375 0.480469,-0.6328125 0.480469,-1.06640629 0,-0.5507812 -0.363281,-0.8789062 -0.386719,-0.9140625 -0.386718,-0.3515625 -0.65625,-0.4101562 -1.160156,-0.5039062 -0.539062,-0.1054688 -1.007812,-0.1992188 -1.007812,-0.6914063 0,-0.6210937 0.726562,-0.6210937 0.855468,-0.6210937 0.316407,0 0.84375,0.046875 1.40625,0.3867187 z m 6.515625,1.5703125 1.675781,-1.7109375 H 48.59725 l -2.015625,2.0625 v -4.5585937 h -0.726562 v 6.91406249 h 0.691406 V -1.4073828 l 0.796875,-0.8203125 1.558594,2.22656249 h 0.808593 z m 6.46875,0.515625 c 0,-1.3359375 -0.996094,-2.4023437 -2.179688,-2.4023437 -1.230469,0 -2.191406,1.1015625 -2.191406,2.4023437 0,1.31250004 1.007812,2.29687504 2.179687,2.29687504 1.195313,0 2.191407,-1.0078125 2.191407,-2.29687504 z m -2.191407,1.66406254 c -0.691406,0 -1.40625,-0.56250004 -1.40625,-1.76953124 0,-1.1953125 0.75,-1.6875 1.40625,-1.6875 0.691407,0 1.40625,0.515625 1.40625,1.6875 0,1.1835937 -0.667968,1.76953124 -1.40625,1.76953124 z m 9.597657,-2.43750004 c 0,-0.6679687 -0.164063,-1.5703125 -1.359375,-1.5703125 -0.597657,0 -1.125,0.28125 -1.488282,0.8203125 -0.257812,-0.7617187 -0.960937,-0.8203125 -1.277343,-0.8203125 -0.714844,0 -1.183594,0.4101563 -1.453125,0.7734375 v -0.7265625 h -0.714844 v 4.48828129 h 0.773437 V -2.4386328 c 0,-0.6796875 0.269532,-1.4882813 1.007813,-1.4882813 0.925781,0 0.972656,0.6445313 0.972656,1.03125 v 2.89453129 h 0.785156 V -2.4386328 c 0,-0.6796875 0.269532,-1.4882813 0.996094,-1.4882813 0.9375,0 0.984375,0.6445313 0.984375,1.03125 v 2.89453129 h 0.773438 z m 2.405273,2.50781254 c 0.304687,0.29296875 0.75,0.5625 1.347656,0.5625 0.960938,0 1.839844,-0.97265625 1.839844,-2.33203124 0,-1.1953125 -0.632813,-2.3085938 -1.582031,-2.3085938 -0.597657,0 -1.171875,0.2109375 -1.640625,0.5976563 v -0.4804688 h -0.738282 v 6.3515625 h 0.773438 z m 0,-2.85937504 c 0.234375,-0.3515625 0.632812,-0.5742187 1.054687,-0.5742187 0.761719,0 1.359375,0.75 1.359375,1.6640625 0,1.03125 -0.714843,1.72265624 -1.453125,1.72265624 -0.398437,0 -0.65625,-0.19921875 -0.855468,-0.45703125 C 64.104086,-1.1144141 64.104086,-1.1378516 64.104086,-1.3136328 Z m 5.112305,-3.5976562 h -0.75 v 6.91406249 h 0.75 z m 4.948242,4.734375 c 0,-0.3398438 -0.01172,-1.0898438 -0.398438,-1.6875 -0.410156,-0.6210938 -1.019531,-0.7265625 -1.371093,-0.7265625 -1.113282,0 -2.003907,1.0546875 -2.003907,2.34375 0,1.31249999 0.949219,2.35546874 2.144532,2.35546874 0.632812,0 1.195312,-0.234375 1.59375,-0.515625 l -0.07031,-0.64453124 c -0.621094,0.51562499 -1.277344,0.55078124 -1.511719,0.55078124 -0.796875,0 -1.429687,-0.70312504 -1.464843,-1.67578124 z m -3.023438,-0.5507813 c 0.152344,-0.7617187 0.679688,-1.2539062 1.253907,-1.2539062 0.515625,0 1.066406,0.3398437 1.195312,1.2539062 z m 5.915039,0.4453125 1.828125,-2.1328125 h -0.820312 l -1.335938,1.640625 -1.371093,-1.640625 h -0.832032 l 1.875,2.1328125 -1.933593,2.28515629 h 0.820312 l 1.441406,-1.87499999 1.488282,1.87499999 h 0.832031 z m 3.632813,-4.4882812 h -0.890625 v 0.890625 h 0.890625 z m -0.07031,2.3554687 h -0.75 v 4.41796879 h 0.75 z m 2.566407,0.5742188 h 1.40625 v -0.5742188 h -1.40625 v -1.265625 h -0.691407 v 1.265625 H 81.62655 v 0.5742188 h 0.84375 v 2.6601562 c 0,0.59765629 0.128906,1.28906254 0.820312,1.28906254 0.703125,0 1.207032,-0.24609375 1.453125,-0.375 l -0.152343,-0.5859375 c -0.257813,0.2109375 -0.585938,0.328125 -0.902344,0.328125 -0.363281,0 -0.503906,-0.3046875 -0.503906,-0.83203124 z m 5.976562,1.6640625 c 0,-0.3398438 -0.01172,-1.0898438 -0.398437,-1.6875 -0.410157,-0.6210938 -1.019532,-0.7265625 -1.371094,-0.7265625 -1.113281,0 -2.003906,1.0546875 -2.003906,2.34375 0,1.31249999 0.949218,2.35546874 2.144531,2.35546874 0.632812,0 1.195312,-0.234375 1.59375,-0.515625 L 89.05624,-1.0558203 c -0.621093,0.51562499 -1.277343,0.55078124 -1.511718,0.55078124 -0.796875,0 -1.429688,-0.70312504 -1.464844,-1.67578124 z m -3.023437,-0.5507813 c 0.152343,-0.7617187 0.679687,-1.2539062 1.253906,-1.2539062 0.515625,0 1.066406,0.3398437 1.195312,1.2539062 z m 5.074218,-1.1132812 h 1.40625 v -0.5742188 h -1.40625 v -1.265625 h -0.691406 v 1.265625 h -0.867187 v 0.5742188 h 0.84375 v 2.6601562 c 0,0.59765629 0.128906,1.28906254 0.820312,1.28906254 0.703125,0 1.207031,-0.24609375 1.453125,-0.375 l -0.152344,-0.5859375 c -0.257812,0.2109375 -0.585937,0.328125 -0.902343,0.328125 -0.363282,0 -0.503907,-0.3046875 -0.503907,-0.83203124 z m 0,0"
       style="fill:#000000;fill-opacity:1;fill-rule:nonzero;stroke:none"
       aria-label="Modellenskomplexitet"
       transform="matrix(1.3333333,0,0,1.3333333,198.07867,213.78667)" />
    <path
       id="path8"
       d="m 4.8293906,-3.1402344 v -0.609375 h -3 v -2.4960937 h 1.3007813 c 0.1171875,0 0.234375,0.011719 0.3632812,0.011719 H 5.2395469 V -6.8785156 H 0.93876562 V 3.90625e-4 H 1.8293906 V -3.1402344 Z m 4.6904297,0.9609375 c 0,-0.3398437 -0.011719,-1.0898437 -0.3984375,-1.6875 -0.4101562,-0.6210937 -1.0195312,-0.7265625 -1.3710937,-0.7265625 -1.1132813,0 -2.0039063,1.0546875 -2.0039063,2.34375 0,1.31250003 0.9492188,2.35546878 2.1445313,2.35546878 0.6328125,0 1.1953125,-0.234375 1.59375,-0.515625 L 9.4143516,-1.0542969 c -0.6210938,0.51562503 -1.2773438,0.55078128 -1.5117188,0.55078128 -0.796875,0 -1.4296875,-0.70312498 -1.4648437,-1.67578128 z M 6.4963828,-2.7300781 c 0.1523438,-0.7617188 0.6796875,-1.2539063 1.2539063,-1.2539063 0.515625,0 1.0664062,0.3398438 1.1953125,1.2539063 z m 4.8837892,-4.1835938 h -0.75 V 3.90625e-4 h 0.75 z m 2.578125,3.0703125 h 1.089844 v -0.5742187 h -1.125 v -1.1953125 c 0,-0.7265625 0.667968,-0.796875 0.925781,-0.796875 0.199219,0 0.46875,0.011719 0.808594,0.1640625 v -0.6679688 c -0.117188,-0.023437 -0.433594,-0.1054687 -0.796875,-0.1054687 -0.9375,0 -1.652344,0.703125 -1.652344,1.6992187 v 0.9023438 h -0.738281 v 0.5742187 h 0.738281 V 3.90625e-4 h 0.75 z m 5.62207,-0.5742187 h -0.785156 v 2.8828125 c 0,0.74999998 -0.550781,1.10156248 -1.195313,1.10156248 -0.703125,0 -0.773437,-0.26953125 -0.773437,-0.69140628 v -3.2929687 h -0.773438 v 3.328125 c 0,0.72656248 0.222657,1.19531248 1.054688,1.19531248 0.527344,0 1.230469,-0.15234375 1.722656,-0.5859375 V 3.90625e-4 h 0.75 z m 5.150391,1.453125 c 0,-0.65625 -0.152344,-1.5703125 -1.371094,-1.5703125 -0.890625,0 -1.382812,0.6796875 -1.441406,0.7617187 V -4.4878906 H 21.203414 V 3.90625e-4 h 0.773438 V -2.4371094 c 0,-0.65625 0.246093,-1.4882812 1.007812,-1.4882812 0.960938,0 0.960938,0.703125 0.960938,1.03125 V 3.90625e-4 h 0.785156 z m 3.612304,0.2578125 1.675782,-1.7109375 H 29.1165 l -2.015625,2.0625 V -6.9136719 H 26.374312 V 3.90625e-4 h 0.691407 V -1.4058594 l 0.796875,-0.8203125 1.558593,2.226562525 h 0.808594 z m 3.814454,-1.1367188 h 1.40625 v -0.5742187 h -1.40625 v -1.265625 h -0.691407 v 1.265625 h -0.867187 v 0.5742187 h 0.84375 v 2.6601563 c 0,0.59765623 0.128906,1.28906248 0.820312,1.28906248 0.703125,0 1.207032,-0.24609375 1.453125,-0.375 l -0.152343,-0.5859375 c -0.257813,0.2109375 -0.585938,0.328125 -0.902344,0.328125 -0.363281,0 -0.503906,-0.3046875 -0.503906,-0.83203128 z m 3.480468,-2.9296875 h -0.890625 v 0.890625 h 0.890625 z m -0.07031,2.3554688 h -0.75 V 3.90625e-4 h 0.75 z m 5.496094,2.2265625 c 0,-1.3359375 -0.996094,-2.4023438 -2.179688,-2.4023438 -1.230469,0 -2.191406,1.1015625 -2.191406,2.4023438 0,1.31249998 1.007812,2.29687498 2.179687,2.29687498 1.195313,0 2.191407,-1.0078125 2.191407,-2.29687498 z m -2.191407,1.66406248 c -0.691406,0 -1.40625,-0.56249998 -1.40625,-1.76953128 0,-1.1953125 0.75,-1.6875 1.40625,-1.6875 0.691407,0 1.40625,0.515625 1.40625,1.6875 0,1.1835938 -0.667968,1.76953128 -1.40625,1.76953128 z M 45.70732,-2.9644531 c 0,-0.65625 -0.152343,-1.5703125 -1.371093,-1.5703125 -0.890625,0 -1.382813,0.6796875 -1.441407,0.7617187 V -4.4878906 H 42.179977 V 3.90625e-4 h 0.773437 V -2.4371094 c 0,-0.65625 0.246094,-1.4882812 1.007813,-1.4882812 0.960937,0 0.960937,0.703125 0.960937,1.03125 V 3.90625e-4 h 0.785156 z m 0,0"
       style="fill:#000000;fill-opacity:1;fill-rule:nonzero;stroke:none"
       aria-label="Felfunktion"
       transform="matrix(1.3333333,0,0,1.3333333,4.428,99.366667)" />
    <path
       id="path9"
       d="m 5.66927,107.71794 c 0,0 11.89526,-16.3846 17.00825,-22.67752 5.11298,-6.29292 14.33641,-17.95787 19.84268,-22.67754 5.50626,-4.71966 13.94309,-8.58543 19.84268,-11.33856 5.8996,-2.75312 15.59801,-6.5376 22.67754,-8.50412 7.07953,-1.96653 20.48068,-4.48936 28.34682,-5.66928 7.86612,-1.17992 19.69407,-2.24486 28.3468,-2.83484 8.65272,-0.58999 24.18343,-1.10278 34.01608,-1.41743 9.83266,-0.31465 36.85094,-0.85037 36.85094,-0.85037"
       style="fill:none;stroke:#4682b4;stroke-width:0.79701;stroke-linecap:butt;stroke-linejoin:miter;stroke-miterlimit:10;stroke-dasharray:none;stroke-opacity:1"
       transform="matrix(1.3333333,0,0,-1.3333333,108.94267,189.24267)" />
    <path
       id="path10"
       d="m 3.8312813,-6.2114688 h 0.890625 c 0.1171875,0 0.234375,0 0.3632812,0 H 6.4094063 V -6.856 H 0.36253125 v 0.6445312 H 1.6984688 c 0.1171875,0 0.234375,0 0.3515625,0 H 2.952375 v 6.21093755 h 0.8789063 z m 3.6796875,4.078125 c 0,-0.9960937 0.7265625,-1.7109375 1.6992187,-1.734375 V -4.5356875 C 8.3195625,-4.5239688 7.7805,-4.0317813 7.4640938,-3.57475 V -4.4888125 H 6.7726875 v 4.48828125 h 0.7382813 z m 3.6796872,-4.640625 h -0.832031 v 0.8320313 h 0.832031 z m 1.933594,0 h -0.832031 v 0.8320313 h 0.832031 z m 0.205078,3.890625 c 0,-1.0078125 -0.726562,-1.7109375 -1.640625,-1.7109375 -0.644531,0 -1.101562,0.1640625 -1.570312,0.4335938 l 0.07031,0.65625 c 0.515625,-0.375 1.007813,-0.5039063 1.5,-0.5039063 0.46875,0 0.867188,0.3984375 0.867188,1.1367188 v 0.4335937 c -1.5,0.011719 -2.7656254,0.4335938 -2.7656254,1.3125 0,0.42187505 0.2695314,1.2304688 1.1367184,1.2304688 0.140625,0 1.078125,-0.01171875 1.652344,-0.46875 v 0.36328125 h 0.75 z m -0.773437,1.5703125 c 0,0.1875 0,0.4335938 -0.339844,0.6210938 -0.292969,0.1875 -0.667969,0.1875 -0.773438,0.1875 -0.480468,0 -0.925781,-0.22265625 -0.925781,-0.6445313 0,-0.6914062 1.605469,-0.7617187 2.039063,-0.7851562 z m 5.926757,-1.6523437 c 0,-0.65625 -0.152343,-1.5703125 -1.371093,-1.5703125 -0.890625,0 -1.382813,0.6796875 -1.441407,0.7617187 v -0.7148437 h -0.714843 v 4.48828125 h 0.773437 V -2.4380313 c 0,-0.65625 0.246094,-1.4882812 1.007813,-1.4882812 0.960937,0 0.960937,0.703125 0.960937,1.03125 v 2.89453125 h 0.785156 z m 2.44043,-3.8085938 h -0.890625 v 0.890625 h 0.890625 z M 20.852766,-4.4185 h -0.75 v 4.41796875 h 0.75 z m 5.15625,1.453125 c 0,-0.65625 -0.152344,-1.5703125 -1.371094,-1.5703125 -0.890625,0 -1.382813,0.6796875 -1.441406,0.7617187 v -0.7148437 h -0.714844 v 4.48828125 h 0.773437 V -2.4380313 c 0,-0.65625 0.246094,-1.4882812 1.007813,-1.4882812 0.960937,0 0.960937,0.703125 0.960937,1.03125 v 2.89453125 h 0.785157 z m 4.315429,-0.9257813 c 0.222657,0 0.503907,-0.046875 0.738282,-0.046875 0.175781,0 0.574218,0.035156 0.585937,0.035156 l -0.105469,-0.6328125 c -0.703125,0 -1.277343,0.1875 -1.570312,0.3164062 -0.210938,-0.1640625 -0.550781,-0.3164062 -0.949219,-0.3164062 -0.855469,0 -1.582031,0.7148437 -1.582031,1.6289062 0,0.3632813 0.128906,0.7265625 0.328125,0.984375 -0.292969,0.4101563 -0.292969,0.796875 -0.292969,0.84375 0,0.25781255 0.09375,0.5507813 0.257813,0.7617188 -0.515625,0.3046875 -0.632813,0.76171875 -0.632813,1.01953125 0,0.74999995 0.984375,1.34765625 2.203125,1.34765625 1.21875,0 2.203125,-0.5859375 2.203125,-1.34765625 0,-1.39453125 -1.664062,-1.39453125 -2.050781,-1.39453125 h -0.878906 c -0.128907,0 -0.574219,0 -0.574219,-0.5273438 0,-0.1054687 0.04687,-0.2695312 0.117187,-0.3515625 0.199219,0.140625 0.527344,0.28125 0.902344,0.28125 0.890625,0 1.59375,-0.7382812 1.59375,-1.6171875 0,-0.4804687 -0.222656,-0.84375 -0.328125,-0.9960937 z m -1.300781,2.0390625 c -0.375,0 -0.890625,-0.234375 -0.890625,-1.0546875 0,-0.8320312 0.515625,-1.0546875 0.890625,-1.0546875 0.421875,0 0.890625,0.2695313 0.890625,1.0546875 0,0.7734375 -0.46875,1.0546875 -0.890625,1.0546875 z m 0.445313,1.8867188 c 0.222656,0 1.347656,0 1.347656,0.6796875 0,0.4453125 -0.691406,0.7734375 -1.5,0.7734375 -0.808594,0 -1.523438,-0.3164063 -1.523438,-0.78515625 0,-0.0234375 0,-0.66796875 0.785157,-0.66796875 z m 5.756836,-4.3125 c -0.527344,-0.234375 -0.925782,-0.3164063 -1.441407,-0.3164063 -0.246093,0 -1.652343,0 -1.652343,1.3007813 0,0.4921875 0.292968,0.8085937 0.539062,0.9960937 0.304688,0.2226563 0.527344,0.2695313 1.078125,0.375 0.351563,0.070312 0.9375,0.1875 0.9375,0.7148438 0,0.69140625 -0.785156,0.69140625 -0.9375,0.69140625 -0.808594,0 -1.371094,-0.375 -1.546875,-0.49218755 l -0.117187,0.67968755 c 0.316406,0.1640625 0.867187,0.43359375 1.675781,0.43359375 0.175781,0 0.726562,0 1.148437,-0.31640625 0.316407,-0.234375 0.480469,-0.6328125 0.480469,-1.06640625 0,-0.5507813 -0.363281,-0.8789063 -0.386719,-0.9140625 C 34.616438,-2.5435 34.346906,-2.6020938 33.843,-2.6958438 33.303938,-2.8013125 32.835188,-2.8950625 32.835188,-3.38725 c 0,-0.6210938 0.726562,-0.6210938 0.855468,-0.6210938 0.316407,0 0.84375,0.046875 1.40625,0.3867188 z m 7.49707,1.3125 c 0,-0.6679688 -0.164063,-1.5703125 -1.359375,-1.5703125 -0.597656,0 -1.125,0.28125 -1.488281,0.8203125 -0.257813,-0.7617188 -0.960938,-0.8203125 -1.277344,-0.8203125 -0.714844,0 -1.183594,0.4101562 -1.453125,0.7734375 v -0.7265625 h -0.714844 v 4.48828125 h 0.773438 V -2.4380313 c 0,-0.6796875 0.269531,-1.4882812 1.007812,-1.4882812 0.925781,0 0.972656,0.6445312 0.972656,1.03125 v 2.89453125 h 0.785157 V -2.4380313 c 0,-0.6796875 0.269531,-1.4882812 0.996093,-1.4882812 0.9375,0 0.984375,0.6445312 0.984375,1.03125 v 2.89453125 h 0.773438 z m 2.645508,-3.8085938 h -0.832032 v 0.8320313 h 0.832032 z m 1.933593,0 h -0.832031 v 0.8320313 h 0.832031 z m 0.205079,3.890625 c 0,-1.0078125 -0.726563,-1.7109375 -1.640625,-1.7109375 -0.644532,0 -1.101563,0.1640625 -1.570313,0.4335938 l 0.07031,0.65625 c 0.515625,-0.375 1.007812,-0.5039063 1.5,-0.5039063 0.46875,0 0.867187,0.3984375 0.867187,1.1367188 v 0.4335937 c -1.5,0.011719 -2.765625,0.4335938 -2.765625,1.3125 0,0.42187505 0.269531,1.2304688 1.136719,1.2304688 0.140625,0 1.078125,-0.01171875 1.652344,-0.46875 v 0.36328125 h 0.75 z m -0.773438,1.5703125 c 0,0.1875 0,0.4335938 -0.339844,0.6210938 -0.292968,0.1875 -0.667968,0.1875 -0.773437,0.1875 -0.480469,0 -0.925781,-0.22265625 -0.925781,-0.6445313 0,-0.6914062 1.605468,-0.7617187 2.039062,-0.7851562 z m 5.926758,-1.6523437 c 0,-0.65625 -0.152344,-1.5703125 -1.371094,-1.5703125 -0.890625,0 -1.382812,0.6796875 -1.441406,0.7617187 v -0.7148437 h -0.714844 v 4.48828125 h 0.773438 V -2.4380313 c 0,-0.65625 0.246093,-1.4882812 1.007812,-1.4882812 0.960938,0 0.960938,0.703125 0.960938,1.03125 v 2.89453125 h 0.785156 z m 4.31543,-0.9257813 c 0.222656,0 0.503906,-0.046875 0.738281,-0.046875 0.175781,0 0.574219,0.035156 0.585937,0.035156 l -0.105468,-0.6328125 c -0.703125,0 -1.277344,0.1875 -1.570313,0.3164062 -0.210937,-0.1640625 -0.550781,-0.3164062 -0.949219,-0.3164062 -0.855468,0 -1.582031,0.7148437 -1.582031,1.6289062 0,0.3632813 0.128906,0.7265625 0.328125,0.984375 -0.292969,0.4101563 -0.292969,0.796875 -0.292969,0.84375 0,0.25781255 0.09375,0.5507813 0.257813,0.7617188 -0.515625,0.3046875 -0.632813,0.76171875 -0.632813,1.01953125 0,0.74999995 0.984375,1.34765625 2.203125,1.34765625 1.21875,0 2.203125,-0.5859375 2.203125,-1.34765625 0,-1.39453125 -1.664062,-1.39453125 -2.050781,-1.39453125 h -0.878906 c -0.128906,0 -0.574219,0 -0.574219,-0.5273438 0,-0.1054687 0.04687,-0.2695312 0.117188,-0.3515625 0.199218,0.140625 0.527343,0.28125 0.902343,0.28125 0.890625,0 1.59375,-0.7382812 1.59375,-1.6171875 0,-0.4804687 -0.222656,-0.84375 -0.328125,-0.9960937 z m -1.300782,2.0390625 c -0.375,0 -0.890625,-0.234375 -0.890625,-1.0546875 0,-0.8320312 0.515625,-1.0546875 0.890625,-1.0546875 0.421875,0 0.890625,0.2695313 0.890625,1.0546875 0,0.7734375 -0.46875,1.0546875 -0.890625,1.0546875 z m 0.445313,1.8867188 c 0.222656,0 1.347656,0 1.347656,0.6796875 0,0.4453125 -0.691406,0.7734375 -1.5,0.7734375 -0.808594,0 -1.523437,-0.3164063 -1.523437,-0.78515625 0,-0.0234375 0,-0.66796875 0.785156,-0.66796875 z m 6.65625,-6.9492188 h -0.75 v 2.9296875 C 61.49925,-4.4185 60.948469,-4.5356875 60.573469,-4.5356875 c -0.984375,0 -1.757813,1.0429687 -1.757813,2.3203125 0,1.3125 0.761719,2.3203125 1.710938,2.3203125 0.328125,0 0.914062,-0.08203125 1.476562,-0.62109375 v 0.515625 h 0.773438 z m -0.773438,5.53125 c 0,0.140625 -0.01172,0.3164063 -0.328125,0.60937505 -0.234375,0.19921875 -0.480468,0.26953125 -0.738281,0.26953125 -0.621094,0 -1.347656,-0.45703125 -1.347656,-1.6992188 0,-1.3125 0.855469,-1.7226562 1.441406,-1.7226562 0.445313,0 0.75,0.234375 0.972656,0.5507812 z m 0,0"
       style="fill:#4682b4;fill-opacity:1;fill-rule:nonzero;stroke:none"
       aria-label="Tr¨aningsm¨angd"
       transform="matrix(1.3333333,0,0,1.3333333,300.876,122.64133)" />
    <path
       id="path11"
       d="m 5.66927,113.38724 c 0,0 11.89526,-16.38463 17.00825,-22.67754 5.11298,-6.29292 14.33641,-17.95787 19.84268,-22.67753 5.50626,-4.71967 13.94309,-9.5687 19.84268,-11.33855 5.8996,-1.76987 15.59801,-1.81076 22.67754,-1.41744 7.07953,0.39332 20.48068,2.48242 28.34682,4.25228 7.86612,1.76986 19.69407,5.75058 28.3468,8.50371 8.65272,2.75311 24.18343,7.40591 34.01608,11.33897 9.83266,3.93304 36.85094,17.00783 36.85094,17.00783"
       style="fill:none;stroke:#b52b2b;stroke-width:0.79701;stroke-linecap:butt;stroke-linejoin:miter;stroke-miterlimit:10;stroke-dasharray:none;stroke-opacity:1"
       transform="matrix(1.3333333,0,0,-1.3333333,108.94267,189.24267)" />
    <path
       id="path12"
       d="M 6.4912969,-6.9132109 H 5.7178594 L 4.3936406,-3.5030547 C 4.2295781,-3.0928984 3.4912969,-1.1710234 3.3975469,-0.71399219 H 3.3858281 C 3.3037969,-1.1124297 2.8819219,-2.2139922 2.7881719,-2.4483672 L 1.0655156,-6.9132109 H 0.13973437 L 2.8584844,8.515625e-4 h 0.9140625 z m 3.8437501,4.03125 c 0,-1.0078125 -0.7265626,-1.7109375 -1.6406251,-1.7109375 -0.6445313,0 -1.1015625,0.1640625 -1.5703125,0.4335937 l 0.070312,0.65625 c 0.515625,-0.375 1.0078125,-0.5039062 1.5,-0.5039062 0.46875,0 0.8671875,0.3984375 0.8671875,1.1367187 v 0.4335938 c -1.5,0.011719 -2.765625,0.4335937 -2.765625,1.3125 0,0.42187496 0.2695312,1.23046871 1.1367187,1.23046871 0.140625,0 1.078125,-0.01171875 1.6523438,-0.46875 V 8.515625e-4 h 0.7499996 z m -0.7734376,1.5703125 c 0,0.1875 0,0.43359371 -0.3398438,0.62109371 -0.2929687,0.1875 -0.6679687,0.1875 -0.7734375,0.1875 -0.4804687,0 -0.9257812,-0.22265625 -0.9257812,-0.64453121 0,-0.6914063 1.6054687,-0.7617188 2.0390625,-0.7851563 z m 3.1494136,-5.6015625 h -0.75 V 8.515625e-4 h 0.75 z m 2.449219,0.140625 h -0.890625 v 0.890625 h 0.890625 z m -0.07031,2.3554687 h -0.75 V 8.515625e-4 h 0.75 z m 5.144531,-2.4960937 h -0.75 v 2.9296875 c -0.527344,-0.4335938 -1.078125,-0.5507813 -1.453125,-0.5507813 -0.984375,0 -1.757813,1.0429688 -1.757813,2.3203125 0,1.31250001 0.761719,2.32031251 1.710938,2.32031251 0.328125,0 0.914062,-0.08203125 1.476562,-0.62109375 V 8.515625e-4 h 0.773438 z m -0.773438,5.53125 c 0,0.140625 -0.01172,0.3164062 -0.328125,0.60937496 -0.234375,0.19921875 -0.480468,0.26953125 -0.738281,0.26953125 -0.621094,0 -1.347656,-0.45703125 -1.347656,-1.69921871 0,-1.3125 0.855469,-1.7226563 1.441406,-1.7226563 0.445313,0 0.75,0.234375 0.972656,0.5507813 z m 5.72168,-0.796875 c 0,-0.3398438 -0.01172,-1.0898438 -0.398437,-1.6875 -0.410157,-0.6210938 -1.019532,-0.7265625 -1.371094,-0.7265625 -1.113281,0 -2.003906,1.0546875 -2.003906,2.34375 0,1.31249996 0.949218,2.35546871 2.144531,2.35546871 0.632812,0 1.195312,-0.234375 1.59375,-0.515625 l -0.07031,-0.64453121 c -0.621093,0.51562496 -1.277343,0.55078121 -1.511718,0.55078121 -0.796875,0 -1.429688,-0.70312501 -1.464844,-1.67578121 z m -3.023437,-0.5507813 c 0.152343,-0.7617187 0.679687,-1.2539062 1.253906,-1.2539062 0.515625,0 1.066406,0.3398437 1.195312,1.2539062 z m 4.886718,0.5976563 c 0,-0.9960938 0.726563,-1.7109375 1.699219,-1.734375 v -0.6679688 c -0.890625,0.011719 -1.429687,0.5039063 -1.746094,0.9609375 V -4.4874297 H 26.307703 V 8.515625e-4 h 0.738281 z m 3.47461,-4.640625 h -0.890625 v 0.890625 h 0.890625 z m -0.07031,2.3554687 h -0.75 V 8.515625e-4 h 0.75 z m 5.15625,1.453125 c 0,-0.65625 -0.152344,-1.5703125 -1.371094,-1.5703125 -0.890625,0 -1.382812,0.6796875 -1.441406,0.7617188 V -4.4874297 H 32.079187 V 8.515625e-4 h 0.773438 V -2.4366484 c 0,-0.65625 0.246094,-1.4882813 1.007812,-1.4882813 0.960938,0 0.960938,0.703125 0.960938,1.03125 V 8.515625e-4 h 0.785156 z m 4.31543,-0.9257812 c 0.222656,0 0.503906,-0.046875 0.738281,-0.046875 0.175781,0 0.574219,0.035156 0.585938,0.035156 l -0.105469,-0.6328125 c -0.703125,0 -1.277344,0.1875 -1.570313,0.3164063 -0.210937,-0.1640625 -0.550781,-0.3164063 -0.949218,-0.3164063 -0.855469,0 -1.582032,0.7148438 -1.582032,1.6289063 0,0.3632812 0.128907,0.7265625 0.328125,0.984375 -0.292968,0.4101562 -0.292968,0.796875 -0.292968,0.84375 0,0.25781246 0.09375,0.55078121 0.257812,0.76171871 -0.515625,0.3046875 -0.632812,0.76171875 -0.632812,1.01953125 0,0.75000004 0.984375,1.34765624 2.203125,1.34765624 1.21875,0 2.203125,-0.5859375 2.203125,-1.34765624 0,-1.39453125 -1.664063,-1.39453125 -2.050782,-1.39453125 h -0.878906 c -0.128906,0 -0.574219,0 -0.574219,-0.52734371 0,-0.1054688 0.04687,-0.2695313 0.117188,-0.3515625 0.199219,0.140625 0.527344,0.28125 0.902344,0.28125 0.890625,0 1.59375,-0.7382813 1.59375,-1.6171875 0,-0.4804688 -0.222657,-0.84375 -0.328125,-0.9960938 z m -1.300781,2.0390625 c -0.375,0 -0.890625,-0.234375 -0.890625,-1.0546875 0,-0.8320313 0.515625,-1.0546875 0.890625,-1.0546875 0.421875,0 0.890625,0.2695312 0.890625,1.0546875 0,0.7734375 -0.46875,1.0546875 -0.890625,1.0546875 z m 0.445312,1.88671871 c 0.222656,0 1.347656,0 1.347656,0.6796875 0,0.44531249 -0.691406,0.77343749 -1.5,0.77343749 -0.808593,0 -1.523437,-0.3164062 -1.523437,-0.78515624 0,-0.0234375 0,-0.66796875 0.785156,-0.66796875 z m 5.753906,-4.31250001 c -0.527343,-0.234375 -0.925781,-0.3164062 -1.441406,-0.3164062 -0.246094,0 -1.652344,0 -1.652344,1.3007812 0,0.4921875 0.292969,0.8085938 0.539063,0.9960938 0.304687,0.2226562 0.527344,0.2695312 1.078125,0.375 0.351562,0.070312 0.9375,0.1875 0.9375,0.7148437 0,0.69140626 -0.785156,0.69140626 -0.9375,0.69140626 -0.808594,0 -1.371094,-0.375 -1.546875,-0.49218746 l -0.117188,0.67968746 c 0.316407,0.1640625 0.867188,0.43359375 1.675782,0.43359375 0.175781,0 0.726562,0 1.148437,-0.31640625 0.316406,-0.234375 0.480469,-0.6328125 0.480469,-1.06640626 0,-0.5507812 -0.363281,-0.8789062 -0.386719,-0.9140625 -0.386719,-0.3515625 -0.65625,-0.4101562 -1.160156,-0.5039062 -0.539063,-0.1054688 -1.007813,-0.1992188 -1.007813,-0.6914063 0,-0.6210937 0.726563,-0.6210937 0.855469,-0.6210937 0.316406,0 0.84375,0.046875 1.40625,0.3867187 z m 7.5,1.3125 c 0,-0.6679687 -0.164062,-1.5703125 -1.359375,-1.5703125 -0.597656,0 -1.125,0.28125 -1.488281,0.8203125 -0.257812,-0.7617187 -0.960937,-0.8203125 -1.277344,-0.8203125 -0.714843,0 -1.183593,0.4101563 -1.453125,0.7734375 V -4.4874297 H 46.02743 V 8.515625e-4 h 0.773437 V -2.4366484 c 0,-0.6796875 0.269531,-1.4882813 1.007813,-1.4882813 0.925781,0 0.972656,0.6445313 0.972656,1.03125 V 8.515625e-4 h 0.785156 V -2.4366484 c 0,-0.6796875 0.269531,-1.4882813 0.996094,-1.4882813 0.9375,0 0.984375,0.6445313 0.984375,1.03125 V 8.515625e-4 h 0.773437 z m 2.645508,-3.8085937 H 54.13388 v 0.8320312 h 0.832031 z m 1.933594,0 h -0.832031 v 0.8320312 H 56.8995 Z m 0.205078,3.890625 c 0,-1.0078125 -0.726562,-1.7109375 -1.640625,-1.7109375 -0.644531,0 -1.101562,0.1640625 -1.570312,0.4335937 l 0.07031,0.65625 c 0.515625,-0.375 1.007813,-0.5039062 1.5,-0.5039062 0.46875,0 0.867188,0.3984375 0.867188,1.1367187 v 0.4335938 c -1.5,0.011719 -2.765625,0.4335937 -2.765625,1.3125 0,0.42187496 0.269531,1.23046871 1.136718,1.23046871 0.140625,0 1.078125,-0.01171875 1.652344,-0.46875 V 8.515625e-4 h 0.75 z m -0.773437,1.5703125 c 0,0.1875 0,0.43359371 -0.339844,0.62109371 -0.292969,0.1875 -0.667969,0.1875 -0.773438,0.1875 -0.480468,0 -0.925781,-0.22265625 -0.925781,-0.64453121 0,-0.6914063 1.605469,-0.7617188 2.039063,-0.7851563 z m 5.926757,-1.6523438 c 0,-0.65625 -0.152343,-1.5703125 -1.371093,-1.5703125 -0.890625,0 -1.382813,0.6796875 -1.441407,0.7617188 V -4.4874297 H 58.730555 V 8.515625e-4 h 0.773437 V -2.4366484 c 0,-0.65625 0.246094,-1.4882813 1.007813,-1.4882813 0.960937,0 0.960937,0.703125 0.960937,1.03125 V 8.515625e-4 h 0.785156 z m 4.31543,-0.9257812 c 0.222656,0 0.503906,-0.046875 0.738281,-0.046875 0.175782,0 0.574219,0.035156 0.585938,0.035156 l -0.105469,-0.6328125 c -0.703125,0 -1.277344,0.1875 -1.570312,0.3164063 -0.210938,-0.1640625 -0.550782,-0.3164063 -0.949219,-0.3164063 -0.855469,0 -1.582031,0.7148438 -1.582031,1.6289063 0,0.3632812 0.128906,0.7265625 0.328125,0.984375 -0.292969,0.4101562 -0.292969,0.796875 -0.292969,0.84375 0,0.25781246 0.09375,0.55078121 0.257812,0.76171871 -0.515625,0.3046875 -0.632812,0.76171875 -0.632812,1.01953125 0,0.75000004 0.984375,1.34765624 2.203125,1.34765624 1.21875,0 2.203125,-0.5859375 2.203125,-1.34765624 0,-1.39453125 -1.664063,-1.39453125 -2.050781,-1.39453125 h -0.878907 c -0.128906,0 -0.574218,0 -0.574218,-0.52734371 0,-0.1054688 0.04687,-0.2695313 0.117187,-0.3515625 0.199219,0.140625 0.527344,0.28125 0.902344,0.28125 0.890625,0 1.59375,-0.7382813 1.59375,-1.6171875 0,-0.4804688 -0.222656,-0.84375 -0.328125,-0.9960938 z m -1.300781,2.0390625 c -0.375,0 -0.890625,-0.234375 -0.890625,-1.0546875 0,-0.8320313 0.515625,-1.0546875 0.890625,-1.0546875 0.421875,0 0.890625,0.2695312 0.890625,1.0546875 0,0.7734375 -0.46875,1.0546875 -0.890625,1.0546875 z m 0.445312,1.88671871 c 0.222657,0 1.347657,0 1.347657,0.6796875 0,0.44531249 -0.691407,0.77343749 -1.5,0.77343749 -0.808594,0 -1.523438,-0.3164062 -1.523438,-0.78515624 0,-0.0234375 0,-0.66796875 0.785156,-0.66796875 z m 6.65625,-6.94921871 h -0.75 v 2.9296875 c -0.527343,-0.4335938 -1.078125,-0.5507813 -1.453125,-0.5507813 -0.984375,0 -1.757812,1.0429688 -1.757812,2.3203125 0,1.31250001 0.761719,2.32031251 1.710937,2.32031251 0.328125,0 0.914063,-0.08203125 1.476563,-0.62109375 V 8.515625e-4 h 0.773437 z m -0.773437,5.53125 c 0,0.140625 -0.01172,0.3164062 -0.328125,0.60937496 -0.234375,0.19921875 -0.480469,0.26953125 -0.738281,0.26953125 -0.621094,0 -1.347657,-0.45703125 -1.347657,-1.69921871 0,-1.3125 0.855469,-1.7226563 1.441407,-1.7226563 0.445312,0 0.75,0.234375 0.972656,0.5507813 z m 0,0"
       style="fill:#b52b2b;fill-opacity:1;fill-rule:nonzero;stroke:none"
       aria-label="Valideringsm¨angd"
       transform="matrix(1.3333333,0,0,1.3333333,218.884,69.729333)" />
    <path
       id="path13"
       d="M 0,0 V 141.73404 H 226.77448 V 0 Z"
       style="fill:none;stroke:#808080;stroke-width:0.3985;stroke-linecap:butt;stroke-linejoin:miter;stroke-miterlimit:10;stroke-dasharray:none;stroke-opacity:1"
       transform="matrix(1.3333333,0,0,-1.3333333,108.94267,189.24267)" />
  </g>
</svg>
